<svg id="Group_44" data-name="Group 44" xmlns="http://www.w3.org/2000/svg" width="197.005" height="77.917" viewBox="0 0 197.005 77.917">
  <g id="Group_41" data-name="Group 41" transform="translate(83.142 15.044)">
    <g id="Group_40" data-name="Group 40">
      <path id="Path_55" data-name="Path 55" d="M249.8,56.92a8.662,8.662,0,0,1,8.887-8.62,8.958,8.958,0,0,1,6.49,2.663l-2.629,2.53a5.119,5.119,0,0,0-3.828-1.664,5.126,5.126,0,1,0,4.061,8.288l2.7,2.53a9.05,9.05,0,0,1-6.757,2.929A8.719,8.719,0,0,1,249.8,56.92Z" transform="translate(-249.8 -47.268)" fill="#db0955"/>
      <path id="Path_56" data-name="Path 56" d="M301.6,68.257a6.56,6.56,0,1,1,6.557,6.357A6.382,6.382,0,0,1,301.6,68.257Zm9.552,0a3,3,0,1,0-5.991,0,3,3,0,1,0,5.991,0Z" transform="translate(-284.359 -56.342)" fill="#db0955"/>
      <path id="Path_57" data-name="Path 57" d="M346,68.257a6.561,6.561,0,1,1,6.557,6.324A6.382,6.382,0,0,1,346,68.257Zm9.552,0a3,3,0,1,0-5.991,0,3,3,0,1,0,5.991,0Z" transform="translate(-313.981 -56.342)" fill="#db0955"/>
      <path id="Path_58" data-name="Path 58" d="M405.447,68.257a6.219,6.219,0,0,1-6.091,6.357,5.467,5.467,0,0,1-3.262-1.065v5.392H392.5V62.3h3.2v1a5.561,5.561,0,0,1,3.661-1.4A6.219,6.219,0,0,1,405.447,68.257Zm-3.561,0a3,3,0,1,0-3,3.1A2.978,2.978,0,0,0,401.886,68.257Z" transform="translate(-345.004 -56.342)" fill="#db0955"/>
      <path id="Path_59" data-name="Path 59" d="M444.747,52.895h-4.793V65.909h-3.761V52.895H431.4V49.4h13.38v3.495Z" transform="translate(-370.957 -48.002)" fill="#db0955"/>
      <path id="Path_60" data-name="Path 60" d="M484.948,69.455h-8.92a3.3,3.3,0,0,0,3.2,2.363,4.238,4.238,0,0,0,2.962-1.265l1.964,2.064a6.838,6.838,0,0,1-4.959,2.064,6.325,6.325,0,0,1-6.49-6.357,6.161,6.161,0,1,1,12.315.1C485.015,68.723,484.982,69.023,484.948,69.455Zm-8.887-2.5h5.592a2.936,2.936,0,0,0-2.8-2.13A2.906,2.906,0,0,0,476.062,66.959Z" transform="translate(-398.511 -56.408)" fill="#db0955"/>
      <path id="Path_61" data-name="Path 61" d="M515.1,68.257a6.382,6.382,0,0,1,6.557-6.357,6.565,6.565,0,0,1,5.026,2.263l-2.629,2.2a2.916,2.916,0,0,0-2.363-1.2,3.079,3.079,0,1,0,2.5,4.826l2.763,2.064a6.549,6.549,0,0,1-5.259,2.53A6.363,6.363,0,0,1,515.1,68.257Z" transform="translate(-426.799 -56.342)" fill="#db0955"/>
      <path id="Path_62" data-name="Path 62" d="M568.349,55.551v7.522h-3.595v-6.69a2.2,2.2,0,0,0-2.23-2.33,2.33,2.33,0,0,0-2.33,2.53v6.49H556.6V45.2h3.595v6.923a4.887,4.887,0,0,1,3.428-1.365A4.656,4.656,0,0,1,568.349,55.551Z" transform="translate(-454.486 -45.2)" fill="#db0955"/>
      <path id="Path_63" data-name="Path 63" d="M266.978,118.3v16.475h-3.794v-6.623h-7.123v6.623H252.3V118.3h3.761v6.39h7.123V118.3Z" transform="translate(-251.468 -93.97)" fill="#db0955"/>
      <path id="Path_64" data-name="Path 64" d="M317.816,131.9v11.949h-3.328v-1.231a4.98,4.98,0,0,1-3.661,1.6,4.656,4.656,0,0,1-4.726-4.793V131.9h3.595v6.723a2.2,2.2,0,0,0,2.23,2.33,2.33,2.33,0,0,0,2.33-2.53v-6.49h3.561Z" transform="translate(-287.361 -103.043)" fill="#db0955"/>
      <path id="Path_65" data-name="Path 65" d="M363.247,125.915a6.219,6.219,0,0,1-6.091,6.357,5.5,5.5,0,0,1-3.661-1.4v1h-3.2V114h3.561v6.657a5.542,5.542,0,0,1,3.262-1.065A6.217,6.217,0,0,1,363.247,125.915Zm-3.561,0a3,3,0,1,0-3,3.1A2.978,2.978,0,0,0,359.686,125.915Z" transform="translate(-316.85 -91.101)" fill="#db0955"/>
    </g>
  </g>
  <g id="Group_43" data-name="Group 43">
    <g id="Group_42" data-name="Group 42">
      <path id="Path_66" data-name="Path 66" d="M88.05,97.725A5.525,5.525,0,1,1,82.525,92.2a5.533,5.533,0,0,1,5.525,5.525" transform="translate(-51.372 -61.513)" fill="#db0955"/>
      <path id="Path_67" data-name="Path 67" d="M164.95,51.625a5.525,5.525,0,1,1-5.525-5.525,5.533,5.533,0,0,1,5.525,5.525" transform="translate(-102.677 -30.756)" fill="#db0955"/>
      <path id="Path_68" data-name="Path 68" d="M164.95,143.825a5.525,5.525,0,1,1-5.525-5.525,5.533,5.533,0,0,1,5.525,5.525" transform="translate(-102.677 -92.269)" fill="#db0955"/>
      <path id="Path_69" data-name="Path 69" d="M11.05,51.625A5.525,5.525,0,1,1,5.525,46.1a5.533,5.533,0,0,1,5.525,5.525" transform="translate(0 -30.756)" fill="#db0955"/>
      <path id="Path_70" data-name="Path 70" d="M11.05,143.825A5.525,5.525,0,1,1,5.525,138.3a5.533,5.533,0,0,1,5.525,5.525" transform="translate(0 -92.269)" fill="#db0955"/>
      <path id="Path_71" data-name="Path 71" d="M88.05,189.925a5.525,5.525,0,1,1-5.525-5.525,5.533,5.533,0,0,1,5.525,5.525" transform="translate(-51.372 -123.025)" fill="#db0955"/>
      <path id="Path_72" data-name="Path 72" d="M88.05,5.525A5.525,5.525,0,1,1,82.525,0,5.533,5.533,0,0,1,88.05,5.525" transform="translate(-51.372)" fill="#db0955"/>
      <path id="Path_73" data-name="Path 73" d="M88.05,223.025a5.525,5.525,0,0,0-11.05,0Z" transform="translate(-51.372 -145.108)" fill="#db0955"/>
    </g>
  </g>
</svg>
