<?xml version="1.0" encoding="UTF-8"?>
<svg width="600px" height="500px" viewBox="0 0 600 500" version="1.1" xmlns="http://www.w3.org/2000/svg" xmlns:xlink="http://www.w3.org/1999/xlink">
    <title>cooperatives</title>
    <g id="cooperatives" stroke="none" stroke-width="1" fill="none" fill-rule="evenodd">
        <g id="Group-6" transform="translate(76.000000, 47.040449)">
            <g id="Group-4" transform="translate(117.000000, 96.959551)">
                <g id="continents" transform="translate(0.000000, 0.000000)">
                    <g id="Layer_1">
                        <rect id="Rectangle" x="0" y="0" width="202" height="202"></rect>
                    </g>
                    <g id="Layer_2" transform="translate(5.459459, 4.549550)" stroke="#231F20" stroke-linecap="round" stroke-linejoin="round" stroke-width="2">
                        <g id="Group_430">
                            <circle id="Ellipse_169" cx="95.9954955" cy="95.9954955" r="95.9954955"></circle>
                            <path d="M32.8085871,23.4925685 C32.8085871,23.4925685 46.3775706,31.7959764 46.3775706,39.8968621 C46.3775706,47.9977477 37.6691185,51.8456685 37.6691185,51.8456685 L27.5430114,70.8827498 L17.6194264,77.5659805 C17.6194264,77.5659805 23.2900464,85.8693884 24.1001349,87.4895655 C26.7329228,92.7551412 8.1008857,93.1601855 8.50592998,90.9324419 C9.72106283,85.0592998 1.417655,78.5785912 1.417655,78.5785912" id="Path_1169"></path>
                            <path d="M0.607566427,107.539258 C0.607566427,107.539258 13.9740278,99.6408941 18.2269928,101.463593 C22.4799578,103.286293 35.4413749,114.019966 35.4413749,114.019966 C35.4413749,114.019966 46.3775706,113.614922 49.0103585,117.057798 C51.6431463,120.500675 50.6305356,127.183905 50.6305356,127.183905 C50.6305356,127.183905 54.6809784,135.487313 53.0608013,139.132712 C51.4406242,142.77811 43.1372163,146.018465 42.5296499,147.233598 C41.9220835,148.44873 39.0867735,173.358954 39.0867735,173.358954" id="Path_1170"></path>
                            <path d="M69.2625727,61.5667313 C66.832307,61.7692534 62.579342,70.2751834 62.579342,70.2751834 C62.579342,70.2751834 48.6053142,84.6542555 55.0860227,97.2106283 C61.5667313,109.767001 79.7937241,104.90647 79.7937241,104.90647 C82.426512,105.91908 84.8567777,107.134213 87.0845212,108.75439 C89.9198312,110.982134 86.4769548,112.197267 87.0845212,115.235099 C88.0971319,118.272931 89.7173091,120.905719 91.7425305,123.335985 L89.3122648,135.082269 C89.3122648,135.082269 96.4005398,159.78997 101.463593,161.207625 C107.539258,161.410147 111.994745,154.726917 111.994745,154.726917 L115.437621,146.828553 L120.09563,138.120101 C122.323374,135.487313 124.348595,132.652003 125.76625,129.411649 C126.373817,125.76625 125.76625,121.91833 124.146073,118.475453 C122.525896,114.627533 139.132712,104.298903 139.132712,101.058549 C139.132712,97.8181948 134.27218,97.4131505 129.614171,96.6030619 C124.956162,95.7929734 115.640143,73.3130155 115.640143,73.3130155 C112.197267,70.0726613 107.944302,68.0474398 103.488815,67.0348291 C100.856027,66.4272627 98.2232391,67.6423956 97.2106283,70.2751834 L89.1097427,66.0222184 C89.1097427,66.0222184 91.5400084,63.5919527 87.6920877,61.3642091 C83.0340784,58.9339434 70.6802277,61.3642091 69.2625727,61.5667313 Z" id="Path_1171"></path>
                            <path d="M148.651253,122.93094 C149.866385,125.563728 150.473952,128.399038 150.068908,131.234348 C150.068908,133.462092 145.208376,149.663863 145.208376,149.663863 C145.208376,149.663863 141.157933,153.916828 138.93019,153.916828 C136.702446,153.916828 134.474703,147.233598 134.474703,147.233598 C135.284791,144.60081 136.297402,142.170544 137.512535,139.740278 C138.93019,137.10749 135.892358,135.892358 136.702446,133.462092 C137.715057,131.031826 140.145323,129.411649 142.77811,129.816693 C145.208376,130.221738 147.031075,120.703197 148.651253,122.93094 Z" id="Path_1172"></path>
                            <path d="M104.501425,0.202522142 L90.5273977,17.4169042 C90.5273977,17.4169042 68.4524841,26.5304007 65.2121299,27.7455335 C61.9717756,28.9606664 56.7061999,38.4792071 58.7314213,43.5422606 C61.5667313,49.2128806 64.6045634,54.8835006 68.249962,60.1490763 C68.249962,60.1490763 73.5155377,45.1624378 84.8567777,46.985137 C101.463593,48.2002699 112.197267,51.8456685 115.437621,51.8456685 C118.677975,51.8456685 125.563728,58.326377 127.791472,59.744032 C130.019215,61.161687 125.563728,61.161687 125.968773,64.6045634 C126.373817,68.0474398 132.652003,81.008857 136.904968,83.4391227 C141.157933,85.8693884 155.94205,72.0978827 155.94205,72.0978827 C154.524395,70.2751834 153.916828,67.8449177 154.321873,65.6171741 C155.334483,61.9717756 161.410147,66.2247406 161.410147,66.2247406 C161.410147,66.2247406 167.688334,73.1104934 170.321122,73.1104934 C172.95391,73.1104934 176.194264,89.7173091 176.194264,89.7173091 L180.042185,79.9962462 L189.358203,70.6802277" id="Path_1173"></path>
                        </g>
                    </g>
                </g>
            </g>
            <g id="Group-3" transform="translate(318.977363, 42.012881) rotate(23.000000) translate(-318.977363, -42.012881) translate(286.977363, 9.954946)" fill-rule="nonzero">
                <path d="M60.45082,45.0125827 C61.4630513,44.8655334 62.3317024,44.2247989 62.760606,43.3088381 C63.1895096,42.3928774 63.1207563,41.3253608 62.5777877,40.4702589 C58.759466,28.1200486 54.2863122,15.9759879 49.1767891,4.08820151 C48.8641952,3.09883825 48.2481383,2.22940836 47.4134998,1.59970355 C46.0689917,0.784693308 44.3277436,1.36063388 42.8620093,1.93657446 L3.93739826,17.4435028 C2.73220367,17.8064306 1.65013724,18.486436 0.807559768,19.4103941 C-0.470824967,21.0947487 0.0912234942,23.4745786 0.74143642,25.4740704 C4.76602635,37.8333849 10.0613775,49.7546545 16.5449167,61.0519844 C16.8761475,62.0194154 17.6622053,62.7686431 18.6539966,63.0622452 C19.6457879,63.3558474 20.7203738,63.15743 21.5372295,62.5298696 C34.8721047,57.3572712 47.1930887,50.1851811 60.45082,45.0125827 Z" id="Path" fill="#FFFFFF"></path>
                <path d="M21.9279606,63.4409465 C35.2628359,58.2684526 47.5838198,51.0965072 60.8415511,45.9240133 C61.8537825,45.776967 62.7224335,45.1362454 63.1513371,44.2203032 C63.5802407,43.3043609 63.5114874,42.2368659 62.9685188,41.3817813 C59.1501781,29.0353828 54.677021,16.8951857 49.5675202,5.01132521 C49.2549263,4.02198193 48.6388694,3.1525696 47.8042309,2.52287752 C46.4597229,1.70788373 44.7184747,2.27294609 43.2527405,2.85974161 L4.32812939,18.3663567 C3.12370271,18.7252188 2.04150798,19.4015338 1.1982909,20.3223418 C-0.0800938386,22.0175289 0.481954623,24.3864442 1.13216755,26.3967622 C5.15675748,38.7558271 10.4521087,50.676856 16.9356478,61.9739576 C17.2652178,62.9429204 18.0523591,63.6931489 19.0456731,63.9850338 C20.038987,64.2769186 21.1142195,64.0739478 21.9279606,63.4409465 L21.9279606,63.4409465 Z" id="Path" fill="#CCCCCC"></path>
                <path d="M22.18082,63.5147468 C28.8683837,60.8483376 35.3462712,57.706179 41.8131233,54.5418925 C44.8699799,53.0482608 47.915801,51.5435652 50.9947288,50.1163171 C54.5371512,48.4567263 58.3113208,47.1733094 61.7875296,45.4141431 C63.1782991,44.9238356 64.078126,43.5706271 63.9946464,42.0949616 C63.8240072,40.8062737 63.4864126,39.5454098 62.9904082,38.3442863 C62.3503444,36.3195856 61.699245,34.2838209 61.0371099,32.2591201 C58.6534239,25.0159282 56.0563832,17.83912 53.2459879,10.7286955 C52.1424295,7.9073911 51.1823338,4.32267497 49.4497471,1.78903302 C48.4197581,0.249643591 46.4767127,-0.389057373 44.7375529,0.24008161 C41.4268778,1.03668519 38.3148432,2.75159569 35.2028087,4.01288469 L24.167225,8.43846016 C17.2810208,11.2265727 10.1409982,13.704895 3.40929221,16.8581175 C-2.05332168,19.4138873 0.319328796,24.7245779 1.8643105,29.2497288 C4.42602044,36.6648115 7.43320144,43.9175858 10.8693467,50.9682404 C12.5688266,54.464445 14.3455556,57.9385217 16.2767827,61.313023 C17.7665865,63.9241125 19.2343191,64.565821 22.1477132,63.5258107 C22.8098482,63.2824041 22.5229231,62.209202 21.8497525,62.4194169 C20.2687269,62.6676708 18.6580776,62.2155303 17.435519,61.1802557 C17.0417525,60.6278102 16.7087479,60.0342811 16.4423165,59.4100255 C15.791217,58.2151202 15.1511532,57.0312787 14.5221249,55.8253094 C13.1095702,53.1257084 11.7595505,50.3966035 10.4720657,47.6379948 C7.99273795,42.3125523 5.75987153,36.8801585 3.77346647,31.3408132 C2.82617721,28.9065665 2.00477395,26.4249465 1.31253132,23.9058464 C0.0655103729,18.7721789 4.1597119,17.7211047 7.9338815,16.1610893 L24.432079,9.52272614 L41.4158422,2.6409563 C42.5657437,2.01612046 43.7998131,1.5614719 45.079656,1.29115578 L46.8122426,1.8111609 C47.7292203,1.59053889 48.6572765,2.13126624 48.9200391,3.03925809 C49.3687443,3.85375243 49.7382975,4.70961366 50.0235975,5.59502792 C51.1933693,8.36838854 52.3189989,11.167565 53.4004861,13.9925574 C55.5193181,19.4581431 57.5057232,24.9679845 59.3597012,30.5220817 C60.2535835,33.2216827 61.1364302,35.9212838 61.9751345,38.6319488 C62.6041628,40.6234577 63.6194365,42.8141176 61.4454265,44.3409411 C60.3156993,44.9498312 59.1292345,45.4463882 57.9030042,45.8235089 C45.7638622,50.9682404 34.1985705,57.5512839 21.9049304,62.4194169 C21.2317598,62.7070793 21.518685,63.7802813 22.18082,63.5147468 L22.18082,63.5147468 Z" id="Path" fill="#000000"></path>
                <path d="M22.473786,25.9254829 C25.3556246,24.3937311 28.2267898,22.8619793 31.1619958,21.4286972 C32.6135886,20.7284678 34.0758549,20.0501206 35.5487946,19.4155377 C37.9183063,18.3980168 38.0357146,18.9122478 39.1671031,21.0785825 C40.7816301,23.9817501 42.0263448,27.0851466 42.8707994,30.3128578 C43.0522485,31.0896748 44.0769022,34.6892916 43.4258202,35.6083427 L40.5439815,36.035045 L41.1630432,34.733056 C41.8517734,33.6461218 42.7355261,32.703084 43.7673714,31.9540205 C44.3117187,31.5273182 43.7673714,30.5863849 43.2336976,31.0021462 C41.5152679,32.3260174 38.8042049,34.8862312 39.4659604,37.4245628 C39.6656398,38.32065 40.3540655,39.0167659 41.2308802,39.2091979 C42.1076948,39.40163 43.0138141,39.0554643 43.5539019,38.3217317 C45.4324337,36.1335148 44.40778,31.9868438 43.7780449,29.5688641 C42.5075,25.340101 40.7140065,21.2954881 38.4413067,17.5336711 C38.3224896,17.3185683 38.0755997,17.2146247 37.843592,17.2820262 C32.3880525,19.5163729 27.0636983,22.0735975 21.8974183,24.9407853 C21.2890301,25.2690179 21.822704,26.2099511 22.4310921,25.8817186 L22.473786,25.9254829 Z" id="Path" fill="#000000"></path>
                <path d="M20.159468,26.0319431 C22.6580316,29.371165 24.656981,33.026907 26.0985741,36.8935685 C26.6878628,38.4941128 27.7855575,40.8452574 27.7046748,42.5561841 C28.2361901,43.9911549 27.2887062,44.6976021 24.8968872,44.6755256 C24.7200567,43.9450259 24.7519826,43.1825516 24.9893247,42.4678782 C25.3846586,41.0916228 26.3536469,39.9305344 27.6700107,39.2557512 C27.9096098,39.0892896 27.9785713,38.776667 27.8296643,38.5319944 C27.6807573,38.2873218 27.362247,38.1899048 27.0922767,38.3064628 C24.5969036,39.5903265 23.2562843,42.2677468 23.7760832,44.9294051 C24.2960438,46.9162878 26.3643318,48.1525704 28.0513152,46.4085289 C30.2929233,44.1015373 28.2477448,39.4434012 27.3811437,36.9929126 C25.896605,32.8907886 23.8030971,29.0135868 21.1647252,25.4800312 C20.737202,24.9060429 19.7434995,25.4800312 20.1710227,26.0319431 L20.159468,26.0319431 Z" id="Path" fill="#000000"></path>
                <path d="M26.6367976,32.9539978 C31.5432592,30.244371 36.4950809,27.6455926 41.4922629,25.1576625 C42.1499858,24.8251174 41.5829833,23.7658997 40.9252604,24.0861283 C35.9280784,26.5494254 30.9762567,29.1523093 26.0697951,31.8947801 C25.4234123,32.2519581 25.9904147,33.3111759 26.6367976,32.9539978 Z" id="Path" fill="#000000"></path>
            </g>
            <g id="Group-2" transform="translate(0.000000, 117.959551)">
                <polygon id="Path" fill="#ECECEC" fill-rule="nonzero" points="32 3 0 21.3360705 0 58 64 58 64 21.3360705"></polygon>
                <polygon id="Path" fill="#CCCCCC" fill-rule="nonzero" points="32 8 0 26.4355005 0 32 32 13.5644995 64 32 64 26.4355005"></polygon>
                <polygon id="Path" stroke="#000000" fill="#000000" fill-rule="nonzero" points="32 2 0 20.4355005 0 26 32 7.56449948 64 26 64 20.4355005"></polygon>
                <polygon id="Path" stroke="#000000" points="19 9.87250996 19 0 4 0 4 18"></polygon>
                <polygon id="Path" fill="#CCCCCC" fill-rule="nonzero" points="25 33 40 33 40 58 25 58"></polygon>
                <g id="Group" transform="translate(8.000000, 35.000000)" stroke="#000000" stroke-width="0.25">
                    <polygon id="Path" points="0.0326049254 0 8.75442248 0 8.75442248 8.92493049 0.0326049254 8.92493049"></polygon>
                    <line x1="4.3935137" y1="0" x2="4.3935137" y2="9" id="Path"></line>
                    <line x1="8.7870274" y1="4.50417053" x2="0" y2="4.50417053" id="Path"></line>
                    <polygon id="Path" points="38.2455775 0 46.9673951 0 46.9673951 8.92493049 38.2455775 8.92493049"></polygon>
                    <line x1="42.6064863" y1="0" x2="42.6064863" y2="9" id="Path"></line>
                    <line x1="47" y1="4.50417053" x2="38.2129726" y2="4.50417053" id="Path"></line>
                </g>
                <path d="M4.07680097,5.625 L17.923199,5.625 C17.968658,5.60905676 18,5.55804499 18,5.5 C18,5.44195501 17.968658,5.39094324 17.923199,5.375 L4.07680097,5.375 C4.03134203,5.39094324 4,5.44195501 4,5.5 C4,5.55804499 4.03134203,5.60905676 4.07680097,5.625 L4.07680097,5.625 Z" id="Path" fill="#000000" fill-rule="nonzero"></path>
                <path d="M4.07680097,9.625 L17.923199,9.625 C17.968658,9.60905676 18,9.55804499 18,9.5 C18,9.44195501 17.968658,9.39094324 17.923199,9.375 L4.07680097,9.375 C4.03134203,9.39094324 4,9.44195501 4,9.5 C4,9.55804499 4.03134203,9.60905676 4.07680097,9.625 L4.07680097,9.625 Z" id="Path" fill="#000000" fill-rule="nonzero"></path>
                <path d="M4.07680097,14.625 L17.923199,14.625 C17.968658,14.6090568 18,14.558045 18,14.5 C18,14.441955 17.968658,14.3909432 17.923199,14.375 L4.07680097,14.375 C4.03134203,14.3909432 4,14.441955 4,14.5 C4,14.558045 4.03134203,14.6090568 4.07680097,14.625 L4.07680097,14.625 Z" id="Path" fill="#000000" fill-rule="nonzero"></path>
                <polygon id="Path" stroke="#000000" points="32 3 0 21.3360705 0 58 64 58 64 21.3360705"></polygon>
            </g>
            <g id="Group-5" transform="translate(100.000000, 5.959551)">
                <circle id="Oval" fill="#CCCCCC" fill-rule="nonzero" cx="32" cy="32" r="32"></circle>
                <circle id="Oval" fill="#E9E9E9" fill-rule="nonzero" cx="32.5" cy="32.5" r="28.5"></circle>
                <circle id="Oval" stroke="#000000" cx="32" cy="32" r="32"></circle>
                <path d="M37.5264465,34.1518659 L46.8844023,18.3053809 C47.0802736,17.9639591 47.0230059,17.5336421 46.7446574,17.2553192 C46.4663089,16.9769962 46.0359524,16.9197338 45.6944992,17.115587 L29.8465591,26.4770419 C28.4561477,27.2964125 27.2967922,28.4556616 26.4773463,29.8459453 L17.1193905,45.6880721 C16.9194407,46.0296975 16.974809,46.4631486 17.2542157,46.743553 C17.5336225,47.0239575 17.966908,47.0809051 18.3092935,46.8822242 L34.1528751,37.5425604 C35.5457949,36.7154274 36.7064285,35.5489029 37.5264465,34.1518659 L37.5264465,34.1518659 Z" id="Path" fill="#000000" fill-rule="nonzero"></path>
                <circle id="Oval" fill="#CCCCCC" fill-rule="nonzero" cx="32" cy="32" r="2"></circle>
            </g>
            <g id="Group-4" transform="translate(164.000000, 346.959551)" fill-rule="nonzero">
                <polygon id="Path" fill="#000000" points="2.21686276e-14 0 58 0 58 58 0 58"></polygon>
                <g id="Group" transform="translate(15.000000, 13.000000)" fill="#FFFFFF">
                    <path d="M6.6232902,5.95360659 C4.36827805,8.84108969 2.21163891,11.8087807 0.153372786,14.8566795 C-0.105670856,15.3278422 -0.0309532675,15.9251174 0.334984503,16.3084418 C2.49412134,18.384437 4.49317696,20.6401202 6.31303685,23.0539232 C7.27406552,24.224958 8.8707352,22.5165305 7.91727369,21.3535165 C6.10143974,18.9360179 4.10208942,16.6800022 1.93922134,14.6080351 L2.1132659,16.0678182 C4.05550232,13.1910295 6.09358936,10.3864279 8.22752704,7.65401331 C9.15071993,6.46693692 7.55405025,4.75850942 6.6232902,5.95360659 L6.6232902,5.95360659 Z" id="Path"></path>
                    <path d="M24.3758355,23.0539232 C26.6308477,20.1664401 28.7874868,17.1987491 30.845753,14.1508503 C31.1059943,13.6772145 31.0313224,13.0770061 30.6641412,12.6910672 C28.5031783,10.6199322 26.5039632,8.36675134 24.6860889,5.95360659 C23.7250602,4.78257178 22.1283905,6.49099928 23.0818521,7.65401331 C24.8977762,10.0689494 26.8971351,12.3222923 29.0599044,14.3914739 L28.8858598,12.9397115 C26.9385787,15.8218475 24.9004916,18.6264491 22.7715987,21.3535165 C21.8484058,22.5325721 23.4450755,24.2490204 24.3758355,23.0539232 L24.3758355,23.0539232 Z" id="Path"></path>
                    <path d="M20.4863179,0.266869033 L9.77879379,28.5240995 C9.59718207,28.9973259 10.3311961,29.2058664 10.5355093,28.73264 L21.2506006,0.483430265 C21.4322123,0.00218308151 20.6981983,-0.206357365 20.4938851,0.266869033 L20.4863179,0.266869033 Z" id="Path"></path>
                </g>
            </g>
            <g id="Group-9" transform="translate(319.000000, 307.959551)">
                <path d="M0.00968913098,7.13486494 C10.5067474,11.06909 22.1731584,10.2093155 31.9962053,4.77756829 C41.827961,-0.653860104 53.5059463,-1.49686579 64,2.4672913 L63.9882149,39.862761 C53.4925781,35.9278888 41.8269644,36.7886932 32.0064014,42.2226956 C22.1731988,47.6515313 10.4962211,48.4961318 0,44.5377315 L0.00968913098,7.13486494 Z" id="Path" fill="#E9E9E9" fill-rule="nonzero"></path>
                <path d="M28.3798724,30.932907 C32.4849536,33.2083906 37.6574233,31.7252088 39.932907,27.6201276 C42.2083906,23.5150464 40.7252088,18.3425767 36.6201276,16.067093 C32.5150464,13.7916094 27.3425767,15.2747912 25.067093,19.3798724 C22.7916094,23.4849536 24.2747912,28.6574233 28.3798724,30.932907 Z" id="Oval" fill="#FFFFFF" fill-rule="nonzero"></path>
                <path d="M5.28819776,18.6861491 C6.49557457,19.355409 8.01688922,18.9191791 8.68614911,17.7118022 C9.35540901,16.5044254 8.91917906,14.9831108 7.71180224,14.3138509 C6.50442543,13.644591 4.98311078,14.0808209 4.31385089,15.2881978 C3.64459099,16.4955746 4.08082094,18.0168892 5.28819776,18.6861491 Z" id="Oval" fill="#CCCCCC" fill-rule="nonzero"></path>
                <path d="M57.2881978,32.6861491 C58.4955746,33.355409 60.0168892,32.9191791 60.6861491,31.7118022 C61.355409,30.5044254 60.9191791,28.9831108 59.7118022,28.3138509 C58.5044254,27.644591 56.9831108,28.0808209 56.3138509,29.2881978 C55.644591,30.4955746 56.0808209,32.0168892 57.2881978,32.6861491 Z" id="Oval" fill="#CCCCCC" fill-rule="nonzero"></path>
                <path d="M0.00968913098,7.13486494 C10.5067474,11.06909 22.1731584,10.2093155 31.9962053,4.77756829 C41.827961,-0.653860104 53.5059463,-1.49686579 64,2.4672913 L63.9882149,39.862761 C53.4925781,35.9278888 41.8269644,36.7886932 32.0064014,42.2226956 C22.1731988,47.6515313 10.4962211,48.4961318 0,44.5377315 L0.00968913098,7.13486494 Z" id="Path" stroke="#000000"></path>
            </g>
            <g id="Group-2" transform="translate(52.769797, 284.419230) rotate(-17.000000) translate(-52.769797, -284.419230) translate(17.269071, 248.068790)" fill-rule="nonzero">
                <path d="M3.26363145,58.4413301 C18.054273,63.904445 33.4618679,66.8408692 48.187567,72.2356951 C49.1097189,72.7119962 50.1631468,72.8270044 51.1586838,72.5600676 C52.1708194,71.9740395 52.9231133,70.9928803 53.2530776,69.8285102 C59.0366679,56.0463983 64.1414106,41.9602215 68.5470232,27.6259479 C68.9957358,26.5107351 69.1145471,25.2792461 68.887971,24.0919955 C68.3521959,22.3847721 66.5013362,21.5653049 64.8777751,20.9848489 L21.3825733,5.38082713 C20.1247889,4.7929354 18.7374171,4.58030756 17.3723774,4.76622671 C15.0831562,5.29546596 13.8330142,7.82215658 12.9075844,10.0756915 C7.27768523,24.0199186 3.01805206,38.5327658 0.195100974,53.3879489 C-0.0650336581,54.2895589 -0.0650336581,55.2520408 0.195100974,56.1536508 C0.862196513,57.3401968 1.97804092,58.1720915 3.26363145,58.4413301 L3.26363145,58.4413301 Z" id="Path" fill="#E9E9E9"></path>
                <path d="M4.84263979,56.3785995 C12.9040851,59.3689454 21.1267593,61.6986334 29.3494335,64.0457072 C33.2028043,65.1410083 37.0722981,66.2536952 40.8934232,67.5228536 C44.1180013,68.5486118 48.2132155,71 51.5345309,71 C53.1569818,70.9388192 54.5840822,69.8258796 55.1460584,68.1835114 C56.8399602,64.4922923 58.3417189,60.7021179 59.6443449,56.8306285 C62.868923,48.1377625 65.9967638,39.4448966 68.769901,30.7520306 C70.38219,25.6406255 73.4132935,19.8685625 67.5445613,17.1042311 C60.0635401,13.6270847 51.8408659,11.2973967 44.1180013,8.41136515 L32.2031851,4.04754645 C28.5916576,2.70884509 24.3513374,0.292228357 20.5140894,0.0140566463 C15.3386416,-0.351043724 13.6779838,6.48154891 12.1624321,10.5498102 C8.69069696,19.9345305 5.80365867,29.5586351 3.52056276,39.3579679 C2.61768089,43.182829 0.908654483,47.9291338 1.00539183,51.9104664 C1.00539183,54.5530976 2.7627869,55.5962415 4.84263979,56.4655281 C5.81001322,56.8654 6.22920838,55.178984 5.26183494,54.7269549 C0.618442452,52.8145244 4.26221573,43.2002147 5.06836026,39.7752255 C6.03573369,35.6374213 7.09984447,31.5517743 8.29293837,27.4835131 C9.48603228,23.4152518 10.7436177,19.4165334 12.1301863,15.4352008 C13.3716489,11.9580545 14.4518826,6.74233489 16.7574559,3.82153193 C20.2400003,-0.490129579 27.946742,4.25617523 31.8001129,5.66441951 L43.714929,10.045624 L55.6136223,14.4268284 C59.1445353,15.7133726 63.755682,16.5652734 66.8996457,18.6515612 C71.3818093,21.6071357 67.9960022,27.6573704 66.706171,31.7604031 C65.4163397,35.8634358 63.9975254,40.0186258 62.5625881,44.1216585 C61.1276508,48.2246912 59.628222,52.2929525 58.0804245,56.2916708 C56.8712077,59.4384883 54.8558464,68.9310979 50.8573695,69.0701838 C49.2450805,69.0701838 47.0684902,67.6967109 45.6174301,67.2099104 C43.714929,66.5492526 41.796305,65.9233663 39.877681,65.3322514 C36.0404331,64.1326359 32.1709393,63.0373348 28.3175685,61.9420337 C20.5624581,59.7340457 12.8234706,57.508672 5.24571205,54.6747977 C4.29446151,54.3270831 3.85914346,56.0134991 4.84263979,56.3785995 L4.84263979,56.3785995 Z" id="Path" fill="#000000"></path>
                <path d="M4.90326716,39.542911 C11.3581939,37.1971744 17.9260818,34.2350399 24.6069309,32.5570678 C28.4476123,31.5982266 32.5142161,31.5126158 35.4512078,34.765827 C37.7265694,37.2827852 38.6786711,40.792829 39.7760086,44.0117959 C40.7281103,46.9568082 41.8254479,50.6038292 45.2142844,51.0832498 C46.931745,51.1087307 48.6173341,50.5900775 50.0554794,49.5936215 C51.1561816,48.858192 52.3306951,48.2551953 53.5572771,47.7957943 C55.0768983,47.3795321 56.6915941,47.8172757 57.8367679,48.9559632 C58.9819417,50.0946506 59.4983172,51.7759079 59.205338,53.4118642 C59.0923768,54.5076827 60.7061085,54.5076827 60.8190697,53.4118642 C61.0701159,51.4171492 60.4554615,49.409209 59.1476488,47.951701 C57.8398361,46.494193 55.9798476,45.7442369 54.0898086,45.9123562 C53.031918,46.1275526 52.0132001,46.5206033 51.0721304,47.0766633 C48.6192582,48.3265814 47.5219207,49.6278659 44.7624395,48.3608257 C42.0029584,47.0937855 41.9545464,45.7068902 41.0831313,42.984466 C40.6151491,41.5462042 40.1633042,40.1250645 39.5823608,38.7381692 C37.3231365,33.3446874 33.4501805,29.7832772 27.6246091,30.2798199 C24.0971751,30.8009204 20.6443079,31.7843967 17.3451384,33.2077101 L4.43528498,37.882061 C3.45090866,38.2416264 3.87047889,39.9024764 4.85485521,39.5942774 L4.90326716,39.542911 Z" id="Path" fill="#000000"></path>
                <path d="M50.6651609,32.8571889 C47.6024696,29.3613035 53.5160704,24.5719405 56.5950527,27.8056345 C57.8040747,29.0662826 57.976921,31.0840482 57.0023255,32.5600387 C56.0411617,34.0632694 52.9133067,34.9547202 51.4959974,33.6262837 C50.7140337,32.8746684 49.5573789,34.1157077 50.3393427,34.8498436 C52.6716573,36.5509925 55.7915345,36.2895833 57.8494529,34.2205842 C59.7575283,32.0663831 59.7068172,28.6695994 57.7354165,26.5820746 C53.1902522,21.7053144 45.0285055,28.9592767 49.5899608,34.0982283 C50.3067609,34.9197613 51.4471247,33.678722 50.7303246,32.8571889 L50.6651609,32.8571889 Z" id="Path" fill="#000000"></path>
                <path d="M20.2181441,19.538411 L27.4656781,21.538699 C27.9049908,21.6652178 28.3561719,21.3839307 28.4773476,20.9079776 L31.4128476,21.9531731 C31.4128476,22.9443068 32.5074408,23.0524305 32.955229,22.4036884 L33.7512968,23.2326366 C33.6684784,23.5824426 33.7859136,23.9521811 34.0496626,24.1720262 C34.3134117,24.3918713 34.672496,24.4193303 34.9619832,24.2417909 C35.3268477,24.0435642 38.8759833,26.4763469 39.6057121,26.6745737 C40.6339664,26.9448828 41.0817545,25.214904 40.0369155,24.8725124 C37.7316358,24.2598116 36.5209494,21.2683898 34.1327459,22.6199358 L35.3434324,23.6290901 C35.7746358,20.8358951 33.3035087,18.9076896 31.5289408,21.4305754 L33.0713222,21.8810907 C33.2537544,17.3939581 28.2783306,15.9703297 26.8852119,20.3673592 L27.9134662,19.7366378 L20.7156864,17.8084322 C20.2577113,17.6740734 19.7862084,17.9685592 19.6625552,18.4661846 C19.5389019,18.96381 19.8099232,19.4761346 20.2678983,19.6104935 L20.2181441,19.538411 Z" id="Path" fill="#000000"></path>
            </g>
            <g id="Group-2" transform="translate(404.572525, 168.141125) rotate(92.000000) translate(-404.572525, -168.141125) translate(331.921081, 126.976225)" fill-rule="nonzero">
                <g id="Group" transform="translate(75.587896, 0.000000)" fill="#000000" stroke="#000000">
                    <path d="M45.4426,79.4486 C59.4519205,72.5184669 68.6984451,58.6393401 69.6976,43.0416 C69.8933778,39.9500253 68.4253736,36.9887466 65.8463215,35.2727473 C63.2672695,33.5567479 59.9687788,33.3465891 57.1928,34.7214 C43.1887967,41.6508595 33.9462403,55.5259019 32.9476,71.1186 C32.7500573,74.209088 34.2153325,77.1704248 36.7920216,78.8882176 C39.3687108,80.6060103 42.6658198,80.8195963 45.4426,79.4486 L45.4426,79.4486 Z" id="Path"></path>
                    <polygon id="Path" stroke-width="0.999999996" transform="translate(42.275821, 51.094207) rotate(-56.330000) translate(-42.275821, -51.094207) " points="16.0706213 40.2113068 68.4810211 40.2113068 68.4810211 61.9771067 16.0706213 61.9771067"></polygon>
                    <polygon id="Path" points="0 82.3298 51.1854 56.9968 54.8408 0 3.6554 25.333"></polygon>
                </g>
                <path d="M8.12469635,40.7484 C15.0630963,44.3548 23.5400964,47.3732 31.3408964,44.8252 C37.7794964,42.7084 41.2094964,36.5344 46.4426964,32.683 C48.9693602,30.7074841 52.1170397,29.6964744 55.3214964,29.8312 C58.4182964,30.0174 61.5346964,31.4286 63.0144964,34.2706 C64.8960964,37.8868 63.7200964,42.1106 63.9944964,46.0306 C64.2002964,49.245 65.3076964,52.8416 68.5220964,54.2038 C72.3734964,55.8404 76.3620964,53.6942 79.4000964,51.3912 C83.1338964,48.559 86.7794964,45.5994 90.4642964,42.6986 L93.2376964,40.5132 C93.7374964,40.1212 93.0416964,39.4352 92.5516964,39.8174 L81.4286964,48.5688 C78.3122964,51.0286 74.7156964,54.3312 70.4036964,53.7236 C66.5522964,53.1748 65.1704964,49.3626 64.9744964,45.9424 C64.7490964,42.1596 65.7290964,38.2004 64.2394964,34.5646 C61.7698964,28.518 53.8416964,27.7046 48.5594964,30.2624 C42.6794964,33.124 39.5042964,39.2784 33.9770964,42.5712 C26.9896964,46.7362 18.1500963,44.4038 11.2704963,41.2286 C10.3786963,40.817 9.49669635,40.376 8.62449635,39.9252 C8.06589635,39.6312 7.57589635,40.474 8.13449635,40.768 L8.12469635,40.7484 Z" id="Path" fill="#000000"></path>
                <path d="M7.81109635,41.8362 L7.81109635,41.7088 C7.81109635,41.6304 7.81109635,41.5618 7.81109635,41.4932 L7.92869635,41.0326 C8.01420409,40.7470589 8.12915484,40.4711771 8.27169635,40.2094 C8.55186819,39.6642842 8.93066833,39.1758314 9.38889635,38.7688 C9.55410732,38.5732185 9.54090188,38.2834168 9.3585883,38.103671 C9.17627472,37.9239252 8.88631487,37.9148316 8.69309635,38.0828 C7.60466118,39.06995 6.90875398,40.4165304 6.73309635,41.8754 C6.73309635,42.1460195 6.95247682,42.3654 7.22309635,42.3654 C7.49152663,42.3601863 7.70788264,42.1438303 7.71309635,41.8754 L7.81109635,41.8362 Z" id="Path" fill="#000000"></path>
                <path d="M5.69429635,32.6438 L8.30109635,38.661 C8.44433862,38.8894259 8.74072294,38.9667435 8.97729635,38.8374 C9.20160763,38.6911669 9.27798861,38.3983732 9.15369635,38.1612 L6.54689635,32.193 C6.40688982,31.9602064 6.10657997,31.8818647 5.87069635,32.0166 C5.64360643,32.1561585 5.56599251,32.4493667 5.69429635,32.683 L5.69429635,32.6438 Z" id="Path" fill="#000000"></path>
                <path d="M3.84209635,32.5654 C5.31862968,34.7736667 6.74289635,37.0146 8.11489635,39.2882 C8.26268481,39.4914139 8.54023833,39.5499029 8.75746423,39.4236088 C8.97469013,39.2973146 9.06117925,39.0271729 8.95769635,38.7982 C7.58569635,36.5148 6.16469635,34.2804 4.68489635,32.0656 C4.33209635,31.5462 3.48929635,32.0656 3.84209635,32.5654 Z" id="Path" fill="#000000"></path>
                <path d="M2.74449635,33.5846 L5.24349635,36.5834 L6.49789635,38.0926 C6.93821141,38.4650107 7.27563202,38.944148 7.47789635,39.4842 C7.50995891,39.6100336 7.59161628,39.7175179 7.70424747,39.7821423 C7.81687865,39.8467668 7.95088081,39.8630216 8.07569635,39.8272 C8.33249377,39.746963 8.4826782,39.480922 8.41869635,39.2196 C8.23298504,38.6294916 7.89495536,38.098785 7.43869635,37.681 L6.09609635,36.113 L3.43049635,32.9182 C3.02869635,32.438 2.34269635,33.1338 2.74449635,33.614 L2.74449635,33.5846 Z" id="Path" fill="#000000"></path>
                <path d="M1.74489635,34.5352 C3.56769635,36.4952 5.47869635,38.3768 7.47789635,40.1506 C7.94829635,40.572 8.64409635,39.8762 8.17369635,39.4548 C6.21369635,37.681 4.25369635,35.8092 2.44069635,33.8492 C2.00949635,33.3788 1.31369635,34.0746 1.74489635,34.5352 Z" id="Path" fill="#000000"></path>
                <path d="M1.00989635,35.6818 C2.93069635,37.4654 4.93642968,39.1542667 7.02709635,40.7484 C7.26366976,40.8777435 7.56005408,40.8004259 7.70329635,40.572 C7.82758861,40.3348269 7.75120763,40.0420331 7.52689635,39.8958 C5.50809635,38.3539333 3.56769635,36.7206 1.70569635,34.9958 C1.24509635,34.5646 0.549296348,35.2604 1.00989635,35.6916 L1.00989635,35.6818 Z" id="Path" fill="#000000"></path>
                <path d="M0.480696348,36.9852 C2.5447264,38.5116208 4.71615943,39.8871893 6.97809635,41.1012 C7.52689635,41.405 8.02669635,40.5524 7.46809635,40.2584 C5.20782614,39.0432119 3.03950349,37.6642635 0.980496348,36.1326 C0.747563499,35.9987898 0.45032185,36.0774714 0.314096348,36.309 C0.17760976,36.5423621 0.251422014,36.841953 0.480696348,36.9852 L0.480696348,36.9852 Z" id="Path" fill="#000000"></path>
                <path d="M0.333696348,38.6316 C2.65956301,39.494 5.00502968,40.2976 7.37009635,41.0424 C7.88949635,41.1992 8.26189635,40.376 7.74249635,40.1408 L7.50729635,40.0428 C6.93889635,39.788 6.43909635,40.6308 7.01729635,40.8856 L7.25249635,40.9934 L7.62489635,40.0918 C5.26309635,39.347 2.92089635,38.5532 0.588496348,37.6908 C0.000496347645,37.4654 -0.254303652,38.416 0.333696348,38.6708 L0.333696348,38.6316 Z" id="Path" fill="#000000"></path>
                <path d="M0.216096348,39.7096 C1.18011597,40.2470914 2.25873733,40.5461484 3.36189635,40.5818 C4.55344502,40.6573007 5.73672886,40.8310238 6.89969635,41.1012 C7.17031585,41.171561 7.44673518,41.0092195 7.51709625,40.7386 C7.58745732,40.4679805 7.42511582,40.1915611 7.15449635,40.1212 C6.02031845,39.837657 4.86217185,39.6604901 3.69509635,39.592 C2.66708045,39.5742341 1.65853344,39.30865 0.755096348,38.8178 C0.216096348,38.4846 -0.273903652,39.3274 0.255296348,39.6704 L0.216096348,39.7096 Z" id="Path" fill="#000000"></path>
                <path d="M0.764896348,41.16 C2.93069635,42.0812 5.26309635,41.8068 7.52689635,41.4834 C7.65272995,41.4513374 7.76021423,41.3696801 7.82483869,41.2570489 C7.88946314,41.1444177 7.90571793,41.0104155 7.86989635,40.8856 C7.79829311,40.6267664 7.53168818,40.4737963 7.27209635,40.5426 C5.31209635,40.817 3.14629635,41.111 1.25489635,40.3172 C1.02374696,40.1871061 0.731231006,40.260235 0.588496348,40.4838 C0.453761077,40.7196836 0.532102778,41.0199935 0.764896348,41.16 L0.764896348,41.16 Z" id="Path" fill="#000000"></path>
                <path d="M103.919696,70.1386 L123.010096,59.535 C124.254696,58.8392 125.734496,58.2218 126.498896,56.938 C127.192208,55.4674691 127.508782,53.8475537 127.420096,52.2242 C127.420096,50.4602 127.331896,48.706 127.282896,46.942 C127.233896,45.178 127.282896,43.512 127.361296,41.797 C127.592332,37.7865324 128.199328,33.806607 129.174296,29.9096 C129.244657,29.6389805 129.082316,29.3625611 128.811696,29.2922 C128.541077,29.2218389 128.264657,29.3841805 128.194296,29.6548 C127.369453,32.9540856 126.802608,36.3125575 126.498896,39.6998 C126.249011,43.1077949 126.209736,46.5279655 126.381296,49.9408 C126.50436,51.6536456 126.415487,53.3751328 126.116696,55.0662 C125.98729,55.8359957 125.624691,56.5475119 125.077896,57.1046 C124.473127,57.5859329 123.815566,57.9969083 123.117896,58.3296 L113.817696,63.553 L103.419896,69.3252 C103.184457,69.463216 103.10548,69.765961 103.243496,70.0014 C103.381512,70.236839 103.684257,70.315816 103.919696,70.1778 L103.919696,70.1386 Z" id="Path" fill="#FFFFFF"></path>
            </g>
        </g>
    </g>
</svg>