<?xml version="1.0" encoding="UTF-8"?>
<svg width="700px" height="490px" viewBox="0 0 700 490" version="1.1" xmlns="http://www.w3.org/2000/svg" xmlns:xlink="http://www.w3.org/1999/xlink">
    <title>credential</title>
    <g id="credential" stroke="none" stroke-width="1" fill="none" fill-rule="evenodd">
        <g id="Group-3" transform="translate(30.000000, 29.000000)">
            <rect id="Rectangle" fill="#CCCCCC" fill-rule="nonzero" x="4.53112272" y="0" width="236" height="434" rx="40"></rect>
            <rect id="Rectangle" stroke="#000000" x="4.53112272" y="0" width="236" height="434" rx="40"></rect>
            <path d="M198.443737,8 L173.684467,8 C171.002014,8 168.562673,9.55590515 167.433745,11.9917151 L166.574671,13.8335488 C165.443248,16.2671721 163.005473,17.8239343 160.323949,17.8252582 L84.7382961,17.8252582 C82.0567722,17.8239343 79.6189976,16.2671721 78.4875741,13.8335488 L77.6285006,11.9917151 C76.500826,9.55480828 74.060697,8 71.3777786,8 L46.6185086,8 C27.2427839,8 11.534663,23.721283 11.5311227,43.1167799 L11.5311227,390.883226 C11.534663,410.278723 27.2427839,426 46.6185086,426 L198.443737,426 C217.819462,426 233.527582,410.278723 233.531123,390.883226 L233.531123,43.1167799 C233.527582,23.721283 217.819462,8 198.443737,8 L198.443737,8 Z" id="Path" fill="#F4F4F4" fill-rule="nonzero"></path>
            <g id="Group" transform="translate(0.000000, 62.579255)" fill="#000000" fill-rule="nonzero" stroke="#000000">
                <polygon id="Path" points="241.08 0 245.319164 0 245.319164 54.0960106 241.08 54.0960106"></polygon>
                <polygon id="Path" points="241.08 66.324734 245.319164 66.324734 245.319164 120.420745 241.08 120.420745"></polygon>
                <polygon id="Path" points="0 27.0512234 4.23916449 27.0512234 4.23916449 81.147234 0 81.147234"></polygon>
            </g>
            <g id="Group-2" transform="translate(36.531123, 62.000000)">
                <polygon id="Path" fill="#E9E9E9" fill-rule="nonzero" points="0 21.2817503 172 21.2817503 172 282.345704 0 282.345704"></polygon>
                <ellipse id="Oval" fill="#000000" fill-rule="nonzero" cx="86" cy="128.075228" rx="62.9876304" ry="63.0245026"></ellipse>
                <ellipse id="Oval" fill="#FFFFFF" fill-rule="nonzero" cx="86" cy="123.285391" rx="62.9876304" ry="63.0245026"></ellipse>
                <g id="Group" transform="translate(0.000000, 21.281750)" stroke="#000000">
                    <polygon id="Path" points="0 0 172 0 172 261.71825 0 261.71825"></polygon>
                    <ellipse id="Oval" cx="86" cy="102.003641" rx="62.9876304" ry="63.0245026"></ellipse>
                    <line x1="51.3372578" y1="189.538581" x2="120.662742" y2="189.538581" id="Path"></line>
                    <line x1="51.3372578" y1="234.300908" x2="120.662742" y2="234.300908" id="Path"></line>
                    <line x1="51.3372578" y1="214.017743" x2="120.662742" y2="214.017743" id="Path"></line>
                </g>
                <path d="M97.528614,89.2820403 C98.2508404,92.5267318 98.6267671,95.8389729 98.6500745,99.1630819 C98.8391245,102.116032 98.8391245,105.078062 98.6500745,108.031012 C98.361699,110.877983 97.2338301,113.5903 94.5487332,114.943253 C91.4535022,116.501393 87.7751118,115.796062 85.0259314,113.859609 C84.6926975,113.622361 84.3850969,114.180213 84.7055142,114.417461 C89.5822653,117.841521 96.9390462,116.815585 98.8038748,110.570203 C99.7266766,107.492396 99.3614009,104.061924 99.3101341,100.894348 C99.3477023,96.9399656 98.9457801,92.9936606 98.1117735,89.1281499 C98.0156483,88.7305999 97.4004471,88.8973144 97.4709389,89.3012766 L97.528614,89.2820403 Z" id="Path" fill="#000000" fill-rule="nonzero"></path>
                <path d="M86.6792846,99.3041481 C86.4825402,99.4761578 86.380289,99.7322201 86.4044008,99.9925257 C86.4285126,100.252831 86.5760554,100.485729 86.8010432,100.618628 C86.8989508,100.667695 87.0129378,100.673423 87.1152658,100.634418 C87.2175938,100.595413 87.2988802,100.515252 87.3393443,100.413441 C87.4418778,100.156957 87.2368107,99.8812368 87.1278689,99.6632255 C86.9420268,99.297736 86.3909091,99.6183408 86.5703428,99.9902425 L86.6600596,100.163369 C86.6600596,100.272375 86.7113264,100.278787 86.7433681,100.163369 L86.9356185,100.015891 L86.8779434,100.015891 L87.1214605,100.047951 C86.9740686,99.9774183 87.038152,99.8107037 87.1214605,99.7401707 C87.4418778,99.4836868 86.9868852,99.03484 86.666468,99.2849118 L86.6792846,99.3041481 Z" id="Path" fill="#000000" fill-rule="nonzero"></path>
                <path d="M95.2985097,99.4772747 C95.1044013,99.6506906 95.0040443,99.9059771 95.0280596,100.165241 C95.0520749,100.424505 95.1976134,100.656988 95.4202683,100.791755 C95.5191122,100.840984 95.633972,100.846839 95.7373041,100.807915 C95.8406362,100.76899 95.9231206,100.688798 95.9649776,100.586567 C96.0611028,100.330084 95.8560358,100.054363 95.7470939,99.8363521 C95.5676602,99.4708626 95.0101341,99.7914674 95.1959762,100.163369 L95.2792846,100.336496 C95.3113264,100.445501 95.3369598,100.445501 95.3625931,100.336496 L95.5548435,100.189017 L95.4971684,100.189017 L95.7470939,100.221078 C95.5997019,100.144133 95.6637854,99.9838304 95.7470939,99.9132973 C96.0739195,99.6568134 95.618927,99.2079666 95.2921013,99.4580384 L95.2985097,99.4772747 Z" id="Path" fill="#000000" fill-rule="nonzero"></path>
                <path d="M78.9444113,102.696147 C77.2119407,102.32901 75.7727238,101.128961 75.0994039,99.4900989 C74.657228,98.2076795 75.1314456,96.790606 76.6630402,96.7200729 C77.787005,96.7599148 78.7715253,97.4853735 79.14307,98.5475206 C79.309687,98.9258343 79.8672131,98.5988174 79.6941878,98.2269157 C78.790611,96.2263414 75.4198212,94.9118615 74.4201192,97.585706 C73.4204173,100.259551 76.54769,102.715384 78.7970194,103.298885 C78.9739809,103.344921 79.1547351,103.238702 79.2007451,103.061637 C79.2467551,102.884572 79.1405979,102.703712 78.9636364,102.657675 L78.9444113,102.696147 Z" id="Path" fill="#000000" fill-rule="nonzero"></path>
                <path d="M76.3362146,98.5667569 C76.9321908,97.9960802 77.5730253,98.9194222 77.8357675,99.368269 C78.1055207,99.8357141 78.302184,100.341716 78.418927,100.8687 C78.418927,100.971293 78.5919523,100.926409 78.5727273,100.823815 C78.4125186,100.118484 77.3679583,97.3612826 76.2272727,98.4513391 C76.1503726,98.5218722 76.2657228,98.63729 76.3362146,98.5667569 L76.3362146,98.5667569 Z" id="Path" fill="#000000" fill-rule="nonzero"></path>
                <path d="M77.2974665,99.5926924 C77.4576751,99.2400271 77.8549925,99.5221594 78.0087928,99.7145223 C78.0728763,99.7978795 78.1818182,99.6824618 78.1241431,99.6055166 C77.899851,99.3233844 77.3615499,99.0540763 77.1628912,99.5157473 C77.1180328,99.6055166 77.2590164,99.6888739 77.2974665,99.5926924 L77.2974665,99.5926924 Z" id="Path" fill="#000000" fill-rule="nonzero"></path>
                <path d="M77.2205663,103.395066 C77.3935917,109.198014 77.6178838,115.000962 77.066766,120.797498 C77.0283159,121.207872 77.6691505,121.20146 77.7076006,120.797498 C78.2587183,115.02661 78.0344262,109.198014 77.8614009,103.395066 C77.8614009,103.218001 77.7179452,103.074461 77.5409836,103.074461 C77.364022,103.074461 77.2205663,103.218001 77.2205663,103.395066 Z" id="Path" fill="#000000" fill-rule="nonzero"></path>
                <path d="M93.581073,115.725529 C93.4785395,118.514791 93.414456,121.316877 93.5169896,124.112552 C93.5169896,124.522926 94.1578241,124.522926 94.1578241,124.112552 C94.0552906,121.316877 94.1193741,118.514791 94.2219076,115.725529 C94.2219076,115.548464 94.0784519,115.404924 93.9014903,115.404924 C93.7245287,115.404924 93.581073,115.548464 93.581073,115.725529 Z" id="Path" fill="#000000" fill-rule="nonzero"></path>
                <path d="M87.2752608,115.417748 C88.8888531,116.307752 90.5660031,117.077164 92.2929955,117.719691 C92.7967225,117.855118 93.2750588,118.071687 93.7092399,118.360901 C93.7861401,117.505954 93.8438152,116.633909 93.8822653,115.744765 C92.205537,116.311389 90.3976657,116.362754 88.6915052,115.892243 C88.2301043,115.738353 89.4797317,116.437272 87.4803279,115.526754" id="Path" fill="#000000" fill-rule="nonzero"></path>
                <path d="M87.0830104,115.712705 C88.1724292,116.276969 89.2682563,116.847646 90.3897168,117.334965 C91.4659281,117.690445 92.511741,118.132173 93.5169896,118.655857 C93.6167503,118.712056 93.738627,118.711927 93.8382689,118.655518 C93.9379108,118.599108 94.0007896,118.494643 94.0040238,118.380137 C94.080924,117.525191 94.1385991,116.653145 94.1770492,115.764001 C94.1744809,115.664057 94.1263618,115.570779 94.0464269,115.510793 C93.966492,115.450807 93.8635244,115.430703 93.7669151,115.456221 C92.7170449,115.769921 91.6263565,115.925516 90.5307004,115.917892 C89.8898659,115.917892 89.1849478,115.533166 88.55693,115.571638 C88.4568295,115.574704 88.3634145,115.622652 88.3025339,115.702216 C88.2416532,115.781781 88.2197632,115.884523 88.242921,115.982013 C88.242921,116.116667 88.3518629,116.360326 88.3134128,116.020485 L88.6338301,115.69988 C88.3518629,115.69988 87.871237,115.385688 87.6213115,115.27027 C87.2432191,115.103555 86.9163934,115.654996 87.2944858,115.82171 C87.7021006,116.081981 88.1573809,116.258533 88.6338301,116.34109 C88.8107917,116.34109 88.9542474,116.19755 88.9542474,116.020485 C88.9542474,115.949952 88.8260805,115.565226 88.8645306,115.808886 L88.55693,116.212848 C88.9058081,116.274173 89.2504221,116.3577 89.5886736,116.46292 C90.0587741,116.540013 90.5351342,116.572218 91.0113264,116.559101 C92.0026751,116.511163 92.9852787,116.34981 93.9399404,116.078194 L93.5362146,115.764001 C93.4977645,116.618948 93.4400894,117.490993 93.3631893,118.380137 L93.8438152,118.098005 C92.8373678,117.578651 91.7917325,117.139142 90.7165425,116.783525 C89.5886736,116.296205 88.4992548,115.725529 87.4098361,115.161264 C87.0445604,114.968901 86.7177347,115.526754 87.0830104,115.712705 L87.0830104,115.712705 Z" id="Path" fill="#000000" fill-rule="nonzero"></path>
                <path d="M91.2292101,99.2592634 C91.5164111,100.723293 91.6665889,102.210923 91.6777943,103.702847 C91.6777943,103.879912 91.82125,104.023452 91.9982116,104.023452 C92.1751732,104.023452 92.3186289,103.879912 92.3186289,103.702847 C92.308413,102.154435 92.1496116,100.610583 91.8444113,99.0925489 C91.7675112,98.6885867 91.15231,98.8553013 91.2035768,99.2592634 L91.2292101,99.2592634 Z" id="Path" fill="#000000" fill-rule="nonzero"></path>
                <path d="M85.4873323,96.8867874 C86.0447972,96.7291582 86.6382616,96.7561496 87.1791356,96.9637326 C87.5700447,97.1047987 87.7366617,96.4892374 87.352161,96.3225229 C86.6985539,96.0796046 85.9843519,96.0526378 85.314307,96.2455777 C85.1373454,96.2933853 85.0326228,96.4756807 85.0804024,96.6527459 C85.128182,96.8298111 85.3103708,96.934595 85.4873323,96.8867874 L85.4873323,96.8867874 Z" id="Path" fill="#000000" fill-rule="nonzero"></path>
                <path d="M94.7538003,97.3035738 C95.2569873,97.0098744 95.8405627,96.8841077 96.4199702,96.9444963 C96.8301043,96.989381 96.823696,96.3481713 96.4199702,96.3032866 C95.7268984,96.2373706 95.0308986,96.3946239 94.433383,96.7521334 C94.3004989,96.8488308 94.2622521,97.0304328 94.3448375,97.1725628 C94.4274228,97.3146927 94.604072,97.3712822 94.7538003,97.3035738 L94.7538003,97.3035738 Z" id="Path" fill="#000000" fill-rule="nonzero"></path>
                <path d="M98.4129657,93.3408977 C98.4129657,93.3408977 99.3934426,106.947368 97.2146051,105.523882 C95.0357675,104.100397 91.0561848,102.279361 86.3845007,105.421289 C81.7128167,108.563216 80.514456,93.2383042 80.514456,93.2383042 L76.0734724,96.2968745 L77.7140089,96.6046552 C77.7140089,96.6046552 79.3801788,96.8931995 80.2773472,104.754431 C81.1745156,112.615662 80.9822653,118.861044 90.7870343,119.592023 C100.034277,120.297354 101.751714,114.462346 100.553353,106.864011 C99.3549925,99.2656755 99.4062593,95.604368 99.066617,92.4432041" id="Path" fill="#000000" fill-rule="nonzero"></path>
                <path d="M76.1375559,119.726677 C77.5922504,122.246632 80.2901639,123.541875 82.8919523,124.587047 C84.4363636,125.228257 87.223994,125.433444 88.0186289,126.940287 C88.6868211,128.361958 89.2397194,129.835072 89.6719821,131.345397 C89.800149,131.736535 90.4153502,131.569821 90.3128167,131.172271 C89.8257824,129.678252 89.1657228,128.248354 88.6530551,126.76716 C88.2621461,125.638631 87.9673621,125.484741 86.8010432,125.183372 C83.257228,124.234382 78.6752608,122.785248 76.7207154,119.412485 C76.6289642,119.263616 76.4348988,119.215795 76.28455,119.305008 C76.1342011,119.39422 76.0830547,119.587542 76.1695976,119.739502 L76.1375559,119.726677 Z" id="Path" fill="#000000" fill-rule="nonzero"></path>
                <path d="M95.2344262,122.349225 C94.5130322,123.182979 93.6679636,123.900951 92.728763,124.478041 C92.2289121,124.77941 91.504769,124.971773 91.1459016,125.45268 C90.6909091,126.09389 90.6268256,127.126237 90.4602086,127.831568 L89.6591654,131.172271 C89.5630402,131.576233 90.1846498,131.742947 90.3,131.345397 L90.9408346,128.556135 C91.1907601,127.504551 91.2612519,126.183659 92.190462,125.484741 C93.4336811,124.561399 94.619225,123.997134 95.6766021,122.804484 C95.952161,122.496703 95.4971684,122.041444 95.2280179,122.349225 L95.2344262,122.349225 Z" id="Path" fill="#000000" fill-rule="nonzero"></path>
                <path d="M89.9859911,131.332573 C90.819076,132.345685 91.4727273,133.628104 92.2160954,134.724573 C92.85693,135.660739 93.4977645,136.596905 94.100149,137.571544 C94.3230572,137.937039 94.2814586,138.405297 93.9976155,138.725721 C93.2222057,139.572118 92.3506706,139.873487 92.1327869,140.905834 C91.9472479,142.156005 91.9928636,143.429648 92.2673621,144.663323 C93.9121709,155.029547 95.5569796,165.400045 97.2017884,175.774818 C97.3234055,176.302232 97.3234055,176.850429 97.2017884,177.377843 C97.0296798,177.836708 96.765831,178.255623 96.4263785,178.608965 L92.2865872,183.57834 L87.9994039,178.076761 C87.4989501,177.50313 87.0923354,176.853897 86.7946349,176.153132 C86.3652757,174.998955 86.5511177,173.716535 86.7241431,172.491825 C88.1980626,162.200409 88.7043219,151.787163 89.2169896,141.399566 C89.258433,141.120717 89.2113625,140.835886 89.0824143,140.585229 C88.3129022,139.660659 87.4845006,138.786794 86.6023845,137.969094 C86,137.404829 87.1791356,136.167294 87.4546945,135.679975 C88.3005961,134.218017 89.1336811,132.768883 89.9859911,131.332573 L89.9859911,131.332573 Z" id="Path" fill="#000000" fill-rule="nonzero"></path>
                <path d="M89.761699,131.556997 C90.8062593,132.903537 91.6329359,134.416792 92.5813711,135.821041 C93.2222057,136.79568 94.1257824,137.74467 93.2670641,138.975793 C92.9081967,139.501585 92.2865872,139.738832 91.9853949,140.34157 C91.5111773,141.303384 91.671386,142.611452 91.7931446,143.630975 C92.0110283,145.458423 92.357079,147.279459 92.6454545,149.100494 C93.8630402,156.795011 95.082762,164.470291 96.30462,172.126335 L96.7467958,174.922009 C96.8877794,175.794055 97.1441133,176.845639 96.7467958,177.659975 C96.4886571,178.084464 96.18573,178.480004 95.8432191,178.839801 C95.285693,179.519483 94.7089419,180.192753 94.1450075,180.866023 C93.74769,181.346931 92.7800298,182.943543 92.1391952,182.853773 C91.7739195,182.802477 90.8575261,181.186628 90.5819672,180.853199 L88.8260805,178.602553 C88.2315324,177.925969 87.7095973,177.188814 87.2688525,176.403204 C86.6921013,175.19773 86.8843517,173.838365 87.0509687,172.555946 C88.057079,165.098677 88.6850969,157.615759 89.1080477,150.113606 C89.2298063,147.933493 89.3387481,145.75338 89.44769,143.566854 C89.5117735,142.335732 89.8514158,141.059724 89.076006,140.033789 C88.3005961,139.007853 86.3204173,137.969094 87.2752608,136.513548 C88.3454545,134.884875 89.2682563,133.166433 90.2679583,131.486463 C90.4794337,131.133798 89.9219076,130.813193 89.7104322,131.165859 C88.9670641,132.448278 88.242921,133.692225 87.5059613,134.96182 C87.0077864,135.61476 86.5782881,136.317401 86.2242921,137.058576 C85.8718331,138.225578 87.1791356,138.93732 87.890462,139.693948 C88.8324888,140.700647 88.8901639,141.56628 88.8260805,142.944881 C88.761997,144.323482 88.6915052,145.644374 88.6210134,146.997326 C88.4736215,149.805825 88.3198212,152.607911 88.1275708,155.409998 C87.74307,161.097528 87.185544,166.752998 86.4229508,172.395643 C86.1730253,174.261563 86.0833085,175.890236 87.1727273,177.525321 C88.6594635,179.711846 90.4409836,181.744481 92.0622951,183.822 C92.1224587,183.882695 92.2043561,183.916835 92.2897914,183.916835 C92.3752266,183.916835 92.457124,183.882695 92.5172876,183.822 C93.9912072,182.058673 95.7214605,180.327407 97.0031297,178.41019 C98.1438152,176.69816 97.2915052,174.473163 97.0031297,172.594418 C96.1486836,167.203982 95.2942375,161.811408 94.4397914,156.416697 L93.1581222,148.331043 C92.7736215,145.90727 91.318927,141.822764 93.228614,139.860662 C94.5551416,138.488474 94.8947839,138.212753 93.7605067,136.462251 C92.6262295,134.711748 91.5111773,132.800943 90.2102832,131.127386 C89.9603577,130.806781 89.5117735,131.236392 89.761699,131.556997 L89.761699,131.556997 Z" id="Path" fill="#000000" fill-rule="nonzero"></path>
                <path d="M99.0153502,134.654039 C98.0605067,135.788981 95.657377,138.38588 94.0424739,137.250939 C93.7092399,137.013691 93.4016393,137.571544 93.7220566,137.808791 C95.7086438,139.200216 98.2847988,136.526372 99.4895678,135.109298 C99.75231,134.795106 99.3037258,134.339847 99.0345753,134.654039 L99.0153502,134.654039 Z" id="Path" fill="#000000" fill-rule="nonzero"></path>
                <path d="M88.1916542,133.762758 C87.5508197,135.128535 86.666468,136.846977 85.2566319,137.507423 C84.4235469,137.898561 83.8660209,137.443302 83.0970194,137.032927 C82.6356185,136.789268 82.1806259,136.539196 81.7256334,136.289124 C79.2776453,134.96182 76.54769,133.724285 74.4777943,131.800656 C74.1701937,131.524936 73.7152012,131.980195 74.0228018,132.255915 C76.4707899,134.500149 79.7454545,135.962107 82.6548435,137.513835 C83.7634873,138.103748 84.795231,138.892436 85.9423249,138.02039 C87.0894188,137.148345 88.0891207,135.455552 88.7491803,134.076951 C88.928614,133.705049 88.3774963,133.378032 88.1916542,133.749934 L88.1916542,133.762758 Z" id="Path" fill="#000000" fill-rule="nonzero"></path>
                <path d="M101.174963,133.0959 C100.707154,130.127099 100.848137,127.087765 100.322653,124.118964 C100.130402,123.022495 99.8740686,121.829845 98.9704918,121.098866 C97.6183308,120.00881 95.5228018,119.540727 93.8438152,119.239358 C93.4400894,119.168825 93.2670641,119.784386 93.6707899,119.880568 C95.4074516,120.19476 97.5606557,120.637195 98.7269747,122.02862 C99.7074516,123.195622 99.7907601,124.792234 99.9317437,126.279841 C100.149627,128.607432 100.168852,130.967084 100.534128,133.275439 C100.598212,133.685813 101.213413,133.512686 101.174963,133.108724 L101.174963,133.0959 Z" id="Path" fill="#000000" fill-rule="nonzero"></path>
                <path d="M70.3700447,127.305776 C64.8396423,126.773572 58.9631893,126.414495 53.4327869,127.190358 C51.4884719,127.356142 49.6687101,128.216483 48.3061103,129.614131 C46.6912072,131.38387 45.6594635,133.788406 44.7302534,135.955695 C42.7308495,140.630114 41.3594635,145.573841 39.8470939,150.408562 L35.9187779,162.96986 C35.7970194,163.360998 36.4122206,163.527713 36.5596125,163.136575 C39.1229508,154.877794 41.4107303,146.420238 44.4803279,138.334583 C45.3309681,135.982843 46.4038857,133.717662 47.6845007,131.569821 C49.2801788,129.004982 51.5295082,127.985458 54.4645306,127.722562 C59.7618478,127.303542 65.0866422,127.378674 70.3700447,127.946986 C70.7801788,127.991871 70.7737705,127.350661 70.3700447,127.305776 Z" id="Path" fill="#000000" fill-rule="nonzero"></path>
                <path d="M89.6847988,105.998377 C90.3942981,106.705375 91.2315367,107.271114 92.1520119,107.665523 C92.523696,107.825825 92.8505216,107.274385 92.4724292,107.10767 C91.6007703,106.742576 90.808486,106.211173 90.1397914,105.543119 C90.0141486,105.417402 89.8104415,105.417402 89.6847988,105.543119 C89.5591561,105.668835 89.5591561,105.872661 89.6847988,105.998377 L89.6847988,105.998377 Z" id="Path" fill="#000000" fill-rule="nonzero"></path>
                <path d="M77.6627422,117.341377 C77.6627422,117.341377 72.7283159,117.514504 71.8247392,119.951101 C70.9211624,122.387698 70.3828614,130.018093 70.3828614,130.018093" id="Path" stroke="#000000"></path>
                <path d="M100.546945,129.986033 C100.546945,129.986033 117.791803,128.363772 120.598659,131.268452 C129.365276,140.309509 135.632638,165.156385 135.632638,165.156385" id="Path" stroke="#000000"></path>
                <path d="M89.9411326,106.395927 C90.6290265,106.249628 91.3433435,106.473287 91.8251863,106.98584 C92.1135618,107.287209 92.5621461,106.83195 92.2801788,106.536994 C91.634746,105.859204 90.6802235,105.571706 89.7681073,105.780366 C89.3643815,105.863723 89.5374069,106.479285 89.9411326,106.421576 L89.9411326,106.395927 Z" id="Path" fill="#FFFFFF" fill-rule="nonzero"></path>
                <path d="M79.3801788,95.5915438 C80.9514629,94.0110417 81.8925101,91.9112552 82.0268256,89.6860024 C82.0268256,89.6860024 102.591207,92.3341985 100.502086,85.2808917 C98.5026826,78.4776566 82.0588674,82.267206 78.8354694,85.8130957 C78.5759843,86.1145084 78.2812211,86.3836104 77.9575261,86.6146079 C76.3874814,87.6854281 71.9529061,91.3018509 72.9461997,97.3420463 C73.667001,101.732293 75.4245829,105.887011 78.0728763,109.46091 C78.0728763,109.46091 78.0280179,102.779505 77.7588674,102.516609 C77.4897168,102.253713 73.9138599,100.689161 74.6700447,97.8678383 C75.4262295,95.0465156 78.5150522,97.1368592 78.5150522,97.1368592 L79.3801788,95.5915438 Z" id="Path" fill="#000000" fill-rule="nonzero"></path>
                <path d="M99.0409836,87.8970273 C99.1307004,87.9996208 100.591803,91.5839831 99.8932936,94.6169051 C99.4707611,96.261652 99.3577601,97.9707048 99.5600596,99.6568134 L98.8871833,96.1109237 C98.8871833,96.1109237 98.2912072,89.2884524 97.6055142,88.4869402" id="Path" fill="#000000" fill-rule="nonzero"></path>
                <path d="M54.6311475,155.480531 C55.4087045,159.948747 55.9095102,164.460778 56.1307004,168.99082 C56.252459,173.165095 55.880775,177.326546 55.6628912,181.513645 C55.6628912,181.930432 56.3037258,181.930432 56.3037258,181.513645 C56.5280179,177.147007 56.9445604,172.748308 56.75231,168.375258 C56.4964174,163.995938 55.9893228,159.634941 55.233532,155.313816 C55.1758569,154.903442 54.5542474,155.076569 54.5926975,155.480531 L54.6311475,155.480531 Z" id="Path" fill="#000000" fill-rule="nonzero"></path>
                <path d="M117.708495,154.916266 L116.753651,167.605807 L116.298659,173.63959 L116.06155,176.813578 C116.06155,177.179068 115.914158,180.79549 116.003875,180.744194 C116.362742,180.551831 116.042325,180.00039 115.677049,180.192753 L115.587332,180.24405 C115.463137,180.316999 115.402841,180.463893 115.43994,180.603127 C115.447173,180.785699 115.567404,180.944394 115.741133,181.000677 C115.86626,181.071965 116.023544,181.050981 116.125633,180.949381 C116.503726,180.590303 116.452459,180.186341 116.490909,179.666961 C116.574218,178.608965 116.651118,177.550969 116.728018,176.492973 L117.272727,169.196007 L118.342921,154.916266 C118.342921,154.505892 117.702086,154.505892 117.702086,154.916266 L117.708495,154.916266 Z" id="Path" fill="#000000" fill-rule="nonzero"></path>
                <path d="M109.217437,79.3432897 C107.474367,80.5231156 105.778291,81.7756119 104.12921,83.1007786 C104.045902,83.1648996 104.161252,83.2803174 104.24456,83.2161964 C105.876552,81.8995791 107.561947,80.6534949 109.300745,79.4779438 C109.384054,79.4202349 109.300745,79.2855809 109.217437,79.3432897 Z" id="Path" fill="#000000" fill-rule="nonzero"></path>
                <path d="M107.480775,91.0517791 C108.74436,90.232296 110.158061,89.6721513 111.639791,89.4038701 C111.742325,89.4038701 111.697466,89.2307435 111.601341,89.2499798 C110.104311,89.5207653 108.675599,90.0851753 107.397466,90.9107129 C107.30775,90.9684218 107.397466,91.1094879 107.480775,91.0517791 L107.480775,91.0517791 Z" id="Path" fill="#000000" fill-rule="nonzero"></path>
                <path d="M102.418182,73.8609467 L99.8548435,77.7851501 C99.7971684,77.8685074 99.938152,77.9518647 99.9958271,77.8620953 L102.559165,73.9378919 C102.616841,73.8545346 102.475857,73.7711773 102.418182,73.8609467 Z" id="Path" fill="#000000" fill-rule="nonzero"></path>
                <path d="M93.1517139,73.2389733 C93.2547301,74.1409944 93.2027125,75.054003 92.9979136,75.9384662 C92.9979136,76.0410597 93.1324888,76.0859444 93.1517139,75.9833508 C93.3617876,75.0844877 93.4159786,74.1561958 93.3119225,73.2389733 C93.3119225,73.1363797 93.1388972,73.1363797 93.1517139,73.2389733 Z" id="Path" fill="#000000" fill-rule="nonzero"></path>
                <ellipse id="Oval" fill="#8F8FEF" fill-rule="nonzero" cx="86" cy="21.2817503" rx="21.2692996" ry="21.2817503"></ellipse>
                <polyline id="Path" stroke="#FFFFFF" stroke-width="5" points="77.8549925 22.115323 82.7253353 26.9885168 94.1385991 15.5685718"></polyline>
            </g>
        </g>
    </g>
</svg>