<?xml version="1.0" encoding="UTF-8"?>
<svg width="600px" height="500px" viewBox="0 0 600 500" version="1.1" xmlns="http://www.w3.org/2000/svg" xmlns:xlink="http://www.w3.org/1999/xlink">
    <title>cross-selling</title>
    <g id="cross-selling" stroke="none" stroke-width="1" fill="none" fill-rule="evenodd">
        <g id="Group" transform="translate(117.000000, 54.000000)">
            <path d="M30.480947,195.743982 C30.6642047,194.94186 30.7630375,194.121167 30.7756812,193.296552 C30.8271427,192.214788 30.831821,191.133024 30.8271427,190.05126 C30.8271427,189.072288 30.7990728,188.093316 30.7803595,187.114344 C30.7440759,186.296167 30.786393,185.476245 30.9066741,184.666914 C31.1894062,183.080966 31.8930264,181.610287 32.937065,180.423071 C33.1382328,180.193012 32.8107504,179.845477 32.6049043,180.075535 C31.6852197,181.114591 31.0121163,182.365488 30.6400099,183.727101 C30.3944727,184.675841 30.2825735,185.656992 30.3078492,186.639543 C30.3078492,188.675805 30.3967372,190.712066 30.3078492,192.743433 C30.3180513,193.731282 30.2175617,194.716978 30.0084367,195.680349 C29.9735559,195.815517 30.0500071,195.954678 30.1791954,195.991173 C30.3083836,196.027668 30.4413878,195.947678 30.4762687,195.81251 L30.480947,195.743982 Z" id="Path" fill="#000000" fill-rule="nonzero"></path>
            <path d="M37.4306612,175.203119 C37.0802309,177.45203 36.2691468,179.61866 35.0408002,181.5871 C34.9579011,181.71774 35.0053385,181.885727 35.1467546,181.962309 C35.2881707,182.038891 35.4700142,181.995068 35.5529133,181.864428 C36.8108383,179.853392 37.6400633,177.638347 37.9957515,175.339064 C38.0546151,175.00192 37.4836384,174.849662 37.4071158,175.197681 L37.4306612,175.203119 Z" id="Path" fill="#000000" fill-rule="nonzero"></path>
            <path d="M39.5316012,179.204839 L39.0076314,181.654131 C38.9749189,181.801807 39.0503954,181.952647 39.176213,181.991043 C39.3020306,182.029438 39.4305448,181.94085 39.4632574,181.793174 L39.9917834,179.349229 C40.0257542,179.201554 39.9512976,179.049516 39.82548,179.009644 C39.6996623,178.969772 39.5701283,179.057163 39.5361575,179.204839 L39.5316012,179.204839 Z" id="Path" fill="#000000" fill-rule="nonzero"></path>
            <path d="M41.5843543,181.207487 L41.0072275,183.626543 C40.9773458,183.784463 41.0428401,183.947048 41.1535132,183.989687 C41.2641862,184.032325 41.3781283,183.938871 41.40801,183.78095 L41.9931525,181.361894 C42.0215101,181.208984 41.9592808,181.051688 41.8528786,181.007328 C41.7473286,180.973377 41.6411253,181.060327 41.6084013,181.207487 L41.5843543,181.207487 Z" id="Path" fill="#000000" fill-rule="nonzero"></path>
            <path d="M43.42833,183.173464 C43.1402411,184.354072 42.7709627,185.518705 42.3224705,186.661132 C41.90401,187.662946 41.3331414,188.611903 40.6249761,189.482885 C39.6184631,190.752972 38.7238691,192.086983 37.9487959,193.473582 C37.5042181,194.169973 37.185352,194.921248 37.003286,195.701282 C36.9535223,195.998308 37.4843349,196.132449 37.5562158,195.825841 C37.7147434,195.134923 37.9905148,194.468161 38.3745519,193.847261 C38.8058371,193.061577 39.2979446,192.299848 39.80664,191.547699 C40.2047494,190.958437 40.6194468,190.369174 41.0617906,189.803866 C41.727178,188.984029 42.2836305,188.101736 42.7205799,187.173743 C43.2491627,185.909357 43.6741305,184.614235 43.9923184,183.298024 C44.0697286,182.996206 43.538916,182.871647 43.4393886,183.173464 L43.42833,183.173464 Z" id="Path" fill="#000000" fill-rule="nonzero"></path>
            <path d="M245.880792,192 C245.880792,192 245.946045,193.58968 244.088837,198.312718 C243.115057,200.791802 236.323698,223.82939 240.168621,229.349823 C244.359889,235.366074 265,222.996213 265,222.996213" id="Path" stroke="#000000"></path>
            <path d="M250.40406,216.737969 C250.573565,214.77274 250.658317,212.792393 250.704931,210.817085 C250.738832,209.491815 250.704931,208.166545 250.785446,206.846314 C250.844772,205.662137 250.942238,204.482999 251.056653,203.318979 C251.255821,201.303359 251.480415,199.287739 251.781286,197.272119 C251.8279,196.914346 251.887226,196.551534 251.93384,196.188723 C252.105385,194.925929 252.369114,193.683305 252.722037,192.474943 C253.132051,191.225568 253.484299,189.950464 253.777204,188.655343 C254.101805,186.850726 254.07135,184.981325 253.688214,183.193012 C253.656619,183.053863 253.536144,182.971517 253.419125,183.009087 C253.302107,183.046658 253.232857,183.189917 253.264452,183.329067 C253.62137,184.989323 253.657588,186.724119 253.370393,188.40339 C253.133322,189.532221 252.834643,190.641483 252.476255,191.724124 C252.094276,192.97614 251.800861,194.26389 251.599068,195.573959 C251.543979,195.987161 251.493128,196.405402 251.433801,196.823643 C251.168244,198.721685 250.933762,200.629806 250.730357,202.548004 C250.611703,203.712025 250.505763,204.881084 250.429486,206.075339 C250.353209,207.269594 250.340496,208.448732 250.327783,209.642987 C250.29812,212.016379 250.204892,214.39985 250.001487,216.758126 C249.971823,217.080625 250.395585,217.080625 250.425248,216.758126 L250.40406,216.737969 Z" id="Path" fill="#000000" fill-rule="nonzero"></path>
            <path d="M252.506378,177.186448 C252.049185,179.33947 251.900404,181.550521 252.064822,183.748461 C252.064822,184.081241 252.56659,184.086441 252.56659,183.748461 C252.404464,181.597827 252.548166,179.434177 252.993093,177.326839 C253.06334,176.999259 252.576625,176.858867 252.491325,177.186448 L252.506378,177.186448 Z" id="Path" fill="#000000" fill-rule="nonzero"></path>
            <path d="M250.398227,179.195331 L250.009271,181.660889 C249.968963,181.802888 250.063578,181.94745 250.225358,181.99105 C250.388898,182.028437 250.556857,181.945315 250.601966,181.804669 L250.990923,179.333786 C251.030806,179.193135 250.935743,179.050231 250.774836,179.00895 C250.611295,178.971563 250.443337,179.054685 250.398227,179.195331 L250.398227,179.195331 Z" id="Path" fill="#000000" fill-rule="nonzero"></path>
            <path d="M246.236641,180.275229 L246,182.724771 C246,182.876776 246.170884,183 246.381679,183 C246.592475,183 246.763359,182.876776 246.763359,182.724771 L247,180.275229 C247,180.123224 246.829116,180 246.618321,180 C246.40923,180.002928 246.240702,180.124454 246.236641,180.275229 Z" id="Path" fill="#000000" fill-rule="nonzero"></path>
            <path d="M245.207089,180.19031 C244.93097,182.575963 244.93097,185.002454 245.207089,187.388107 C245.408261,189.107523 245.775104,190.940535 245.483207,192.675441 C245.427984,193.000736 245.80666,193.140148 245.877662,192.814853 C246.169559,191.090274 245.877662,189.267589 245.640989,187.553336 C245.339815,185.161194 245.326506,182.722089 245.601544,180.324559 C245.640989,179.999264 245.262313,179.859852 245.207089,180.185147 L245.207089,180.19031 Z" id="Path" fill="#000000" fill-rule="nonzero"></path>
            <path d="M292.400131,11 L53.6670099,11 C44.4620745,11 37,18.462326 37,27.6675714 L37,183.332429 C37,187.752944 38.7559835,191.992406 41.8816542,195.118181 C45.0073248,198.243957 49.246644,200 53.6670099,200 L292.400131,200 C298.353613,200 303.854457,196.822255 306.831198,191.666214 L351.765456,113.831221 C354.744848,108.674825 354.744848,102.320047 351.765456,97.1636503 L306.831198,19.3337858 C303.856006,14.1761965 298.35418,11 292.400131,11 L292.400131,11 Z" id="Path" fill="#E9E9E9" fill-rule="nonzero"></path>
            <path d="M292.400131,11 L53.6670099,11 C44.4620745,11 37,18.462326 37,27.6675714 L37,183.332429 C37,187.752944 38.7559835,191.992406 41.8816542,195.118181 C45.0073248,198.243957 49.246644,200 53.6670099,200 L292.400131,200 C298.353613,200 303.854457,196.822255 306.831198,191.666214 L351.765456,113.831221 C354.744848,108.674825 354.744848,102.320047 351.765456,97.1636503 L306.831198,19.3337858 C303.856006,14.1761965 298.35418,11 292.400131,11 L292.400131,11 Z" id="Path" stroke="#000000"></path>
            <circle id="Oval" fill="#FFFFFF" fill-rule="nonzero" cx="310" cy="106" r="13"></circle>
            <circle id="Oval" stroke="#000000" cx="310" cy="106" r="13"></circle>
            <g transform="translate(112.000000, 38.000000)" fill="#FFFFFF" fill-rule="nonzero">
                <path d="M28.6123438,57.182608 C12.8080227,57.1797844 -0.00188407425,44.3777714 0,28.5878958 C0.00188407425,12.7980202 12.8148456,-0.00094104984 28.6191669,0 C44.4234882,0.00094104984 57.2349229,12.8014281 57.2349229,28.5913038 C57.2123672,44.3744969 44.4099803,57.1628951 28.6123438,57.182608 L28.6123438,57.182608 Z M28.6123438,9.57645029 C20.9119819,9.57645029 13.9699435,14.21107 11.0236209,21.3189721 C8.07729825,28.4268741 9.70699276,36.6081017 15.1527028,42.0473716 C20.5984128,47.4866415 28.787563,49.1126468 35.9011755,46.1671064 C43.014788,43.2215659 47.6517809,36.284627 47.6497116,28.5913038 C47.6384239,18.0923687 39.1208867,9.5849043 28.6123438,9.57645029 L28.6123438,9.57645029 Z" id="Shape"></path>
                <path d="M87.3825384,137 C75.8053204,137.002067 65.3669188,130.036085 60.9350749,119.3505 C56.503231,108.664915 58.950794,96.364248 67.1363917,88.1846698 C75.3219893,80.0050916 87.6334723,77.5575663 98.3296254,81.9834486 C109.025778,86.4093309 116,96.8369456 116,108.403582 C115.980269,124.186779 103.180171,136.977464 87.3825384,137 L87.3825384,137 Z M87.3825384,89.3887278 C79.6817112,89.3866605 72.7381022,94.0199685 69.7901669,101.127707 C66.8422317,108.235445 68.4706628,116.417511 73.9159702,121.857841 C79.3612775,127.298172 87.5508293,128.925114 94.6650702,125.979873 C101.779311,123.034633 106.416858,116.09737 106.414789,108.403582 C106.400692,97.9078071 97.8879155,89.4028111 87.3825384,89.3887278 Z" id="Shape"></path>
                <polygon id="Path" transform="translate(57.998076, 68.499370) rotate(-45.000000) translate(-57.998076, -68.499370) " points="-8.48168223 63.6785591 124.473454 63.7393495 124.477834 73.3201809 -8.47730163 73.2593905"></polygon>
            </g>
            <g transform="translate(112.000000, 38.000000)" stroke="#000000">
                <path d="M28.6123438,57.182608 C12.8080227,57.1797844 -0.00188407425,44.3777714 0,28.5878958 C0.00188407425,12.7980202 12.8148456,-0.00094104984 28.6191669,0 C44.4234882,0.00094104984 57.2349229,12.8014281 57.2349229,28.5913038 C57.2123672,44.3744969 44.4099803,57.1628951 28.6123438,57.182608 L28.6123438,57.182608 Z M28.6123438,9.57645029 C20.9119819,9.57645029 13.9699435,14.21107 11.0236209,21.3189721 C8.07729825,28.4268741 9.70699276,36.6081017 15.1527028,42.0473716 C20.5984128,47.4866415 28.787563,49.1126468 35.9011755,46.1671064 C43.014788,43.2215659 47.6517809,36.284627 47.6497116,28.5913038 C47.6384239,18.0923687 39.1208867,9.5849043 28.6123438,9.57645029 L28.6123438,9.57645029 Z" id="Shape"></path>
                <path d="M87.3825384,137 C75.8053204,137.002067 65.3669188,130.036085 60.9350749,119.3505 C56.503231,108.664915 58.950794,96.364248 67.1363917,88.1846698 C75.3219893,80.0050916 87.6334723,77.5575663 98.3296254,81.9834486 C109.025778,86.4093309 116,96.8369456 116,108.403582 C115.980269,124.186779 103.180171,136.977464 87.3825384,137 L87.3825384,137 Z M87.3825384,89.3887278 C79.6817112,89.3866605 72.7381022,94.0199685 69.7901669,101.127707 C66.8422317,108.235445 68.4706628,116.417511 73.9159702,121.857841 C79.3612775,127.298172 87.5508293,128.925114 94.6650702,125.979873 C101.779311,123.034633 106.416858,116.09737 106.414789,108.403582 C106.400692,97.9078071 97.8879155,89.4028111 87.3825384,89.3887278 Z" id="Shape"></path>
                <polygon id="Path" stroke-width="0.999999998" transform="translate(57.998076, 68.499370) rotate(-45.000000) translate(-57.998076, -68.499370) " points="-8.48168223 63.6785591 124.473454 63.7393495 124.477834 73.3201809 -8.47730163 73.2593905"></polygon>
            </g>
            <g transform="translate(54.000000, 140.000000)" fill="#FFFFFF" fill-rule="nonzero" id="Path">
                <path d="M50.160095,15.2086103 C50.160095,15.2086103 48.5117135,12.3612193 48.4706324,11.2304864 C48.4295512,10.0997535 48.2498211,8.2134854 48.9841469,8.04387546 C49.7184726,7.87426552 50.9406371,7.67895711 50.9406371,7.67895711 C50.9406371,7.67895711 51.04334,4.69793399 51.3771244,3.61345834 C51.7109088,2.52898268 51.9984769,1.04361082 54.1757783,0.678692468 C56.3530797,0.31377412 59.8244377,-0.0922617877 59.5830859,3.16630487 C59.3417341,6.42487152 59.8603837,7.2780609 59.9938975,7.7920304 C60.1274112,8.30599991 60.7333583,11.1790894 60.5382228,12.2070284 C60.3430873,13.2349674 58.2017319,17.5677304 58.0887587,18.6110885 C57.9757855,19.6544466 58.0117315,21.5047368 58.6433544,21.8747948 C59.0440475,22.1974652 59.2749134,22.6861226 59.269842,23.2008361 L57.3287573,42.0018406 C57.3287573,42.0018406 55.3928077,55.0720851 54.3863193,56.9429341 C52.6660457,60.1346847 45.764411,65.1150492 45.764411,65.1150492 L10.5886687,67.6283601 L0,60.8696611 C0,60.8696611 6.23920101,58.8137831 7.65136585,58.4540044 C9.06353069,58.0942258 10.8711017,58.4540044 11.3178593,56.4700821 C11.7646169,54.4861598 12.4527263,47.4190792 12.5605643,47.2546089 C12.6684024,47.0901387 15.0562447,36.1168898 15.0562447,36.1168898 L22.8770704,33.870843 C23.5325833,34.7395728 24.1181194,35.6590431 24.6281548,36.6205799 C25.1930207,37.7924303 25.8605895,39.0876335 26.0916711,39.4525518 C26.3227526,39.8174702 27.0673486,40.4393733 27.1187,40.9687619 C27.1042048,41.4129504 26.9863993,41.8476329 26.7746453,42.2382666 C27.0809959,43.3256341 27.2990928,44.4359923 27.4268087,45.5585096 C27.4268087,46.5196325 27.5808631,48.0307029 26.6719424,48.8273556 C25.7630218,49.6240083 25.7989678,49.7781992 25.2443722,49.9992061 C24.7444085,50.1628622 24.22765,50.2697535 23.7038287,50.3178672 C23.7038287,50.3178672 22.8462595,50.1790954 22.4508533,51.3766443 C22.0554472,52.5741933 20.8281476,56.084605 22.260853,55.6271721 C23.6935584,55.1697393 31.1908699,52.9750895 31.1908699,52.9750895 C31.1908699,52.9750895 37.4608818,50.7136237 37.8665582,50.3178672 C38.2722347,49.9221106 42.3803506,47.5886891 43.0017031,45.1421943 C43.0017031,45.1421943 44.8092741,36.7285135 44.9222473,36.2762203 C45.0352205,35.8239271 46.365223,31.1365253 46.7811697,29.9800939 C47.1971164,28.8236625 47.8492798,26.7318066 48.0649559,25.8683379 C48.280632,25.0048691 48.8609034,22.2705513 48.8609034,22.2705513 L50.5298255,21.6897658 C50.7174818,20.5066332 50.8409065,19.3141869 50.8995559,18.1176777 C50.7161803,17.1330041 50.4691747,16.1612744 50.160095,15.2086103 L50.160095,15.2086103 Z"></path>
                <path d="M238.573695,34.1432469 C238.522344,34.2563202 239.939644,37.2270639 239.939644,37.2270639 C239.939644,37.2270639 241.115592,39.5399267 241.552079,40.1361313 C241.988567,40.7323359 242.317216,41.0869749 242.199108,41.4673123 C242.101212,41.7461346 241.966504,42.0106027 241.798566,42.2536856 C241.798566,42.2536856 242.568838,45.5071126 242.47127,46.3911402 C242.373702,47.2751677 241.890999,49.1357373 240.530185,49.7833389 C239.994783,50.0822527 239.423642,50.3119477 238.830453,50.4669183 C238.830453,50.4669183 237.803424,50.0917206 237.464504,51.6336291 C237.125584,53.1755376 235.846933,55.6374515 237.464504,55.1132026 C239.082075,54.5889537 242.086134,54.5992331 243.113163,54.2445942 C244.140192,53.8899552 248.402363,53.9053743 251.806964,51.9574299 C255.211565,50.0094855 257.121839,48.652606 257.121839,48.652606 L256.479945,58.5310998 L253.691562,61.4864245 L233.423145,71 L215.52203,69.972061 C215.52203,69.972061 220.14366,53.5250369 220.426093,53.2269346 C220.708526,52.9288322 230.634761,35.2380019 230.634761,35.2380019"></path>
                <path d="M266.904289,13.157872 C266.904289,13.157872 264.881042,9.87360689 266.349694,7.05705401 C267.818345,4.24050113 267.766994,6.75381201 267.766994,6.75381201 C267.766994,6.75381201 267.602669,0.745508504 269.199699,0.185281744 C270.796729,-0.374945015 274.848359,0.442266496 275.033224,1.21322075 C275.218089,1.98417501 274.314304,3.81904614 274.915115,6.35291579 C275.515927,8.88678545 276.630254,11.1945085 275.541603,14.1498332 C274.452952,17.1051578 273.785384,17.9018105 274.278358,21.011326 C274.57326,22.8116615 274.700473,24.6355189 274.658358,26.4594028 L266.329153,31.5990978 C266.329153,31.5990978 268.716996,18.7498602 268.265103,17.0589006 C267.878469,15.7361151 267.424267,14.43406 266.904289,13.157872 L266.904289,13.157872 Z"></path>
            </g>
            <path d="M290.408514,191.189028 C289.764437,192.962487 289.294499,194.791086 289.004969,196.650419 C288.941953,197.000793 289.497642,197.150953 289.577845,196.800579 C289.871475,194.942044 290.341319,193.113814 290.98139,191.339188 C291.107422,190.999937 290.557462,190.855338 290.408514,191.189028 L290.408514,191.189028 Z" id="Path" fill="#000000" fill-rule="nonzero"></path>
            <path d="M289.224992,191 C289.224992,191 288.314611,191.553648 290.156382,193 C290.156382,193 290.800651,191.824034 290.856675,191.712446 C290.912698,191.600858 291.395901,191.197425 290.198399,191.188841 C289.000898,191.180258 289.224992,191 289.224992,191 Z" id="Path" fill="#000000" fill-rule="nonzero"></path>
            <path d="M290,191.860539 C298.581042,192.977659 297.147275,187.099728 296.468122,184.343468 C296.419611,184.160762 296.36032,183.978055 296.311809,183.795349 C296.790926,183.404726 296.880053,182.723273 296.516633,182.229292 C296.272796,181.940359 296.047773,181.637001 295.84287,181.32098 C295.392726,180.66552 294.994515,179.977967 294.651658,179.264226 C293.649099,177.17615 292.350084,174.910589 291.175042,173" id="Path" stroke="#000000"></path>
            <path d="M287.179527,182.161452 C287.312721,182.078585 287.53249,182.122199 287.685662,182.161452 C287.861494,182.218805 288.026823,182.289037 288.178478,182.3708 C288.467882,182.5354 288.695723,182.741315 288.844445,182.972678 C288.891063,183.038099 289.037576,182.972678 288.990958,182.915979 C288.804921,182.648286 288.518562,182.41574 288.158499,182.239958 C287.872133,182.100392 287.352679,181.877959 287.026355,182.082946 C286.946439,182.130922 287.066313,182.205066 287.146229,182.15709 L287.179527,182.161452 Z" id="Path" fill="#000000" fill-rule="nonzero"></path>
            <path d="M288.193742,182.607387 L288.257823,182.547387 C288.283972,182.520341 288.315216,182.499863 288.349367,182.487387 L288.440911,182.487387 L288.54161,182.487387 L288.77047,182.487387 L288.880323,182.487387 C288.933458,182.487709 288.980351,182.449512 288.99523,182.393789 C289.010108,182.338065 288.989366,182.27832 288.944403,182.247387 C288.602399,182.147199 288.239126,182.286089 288.028963,182.597387 C287.990346,182.646202 287.990346,182.718571 288.028963,182.767387 C288.055359,182.784849 288.087262,182.789379 288.116867,182.779867 C288.146472,182.770355 288.17105,182.74768 288.184588,182.717387 L288.193742,182.607387 Z" id="Path" fill="#000000" fill-rule="nonzero"></path>
            <path d="M282.511911,190.189868 C282.338293,191.127095 282.140561,192.059027 281.889779,192.975074 C281.638997,193.891121 281.32552,194.785988 281.016866,195.680855 C280.905943,195.998559 281.373748,196.136231 281.499138,195.823822 C281.80297,194.928955 282.111624,194.028793 282.367229,193.118041 C282.622833,192.207289 282.815742,191.264767 282.994183,190.332834 C283.056879,189.999245 282.593897,189.856278 282.511911,190.189868 Z" id="Path" fill="#000000" fill-rule="nonzero"></path>
            <path d="M328.580874,142.194363 C328.127594,144.690448 328.839243,147.111383 329.278924,149.537685 C329.542602,150.777368 329.608703,152.06442 329.473835,153.332809 C329.278924,154.70163 328.75312,155.952357 328.367832,157.246027 C327.990327,158.701894 327.901905,160.241354 328.109463,161.744349 C328.145725,162.082528 328.599005,162.087896 328.562742,161.744349 C328.367628,160.390345 328.421744,159.00241 328.72139,157.675461 C329.079481,156.381791 329.62795,155.157904 329.85459,153.826658 C330.307869,151.36278 329.59622,148.968685 329.156539,146.585326 C328.849745,145.197059 328.801797,143.746346 329.016022,142.333929 C329.079481,141.995749 328.644333,141.856183 328.562742,142.194363 L328.580874,142.194363 Z" id="Path" fill="#000000" fill-rule="nonzero"></path>
            <path d="M325.327924,143.203026 C325.085712,144.365973 324.977265,145.544349 325.003955,146.723253 C325.003955,146.876096 325.158259,147 325.348603,147 C325.538947,147 325.693252,146.876096 325.693252,146.723253 C325.664228,145.594759 325.763438,144.466492 325.989649,143.352469 C326.034652,143.204877 325.929017,143.05462 325.748395,143.009302 C325.565808,142.970443 325.378287,143.056839 325.327924,143.203026 Z" id="Path" fill="#000000" fill-rule="nonzero"></path>
            <path d="M324.309192,143.202455 C324.002545,144.374356 323.923492,145.5708 324.074259,146.758086 C324.116974,147.078093 324.828892,147.083173 324.786177,146.758086 C324.6304,145.610548 324.699889,144.453113 324.992633,143.319283 C325.078063,142.999276 324.394622,142.86213 324.280715,143.182137 L324.309192,143.202455 Z" id="Path" fill="#000000" fill-rule="nonzero"></path>
            <path d="M321.450261,142.198119 C320.753275,144.675686 321.006214,147.241182 321.276015,149.749783 C321.30974,150.080815 321.871826,150.085987 321.8381,149.749783 C321.568299,147.287734 321.30974,144.763616 321.989864,142.337773 C322.031772,142.194942 321.939918,142.047892 321.784702,142.009328 C321.629487,141.970763 321.469686,142.055288 321.427778,142.198119 L321.450261,142.198119 Z" id="Path" fill="#000000" fill-rule="nonzero"></path>
            <path d="M319.049075,149.237831 C318.929317,150.219104 319.029367,151.213903 319.342379,152.154184 C319.671703,153.127966 320.242875,154.011861 320.639093,154.960674 C320.939481,155.637957 321.177121,156.339855 321.349198,157.058052 C321.487994,157.851171 321.529448,158.657459 321.472694,159.460048 C321.44182,160.23408 321.338906,160.998124 321.235993,161.762169 C321.194827,162.081769 321.709396,162.076775 321.750561,161.762169 C322.024627,160.25371 322.073152,158.714782 321.894641,157.192883 C321.632211,155.5799 320.788318,154.121724 320.09365,152.658553 C319.601117,151.585968 319.423062,150.4023 319.579081,149.237831 C319.615101,148.918231 319.100532,148.923225 319.064512,149.237831 L319.049075,149.237831 Z" id="Path" fill="#000000" fill-rule="nonzero"></path>
            <path d="M289.888457,244.487936 C286.193843,242.513582 282.357856,240.838495 278.414729,239.477623 C274.455317,238.108416 270.382736,237.1212 266.248708,236.528514 C263.929334,236.209864 261.59389,236.033386 259.254519,236 C259.113952,236 259,236.118312 259,236.264257 C259,236.410202 259.113952,236.528514 259.254519,236.528514 C263.366155,236.606539 267.459503,237.118305 271.471444,238.05592 C275.492074,238.9979 279.429018,240.290293 283.240414,241.919358 C285.408918,242.838972 287.533305,243.855481 289.613576,244.968884 C289.903728,245.122153 290.163338,244.667631 289.873186,244.509077 L289.888457,244.487936 Z" id="Path" fill="#000000" fill-rule="nonzero"></path>
            <path d="M292.052628,180.19647 C292.043956,180.256817 292.043956,180.317554 292.052628,180.377902 C292.043572,180.442025 292.043572,180.506549 292.052628,180.570672 C292.080994,180.67112 292.131194,180.768469 292.201739,180.859828 C292.327049,180.99451 292.595834,181.039834 292.806956,180.961884 C292.902117,180.922914 292.971028,180.862172 292.999924,180.791792 L292.999924,180.712416 C293.001445,180.662295 292.98009,180.612995 292.938525,180.570672 C292.934722,180.559466 292.934722,180.54786 292.938525,180.536654 L292.938525,180.604691 C292.896052,180.541293 292.866566,180.474583 292.850813,180.40625 L292.850813,180.479957 C292.833311,180.41239 292.833311,180.343413 292.850813,180.275846 L292.850813,180.355223 C292.8684,180.318279 292.8684,180.278771 292.850813,180.241828 C292.850813,180.205025 292.832346,180.169215 292.798185,180.139773 C292.67626,180.005824 292.41022,179.960303 292.201739,180.037718 L292.114026,180.083076 C292.058169,180.116658 292.018563,180.159983 292,180.20781 L292.052628,180.19647 Z" id="Path" fill="#000000" fill-rule="nonzero"></path>
            <path d="M290,245 C290,245 264.382593,239.73052 256,243.023274 C256,243.023274 258.444081,235.841526 260.171098,236.002672 C270.022168,236.797685 279.653723,239.501003 288.591118,243.979408" id="Path" fill="#000000" fill-rule="nonzero"></path>
            <g transform="translate(248.000000, 159.000000)" id="Path" stroke="#000000">
                <path d="M79.9152337,0.859335038 C79.9152337,0.859335038 81.2960917,18.3017903 80.9418939,25.3248082 C80.5876961,32.3478261 62.9753396,45.5498721 53.1758675,49.8772379 C53.1758675,49.8772379 54.8493237,52.6086957 52.2878064,59.7442455 C49.7262891,66.8797954 42.6166669,79.943734 42.4216014,86"></path>
                <path d="M74.0992034,0 C73.9533789,3.46016768 73.4720296,6.89816943 72.661879,10.2659847 C71.537686,15.1253197 71.2656211,21.1662404 71.2091548,23.2531969 C71.1971692,23.7271529 70.9659973,24.1689752 70.582892,24.4501279 L62.91374,30.1636829 C62.91374,30.1636829 57.3389748,34.5780051 51.9079421,35.3248082 C46.4769094,36.0716113 41.7542723,36.4910486 40.5582131,38.3273657"></path>
                <line x1="14.3013772" y1="49.8976982" x2="0" y2="58.7314578"></line>
            </g>
            <path d="M289.269018,245.552609 C290.021901,247.536643 290.919172,249.474417 291.790659,251.41219 C293.203603,254.557861 294.642331,257.693251 296.081059,260.828641 C299.360739,267.988638 302.661046,275.138356 305.796338,282.360033 C306.987542,285.115065 308.17359,287.875236 309.220406,290.686807 C310.818993,294.999254 312.025668,299.48132 313.28391,303.901706 C316.223246,314.258773 318.796454,324.71864 321.132453,335.224767 C322.3185,340.565211 323.458138,345.915934 324.47917,351.287217 C324.47917,351.364317 324.510111,351.441417 324.520424,351.518516 L324.587462,351.271797 C322.607277,353.713289 319.033663,353.924029 316.135581,354.314668 C313.237499,354.705306 310.28785,355.039405 307.36914,355.342664 C300.954168,355.952609 294.518569,356.312408 288.062344,356.422061 C281.451173,356.550665 274.837814,356.329335 268.250187,355.759003 C262.20444,355.2712 256.215393,354.238993 250.356334,352.675013 C248.948737,352.357026 247.578234,351.893636 246.267048,351.292357 C245.484223,350.954759 244.887527,350.294333 244.632364,349.483083 C244.410625,348.532186 244.714872,347.535029 244.946925,346.614972 C245.937162,343.011225 247.207851,339.48994 248.747435,336.083145 C250.181006,332.737015 251.671301,329.401166 252.816095,325.957377 C253.999332,322.350215 254.901009,318.657269 255.513064,314.911551 C256.153175,311.176481 256.463766,307.392694 256.441276,303.603587 C256.348381,299.759077 255.925707,295.929534 255.177877,292.156843 C254.450778,288.209335 253.538037,284.302947 252.764527,280.37086 C252.123585,277.380041 251.689399,274.34889 251.465031,271.298788 C251.19157,265.842305 251.511431,260.372347 252.419026,254.984479 C253.254417,249.844495 254.481718,244.529752 257.060083,239.986006 C257.560105,239.085919 258.145489,238.235651 258.808215,237.446854 C259.019641,237.200135 258.653513,236.830056 258.442087,237.087055 C255.636826,240.386925 254.192941,244.797031 253.140969,248.909018 C251.893913,253.916255 251.154509,259.035666 250.933888,264.19019 C250.812704,266.535896 250.812704,268.886263 250.933888,271.231968 C251.107455,273.860853 251.451961,276.475744 251.965234,279.060164 C253.305984,286.256141 255.317109,293.380159 255.791528,300.699496 C256.250477,307.746414 255.301638,314.855011 253.51741,321.67063 C252.629371,324.986697 251.512866,328.237745 250.175849,331.400619 C248.876353,334.48461 247.473722,337.5686 246.277361,340.72455 C245.674024,342.323085 245.122254,343.93704 244.668461,345.586975 C244.286863,346.954211 243.637115,348.670965 244.255923,350.074181 C244.771596,351.184417 245.88545,351.780656 246.968363,352.186714 C248.190508,352.649313 249.46422,352.993692 250.727619,353.338071 C256.050525,354.718308 261.478186,355.66038 266.955848,356.154782 C278.903991,357.352398 291.00168,357.182779 302.965293,356.237022 C308.312822,355.820683 313.696448,355.322104 318.987253,354.438027 C320.405964,354.254346 321.784309,353.837496 323.066226,353.204431 C323.583021,352.926676 324.059995,352.580912 324.484327,352.176434 C324.711223,351.955415 325,351.724116 325,351.400297 C324.954849,350.911331 324.863338,350.427726 324.726693,349.955961 C323.153891,341.896467 321.390289,333.872952 319.487456,325.880277 C318.033258,319.746563 316.474207,313.636835 314.810302,307.551094 C313.923344,304.306051 312.996852,301.076428 312.030824,297.862225 C311.344979,295.595492 310.690074,293.313339 309.885625,291.087726 C308.766614,288.003736 307.441335,284.919745 306.126368,281.902575 C304.347297,277.790588 302.516658,273.73514 300.655078,269.664273 C297.390868,262.468296 294.008053,255.354558 290.857291,248.117461 C290.470536,247.233384 290.088938,246.349306 289.748594,245.444669 C289.629989,245.14141 289.129787,245.26991 289.232921,245.583449 L289.269018,245.552609 Z" id="Path" fill="#000000" fill-rule="nonzero"></path>
            <path d="M322.543004,353 C322.543004,353 322.4115,368.60036 326.72583,381.529565 C328.217891,386.013653 335.405069,387.115631 335.743944,388.309018 C336.082818,389.502405 336.087876,390.497741 335.743944,390.624697 C335.400011,390.751653 316.342102,391.401668 316.342102,390.624697 C316.342102,389.847726 317.024909,380.874472 313.813186,372.114504 C310.601463,363.354536 307.794367,355.22427 308.011854,355.203957" id="Path" stroke="#000000"></path>
            <path d="M249.839723,352 C249.839723,352 247.010926,360.73399 246.343228,367.048945 C245.323842,376.765827 241.552112,386.233167 240.079099,389.655465 C239.9502,389.95337 239.980237,390.296121 240.158991,390.56711 C240.337746,390.838098 240.641144,391.000829 240.965965,391 L256.960136,391 C257.292168,391.003448 257.607549,390.854941 257.816188,390.59684 C258.024827,390.338739 258.10378,389.999428 258.030492,389.675836 C257.847002,388.947579 257.250661,388.148024 255.604352,387.786442 C252.342316,387.098927 250.629747,386.497987 251.659327,383.758112 C252.688908,381.018236 261.088651,361.482618 263,354.800988" id="Path" stroke="#000000"></path>
            <path d="M274.641594,215.049353 L274.111594,215.913473 C274.111594,215.999313 274.301594,216.039372 274.361594,215.947809 L274.881594,215.089411 C274.931594,214.997849 274.691594,214.963513 274.641594,215.049353 L274.641594,215.049353 Z" id="Path" fill="#000000" fill-rule="nonzero"></path>
            <path d="M276.535707,211.625 C276.59152,211.609057 276.63,211.558045 276.63,211.5 C276.63,211.441955 276.59152,211.390943 276.535707,211.375 C276.482655,211.359845 276.425815,211.37983 276.393921,211.424852 C276.362026,211.469875 276.362026,211.530125 276.393921,211.575148 C276.425815,211.62017 276.482655,211.640155 276.535707,211.625 L276.535707,211.625 Z" id="Path" fill="#000000" fill-rule="nonzero"></path>
            <path d="M244.184508,374.551746 C244.810169,374.747181 245.46089,374.835254 246.112388,374.812677 C246.822699,374.854814 247.526871,374.976895 248.213218,375.176894 C248.869409,375.36172 249.520514,375.568291 250.161445,375.812914 C250.315327,375.843707 250.440631,375.962969 250.486998,376.12277 C250.536577,376.301184 250.575652,376.482742 250.603993,376.666377 L250.853244,377.802515 C250.880985,377.906796 250.964061,377.983486 251.064636,377.997659 C251.165212,378.011833 251.264051,377.960779 251.316139,377.867748 C251.456964,377.592666 251.616792,377.329191 251.794294,377.079518 C251.972866,376.786264 252.194429,376.525626 252.450485,376.307596 C252.679389,376.139078 252.933727,376.307596 253.177891,376.361957 C253.388676,376.440676 253.618211,376.440676 253.828996,376.361957 C254.129115,376.236927 254.001946,375.709628 253.69674,375.81835 C253.391535,375.927071 253.127024,375.736809 252.847252,375.682448 C252.597491,375.626687 252.337397,375.690219 252.135106,375.856402 C251.618989,376.339519 251.192735,376.922298 250.878678,377.5742 L251.341573,377.639433 L251.066888,376.383701 C251.035524,376.075477 250.922594,375.783193 250.741335,375.54111 C250.502579,375.3532 250.228275,375.223328 249.937628,375.160585 C249.561208,375.024684 249.179702,374.894218 248.793108,374.780061 C248.087028,374.553066 247.363608,374.392989 246.631237,374.301686 C245.85805,374.209273 245.049256,374.301686 244.30659,374.019011 C244.001385,373.893981 243.869129,374.42128 244.169247,374.562618 L244.184508,374.551746 Z" id="Path" fill="#000000" fill-rule="nonzero"></path>
            <path d="M315.387455,375.818135 C316.704321,375.239299 318.126096,374.900968 319.577199,374.821128 C319.913363,374.800392 320.250611,374.800392 320.586775,374.821128 C320.921927,374.828089 321.215652,375.033851 321.318719,375.333874 C321.587704,375.91021 321.942972,376.447388 322.373726,376.929085 C322.530211,377.1 322.777557,376.929085 322.802797,376.762917 C322.899702,375.979257 323.049761,375.202224 323.252058,374.436568 L322.939089,374.602736 C323.56677,374.756363 324.230308,374.716422 324.832046,374.488792 C325.129871,374.374849 324.998626,373.914327 324.695753,374.014027 C324.183751,374.218964 323.614093,374.259022 323.075382,374.127971 C322.940411,374.094379 322.801569,374.168095 322.762413,374.294139 C322.554643,375.101064 322.399552,375.919188 322.298008,376.743926 L322.727078,376.573011 C322.457844,376.283046 322.225735,375.964354 322.035518,375.623481 C321.902739,375.327815 321.749284,375.040745 321.576161,374.764156 C321.147091,374.199186 320.329333,374.289391 319.673108,374.317877 C318.099288,374.392668 316.556099,374.755519 315.130013,375.386098 C314.837235,375.514285 315.08963,375.922583 315.387455,375.794396 L315.387455,375.818135 Z" id="Path" fill="#000000" fill-rule="nonzero"></path>
            <path d="M248,359.636118 C248.440874,359.662056 256.727299,363.184369 260.199181,362.992432 L262.4286,356.694805 C262.4286,356.694805 264.096907,354.956992 261.73222,354.557554 C259.367533,354.158116 251.091127,352.062366 251.091127,352.062366 C251.091127,352.062366 250.15427,351.585116 249.673317,353.271054 C249.192364,354.956992 248,359.636118 248,359.636118 L248,359.636118 Z" id="Path" fill="#000000" fill-rule="nonzero"></path>
            <path d="M310.383412,363 C310.665229,362.857395 320.533597,362.679139 322,360.799808 L321.727736,355.997075 L321.670418,353.888558 C321.670418,353.888558 322.148073,352.696787 320.600469,353.073672 C319.052864,353.450557 312.556746,354.382582 312.556746,354.382582 L308.921785,354.805305 C308.921785,354.805305 307.536584,353.919116 308.162313,355.997075 C308.788042,358.075034 310.383412,363 310.383412,363 L310.383412,363 Z" id="Path" fill="#000000" fill-rule="nonzero"></path>
            <path d="M76.4085141,191.189028 C75.7644374,192.962487 75.2944985,194.791086 75.004969,196.650419 C74.9419527,197.000793 75.497642,197.150953 75.5778445,196.800579 C75.871475,194.942044 76.3413194,193.113814 76.9813896,191.339188 C77.1074222,190.999937 76.5574617,190.855338 76.4085141,191.189028 L76.4085141,191.189028 Z" id="Path" fill="#000000" fill-rule="nonzero"></path>
            <path d="M75.2249917,191 C75.2249917,191 74.3146106,191.553648 76.1563817,193 C76.1563817,193 76.8006515,191.824034 76.8566749,191.712446 C76.9126984,191.600858 77.3959007,191.197425 76.1983993,191.188841 C75.0008979,191.180258 75.2249917,191 75.2249917,191 Z" id="Path" fill="#000000" fill-rule="nonzero"></path>
            <path d="M74,191.860539 C82.5810416,192.977659 81.1472746,187.099728 80.4681218,184.343468 C80.4196109,184.160762 80.3603198,183.978055 80.3118089,183.795349 C80.7909263,183.404726 80.8800532,182.723273 80.5166327,182.229292 C80.274584,181.939035 80.0496389,181.635782 79.84287,181.32098 C79.3927257,180.66552 78.9945148,179.977967 78.6516576,179.264226 C77.6490987,177.17615 76.3500843,174.910589 75.1750421,173" id="Path" stroke="#000000"></path>
            <path d="M72.146229,182.161452 C72.2794224,182.078585 72.4991916,182.122199 72.6523641,182.161452 C72.8281957,182.218805 72.9935247,182.289037 73.1451798,182.3708 C73.4466897,182.533006 73.6861456,182.739112 73.8444453,182.972678 C73.891063,183.038099 74.0375758,182.972678 73.9909581,182.915979 C73.8049209,182.648286 73.518562,182.41574 73.1584991,182.239958 C72.8721332,182.100392 72.3526788,181.877959 72.0263549,182.082946 C71.9464388,182.130922 72.0663129,182.205066 72.146229,182.15709 L72.146229,182.161452 Z" id="Path" fill="#000000" fill-rule="nonzero"></path>
            <path d="M72.2486688,182.607387 L72.3127496,182.547387 L72.4042936,182.487387 L72.4958376,182.487387 L72.5965361,182.487387 L72.7704697,182.487387 L72.8803226,182.487387 C72.9334585,182.487709 72.9803514,182.449512 72.9952297,182.393789 C73.010108,182.338065 72.989366,182.27832 72.9444034,182.247387 C72.6023988,182.147199 72.2391261,182.286089 72.0289631,182.597387 C71.9903456,182.646202 71.9903456,182.718571 72.0289631,182.767387 C72.055359,182.784849 72.0872616,182.789379 72.116867,182.779867 C72.1464724,182.770355 72.1710501,182.74768 72.1845879,182.717387 L72.2486688,182.607387 Z" id="Path" fill="#000000" fill-rule="nonzero"></path>
            <path d="M66.5088954,190.177852 C66.0275847,192.657845 65.8831915,195.296557 65.0168323,197.70215 C64.9061308,197.999749 65.3730022,198.128708 65.498143,197.831109 C66.3645022,195.425517 66.4944561,192.806644 66.9950193,190.311772 C67.0527765,189.999293 66.5907183,189.865373 66.5137086,190.177852 L66.5088954,190.177852 Z" id="Path" fill="#000000" fill-rule="nonzero"></path>
            <path d="M112.783633,142.201316 C112.033436,144.683398 112.872472,147.102241 113.321603,149.542164 C113.593078,150.783192 113.593078,152.074322 113.321603,153.31535 C112.976117,154.70131 112.230856,155.918637 111.663273,157.204471 C111.086987,158.634292 110.880744,160.203077 111.066076,161.747049 C111.090754,162.084317 111.584305,162.084317 111.559627,161.747049 C111.377745,160.355394 111.537613,158.937157 112.023565,157.631326 C112.56647,156.361301 113.287054,155.175593 113.691766,153.842331 C114.441963,151.376059 113.642411,148.962485 113.198215,146.538372 C112.873456,145.151338 112.895581,143.697557 113.262377,142.322522 C113.361087,142.001063 112.887278,141.858778 112.768826,142.185507 L112.783633,142.201316 Z" id="Path" fill="#000000" fill-rule="nonzero"></path>
            <path d="M111.49823,143.189565 C111.21446,144.351006 111.047482,145.540093 111,146.737588 C111,147.087471 111.524453,147.087471 111.524453,146.737588 C111.565945,145.595658 111.722391,144.46143 111.991216,143.353572 C112.02887,143.202607 111.941992,143.048407 111.797168,143.009157 C111.652345,142.969906 111.504417,143.060468 111.466763,143.211432 L111.49823,143.189565 Z" id="Path" fill="#000000" fill-rule="nonzero"></path>
            <path d="M107.464002,143.19064 C107.101468,144.350052 106.949677,145.555419 107.014612,146.759229 C107.014612,147.077764 107.562648,147.082741 107.562648,146.759229 C107.498812,145.601006 107.643193,144.441075 107.990117,143.325022 C108.030978,143.187583 107.94142,143.046084 107.790084,143.008976 C107.638748,142.971867 107.482941,143.053201 107.44208,143.19064 L107.464002,143.19064 Z" id="Path" fill="#000000" fill-rule="nonzero"></path>
            <path d="M104.594739,143.173722 C103.879965,145.612419 103.957569,148.204172 104.080102,150.75511 C104.080102,151.08163 104.488544,151.08163 104.488544,150.75511 C104.370096,148.244987 104.284323,145.704253 104.986844,143.306371 C105.076701,143.000258 104.680512,142.86761 104.578401,143.173722 L104.594739,143.173722 Z" id="Path" fill="#000000" fill-rule="nonzero"></path>
            <path d="M102.125774,149.178042 C101.916514,150.155939 101.969051,151.169879 102.278329,152.122249 C102.444112,152.580748 102.658868,153.020996 102.919058,153.435742 C103.195457,153.904358 103.445012,154.387538 103.666574,154.883062 C103.993903,155.559492 104.242916,156.269354 104.409006,156.999521 C104.528522,157.794939 104.528522,158.603085 104.409006,159.398504 C104.31333,160.168711 104.174124,160.933186 103.992024,161.688442 C103.925917,162.000707 104.414091,162.134534 104.500539,161.82227 C104.908624,160.328462 105.068291,158.78053 104.973458,157.237436 C104.800563,155.661245 103.915747,154.174272 103.147889,152.811213 C102.566483,151.735972 102.386715,150.497145 102.639374,149.306913 C102.705481,148.999606 102.212222,148.865778 102.13086,149.178042 L102.125774,149.178042 Z" id="Path" fill="#000000" fill-rule="nonzero"></path>
            <path d="M79.8948886,184.507807 L79.310488,184.034952 C79.2112708,183.963214 79.0846613,184.005396 79.0266364,184.129523 C78.9715427,184.256354 79.004476,184.41525 79.1017736,184.492045 L79.6861741,184.9649 C79.7864589,185.037442 79.914478,184.993925 79.9721129,184.867702 C80.0297478,184.741479 79.9951733,184.580349 79.8948886,184.507807 L79.8948886,184.507807 Z" id="Path" fill="#000000" fill-rule="nonzero"></path>
            <path d="M78.0070533,180.19647 C77.998048,180.256817 77.998048,180.317554 78.0070533,180.377902 C77.9976489,180.442025 77.9976489,180.506549 78.0070533,180.570672 C78.036511,180.67112 78.0886443,180.768469 78.1619042,180.859828 C78.2920372,180.99451 78.5711684,181.039834 78.7904169,180.961884 C78.8893027,180.92167 78.9632037,180.861672 78.9999212,180.791792 L78.9999212,180.712416 C79.0015005,180.662295 78.9793233,180.612995 78.936159,180.570672 C78.9322093,180.559466 78.9322093,180.54786 78.936159,180.536654 L78.9817034,180.604691 C78.9375956,180.541293 78.9069739,180.474583 78.8906146,180.40625 L78.8906146,180.479957 C78.8724392,180.41239 78.8724392,180.343413 78.8906146,180.275846 L78.8906146,180.355223 C78.9088791,180.318279 78.9088791,180.278771 78.8906146,180.241828 C78.8906146,180.205025 78.8714373,180.169215 78.8359613,180.139773 C78.7093428,180.005824 78.4330634,179.960303 78.2165575,180.037718 L78.1254687,180.083076 C78.0674615,180.116658 78.0263311,180.159983 78.0070533,180.20781 L78.0070533,180.19647 Z" id="Path" fill="#000000" fill-rule="nonzero"></path>
            <path d="M77.1980185,179.97017 C77.4146123,180.026691 77.6338957,180.002777 77.8470004,179.899396 C77.9176891,179.858307 77.9732031,179.736031 77.9926307,179.578626 C78.0120583,179.421222 77.9924481,179.252603 77.941187,179.136287 C77.8899259,179.019971 77.8148017,178.973629 77.744113,179.014717 L77.609568,179.058951 L77.6610117,179.058951 C77.5073153,179.103202 77.3517149,179.103202 77.1980185,179.058951 C77.1448691,179.053815 77.0931921,179.098743 77.0555591,179.182806 C77.0194861,179.269128 76.9996492,179.383164 77.0001582,179.50129 C76.997992,179.617457 77.0181548,179.730147 77.0555591,179.810928 L77.0951312,179.881702 C77.1260817,179.923867 77.1617823,179.945355 77.1980185,179.94363 L77.1980185,179.97017 Z" id="Path" fill="#000000" fill-rule="nonzero"></path>
            <path d="M322,105 L355.406727,105 C358.480976,105.00136 361.429783,103.79778 363.604094,101.654176 C365.778404,99.510573 367,96.6026454 367,93.5704521 L367,68.8594437 C367,63.9665113 362.97848,60 358.017684,60 L353.482316,60 C351.098256,59.9972828 348.810896,60.9294829 347.124134,62.591245 C345.437372,64.2530071 344.489596,66.507996 344.489598,68.8594437 C344.492469,73.7503725 348.513148,77.7137523 353.471914,77.7137514 L359.531207,77.7137514" id="Path" stroke="#000000"></path>
            <path d="M293.340811,183.031821 C293.256612,182.972715 293.147516,182.998072 293.089356,183.090266 C293.037596,183.183035 293.010395,183.291414 293.011125,183.401974 C292.958192,183.842588 293.096275,184.285097 293.379926,184.583863 C293.539336,184.796772 293.755913,184.940923 293.994594,184.992979 C294.318336,185.033918 294.639627,184.8942 294.860718,184.616333 C294.982368,184.431677 295.027384,184.193882 294.983651,183.966943 C294.409857,183.721629 293.859338,183.408267 293.340811,183.031821 L293.340811,183.031821 Z" id="Path" fill="#000000" fill-rule="nonzero"></path>
            <path d="M293.596299,183.052957 C293.48988,182.987766 293.362388,182.982478 293.251979,183.038675 C293.14157,183.094872 293.061053,183.206034 293.034527,183.338893 C292.988491,183.554394 292.988491,183.779072 293.034527,183.994573 C293.076596,184.194375 293.162609,184.379132 293.284691,184.531935 C293.405654,184.692924 293.555117,184.823878 293.723575,184.916469 C294.096073,185.087846 294.523785,184.990591 294.80762,184.669973 C294.948481,184.497979 295.017159,184.266543 294.99634,184.034012 C294.998662,183.951274 294.973649,183.870497 294.926118,183.807236 C294.869352,183.760099 294.805395,183.725013 294.737398,183.703707 L294.509178,183.590319 C294.329236,183.50158 294.149293,183.407912 293.973739,183.309313 L293.758686,183.181135 L293.675298,183.121976 L293.640187,183.121976 C293.587521,183.082537 293.640187,183.121976 293.640187,183.121976 C293.55248,183.029929 293.416287,183.029929 293.328579,183.121976 C293.244409,183.219497 293.244409,183.37448 293.328579,183.472001 C293.506749,183.621333 293.699672,183.747057 293.903518,183.846675 C294.171237,183.989643 294.443346,184.122751 294.715454,184.250929 L294.561844,184.078382 C294.561844,184.107961 294.561844,184.112891 294.561844,184.078382 L294.561844,184.132611 C294.561844,184.132611 294.561844,184.21149 294.561844,184.17205 C294.55661,184.223481 294.540015,184.272626 294.513567,184.315018 L294.482845,184.349527 C294.482845,184.349527 294.434568,184.398827 294.482845,184.374177 C294.458568,184.395786 294.43204,184.413996 294.403846,184.428406 C294.403846,184.428406 294.342402,184.462916 294.377513,184.428406 C294.326057,184.449388 294.273233,184.465871 294.219515,184.477705 C294.193182,184.477705 294.193182,184.477705 294.219515,184.477705 L294.105405,184.477705 C294.006752,184.495808 293.905736,184.469214 293.824519,184.403757 C293.740583,184.333198 293.662707,184.253974 293.59191,184.16712 C293.59191,184.16712 293.59191,184.16712 293.59191,184.16712 L293.565577,184.127681 L293.526077,184.053732 C293.526077,184.053732 293.495355,183.974853 293.526077,184.009363 C293.524202,183.983112 293.524202,183.956735 293.526077,183.930484 C293.497379,183.828625 293.486937,183.721387 293.495355,183.614969 C293.49317,183.583794 293.49317,183.552475 293.495355,183.5213 L293.495355,183.481861 C293.495355,183.481861 293.495355,183.481861 293.495355,183.481861 L293.460245,183.481861 C293.40319,183.452281 293.390023,183.452281 293.420745,183.481861 C293.470722,183.516189 293.530843,183.526647 293.587722,183.510905 C293.644601,183.495164 293.693516,183.45453 293.723575,183.398052 C293.749449,183.333568 293.750455,183.259942 293.726354,183.194597 C293.702254,183.129252 293.655189,183.077995 293.596299,183.052957 L293.596299,183.052957 Z" id="Path" fill="#000000" fill-rule="nonzero"></path>
            <path d="M291.471911,179.890402 L291.561047,179.79964 L291.508614,179.851504 C291.612872,179.751048 291.727483,179.668203 291.849426,179.605151 L291.786507,179.637566 L291.82321,179.637566 C291.855915,179.626101 291.886291,179.606218 291.912345,179.579219 C291.941434,179.557366 291.965034,179.525942 291.980507,179.488458 C292.006498,179.407242 292.006498,179.316837 291.980507,179.235622 C291.962253,179.155539 291.918822,179.08783 291.859912,179.047615 C291.800151,179.002987 291.728644,178.989027 291.660669,179.008718 C291.552191,179.056889 291.448425,179.119952 291.351317,179.196724 C291.252881,179.267775 291.161395,179.352613 291.078667,179.44956 C291.027735,179.508088 290.999171,179.590497 291.000018,179.676464 C291.000192,179.764071 291.028479,179.848011 291.078667,179.909851 C291.181698,180.03005 291.342664,180.03005 291.445695,179.909851 L291.471911,179.890402 Z" id="Path" fill="#000000" fill-rule="nonzero"></path>
            <path d="M287.860697,180.854937 C287.849121,180.982511 287.771168,181.094325 287.655918,181.14867 C287.540667,181.203015 287.405424,181.191732 287.300635,181.119029 C286.755709,180.758442 285.963548,180.453721 285.438805,181.256154 C284.752602,182.307443 285.680994,183.622823 286.735526,184.003725 C287.326711,184.22609 287.73348,184.776642 287.774922,185.410522 C287.890971,187.056017 287.623554,190.011814 284.959472,192.952375 C280.958304,197.360678 282.905909,201.586147 283.400379,206.852748 C283.598492,209.224938 283.508691,211.612589 283.132961,213.962913 C282.712511,216.767874 281.061994,219.234161 278.637478,220.680294 C276.212963,222.126428 273.271143,222.399298 270.624896,221.423508 C269.421707,220.983675 268.258564,220.439922 267.148471,219.798327 L268.818568,214.328579 L265.836613,218.782589 C265.836613,218.782589 258.732395,216.822215 258.005827,207.685653 C257.938112,206.767682 258.465853,205.910376 259.31264,205.562761 C261.285473,204.755249 264.903175,202.556177 266.714549,196.893438 C269.28781,188.869109 275.292085,188.493286 276.190203,182.43441 C277.088322,176.375534 278.904741,173.358792 282.749495,173.069307 C282.749495,173.069307 285.35303,169.717372 289.379426,171.5457 C293.325092,173.32832 295.277743,177.558868 288.698268,176.065733 C288.623673,176.049179 288.546085,176.075349 288.49646,176.133802 C288.446835,176.192254 288.43325,176.273476 288.461125,176.345061 C288.811669,177.198044 288.782279,178.161335 288.380395,178.991059 C288.080068,179.569131 287.903053,180.203989 287.860697,180.854937 L287.860697,180.854937 Z" id="Path" fill="#000000" fill-rule="nonzero"></path>
            <path d="M265.998102,220 C266.085966,220.5 263.114098,229.5 259,236" id="Path" stroke="#000000"></path>
            <path d="M292.450775,195.103513 C289.624054,199.417523 288.091971,204.400205 286.944322,209.350531 C286.610769,210.779547 286.311136,212.208563 286.00585,213.664542 C285.938009,214.00427 286.48074,214.144475 286.571195,213.804747 C287.617082,208.849028 288.674275,203.817813 290.850851,199.17486 C291.457173,197.870641 292.159973,196.609206 292.953932,195.400101 C293.151802,195.103513 292.659953,194.833887 292.467735,195.125083 L292.450775,195.103513 Z" id="Path" fill="#000000" fill-rule="nonzero"></path>
            <path d="M284.307753,213.622238 C288.509403,213.100591 292.792268,213.700919 296.601749,215.345484 C297.669232,215.806092 298.689737,216.346597 299.651992,216.961028 C299.906587,217.120428 300.141598,216.74993 299.896795,216.586222 C296.358887,214.356809 292.143727,213.109978 287.793745,213.006177 C286.583754,212.978843 285.373316,213.042258 284.17556,213.195734 C283.867108,213.234507 283.999302,213.652395 284.307753,213.626546 L284.307753,213.622238 Z" id="Path" fill="#000000" fill-rule="nonzero"></path>
            <path d="M298.42615,209.942866 C298.593766,209.795773 298.771026,209.662537 298.956479,209.544249 C299.149777,209.407736 299.343075,209.265763 299.546285,209.151093 C299.94661,208.902501 300.370422,208.702915 300.810155,208.555898 C300.947021,208.515185 301.028016,208.359943 300.991062,208.209156 C300.954108,208.058368 300.813199,207.969135 300.676334,208.009847 C300.431288,208.088001 300.192561,208.188456 299.962619,208.310175 C299.739583,208.424846 299.516547,208.534056 299.298468,208.659647 C299.080388,208.785239 298.88709,208.932673 298.688836,209.069185 C298.473686,209.208071 298.26973,209.367007 298.079205,209.544249 C297.8413,209.779051 298.193201,210.161286 298.42615,209.926484 L298.42615,209.942866 Z" id="Path" fill="#000000" fill-rule="nonzero"></path>
            <path d="M262.243962,241.016574 C259.028457,247.414847 258.060781,254.657018 258.32286,261.766211 C258.600059,269.407314 260.283411,276.869409 261.991963,284.27013 C263.806355,292.131158 265.640907,300.058675 265.862666,308.1652 C266.1214,316.114087 264.673379,324.024975 261.619005,331.349352 C258.746218,338.167016 254.845275,344.483457 252.012808,351.32158 C251.65329,352.180821 251.317291,353.048585 251.004813,353.924874 C250.974573,354.001592 251.095532,354.032279 251.125772,353.955562 C253.696161,346.907743 257.612223,340.489012 260.701729,333.691805 C262.286907,330.327029 263.5461,326.813885 264.461552,323.20191 C265.359546,319.456008 265.866338,315.62456 265.973545,311.770942 C266.215464,303.802509 264.763951,295.961939 263.020119,288.244117 C261.301486,280.623472 259.330855,273.013056 258.650458,265.203173 C258.020461,257.976346 258.443819,250.493793 261.170447,243.722159 C261.529965,242.828822 261.926444,241.952533 262.359882,241.093292 C262.395162,241.021689 262.284282,240.960314 262.249002,241.031918 L262.243962,241.016574 Z" id="Path" fill="#000000" fill-rule="nonzero"></path>
            <path d="M268.255166,241.080051 C265.951252,248.683442 265.161194,256.799191 266.471162,264.648514 C267.138889,268.685894 268.479441,272.528579 269.845479,276.376386 C271.141838,279.989066 272.254456,283.665719 273.179018,287.392081 C274.986031,294.779109 275.893179,302.359516 275.880509,309.96657 C275.87405,317.47403 274.796063,324.941726 272.679496,332.141419 C271.586927,335.78777 270.195744,339.336883 268.520218,342.752351 C266.838157,346.180025 264.921627,349.520599 263.728893,353.168587 C263.434721,354.071221 263.191371,354.989797 263,355.919949 C263,356.001926 263.10704,356.032668 263.127429,355.955814 C263.917488,352.061894 265.737172,348.521501 267.521176,345.016973 C269.240831,341.711357 270.724447,338.287001 271.960798,334.769815 C274.31969,327.778262 275.657176,320.479734 275.931481,313.1022 C276.219945,305.628139 275.596853,298.146694 274.076117,290.824879 C273.328487,287.167139 272.377221,283.554459 271.226807,280.00388 C269.962713,276.104837 268.402984,272.318512 267.378456,268.332367 C265.339594,260.365202 265.604646,251.90105 267.582342,243.949255 C267.823607,242.986023 268.088659,242.029621 268.377498,241.080051 C268.377498,240.998074 268.280652,240.967332 268.255166,241.044186 L268.255166,241.080051 Z" id="Path" fill="#000000" fill-rule="nonzero"></path>
            <path d="M275.178638,242.077037 C274.535316,249.426369 275.701663,256.750022 277.521791,263.868242 C279.357611,271.119994 281.800139,278.2074 283.66734,285.438608 C285.593436,292.884897 286.867289,300.479332 287.474965,308.13885 C288.06423,315.639627 287.98898,323.176485 287.250064,330.664475 C286.489858,338.294319 285.033486,345.841724 282.898493,353.215779 C282.63698,354.11968 282.36675,355.02187 282.087803,355.922347 C282.087803,356 282.187178,356.035334 282.213329,355.953161 C286.755577,341.452309 288.648481,326.276531 287.804471,311.127887 C287.386039,303.599026 286.318737,296.118513 284.614016,288.766608 C282.919414,281.417276 280.492576,274.263104 278.489388,266.995945 C276.486201,259.728786 274.917125,252.322961 275.147256,244.78874 C275.173407,243.879703 275.23094,242.970666 275.309394,242.06163 C275.309394,241.979457 275.189098,241.979457 275.178638,242.06163 L275.178638,242.077037 Z" id="Path" fill="#000000" fill-rule="nonzero"></path>
            <path d="M284.011646,244.087705 C285.071908,251.380979 287.01573,258.52257 289.801467,265.359469 C291.199369,268.794214 292.748538,272.17754 293.974311,275.673987 C295.200084,279.170433 296.138973,282.872553 297.036135,286.53868 C298.825242,293.793807 300.405706,301.100352 301.594967,308.473741 C302.828509,315.878872 303.569033,323.355654 303.81179,330.856142 C304.055438,338.321815 303.59971,345.793725 302.4504,353.17684 C302.30435,354.092086 302.144391,355.005619 301.970523,355.917437 C301.970523,356 302.08006,356.035699 302.095708,355.95343 C303.43171,348.65862 304.067401,341.255937 303.994352,333.843547 C303.915857,326.442707 303.326823,319.055699 302.231326,311.733664 C301.146386,304.267722 299.623298,296.868624 297.896784,289.531227 C297.020487,285.849675 296.144189,282.152697 295.043602,278.527704 C293.906554,274.981677 292.579818,271.497492 291.068968,268.089783 C288.096015,261.246523 285.912441,254.095657 284.559332,246.771742 C284.40285,245.866779 284.258539,244.958389 284.126399,244.04657 C284.126399,243.964301 283.985566,244 284.001214,244.082563 L284.011646,244.087705 Z" id="Path" fill="#000000" fill-rule="nonzero"></path>
            <path d="M290,246.068543 C292.732283,252.93217 295.555981,259.759835 298.278107,266.618324 C301.000233,273.476814 303.580159,280.253104 305.895997,287.168105 C307.07931,290.69753 308.166129,294.25778 309.273262,297.807754 C310.380395,301.357729 311.523079,304.933391 312.584505,308.51419 C314.66731,315.589255 315.97027,322.875626 316.469629,330.240446 C316.977488,337.556168 316.906388,344.902715 316.759109,352.233849 L316.698166,354.951558 C316.706263,354.980231 316.732169,355 316.761648,355 C316.791127,355 316.817034,354.980231 316.825131,354.951558 C316.987645,347.620423 317.145082,340.279014 316.764187,332.953017 C316.459164,325.663529 315.374482,318.42891 313.529123,311.375747 C312.554033,307.779535 311.406271,304.250111 310.299138,300.700136 C309.192005,297.150161 308.095028,293.543675 306.947266,289.978288 C304.692371,282.981087 302.127681,276.107186 299.446184,269.258971 C296.764686,262.410757 293.905438,255.495755 291.147762,248.611579 C290.809189,247.758763 290.470616,246.902522 290.132043,246.042856 C290.132043,245.965794 289.979686,246.001757 290.010157,246.078818 L290,246.068543 Z" id="Path" fill="#000000" fill-rule="nonzero"></path>
            <path d="M73.4705743,180.743009 C73.4705743,180.743009 71.1425757,179.141617 70.7164688,181.281938 C70.2903619,183.42226 73.2783066,184.084373 73.2783066,184.084373 C73.2783066,184.084373 70.9710937,190.479673 70.0409335,190.756837 C69.1107733,191.034001 66.9230782,191.172583 65.8837931,190.623388 C64.844508,190.074193 62.2982595,184.592507 61.8773491,183.437658 C61.8773491,183.437658 59.7987789,184.274282 59.5909219,182.411125 C59.3830648,180.547967 60.6925641,180.163018 60.6925641,180.163018 C60.6925641,180.163018 58.6607617,182.703687 58.0943513,180.86106 C57.934751,180.373756 57.9789229,179.843662 58.2170414,179.388692 C58.4551598,178.933721 58.8674777,178.591604 59.3622791,178.438442 C59.3622791,178.438442 57.5019588,178.982505 58.1774941,177.478634 C58.8530294,175.974763 61.6071349,173.967892 64.0182764,174.301515 C64.0182764,174.301515 63.6805087,170.831834 66.6164891,169.199646 C69.5524695,167.567459 69.4537374,168.948146 69.4537374,168.948146 C69.4537374,168.948146 76.7651081,165.226964 78.2045179,168.07046 C79.6439278,170.913956 76.1675191,171.935356 76.1675191,171.935356 C76.1675191,171.935356 79.2853744,171.42209 78.9787853,173.716391 C78.6721962,176.010692 73.2627173,177.391379 73.2627173,177.391379 C73.2627173,177.391379 73.1380031,178.35632 72.9561282,179.064627 C72.7742533,179.772935 73.4705743,180.743009 73.4705743,180.743009 L73.4705743,180.743009 Z" id="Path" fill="#000000" fill-rule="nonzero"></path>
            <path d="M73,197.035953 C73,197.035953 79.4545921,194.905973 84.5854284,193.428236 C96.386352,190.029442 96.6942022,186.294334 96.7352488,185.968213 C96.7762955,185.642092 98.8491534,175.012577 100.414058,171.027783 C101.404152,168.416087 102.149571,165.719259 102.640841,162.97157 C102.640841,162.97157 109.99333,160.785538 113,162.97157 C113,162.97157 110.947665,191.28297 108.120575,197.372265 C105.293484,203.46156 86.8173422,212.312695 86.8173422,212.312695 C86.8173422,212.312695 84.3648025,229.795851 85.791175,235.243095 C87.2175475,240.690338 89.1364802,245.434383 82.8614674,246" id="Path" stroke="#000000"></path>
            <path d="M69,197.629285 C68.6670923,197.629285 56.5441301,199.65412 51.9807336,202.352174 C47.4173372,205.050228 35.9140954,219.338002 35.965312,219.674611 C36.1701783,221.083192 36.9589135,218.12103 36.8872103,211.124733 C36.846237,207.178635 38.0754347,196.862851 38.0754347,196.862851 C38.0754347,196.862851 32.441612,195.174626 28.5235443,196.521063 C28.5235443,196.521063 26.8948574,206.122199 24.4262187,216.717627 C22.1931762,226.360192 21.6758888,233.045773 29.7424987,236.396331 C39.2943891,240.389036 51.9551253,223.786425 51.9551253,223.786425 C51.9551253,223.786425 49.3379586,235.500432 47.9448679,240.875825 C47.6219744,242.123307 47.1829664,243.337067 46.6337237,244.500849 C46.2684507,245.266485 45.971911,246.06374 45.747677,246.883008 C45.1381998,249.073559 46.3622758,250.621962 47.7502449,251" id="Path" stroke="#000000"></path>
            <path d="M34.0515255,182.316858 C34.9638962,183.315886 35.4634161,184.531293 35.4762165,185.783345 C35.4762165,185.903 35.5934694,186 35.7381083,186 C35.8827471,186 36,185.903 36,185.783345 C35.9898979,184.451996 35.4649465,183.158276 34.5019793,182.091536 C34.3029415,181.870548 33.8472499,182.091536 34.0515255,182.312525 L34.0515255,182.316858 Z" id="Path" fill="#000000" fill-rule="nonzero"></path>
            <circle id="Oval" fill="#60D8D2" fill-rule="nonzero" cx="174" cy="202" r="13"></circle>
            <path d="M53.5111405,217.325746 C53.668746,218.544295 53.6626446,219.795132 53.4931672,221.010365 C53.3529762,222.238571 53.1696494,223.456412 53.0042958,224.674254 C52.9575655,225.000739 53.3062458,225.140661 53.3637601,224.814176 C53.5434922,223.513418 53.7411976,222.223024 53.8813887,220.901536 C54.0395371,219.673458 54.0395371,218.413902 53.8813887,217.185824 C53.8310637,216.859339 53.4823833,216.999261 53.5219244,217.325746 L53.5111405,217.325746 Z" id="Path" fill="#000000" fill-rule="nonzero"></path>
            <path d="M83.8478987,243.870502 C76.0614877,242.295414 68.1102429,241.711475 60.179988,242.132332 C58.1983226,242.224898 56.211563,242.37403 54.2349919,242.605444 C53.3485915,242.708294 52.4672853,242.826572 51.5859791,242.96542 C51.1682501,243.032272 50.7556155,243.099125 50.3429808,243.176263 C50.067891,243.222545 49.6807276,243.21226 49.4820516,243.423103 C49.3023521,243.706334 49.1650269,244.014777 49.0745112,244.338471 C48.0744044,246.89051 47.2805061,249.520058 46.7005881,252.201374 C45.3784725,258.072336 44.4407986,264.024819 43.8936534,270.020183 C43.048007,278.392195 42.849331,286.805347 42.2736802,295.218499 C41.9221766,300.309588 41.5706729,305.560094 40.0576791,310.466052 C38.8849169,314.111102 36.9258217,317.448173 34.3215475,320.236828 C33.0072296,321.697301 31.6063093,323.054925 30.3684053,324.587394 C28.8808827,326.433556 27.5003395,328.367141 26.155456,330.321297 C22.7677762,335.252967 19.6093378,340.338913 16.4458052,345.414574 C13.3434036,350.402812 10.2766619,355.416762 7.04690393,360.327863 C5.81918838,362.189453 4.56600154,364.040758 3.22111811,365.820067 C2.71169257,366.498879 2.20226703,367.162263 1.61642765,367.794793 C1.03058828,368.427322 0.205318901,369.034138 0.0321142168,369.964933 C-0.186938766,371.152854 0.765686998,372.309919 1.34133786,373.271569 C2.1258532,374.577768 2.94093406,375.863396 3.78658046,377.128455 C6.05101816,380.535576 8.56438285,383.767207 11.3057015,386.79638 C12.293987,387.88145 13.4147232,389.4962 15.0907332,388.853385 C15.9137163,388.528557 16.4731808,387.74874 16.522219,386.85809 C16.7769318,384.857652 17.001079,382.857215 17.240509,380.851634 C17.3423941,379.992835 17.439185,379.134035 17.5461644,378.280378 C17.6415758,377.665451 17.9547105,377.106336 18.4274705,376.706768 C19.1406663,376.012529 19.8538621,375.31829 20.5568693,374.618908 C23.0224889,372.181357 25.4473545,369.702665 27.8314661,367.182833 C31.2276363,363.617357 34.5406004,359.9816 37.7703584,356.275562 C41.5452017,351.950708 45.2130656,347.533289 48.7230075,342.97188 C52.3450231,338.276765 55.8142111,333.447945 58.9981207,328.433994 C62.0654443,323.694201 64.764962,318.721985 67.0725156,313.561845 C69.0134269,309.128998 70.6079288,304.464739 71.249805,299.641061 C71.533448,297.596942 71.5949441,295.527652 71.4331982,293.470045 C71.4077269,293.140924 70.8983014,293.140924 70.9237727,293.470045 C71.3007476,297.902891 70.4754782,302.351166 69.1713488,306.568027 C67.5443385,311.602038 65.4105869,316.45449 62.8035295,321.049345 C59.9937967,326.087957 56.9016562,330.960688 53.5421732,335.643798 C50.1392105,340.436621 46.5273835,345.08031 42.7831057,349.610865 C39.3869354,353.704305 35.9041628,357.708609 32.3347878,361.623776 C29.4752125,364.757281 26.5629965,367.842789 23.5981398,370.880301 C21.8253389,372.690465 20.032161,374.474918 18.2186061,376.233657 C17.6775084,376.64879 17.2842801,377.229785 17.0978699,377.889547 C16.9908905,378.403798 16.960325,378.969474 16.8991939,379.499153 L16.1197728,386.035288 C16.0280762,386.791237 16.0382648,387.608897 15.4014828,388.138576 C14.718196,388.68513 13.7380615,388.629917 13.1192564,388.010013 C12.3194583,387.269491 11.5909798,386.400406 10.877784,385.582747 C8.2316365,382.56473 5.8071282,379.355855 3.62356429,375.981674 C2.84244512,374.795468 2.09528766,373.595548 1.3820919,372.381915 C1.00867252,371.873624 0.719621678,371.307414 0.526256993,370.705455 C0.368335075,369.892938 0.877760617,369.352974 1.39228041,368.83358 C2.51749694,367.649187 3.54805816,366.376725 4.47430494,365.02812 C7.50029267,360.847257 10.2155308,356.440123 12.9460517,352.063844 C16.1809039,346.885333 19.3699078,341.681109 22.6760796,336.54888 C25.3913177,332.342304 28.1269329,328.074018 31.3363138,324.247988 C32.5945949,322.751517 34.0209864,321.424748 35.2945502,319.943704 C36.5097079,318.555109 37.5848099,317.047766 38.5039312,315.444005 C40.4703138,311.947096 41.371997,308.002788 41.9170823,304.053338 C42.828954,297.481205 43.0531013,290.811365 43.3893221,284.187808 C43.7063028,276.226354 44.4528692,268.288255 45.6257002,260.408825 C46.2632203,256.115753 47.2046724,251.874317 48.4428235,247.717102 C48.7484788,246.724597 49.0846997,245.737234 49.4616746,244.770442 C49.5431827,244.569884 49.6960103,243.92707 49.889592,243.803649 C49.8386495,243.834504 50.286944,243.803649 50.348075,243.803649 C50.7912752,243.721369 51.2395697,243.644231 51.6878642,243.577379 C52.6727536,243.423103 53.659341,243.291112 54.6476266,243.181405 C56.5936322,242.96542 58.5498262,242.826572 60.5060203,242.744291 C64.5345793,242.583131 68.5689592,242.653526 72.5895942,242.955134 C76.3162804,243.219054 80.021291,243.734457 83.6797882,244.497889 C84,244.564741 84.1382712,244.07106 83.8173331,243.983637 L83.8478987,243.870502 Z" id="Path" fill="#000000" fill-rule="nonzero"></path>
            <path d="M82.9852485,244 L82.9033477,245.409554 C82.8089414,247.036573 83.1877839,248.656033 83.9936522,250.070341 C88.2934447,257.627401 102.713106,289.337217 110.585821,306.797165 C121.888133,331.875904 132.371437,376.919893 133.180207,383.741311 C133.242902,384.277359 133.50204,384.770713 133.907077,385.125143 L136.256606,387.182885 C136.937742,387.778993 137.179146,388.737392 136.862262,389.5874 C136.545378,390.437408 135.736778,391 134.83358,391 L117.091817,391 C116.136627,391 115.292931,390.374681 115.013584,389.456691 C113.447231,384.230025 108.236292,367.207348 104.990972,360.936377 C98.4798579,348.358424 95.9562892,335.775327 94.9990735,328.804723 C94.4988839,325.116345 92.9508695,321.6512 90.5405982,318.824671 C82.9647733,309.966088 66.4822354,289.558425 61,273.497742" id="Path" stroke="#000000"></path>
            <path d="M45.0627705,210.043327 C44.7033564,214.562834 45.9390948,219.007016 47.4494416,223.06955 C47.8330859,224.104015 48.2086534,225.213805 48.9113281,225.982121 C48.9597885,226.03736 49.032479,225.951991 48.9840186,225.896753 C48.4137206,225.18054 47.9683048,224.3258 47.6755898,223.385916 C47.2717538,222.381581 46.916378,221.316986 46.5852325,220.262434 C45.9033762,218.180132 45.4379008,215.998183 45.2000748,213.769409 C45.0809808,212.537603 45.0687956,211.29344 45.1637295,210.058392 C45.1637295,209.978045 45.0668089,209.983067 45.0627705,210.058392 L45.0627705,210.043327 Z" id="Path" fill="#000000" fill-rule="nonzero"></path>
            <path d="M41.314613,213.035574 C41.0054244,212.843135 41.0054244,213.489531 41,213.588218 L41,215.433654 C41.0847982,216.634688 41.2844461,217.82672 41.5966799,218.996233 C42.2393937,221.302146 43.2229343,223.518114 44.5204113,225.583551 C45.2398242,226.748904 46.0237474,227.880317 46.8691602,228.97343 C46.9179795,229.037576 47.0373155,228.97343 46.9884962,228.909284 C44.276315,225.361507 42.0252045,221.409116 41.3254618,217.066914 C41.2223989,216.425452 41.1518822,215.774122 41.119336,215.127726 C41.119336,214.816864 41.119336,214.510936 41.119336,214.200074 C41.119336,214.04711 41.119336,213.894146 41.119336,213.741182 C41.119336,213.686904 41.1681552,213.079983 41.2332476,213.124392 C41.2983399,213.168801 41.374281,213.060246 41.3037643,213.015837 L41.314613,213.035574 Z" id="Path" fill="#000000" fill-rule="nonzero"></path>
            <path d="M38.0154831,217.052507 C37.9878153,221.337436 39.2434438,225.536989 41.6281988,229.135531 C42.2993137,230.144713 43.05728,231.096331 43.8938877,231.980076 C43.950659,232.040491 44.0383963,231.949869 43.9816251,231.889453 C40.1712813,227.845533 38.0791347,222.539925 38.1290256,217.047473 C38.1207972,217.019373 38.0944699,217 38.0645128,217 C38.0345556,217 38.0082283,217.019373 38,217.047473 L38.0154831,217.052507 Z" id="Path" fill="#000000" fill-rule="nonzero"></path>
            <path d="M89.0036827,191.050301 C88.9386393,195.909128 89.7357288,200.736514 91.3519633,205.272112 C91.8038622,206.531868 92.3153892,207.765763 92.8845254,208.96893 C92.9191316,209.043613 93.0278941,208.96893 92.9932878,208.899581 C90.9480007,204.590187 89.684474,199.898865 89.2706451,195.077858 C89.1561531,193.739071 89.1082948,192.39462 89.1272764,191.050301 C89.1193945,191.020527 89.0941755,191 89.0654796,191 C89.0367836,191 89.0115646,191.020527 89.0036827,191.050301 L89.0036827,191.050301 Z" id="Path" fill="#000000" fill-rule="nonzero"></path>
            <path d="M93.1032633,191.034731 C92.9344164,192.179655 92.9729738,193.353515 93.2164211,194.479765 C93.4343546,195.680605 93.7025805,196.866681 93.9624242,198.052756 C94.4321372,200.336535 95.0514597,202.574268 95.814859,204.745964 C96.0369835,205.361148 96.2800632,205.96649 96.544098,206.557067 C96.6111544,206.709633 96.6656378,206.960628 96.8290879,207 C96.8961444,207 96.9673919,207 96.9925381,206.921256 C97.0024873,206.903304 97.0024873,206.880151 96.9925381,206.862199 L96.9673919,206.862199 C96.9212906,206.808062 96.8458521,206.896649 96.8961444,206.945864 C96.7189987,206.719106 96.5771431,206.457576 96.4770415,206.173192 L96.1878605,205.474342 C95.9922792,204.972352 95.8078739,204.46544 95.6346447,203.953606 C95.3077445,202.969311 95.0227545,201.985016 94.7629107,201.000721 C94.2390321,199.002601 93.8031652,196.960189 93.4008264,194.922698 C93.0945651,193.674296 93.0258862,192.362071 93.199657,191.079025 C93.199657,191.000281 93.1116454,190.965831 93.0990723,191.044574 L93.1032633,191.034731 Z" id="Path" fill="#000000" fill-rule="nonzero"></path>
            <path d="M96,187.056724 C96.0365437,189.369513 96.5237937,191.622744 96.9826206,193.851161 C97.3652394,195.880923 97.8742752,197.871952 98.5052766,199.806839 C98.8816749,200.917566 99.3496863,201.978524 99.9020597,202.973275 C99.9386034,203.037795 100.027933,202.973275 99.9913888,202.908755 C99.0540226,201.170368 98.3354445,199.269847 97.8596705,197.270713 C97.3358768,195.220967 96.9054727,193.116627 96.5278541,191.01725 C96.2804662,189.713857 96.1376756,188.384077 96.1015104,187.046798 C96.0950368,187.019098 96.0743239,187 96.0507552,187 C96.0271865,187 96.0064736,187.019098 96,187.046798 L96,187.056724 Z" id="Path" fill="#000000" fill-rule="nonzero"></path>
            <path d="M46.0520879,315.295 L47.9082915,315.945 C47.9996739,315.945 48.0396536,315.735 47.9482713,315.705 L46.0863563,315.055 C46.0006854,315.055 45.9607056,315.265 46.0520879,315.295 Z" id="Path" fill="#000000" fill-rule="nonzero"></path>
            <path d="M47.0413181,313.095257 L49.9240103,313.995865 C49.9983065,314.021845 50.0329781,313.917928 49.9586819,313.891949 L47.0759897,313 C47.0016935,313 46.9670219,313.082267 47.0413181,313.103916 L47.0413181,313.095257 Z" id="Path" fill="#000000" fill-rule="nonzero"></path>
            <path d="M98.131801,313.991227 L99.9592199,313.151238 C100.057242,313.099546 99.9592199,312.963856 99.868199,313.009086 L98.0407801,313.849075 C97.9427577,313.894305 98.0407801,314.036457 98.131801,313.991227 Z" id="Path" fill="#000000" fill-rule="nonzero"></path>
            <path d="M101.054714,317.99981 C101.439294,317.950289 101.786326,317.627244 101.991819,317.127475 C102.007687,317.08826 101.999771,317.036791 101.974138,317.012516 C101.948504,316.98824 101.914861,317.00035 101.898992,317.039565 C101.713856,317.490652 101.401499,317.783367 101.054714,317.830753 C100.983989,317.830753 100.979569,318.006572 101.054714,317.99981 L101.054714,317.99981 Z" id="Path" fill="#000000" fill-rule="nonzero"></path>
            <path d="M2.02147,371.112693 C6.31190667,374.995802 9.91684793,379.534005 12.6930247,384.546944 C13.4923514,385.984137 14.215724,387.454631 14.8631425,388.958426 C14.8956943,389.032038 15.0313267,389.00049 14.9933496,388.92162 C12.7090467,383.663283 9.55333001,378.802135 5.65099215,374.530408 C4.52976458,373.307041 3.35247563,372.136255 2.11912531,371.018048 C2.05402177,370.96021 1.95636646,371.054855 2.02147,371.112693 L2.02147,371.112693 Z" id="Path" fill="#000000" fill-rule="nonzero"></path>
            <path d="M9.00866906,359.117407 C13.4798446,361.982718 17.1888341,365.765991 19.8512221,370.177114 C20.6003229,371.405519 21.2771786,372.671121 21.8787795,373.968291 C21.9113071,374.044216 22.0305752,373.968291 21.9926263,373.90249 C19.8649505,369.212121 16.6724473,365.00871 12.635503,361.582431 C11.5208463,360.649622 10.3379525,359.790437 9.09540948,359.011112 C9.02493289,358.965557 8.95987757,359.071852 9.03035417,359.117407 L9.00866906,359.117407 Z" id="Path" fill="#000000" fill-rule="nonzero"></path>
            <path d="M112.049672,379 C115.004949,378.90883 117.954957,378.693928 120.904965,378.472514 C123.433544,378.283661 125.962123,378.114344 128.495969,378.153417 C129.981509,378.179466 131.461781,378.28149 132.936786,378.459489 C133.021071,378.459489 133.021071,378.309709 132.936786,378.296685 C127.742664,377.645467 122.559077,378.218539 117.364955,378.570196 C115.59495,378.687415 113.824945,378.785098 112.049672,378.837196 C112.020271,378.847578 112,378.880798 112,378.918598 C112,378.956398 112.020271,378.989617 112.049672,379 L112.049672,379 Z" id="Path" fill="#000000" fill-rule="nonzero"></path>
            <path d="M266.015931,222.866686 C266.559621,223.426816 267.179429,224.079444 268.043897,223.992085 C268.344197,223.973897 268.620108,223.829583 268.795907,223.59875 C268.971706,223.367916 269.028925,223.074814 268.95186,222.799881 L268.837685,222.861547 C269.2303,223.315654 269.756139,223.649972 270.349145,223.822504 C270.829157,223.937976 271.33582,223.772287 271.637692,223.401122 C271.93818,222.899135 272.05657,222.317983 271.97478,221.746426 C271.922771,221.137475 271.717737,220.549052 271.376721,220.030064 C271.327789,219.958121 271.208177,220.030064 271.257109,220.09173 C271.872317,220.980393 272.020696,222.087184 271.65944,223.092793 C271.437683,223.612705 270.816041,223.868761 270.262155,223.66834 C269.744222,223.483623 269.286742,223.173502 268.93555,222.769048 C268.912177,222.75049 268.878839,222.748211 268.852884,222.763398 C268.826929,222.778584 268.814222,222.807804 268.821374,222.835853 C269.071472,223.534731 268.250499,223.966391 267.614381,223.863614 C267.004932,223.670294 266.478347,223.295206 266.113795,222.794743 C266.059426,222.733077 265.961562,222.825575 266.015931,222.887241 L266.015931,222.866686 Z" id="Path" fill="#000000" fill-rule="nonzero"></path>
            <path d="M269.813885,231.775849 C269.563826,231.501519 269.379402,231.17424 269.27448,230.818619 C269.140174,230.455226 269.117637,230.060154 269.209751,229.683924 C269.441696,229.060111 269.997283,229.490327 270.288562,229.796856 C270.448477,229.996819 270.667345,230.141662 270.914272,230.210938 C270.934714,230.218184 270.957437,230.214739 270.974794,230.201761 C270.99215,230.188783 271.001831,230.167999 271.000577,230.146406 C270.876514,229.205308 271.054518,227.274714 272.300544,227.134894 C273.54657,226.995074 274.123734,228.45243 274.404225,229.43655 C274.414647,229.471066 274.449683,229.492024 274.485136,229.484949 C275.520794,229.167665 275.855225,230.625021 275.892984,231.351011 C275.930742,232.19531 275.563947,233.114897 274.66314,233.330005 C274.587623,233.330005 274.609199,233.45907 274.66314,233.45907 C275.202545,233.45907 275.261879,234.195814 275.137816,234.588387 C275.005764,234.983942 274.740961,235.322013 274.388043,235.545617 C273.58749,236.020302 272.571771,235.92923 271.86902,235.319754 C271.583135,235.088513 271.399737,234.755095 271.103064,234.539987 C270.806391,234.324879 270.428807,234.373279 270.105164,234.222703 C269.443576,233.826526 269.092627,233.067019 269.220539,232.308242 C269.220539,232.222198 269.096476,232.222198 269.085688,232.308242 C269.010171,233.093386 269.317632,234.055994 270.115952,234.373279 C270.396385,234.42525 270.67232,234.498969 270.941242,234.593764 C271.149327,234.742413 271.331547,234.924081 271.480648,235.131534 C271.817557,235.510636 272.258091,235.7835 272.74825,235.916679 C273.611252,236.167174 274.538314,235.840331 275.051511,235.104646 C275.385943,234.609897 275.590917,233.351515 274.673928,233.335382 L274.673928,233.469825 C275.752738,233.217073 276.092564,232.087756 275.979289,231.11977 C275.88759,230.345381 275.439883,229.043977 274.425801,229.366639 L274.506712,229.409661 C274.204645,228.361009 273.632875,226.855253 272.257392,227.011207 C270.881908,227.16716 270.703904,229.162287 270.838755,230.157161 L270.92506,230.092629 C270.461172,229.985075 270.27238,229.490327 269.84625,229.302107 C269.717833,229.226654 269.563824,229.207543 269.420773,229.249309 C269.277722,229.291076 269.158384,229.389996 269.091082,229.522593 C268.969639,229.909499 268.969639,230.324158 269.091082,230.711065 C269.196492,231.147327 269.409743,231.550351 269.711398,231.883403 C269.770733,231.947936 269.862432,231.851137 269.803097,231.786605 L269.813885,231.775849 Z" id="Path" fill="#000000" fill-rule="nonzero"></path>
            <path d="M262.11516,231.216458 C262.81764,231.012326 263.5894,231.135864 264.165999,231.544743 C264.435856,231.79603 264.566381,232.139642 264.5227,232.483771 C264.479019,232.8279 264.265583,233.137479 263.939419,233.329792 C263.912884,233.34862 263.903894,233.380794 263.917468,233.408358 C263.931042,233.435922 263.963823,233.452061 263.997517,233.447769 C264.488876,233.289403 265.038668,233.375525 265.438333,233.673465 C265.704847,233.995084 265.849239,234.382922 265.850825,234.781426 C265.89934,235.551557 265.605418,236.307985 265.031651,236.88963 C264.967744,236.951184 265.072319,237.043514 265.130417,236.976831 C265.809878,236.300679 266.114229,235.393068 265.96121,234.499307 C265.915119,234.106389 265.708603,233.741722 265.380236,233.473416 C264.943192,233.250369 264.419355,233.201881 263.939419,233.340051 L263.997517,233.458028 C264.333829,233.258705 264.563986,232.947295 264.635192,232.595236 C264.706398,232.243176 264.61254,231.880682 264.37515,231.590908 C263.768953,231.050808 262.867772,230.861839 262.051252,231.10361 C262.013268,231.115001 261.991997,231.150623 262.002813,231.18473 C262.01363,231.218837 262.052759,231.239527 262.091921,231.231847 L262.11516,231.216458 Z" id="Path" fill="#000000" fill-rule="nonzero"></path>
            <path d="M280.025144,221.1994 C280.110043,221.895697 280.27537,222.578978 280.51759,223.234638 C280.683292,223.827605 280.987716,224.369311 281.403994,224.811948 C281.711645,225.086445 282.175095,225.057082 282.447981,224.745802 C282.881334,224.287874 282.837014,223.585717 283.147255,223.056555 L283.038917,223.056555 C283.142669,223.476288 283.438044,223.817351 283.8303,223.970348 C284.222556,224.123345 284.662381,224.069042 285.008703,223.824857 C285.904956,223.193933 285.900031,221.977878 285.432207,221.072197 L285.338642,221.148519 C285.86556,221.703121 286.525439,221.102726 286.742115,220.5583 C287.019752,219.826083 287.074723,219.023809 286.899698,218.258481 C286.74925,217.502881 286.344457,216.82684 285.757222,216.350445 C285.210606,215.928133 284.363598,215.795842 283.954867,216.477647 L284.063206,216.477647 C284.021024,216.250571 283.83596,216.081434 283.612681,216.065895 C283.389403,216.050356 283.184057,216.192322 283.112784,216.411502 C283.112784,216.487823 283.206349,216.52344 283.230971,216.447119 C283.277978,216.271927 283.439426,216.15646 283.614677,216.172694 C283.789927,216.188928 283.928922,216.332226 283.945018,216.513264 C283.945018,216.569233 284.033659,216.569233 284.058281,216.513264 C284.506408,215.770402 285.422358,216.136745 285.90988,216.620114 C286.3292,217.044533 286.624435,217.582329 286.761813,218.171983 C286.904528,218.748382 286.914647,219.351299 286.79136,219.932464 C286.737013,220.229953 286.633747,220.515626 286.486043,220.777088 C286.259517,221.133255 285.767071,221.387659 285.422358,221.026405 C285.40196,220.999709 285.364479,220.995153 285.338642,221.016228 C285.312805,221.037304 285.308396,221.07603 285.328793,221.102726 C285.742448,221.911733 285.786769,222.980233 285.043174,223.606069 C284.73785,223.887892 284.311927,223.983803 283.920791,223.858814 C283.529656,223.733825 283.230507,223.406213 283.132482,222.995498 C283.121405,222.973787 283.099604,222.960197 283.07585,222.960197 C283.052097,222.960197 283.030296,222.973787 283.019219,222.995498 C282.763147,223.422898 282.763147,223.946971 282.526772,224.384548 C282.413269,224.663804 282.162983,224.858242 281.871818,224.893357 C281.581504,224.855865 281.326575,224.675844 281.187318,224.409988 C280.595115,223.434641 280.230931,222.330176 280.123633,221.184136 C280.123633,221.102726 279.990672,221.102726 280.000521,221.184136 L280.025144,221.1994 Z" id="Path" fill="#000000" fill-rule="nonzero"></path>
            <path d="M281.128844,236.673378 C280.540321,236.284505 280.168937,235.667993 280.117209,234.994029 C280.094825,234.285951 280.677388,233.690068 281.430658,233.650551 C281.455515,233.649604 281.478128,233.636781 281.490593,233.616566 C281.503058,233.59635 281.503641,233.571552 281.492138,233.550839 C280.659356,232.375295 281.492138,230.737931 282.403168,229.824785 C282.905287,229.234183 283.74141,228.992619 284.510275,229.216021 C285.180972,229.478419 285.460429,230.181647 285.683995,230.79041 C285.689562,230.813949 285.708954,230.832436 285.733935,230.838021 C285.758916,230.843606 285.7851,230.835307 285.801367,230.81665 C286.321157,230.375821 286.997443,230.785162 287.243366,231.288967 C287.42631,231.712767 287.486103,232.174585 287.416629,232.627198 C287.302671,233.555387 286.771884,234.393669 285.957863,234.931054 L286.024933,235.046509 C286.740343,234.568944 287.466931,235.230188 287.701675,235.859944 C287.894079,236.402882 287.911577,236.987058 287.751978,237.539292 C287.355148,238.667604 285.935506,238.630869 284.957406,239.061202 L285.030065,239.176657 C285.275988,239.003474 285.549855,239.176657 285.683995,239.391823 C285.792479,239.566626 285.816857,239.776446 285.751065,239.969099 C285.649418,240.322634 285.385043,240.61513 285.030065,240.76679 C284.243097,241.039342 283.364454,240.705247 283.001207,239.995339 C282.727339,239.544014 282.531719,239.092689 281.944859,238.945746 C281.577726,238.906694 281.222484,238.799671 280.899689,238.630869 C280.556301,238.412924 280.300511,238.093304 280.173101,237.722971 C280.173101,237.644251 280.011016,237.675739 280.038961,237.759706 C280.227451,238.324174 280.693194,238.769296 281.290929,238.956242 C281.54803,239.034962 281.849843,239.024466 282.084587,239.113681 C282.609967,239.29736 282.732928,239.879884 283.034741,240.268233 C283.269905,240.575467 283.602456,240.805064 283.984896,240.924229 C284.737047,241.165394 285.558852,240.812974 285.857258,240.12129 C285.996988,239.82855 285.958575,239.48791 285.756654,239.229136 C285.680122,239.104455 285.55242,239.014752 285.403427,238.981018 C285.254435,238.947284 285.097225,238.972478 284.968585,239.050706 C284.942284,239.072331 284.936113,239.108478 284.953899,239.136739 C284.971684,239.164999 285.008382,239.177361 285.041244,239.166161 C285.689584,238.877523 286.43294,238.819795 287.064513,238.489173 C287.613039,238.192273 287.959579,237.650625 287.981132,237.056479 C288.058888,236.413841 287.894777,235.765908 287.517234,235.22494 C287.16716,234.756354 286.489918,234.623205 285.969041,234.920558 C285.896382,234.96779 285.969041,235.083245 286.036111,235.036013 C287.042899,234.374798 287.62706,233.281741 287.589892,232.128641 C287.607562,231.599557 287.388681,231.08766 286.986265,230.716939 C286.618055,230.425848 286.08015,230.425848 285.711941,230.716939 L285.829313,230.748427 C285.594569,230.129167 285.309522,229.420692 284.633236,229.121558 C283.920818,228.866555 283.115683,229.019795 282.565254,229.515155 C281.447425,230.417805 280.463736,232.328064 281.380355,233.624311 L281.441836,233.5246 C280.707863,233.554207 280.102341,234.074095 280.005426,234.757871 C279.948594,235.553619 280.341242,236.318878 281.039418,236.773089 C281.106487,236.825569 281.207092,236.731106 281.140022,236.678626 L281.128844,236.673378 Z" id="Path" fill="#000000" fill-rule="nonzero"></path>
            <path d="M291.15144,225.453613 C290.675384,225.358674 290.297826,224.958343 290.19409,224.438517 C290.073625,223.885641 290.188001,223.302505 290.504982,222.853448 C290.647349,222.62703 290.812931,222.419388 290.998462,222.234619 C291.166245,222.066342 291.585702,221.561508 291.852181,221.854637 C291.931138,221.94149 291.931138,222.077198 292.069312,222.082627 C292.207486,222.088055 292.237095,222.00663 292.286443,221.925205 C292.414748,221.735214 292.48877,221.496368 292.607205,221.29552 C292.760921,221.031707 292.950669,220.795518 293.169772,220.595267 C293.598228,220.183939 294.184371,220.033427 294.734102,220.193571 C295.844431,220.58441 296.017149,222.424611 295.346016,223.309427 C295.296668,223.374567 295.38056,223.466848 295.434843,223.407137 C295.605884,223.2406 295.831535,223.158524 296.059113,223.180069 C296.286691,223.201615 296.496276,223.324896 296.638933,223.521131 C296.928844,224.00637 296.971713,224.621446 296.752433,225.149627 C296.404935,226.159014 295.689071,226.962219 294.778515,227.364381 L294.852537,227.413236 C295.054863,227.348097 295.158494,227.413236 295.158494,227.543516 C295.168492,227.600896 295.168492,227.659842 295.158494,227.717222 C295.168313,227.814634 295.168313,227.91294 295.158494,228.010352 C295.092746,228.653991 294.756684,229.226579 294.250492,229.557423 C293.524141,230.022455 292.604781,229.895764 292.00516,229.248008 C291.871694,229.092951 291.770641,228.907686 291.709072,228.705176 C291.673064,228.591894 291.656336,228.472285 291.659724,228.352336 C291.659724,228.232913 291.659724,228.086348 291.75842,228.118918 C291.857116,228.151488 291.862051,228.194914 291.827507,228.298052 L291.491941,228.417475 C291.378441,228.417475 291.235332,228.265483 291.15144,228.184058 C291.029428,228.064639 290.924603,227.925536 290.840548,227.771505 C290.452239,227.100262 290.409247,226.255176 290.727048,225.540466 C290.761591,225.459041 290.657961,225.393901 290.623417,225.469898 C290.218462,226.367221 290.357749,227.446215 290.973788,228.184058 C291.166245,228.406619 291.615311,228.786601 291.88179,228.471759 C292.015029,228.319766 291.970616,227.928927 291.75842,227.928927 C291.403115,227.85293 291.556093,228.672606 291.615311,228.851741 C291.786079,229.308741 292.122283,229.666765 292.543053,229.839695 C293.486949,230.257854 294.565998,229.833439 295.054863,228.851741 C295.247321,228.455474 295.459517,227.711794 295.202907,227.293813 C295.044994,227.044111 294.615667,227.163534 294.709428,227.483805 C294.722557,227.517972 294.755022,227.538059 294.788385,227.532659 C295.925737,227.053311 296.754069,225.957025 296.974499,224.639365 C297.073117,224.101846 296.880903,223.549994 296.481019,223.222574 C296.126125,222.958407 295.651967,223.001308 295.341082,223.325712 L295.429908,223.423421 C295.941594,222.67648 296.005413,221.668129 295.592756,220.850398 C295.382803,220.456517 295.039147,220.170572 294.637455,220.055525 C294.235763,219.940477 293.808972,220.005759 293.451055,220.236998 C293.061439,220.477689 292.733736,220.823223 292.498639,221.241237 C292.434487,221.344375 292.37527,221.452941 292.320987,221.561508 C292.266704,221.670074 292.23216,221.870922 292.079182,221.870922 C291.926203,221.870922 291.921268,221.653789 291.753485,221.610363 C291.422854,221.528938 290.968853,222.082627 290.766526,222.305188 C290.442238,222.638914 290.199554,223.057081 290.06085,223.521131 C289.838785,224.362521 290.233568,225.46447 291.097157,225.600178 C291.176114,225.600178 291.210658,225.480755 291.131701,225.469898 L291.15144,225.453613 Z" id="Path" fill="#000000" fill-rule="nonzero"></path>
            <path d="M292.141926,215.058599 C291.974287,215.902499 291.806648,217.005635 292.574544,217.61236 C292.809379,217.811703 293.122702,217.886263 293.41978,217.813498 C293.716858,217.740732 293.962818,217.529183 294.083296,217.24281 L293.985957,217.286935 C294.651106,217.733705 294.872822,219.074016 295.829987,218.996797 C296.127311,218.949644 296.414488,218.850763 296.678999,218.704466 C296.9724,218.5865 297.246049,218.422754 297.490156,218.219085 C297.902941,217.889174 298.087181,217.342696 297.960627,216.823618 C297.960627,216.740882 297.803803,216.779492 297.830842,216.862227 C297.949634,217.469046 297.645699,218.079935 297.095392,218.34043 C296.844741,218.487556 296.582452,218.613017 296.311274,218.715497 C296.047591,218.861827 295.736143,218.889798 295.451447,218.792717 C295.130459,218.581375 294.875308,218.280945 294.715998,217.926754 C294.548405,217.630437 294.324033,217.371572 294.056257,217.16559 C294.037274,217.15458 294.014353,217.153193 293.994227,217.161836 C293.9741,217.17048 293.959055,217.188172 293.953511,217.209715 C293.69394,217.943301 292.752998,217.761284 292.401497,217.209715 C291.985103,216.575412 292.131111,215.781154 292.271712,215.086177 C292.271712,214.997927 292.15815,214.964832 292.141926,215.047568 L292.141926,215.058599 Z" id="Path" fill="#000000" fill-rule="nonzero"></path>
            <path d="M287.038107,214.18684 C287.88921,215.182865 289.056355,215.271754 289.968442,214.410012 C290.04463,214.32967 289.968442,214.133279 289.892253,214.213621 C289.036802,215.035824 287.935895,214.961058 287.131878,214.026157 C287.055689,213.936888 286.950197,214.097572 287.026385,214.18684 L287.038107,214.18684 Z" id="Path" fill="#000000" fill-rule="nonzero"></path>
            <path d="M290.420935,239.929286 C289.660285,238.500622 290.342673,236.813446 291.973634,236.090302 C292.037009,236.06324 291.973634,235.978187 291.914785,236.005249 C290.23228,236.756673 289.533834,238.501974 290.325872,239.975679 C290.35756,240.033669 290.452623,239.975679 290.420935,239.929286 L290.420935,239.929286 Z" id="Path" fill="#000000" fill-rule="nonzero"></path>
            <path d="M205,22.6333643 L205,9.33619578 C204.998245,8.37999777 204.498464,7.49610608 203.686155,7.01261578 L192.346287,0.361494862 C191.522195,-0.120498287 190.50776,-0.120498287 189.683667,0.361494862 L178.328813,7.01261578 C177.50762,7.49652087 177.001563,8.38721551 177,9.35141574 L177,22.6485843 C177.001563,23.6127845 177.50762,24.5034791 178.328813,24.9873842 L189.66868,31.6385051 C190.492773,32.1204983 191.507208,32.1204983 192.331301,31.6385051 L203.686155,24.9721643 C204.503086,24.4859303 205.003571,23.5949936 205,22.6333643 L205,22.6333643 Z" id="Path" fill="#FF6679" fill-rule="nonzero"></path>
            <path d="M96.3850859,97.5024542 L78.3816,117.396874 C78.0157376,117.809399 77.903376,118.377894 78.0862152,118.891377 C78.2690543,119.404861 78.7198051,119.786695 79.271184,119.895172 L106.117559,124.973511 C106.671199,125.074067 107.238625,124.884179 107.608831,124.474458 C107.979038,124.064738 108.09664,123.496482 107.917907,122.981004 L99.0538379,98.0082446 C98.8634344,97.5038019 98.4133634,97.1322478 97.8673826,97.0287718 C97.3214019,96.9252958 96.7591061,97.104983 96.3850859,97.5024542 L96.3850859,97.5024542 Z" id="Path" fill="#FFA766" fill-rule="nonzero"></path>
            <path d="M239.966823,85.501821 L256.362844,85.501821 C257.947901,85.501821 259.232844,86.7867638 259.232844,88.371821 L259.232844,104.767842 C259.232844,106.3529 257.947901,107.637842 256.362844,107.637842 L239.966823,107.637842 C238.381766,107.637842 237.096823,106.3529 237.096823,104.767842 L237.096823,88.371821 C237.096823,86.7867638 238.381766,85.501821 239.966823,85.501821 Z" id="Rectangle" fill="#8F8FEF" fill-rule="nonzero" transform="translate(248.164833, 96.569832) rotate(45.000000) translate(-248.164833, -96.569832) "></path>
            <path d="M53,217 C53,217 50.1406096,225.875231 49,228 L51.7099312,224.218115 C51.7099312,224.218115 52.5791544,222.017098 52.6302852,221.676525" id="Path" fill="#000000" fill-rule="nonzero"></path>
            <path d="M83,247.555449 C83,247.555449 63.2134661,257.959341 46,256.928108 C46,256.928108 48.0768699,248.581863 48.1484861,248.374653 C48.2201023,248.167443 48.82884,244.28827 50.8392092,243.999139 C52.8495783,243.710008 63.7659339,242.69805 69.5668464,243.088377 C75.3677589,243.478704 81.7211392,244.28827 81.7211392,244.28827 C81.7211392,244.28827 82.9846537,244.28827 82.9181529,245.33396" id="Path" fill="#000000" fill-rule="nonzero"></path>
            <path d="M62,279 C62,279 66.8422647,294.917439 66.6981803,304.066554 C66.5540959,313.21567 65.7461942,315 65.7461942,315 C65.7461942,315 69.2453865,307.473463 69.9246415,303.192081 C70.6038965,298.910699 70.9280864,294.644482 70.9280864,294.644482 C70.9280864,294.644482 71.4426735,295.493682 69.7188066,292.814659" id="Path" fill="#000000" fill-rule="nonzero"></path>
            <path d="M131,379.088464 C131,379.088464 122.074796,380.483341 118.791653,381.474879 C116.753089,382.088716 114.665592,382.598166 112.542398,383 L111.424733,380.264866 C111.424733,380.264866 110.016904,379.483399 112.327463,379.487601 C114.514433,379.487601 125.271964,378.98763 125.529887,379.000234 C125.78781,379.012839 131,379.088464 131,379.088464 L131,379.088464 Z" id="Path" fill="#000000" fill-rule="nonzero"></path>
            <path d="M13,362 C13,362 16.7175627,368.709508 17.4312936,372.553145 C18.1450246,376.396783 17.9447691,375.987373 17.9447691,375.987373 L19.9575931,374.161886 C19.9575931,374.161886 21.4620764,373.733209 20.8561753,372.524246 C20.2502742,371.315282 16.3940731,364.196364 13,362 L13,362 Z" id="Path" fill="#000000" fill-rule="nonzero"></path>
            <path d="M59.0435894,212.974356 C60.3786702,209.435914 63.664169,206.864418 67.610601,206.269124 C68.7026686,206.091571 69.8210717,206.115101 70.903579,206.338404 C71.9791201,206.58206 72.9397826,207.150542 73.638068,207.956567 C74.8637792,209.479007 75.6070702,211.295468 75.7824553,213.197039 C76.1994364,216.707963 75.2425013,220.24148 73.0901164,223.138596 C72.0069082,224.61331 70.6159055,225.865888 69.0015549,226.820288 C68.0282601,227.437664 66.9045533,227.813864 65.7349207,227.913909 C64.7312338,227.950678 63.7350687,227.737262 62.8476376,227.295345 C60.9768505,226.353375 59.5568686,224.779149 58.8749889,222.891171 C58.0741367,220.763311 58.0425241,218.467203 58.1742432,216.240373 C58.2058558,215.681191 58.2532747,215.126958 58.3006936,214.572725 C58.3006936,214.493549 58.1742432,214.493549 58.1689744,214.572725 C57.8159672,218.80865 57.642098,223.846233 61.6358217,226.716369 C63.2314181,227.951547 65.3928003,228.325742 67.3524315,227.706071 C69.2848055,226.97839 70.987609,225.799778 72.2998017,224.281702 C74.8257529,221.473786 76.1414194,217.879677 75.9879371,214.206535 C75.9330962,212.32352 75.402144,210.479764 74.4389202,208.827504 C73.4256513,206.958525 71.3117221,205.848557 69.0858552,206.01675 C65.0059616,206.103652 61.3082389,208.292797 59.4650906,211.712486 C59.2581838,212.117591 59.0821169,212.535965 58.9382141,212.964459 C58.9118703,213.038687 59.0383206,213.068378 59.0646645,212.99415 L59.0435894,212.974356 Z" id="Path" fill="#000000" fill-rule="nonzero"></path>
            <path d="M61.1301183,214.980992 C61.8276365,214.393134 62.4519097,213.758036 62.9950246,213.083748 C63.0086084,213.055508 62.9936158,213.023971 62.9593405,213.008687 C62.9250653,212.993402 62.8812258,212.998705 62.8549975,213.021307 C62.3220948,213.687174 61.7084349,214.314274 61.0219156,214.894535 C60.951902,214.952173 61.0664697,215.03863 61.1301183,214.980992 L61.1301183,214.980992 Z" id="Path" fill="#000000" fill-rule="nonzero"></path>
            <path d="M61.0227833,213.077383 C61.6099543,213.414732 62.2374754,213.722248 62.8996175,213.997124 C62.9334674,214.004976 62.9712684,213.99631 62.9895882,213.976498 C63.0079079,213.956687 63.0015521,213.931347 62.9744605,213.916187 C62.3206324,213.647422 61.7025298,213.344726 61.1264122,213.011162 C61.0573263,212.974372 60.9536974,213.036915 61.0227833,213.077383 L61.0227833,213.077383 Z" id="Path" fill="#000000" fill-rule="nonzero"></path>
            <path d="M68.126601,212.970495 C68.6530498,212.270238 69.2752549,211.644305 69.9757204,211.110295 C70.0456,211.057598 69.9488437,210.962744 69.8843395,211.015441 C69.1750378,211.558729 68.5455657,212.195334 68.0137187,212.907258 C67.9599653,212.975764 68.0782229,213.039001 68.126601,212.970495 L68.126601,212.970495 Z" id="Path" fill="#000000" fill-rule="nonzero"></path>
            <path d="M69.0016129,211.084269 C69.159666,211.813627 69.4754387,212.471869 69.9129908,212.984077 C69.9624773,213.036558 70.0325833,212.947341 69.9830967,212.889612 C69.5581207,212.393981 69.2521423,211.755307 69.1005861,211.047532 C69.1005861,210.963563 68.9851174,211.0003 69.0016129,211.084269 L69.0016129,211.084269 Z" id="Path" fill="#000000" fill-rule="nonzero"></path>
            <path d="M61.1105502,217.895646 C61.5696462,217.516497 61.994547,217.091433 62.3795979,216.626108 L62.2819789,216.626108 L63.8541595,218.960061 C63.8639604,218.984318 63.8861523,219 63.9106758,219 C63.9351993,219 63.9573912,218.984318 63.9671921,218.960061 C64.2836689,217.963947 64.7006237,217.00837 65.2105506,216.110532 L65.0923802,216.110532 L65.8270921,218.073048 C65.9401247,218.372415 66.0480194,218.854729 66.4230821,218.854729 C66.4521657,218.851487 66.4765372,218.829573 66.4847363,218.79929 L67.4198241,216.066181 L67.3016537,216.066181 C67.6304004,216.884399 68.1847268,217.573505 68.8892478,218.039785 C68.9143286,218.063172 68.9515104,218.063172 68.9765912,218.039785 L69.4287216,217.097334 C69.5623055,216.814599 69.680476,216.387723 69.9425061,216.221409 C70.2045362,216.055094 70.6052881,216.4986 70.9700751,216.287935 C71.042005,216.243584 70.9700751,216.127163 70.9032831,216.16597 C70.5487718,216.376636 70.1582956,215.772358 69.8037843,216.104988 C69.621417,216.34565 69.4773138,216.61729 69.3773431,216.908844 L68.8635586,217.967715 L68.950902,217.967715 C68.2658321,217.510513 67.7277067,216.836962 67.4095484,216.038462 C67.3979916,216.014806 67.3752461,216 67.3504632,216 C67.3256803,216 67.3029348,216.014806 67.291378,216.038462 L66.8443854,217.346806 L66.6285959,217.967715 L66.525839,218.27817 C66.4964024,218.4069 66.4533021,218.531536 66.3973929,218.649607 C66.1250871,218.832553 65.8014028,217.662805 65.729473,217.479858 L65.2156885,216.088357 C65.2041317,216.064701 65.1813862,216.049894 65.1566033,216.049894 C65.1318204,216.049894 65.1090748,216.064701 65.0975181,216.088357 C64.5830959,216.996871 64.1626977,217.963597 63.8438838,218.971149 L63.9620543,218.971149 L62.3898736,216.631652 C62.3781997,216.61533 62.3601718,216.60577 62.3410641,216.60577 C62.3219564,216.60577 62.3039285,216.61533 62.2922546,216.631652 C61.9020317,217.091465 61.4776001,217.51606 61.0232068,217.901189 C60.9564148,217.951084 61.048896,218.050873 61.1105502,217.995435 L61.1105502,217.895646 Z" id="Path" fill="#000000" fill-rule="nonzero"></path>
        </g>
    </g>
</svg>