<?xml version="1.0" encoding="UTF-8"?>
<svg width="600px" height="500px" viewBox="0 0 600 500" version="1.1" xmlns="http://www.w3.org/2000/svg" xmlns:xlink="http://www.w3.org/1999/xlink">
    <title>definition</title>
    <g id="definition" stroke="none" stroke-width="1" fill="none" fill-rule="evenodd">
        <g id="Group" transform="translate(33.000000, 26.000000)">
            <polygon id="Path" fill="#F4F4F4" fill-rule="nonzero" points="1 77 150 77 150 377 1 377"></polygon>
            <circle id="Oval" fill="#000000" fill-rule="nonzero" cx="76" cy="169" r="55"></circle>
            <circle id="Oval" fill="#FFFFFF" fill-rule="nonzero" cx="76" cy="166" r="55"></circle>
            <g transform="translate(0.000000, 78.000000)" stroke="#000000">
                <polygon id="Path" points="0 0 150 0 150 299 9.62490724e-15 299"></polygon>
                <ellipse id="Oval" cx="75.0033865" cy="89.06152" rx="54.9352057" ry="55.0341298"></ellipse>
                <line x1="44.7758161" y1="173.828057" x2="105.230957" y2="173.828057" id="Path"></line>
                <line x1="44.7758161" y1="186.061633" x2="105.230957" y2="186.061633" id="Path"></line>
                <line x1="44.7758161" y1="198.301995" x2="105.230957" y2="198.301995" id="Path"></line>
                <line x1="52.2260351" y1="210.535571" x2="97.7739649" y2="210.535571" id="Path"></line>
            </g>
            <polygon id="Path" fill="#000000" fill-rule="nonzero" points="44.0035305 307 45.239188 309.634508 48 310.057514 46.0017652 312.105751 46.4748455 315 44.0035305 313.634508 41.5251545 315 41.9982348 312.105751 40 310.057514 42.7678729 309.634508"></polygon>
            <polygon id="Path" fill="#000000" fill-rule="nonzero" points="59.9964695 307 61.2321271 309.634508 64 310.057514 61.9947043 312.105751 62.4677846 315 59.9964695 313.634508 57.5251545 315 57.9982348 312.105751 56 310.057514 58.760812 309.634508"></polygon>
            <g transform="translate(72.000000, 308.000000)" fill="#CCCCCC" fill-rule="nonzero" id="Path">
                <polygon points="3.80930233 0 4.98501292 2.30519481 7.6118863 2.67532468 5.71059432 4.46753247 6.16072351 7 3.80930233 5.80519481 1.45788114 7 1.90801034 4.46753247 0 2.67532468 2.63359173 2.30519481"></polygon>
                <polygon points="19.5033592 0 20.6790698 2.30519481 23.3059432 2.67532468 21.4046512 4.46753247 21.8547804 7 19.5033592 5.80519481 17.151938 7 17.5953488 4.46753247 15.6940568 2.67532468 18.3276486 2.30519481"></polygon>
                <polygon points="35.1906977 0 36.3664083 2.30519481 39 2.67532468 37.098708 4.46753247 37.5421189 7 35.1906977 5.80519481 32.8392765 7 33.2894057 4.46753247 31.3881137 2.67532468 34.0149871 2.30519481"></polygon>
            </g>
            <path d="M63.1111448,154.165608 C63.2804181,154.076667 63.4678279,154.205632 63.5524646,154.294573 C63.5990393,154.346069 63.6375708,154.401265 63.6673287,154.459114 C63.7607105,154.61458 63.8218461,154.779475 63.848693,154.94829 C63.848693,155.014995 64.0058755,155.019442 63.99983,154.94829 C63.9575116,154.677019 63.6371013,153.760927 63.0325535,154.058879 C62.9539623,154.098903 63.0325535,154.196738 63.1111448,154.156714 L63.1111448,154.165608 Z" id="Path" fill="#000000" fill-rule="nonzero"></path>
            <path d="M63.2868896,154.5654 L63.6868896,154.6854 C63.7768896,154.8154 63.9968896,154.6854 63.8968896,154.5554 C63.7968896,154.4254 63.3768896,154.0754 63.1068896,154.3854 C63.0068896,154.5054 63.1868896,154.6854 63.2868896,154.5654 L63.2868896,154.5654 Z" id="Path" fill="#000000" fill-rule="nonzero"></path>
            <path d="M88.9674409,154.061871 C88.3627903,153.756 88.0423255,154.66918 88,154.948454 C88,155.019381 88.1390696,155.014948 88.1511626,154.948454 C88.1813952,154.762271 88.4413949,153.937749 88.8888363,154.168261 C88.9674409,154.208157 89.0460455,154.110633 88.9674409,154.070737 L88.9674409,154.061871 Z" id="Path" fill="#000000" fill-rule="nonzero"></path>
            <path d="M86.9073999,154.382501 C86.6373999,154.072501 86.3073999,154.272501 86.1173999,154.552501 C85.9273999,154.832501 86.2473999,154.812501 86.3373999,154.682501 L86.7373999,154.562501 C86.8373999,154.682501 87.0173999,154.502501 86.9073999,154.382501 Z" id="Path" fill="#000000" fill-rule="nonzero"></path>
            <path d="M70.4115857,154.036042 C70.1816004,154.12765 70.0310817,154.282642 70.004284,154.455447 C69.9774863,154.628252 70.0774559,154.799228 70.2748003,154.918105 C70.4460781,155.027298 70.7226565,155.027298 70.8939342,154.918105 C71.1099112,154.751852 70.9443289,154.553273 70.8507389,154.377784 C70.699555,154.100696 70.0012295,154.220767 70.1308157,154.502473 C70.1896011,154.597119 70.2377197,154.69435 70.2748003,154.793415 L70.3107965,154.617926 L70.2676011,154.65949 L70.5843673,154.548654 C70.7211527,154.627163 70.7643481,154.636399 70.7139535,154.548654 C70.6951513,154.531021 70.6883635,154.509234 70.695156,154.488319 C70.7019484,154.467405 70.7217345,154.449169 70.7499496,154.437819 C71.1387081,154.276185 70.7499496,153.879025 70.3827888,154.036042 L70.4115857,154.036042 Z" id="Path" fill="#000000" fill-rule="nonzero"></path>
            <path d="M80.412497,154.053547 C80.1820024,154.143528 80.0311505,154.295768 80.0042935,154.465505 C79.9774365,154.635243 80.0776273,154.803183 80.2754087,154.919949 C80.3566379,154.971195 80.4669781,155 80.5820535,155 C80.6971289,155 80.807469,154.971195 80.8886982,154.919949 C81.1123685,154.756648 80.9464196,154.561594 80.8454072,154.389221 C80.6938886,154.117052 80.0012323,154.234992 80.1238902,154.511697 C80.1828057,154.604662 80.2310308,154.700167 80.2681936,154.797474 L80.3331301,154.606956 L80.2970543,154.647781 L80.6073066,154.538914 C80.7443948,154.616028 80.794901,154.6251 80.7371797,154.538914 C80.7019652,154.502288 80.7177071,154.454783 80.7732555,154.430046 C81.1628747,154.271281 80.7732555,153.881173 80.412497,154.035402 L80.412497,154.053547 Z" id="Path" fill="#000000" fill-rule="nonzero"></path>
            <path d="M75,154.330579 C75.0991736,155.769972 75.1487603,157.216253 75.1735537,158.655647 C75.1735537,158.845828 75.35856,159 75.5867769,159 C75.8149937,159 76,158.845828 76,158.655647 C76,157.216253 75.9256198,155.769972 75.8264463,154.330579 C75.8264463,153.889807 75,153.889807 75,154.330579 Z" id="Path" fill="#000000" fill-rule="nonzero"></path>
            <path d="M70.4291749,150.991298 C70.8124141,150.761058 71.2407308,150.699127 71.6521563,150.814465 C72.000789,150.910249 72.150203,150.202917 71.8015703,150.07766 C71.2424697,149.918001 70.6594989,150.00597 70.1414146,150.328174 C69.8204512,150.527111 70.1026776,151.160763 70.4236411,150.961826 L70.4291749,150.991298 Z" id="Path" fill="#000000" fill-rule="nonzero"></path>
            <path d="M82.8655517,150.319728 C82.3465205,150.005123 81.7614396,149.919714 81.2009118,150.076725 C80.8513374,150.169638 80.9956062,150.855763 81.3451806,150.791439 C81.7595279,150.679001 82.1908963,150.739068 82.5770141,150.96297 C82.8988445,151.155943 83.1818332,150.541289 82.8544541,150.348316 L82.8655517,150.319728 Z" id="Path" fill="#000000" fill-rule="nonzero"></path>
            <path d="M74.1094337,159.512173 C74.6304834,159.847708 75.2055031,160.014661 75.786135,159.99899 C75.9042494,159.99899 76,159.873729 76,159.71921 C76,159.564692 75.9042494,159.43943 75.786135,159.43943 C75.2805034,159.459216 74.7786886,159.31909 74.3232986,159.030951 C74.0794926,158.874274 73.8613503,159.355496 74.1094337,159.512173 L74.1094337,159.512173 Z" id="Path" fill="#000000" fill-rule="nonzero"></path>
            <path d="M65.9030721,143.361392 C65.5726299,146.219065 65.2287003,149.076737 64.9791827,151.947795 L65.6063485,151.780484 C64.8105897,150.549075 63.2123284,149.511746 62.3491324,151.271858 C61.4184993,153.179204 62.4637756,155.287323 64.1227304,156.331344 C64.7296651,156.712814 64.7364088,156.525425 64.9050018,157.274979 C64.9939035,157.954057 65.0389535,158.638082 65.0398762,159.322866 C65.0941876,160.265049 65.2409969,161.199726 65.4782179,162.113614 C65.9817172,163.800929 67.0081563,165.287902 68.4117355,166.363315 C72.394011,169.522233 77.9409147,169.875135 82.2970521,167.246717 C83.9645296,166.339452 85.302214,164.934676 86.1207406,163.231252 C87.0176551,161.283751 86.734419,159.289404 87.1255546,157.248209 C87.3143788,156.23765 88.4742984,156.090417 89.1486702,155.240476 C89.8593847,154.32435 90.1438262,153.151433 89.9309416,152.014719 C89.4723687,149.645595 87.5099466,150.047141 86.4174642,151.740329 L87.0513737,151.90764 C86.828831,149.036583 86.4579265,146.17891 86.1274843,143.321237 C86.0735345,142.892921 85.3991627,142.892921 85.4531124,143.321237 C85.7835546,146.17891 86.1274843,149.036583 86.3770019,151.90764 C86.3755096,152.058958 86.4765328,152.192437 86.6233858,152.23318 C86.7702387,152.273924 86.9263683,152.21179 87.0041677,152.081644 C88.4405798,149.853061 89.6611928,151.894255 89.2228511,153.600828 C88.8934893,154.795518 87.9434993,155.722955 86.734419,156.030185 C86.5892029,156.071291 86.4879921,156.201593 86.4849014,156.351422 C86.3904893,158.948089 86.4242079,161.819147 84.8798963,164.04773 C83.0456049,166.724707 79.1814541,168.417895 76.0051626,168.417895 C72.8288712,168.417895 69.0928511,166.744784 67.2383284,164.188271 C65.5996048,161.946303 65.6333234,159.001629 65.5321676,156.351422 C65.5279301,156.204136 65.430685,156.075462 65.2893937,156.030185 C64.0788732,155.72549 63.1277928,154.796988 62.8009616,153.600828 C62.3626199,151.894255 63.5832329,149.853061 65.019645,152.081644 C65.0974444,152.21179 65.253574,152.273924 65.4004269,152.23318 C65.5472799,152.192437 65.6483031,152.058958 65.6468108,151.90764 C65.8693536,149.036583 66.2402581,146.17891 66.5707003,143.321237 C66.62465,142.892921 65.9502782,142.892921 65.8963284,143.321237 L65.9030721,143.361392 Z" id="Path" fill="#000000" fill-rule="nonzero"></path>
            <path d="M67.2983355,167.334555 L67.152707,171.75204 C67.2009465,173.137024 67.1322865,174.523711 66.9475033,175.89642 C66.3980867,178.484097 62.6977995,179.849625 60.5332307,180.750874 C56.4159164,182.47144 52.0536815,183.481932 47.9562257,185.202498 C44.6133901,186.61582 40.8204302,188.425146 39.9334204,192.378351 C38.8478263,197.253289 38.9669768,202.701749 39.05303,207.672273 C39.05303,208.109242 39.7149777,208.109242 39.7149777,207.672273 C39.6686413,204.941216 39.7149777,202.210158 39.8738451,199.479101 C40.0194736,196.918734 39.9863762,193.955537 40.8601471,191.524896 C41.7339179,189.094255 44.2956553,187.694588 46.4867019,186.602165 C48.677901,185.565875 50.9388208,184.69422 53.2518068,183.994005 C57.3095457,182.67627 61.4930548,181.481432 65.1668641,179.153206 C66.4378036,178.333888 67.3976277,177.535054 67.6756457,175.944213 C68.1456285,173.213156 67.9073273,170.127061 68,167.327727 C68,166.890758 67.3380524,166.890758 67.3380524,167.327727 L67.2983355,167.334555 Z" id="Path" fill="#000000" fill-rule="nonzero"></path>
            <path d="M84,167.341155 C84.0861246,170.070394 84,172.936096 84.2981236,175.665335 C84.4902477,177.418872 85.4508681,178.271759 86.8354864,179.158762 C90.485844,181.485439 94.672824,182.679481 98.7604294,183.996339 C101.06426,184.706402 103.317699,185.579563 105.504647,186.609586 C107.697512,187.694458 110.267999,189.045432 111.142495,191.52904 C111.970616,193.883009 111.957366,196.680479 112.109741,199.150441 C112.28199,201.979753 112.339406,204.815887 112.28199,207.658845 C112.28199,207.84726 112.430295,208 112.613238,208 C112.796182,208 112.944487,207.84726 112.944487,207.658845 C113.030611,202.691629 113.163111,197.239973 112.063366,192.375104 C111.17562,188.42453 107.386138,186.616409 104.033904,185.204027 C99.9264238,183.464137 95.5605697,182.474788 91.4464644,180.755367 C89.4920987,179.943418 85.874866,178.653853 85.1063697,176.415876 C84.6757468,175.167249 84.8744958,173.413713 84.828121,172.103678 L84.6757468,167.327509 C84.6757468,166.89083 84.0132499,166.89083 84.0132499,167.327509 L84,167.341155 Z" id="Path" fill="#000000" fill-rule="nonzero"></path>
            <path d="M70,168.4754 C70,168.4754 76.4227488,174.499781 84,175 L83.8075829,168.852377 C83.8075829,168.852377 84.2720379,167.16323 82.4407583,168.540646 C80.6094787,169.918061 77.836019,170.875003 76.250237,170.635767 C74.664455,170.396532 70,168.4754 70,168.4754 L70,168.4754 Z" id="Path" fill="#000000" fill-rule="nonzero"></path>
            <path d="M67.1315524,52.0851229 L84.8148092,52.0851229 C90.2603368,52.0851229 94.6748092,56.4995953 94.6748092,61.9451229 L94.6748092,79.6283798 C94.6748092,85.0739074 90.2603368,89.4883798 84.8148092,89.4883798 L67.1315524,89.4883798 C61.6860247,89.4883798 57.2715524,85.0739074 57.2715524,79.6283798 L57.2715524,61.9451229 C57.2715524,56.4995953 61.6860247,52.0851229 67.1315524,52.0851229 Z" id="Rectangle" fill="#FFA766" fill-rule="nonzero" transform="translate(75.973181, 70.786751) rotate(45.000000) translate(-75.973181, -70.786751) "></path>
            <rect id="Rectangle" fill="#CCCCCC" fill-rule="nonzero" x="48" y="335" width="57" height="15" rx="2.35"></rect>
            <polygon id="Path" fill="#F4F4F4" fill-rule="nonzero" points="384 77 533 77 533 377 384 377"></polygon>
            <circle id="Oval" fill="#000000" fill-rule="nonzero" cx="458" cy="169" r="55"></circle>
            <circle id="Oval" fill="#FFFFFF" fill-rule="nonzero" cx="458" cy="166" r="55"></circle>
            <g transform="translate(383.000000, 78.000000)" stroke="#000000">
                <polygon id="Path" points="0 0 150 0 150 299 0 299"></polygon>
                <ellipse id="Oval" cx="75.0033865" cy="89.06152" rx="54.9352057" ry="55.0341298"></ellipse>
                <line x1="44.7758161" y1="173.828057" x2="105.230957" y2="173.828057" id="Path"></line>
                <line x1="44.7758161" y1="186.061633" x2="105.230957" y2="186.061633" id="Path"></line>
                <line x1="44.7758161" y1="198.301995" x2="105.230957" y2="198.301995" id="Path"></line>
                <line x1="52.2328081" y1="210.535571" x2="97.7807378" y2="210.535571" id="Path"></line>
            </g>
            <polygon id="Path" fill="#000000" fill-rule="nonzero" points="427.00353 307 428.239188 309.634508 431 310.057514 429.001765 312.105751 429.474846 315 427.00353 313.634508 424.532215 315 424.998235 312.105751 423 310.057514 425.767873 309.634508"></polygon>
            <polygon id="Path" fill="#000000" fill-rule="nonzero" points="442.99647 307 444.239188 309.634508 447 310.057514 445.001765 312.105751 445.474846 315 442.99647 313.634508 440.525154 315 440.998235 312.105751 439 310.057514 441.760812 309.634508"></polygon>
            <polygon id="Path" fill="#000000" fill-rule="nonzero" points="457.99647 307 459.232127 309.634508 462 310.057514 459.994704 312.105751 460.467785 315 457.99647 313.634508 455.525154 315 455.998235 312.105751 454 310.057514 456.760812 309.634508"></polygon>
            <polygon id="Path" fill="#CCCCCC" fill-rule="nonzero" points="474.00353 307 475.239188 309.634508 478 310.057514 476.001765 312.105751 476.474846 315 474.00353 313.634508 471.532215 315 472.005296 312.105751 470 310.057514 472.767873 309.634508"></polygon>
            <polygon id="Path" fill="#CCCCCC" fill-rule="nonzero" points="489.99647 307 491.232127 309.634508 494 310.057514 492.001765 312.105751 492.474846 315 489.99647 313.634508 487.525154 315 487.998235 312.105751 486 310.057514 488.760812 309.634508"></polygon>
            <path d="M446.111093,154.165608 C446.280286,154.076667 446.467608,154.205632 446.552205,154.294573 C446.598371,154.346967 446.638784,154.401989 446.673058,154.459114 C446.761704,154.61548 446.82067,154.780084 446.848294,154.94829 C446.848294,155.014995 447.011446,155.019442 446.99936,154.94829 C446.957062,154.677019 446.636802,153.760927 446.032538,154.058879 C445.953984,154.098903 446.032538,154.196738 446.111093,154.156714 L446.111093,154.165608 Z" id="Path" fill="#000000" fill-rule="nonzero"></path>
            <path d="M446.281612,154.5654 L446.681612,154.6854 C446.771612,154.8154 446.991612,154.6854 446.901612,154.5554 C446.811612,154.4254 446.371612,154.0754 446.111612,154.3854 C446.001612,154.5054 446.181612,154.6854 446.281612,154.5654 Z" id="Path" fill="#000000" fill-rule="nonzero"></path>
            <path d="M469.966352,154.061871 C469.362382,153.756 469.042278,154.66918 469,154.948454 C469,155.019381 469.144953,155.014948 469.150992,154.948454 C469.181191,154.762271 469.440898,153.937749 469.887836,154.168261 C469.972391,154.208157 470.044868,154.110633 469.966352,154.070737 L469.966352,154.061871 Z" id="Path" fill="#000000" fill-rule="nonzero"></path>
            <path d="M469.908581,154.382501 C469.638581,154.072501 469.298581,154.272501 469.118581,154.552501 C468.938581,154.832501 469.238581,154.812501 469.328581,154.682501 L469.728581,154.562501 C469.828581,154.682501 470.008581,154.502501 469.908581,154.382501 Z" id="Path" fill="#000000" fill-rule="nonzero"></path>
            <path d="M452.417126,154.036042 C452.185467,154.126853 452.033052,154.28144 452.004756,154.454289 C451.976461,154.627138 452.075506,154.798567 452.27273,154.918105 C452.444497,155.027298 452.721865,155.027298 452.893631,154.918105 C453.110225,154.751852 452.94417,154.553273 452.850313,154.377784 C452.698697,154.100696 451.998379,154.220767 452.128335,154.502473 C452.187288,154.597119 452.235544,154.69435 452.27273,154.793415 L452.27273,154.617926 L452.27273,154.65949 L452.583181,154.548654 C452.720357,154.627163 452.763675,154.636399 452.713137,154.548654 C452.665406,154.518017 452.665406,154.468457 452.713137,154.437819 C453.103005,154.276185 452.713137,153.879025 452.352148,154.036042 L452.417126,154.036042 Z" id="Path" fill="#000000" fill-rule="nonzero"></path>
            <path d="M462.411584,154.036056 C462.1816,154.127701 462.031082,154.282754 462.004284,154.455628 C461.977486,154.628502 462.077456,154.799546 462.274799,154.91847 C462.355849,154.970663 462.465944,155 462.580765,155 C462.695586,155 462.805682,154.970663 462.886731,154.91847 C463.109906,154.752151 462.944325,154.553493 462.886731,154.377934 C462.735548,154.100736 462.037226,154.220855 462.166811,154.502673 C462.228807,154.596607 462.27701,154.694049 462.310795,154.793731 L462.346791,154.618172 L462.310795,154.659752 L462.620361,154.548873 C462.764345,154.627412 462.80754,154.636652 462.757146,154.548873 C462.706751,154.461093 462.757146,154.474953 462.757146,154.437993 C463.153102,154.276294 462.757146,153.878977 462.397186,154.036056 L462.411584,154.036056 Z" id="Path" fill="#000000" fill-rule="nonzero"></path>
            <path d="M458,154.330579 C458.090909,155.769972 458.14876,157.216253 458.173554,158.655647 C458.173554,158.845828 458.35856,159 458.586777,159 C458.814994,159 459,158.845828 459,158.655647 C459,157.216253 458.917355,155.769972 458.826446,154.330579 C458.826446,153.889807 458,153.889807 458,154.330579 Z" id="Path" fill="#000000" fill-rule="nonzero"></path>
            <path d="M452.432031,150.991307 C452.816323,150.760733 453.245652,150.698875 453.65804,150.814664 C454.000439,150.910346 454.149549,150.203772 453.801627,150.07865 C453.243728,149.917514 452.661549,150.005449 452.144858,150.328895 C451.819026,150.527618 452.100677,151.16059 452.420986,150.961867 L452.432031,150.991307 Z" id="Path" fill="#000000" fill-rule="nonzero"></path>
            <path d="M463.863742,150.318779 C463.34422,150.005799 462.759632,149.920349 462.19898,150.075437 C461.84938,150.168479 461.999209,150.855562 462.348809,150.791148 C462.761376,150.679112 463.190881,150.739271 463.575183,150.962918 C463.897037,151.15616 464.180047,150.540649 463.858193,150.347407 L463.863742,150.318779 Z" id="Path" fill="#000000" fill-rule="nonzero"></path>
            <path d="M456.109311,159.512173 C456.630395,159.847708 457.205452,160.014661 457.786121,159.99899 C457.904243,159.99899 458,159.873729 458,159.71921 C458,159.564692 457.904243,159.43943 457.786121,159.43943 C457.281832,159.459197 456.781374,159.319049 456.327468,159.030951 C456.079368,158.874274 455.861212,159.355496 456.109311,159.512173 L456.109311,159.512173 Z" id="Path" fill="#000000" fill-rule="nonzero"></path>
            <path d="M448.901193,143.367986 C448.57091,146.224896 448.227146,149.081806 447.977748,151.952097 L448.611353,151.784831 C447.815977,150.55375 446.211745,149.516699 445.348964,151.276341 C444.418779,153.183178 445.463552,155.290735 447.121708,156.334477 C447.728351,156.715844 447.741832,156.528506 447.903603,157.277859 C447.989922,157.954685 448.032698,158.636283 448.031672,159.318509 C448.089289,160.260086 448.235978,161.194199 448.469803,162.108513 C448.973183,163.79706 450.001891,165.28422 451.408648,166.357079 C455.393117,169.524399 460.948689,169.877413 465.307501,167.240246 C466.971095,166.329267 468.307064,164.925992 469.129349,163.225852 C470.025831,161.278872 469.735991,159.285056 470.126939,157.244406 C470.322412,156.234117 471.475033,156.086923 472.14908,155.237209 C472.859452,154.321327 473.143757,153.148723 472.930975,152.012313 C472.472623,149.643821 470.517886,150.045261 469.42593,151.737996 L470.052793,151.905263 C469.830358,149.034971 469.459632,146.178061 469.129349,143.321151 C469.075425,142.89295 468.401378,142.89295 468.455302,143.321151 C468.785585,146.178061 469.129349,149.034971 469.378746,151.905263 C469.386878,152.051143 469.487673,152.175697 469.629428,152.215034 C469.771184,152.254372 469.92244,152.199763 470.00561,152.07922 C471.441331,149.851231 472.661356,151.891882 472.223225,153.597999 C471.896551,154.79384 470.945929,155.722093 469.735991,156.026707 C469.592194,156.068338 469.493334,156.199177 469.493334,156.347858 C469.392227,158.943833 469.42593,161.814124 467.882361,164.042112 C466.048953,166.718375 462.193403,168.411111 459.011901,168.411111 C455.830398,168.411111 452.109658,166.738447 450.249287,164.182616 C448.611353,161.941246 448.651796,158.997358 448.550688,156.347858 C448.547599,156.19807 448.446437,156.067802 448.301291,156.026707 C447.092793,155.719559 446.14326,154.792369 445.814057,153.597999 C445.375926,151.891882 446.595952,149.851231 448.031672,152.07922 C448.109434,152.209331 448.265488,152.271448 448.412271,152.230716 C448.559053,152.189983 448.660028,152.05654 448.658536,151.905263 C448.880972,149.034971 449.251697,146.178061 449.581981,143.321151 C449.635904,142.89295 448.961857,142.89295 448.907933,143.321151 L448.901193,143.367986 Z" id="Path" fill="#000000" fill-rule="nonzero"></path>
            <path d="M452.306682,168.338639 C452.255838,169.756406 452.202684,171.171916 452.147218,172.585168 C452.091753,173.838131 452.278949,175.477142 451.856025,176.648832 C451.065642,178.870301 447.25239,180.13681 445.220967,180.922452 C440.853061,182.6021 436.207828,183.550288 431.860721,185.202845 C428.435728,186.496444 424.19262,188.230274 423.076377,191.975618 C422.383058,194.271588 422.383058,196.845242 422.202796,199.215713 C422.022533,202.024156 421.962445,204.839372 422.022533,207.661361 C422.022533,207.848386 422.177737,208 422.369192,208 C422.560647,208 422.715851,207.848386 422.715851,207.661361 C422.660386,204.843888 422.715851,202.026414 422.896114,199.215713 C423.06251,196.648832 422.986245,193.587538 424.109421,191.217067 C425.232597,188.846597 427.87414,187.647816 430.127425,186.638673 C432.446866,185.651674 434.832855,184.82119 437.268605,184.153065 C441.463181,182.913647 445.796422,181.802912 449.609673,179.622079 C451.079508,178.782255 452.382947,177.935659 452.660274,176.195056 C453.090131,173.668811 452.909869,170.885201 453,168.325093 C453,167.891636 452.306682,167.891636 452.306682,168.325093 L452.306682,168.338639 Z" id="Path" fill="#000000" fill-rule="nonzero"></path>
            <path d="M465.027731,168.311759 C465.117857,170.866825 464.909874,173.672653 465.367435,176.187055 C465.672476,177.847509 466.753983,178.654016 468.195992,179.487631 C472.057527,181.751271 476.480613,182.876313 480.758113,184.150457 C483.10368,184.802077 485.405227,185.596582 487.649254,186.529312 C489.805335,187.471366 492.50217,188.698068 493.715399,190.778719 C495.101947,193.171128 494.963292,196.55981 495.101947,199.223314 C495.289131,202.03592 495.33766,204.855303 495.289131,207.674687 C495.289131,208.108438 495.982404,208.108438 495.982404,207.674687 C496.030933,204.855303 495.982404,202.03592 495.79522,199.223314 C495.749875,196.874789 495.480644,194.535511 494.991023,192.235852 C493.964978,188.318536 489.673613,186.536089 486.14485,185.200949 C481.846552,183.581159 477.326407,182.639105 473.035043,181.012538 C470.955222,180.226364 466.955032,178.918333 466.143902,176.641139 C465.707139,175.421213 465.908189,173.842087 465.859659,172.57472 C465.804198,171.158251 465.741803,169.741782 465.693274,168.325313 C465.693274,167.891562 465,167.891562 465,168.325313 L465.027731,168.311759 Z" id="Path" fill="#000000" fill-rule="nonzero"></path>
            <path d="M452,168.589453 C452,168.589453 458.652516,174.508525 465.875444,175 L465.683016,168.468365 C465.683016,168.468365 466.782605,167.300221 464.885813,168.653559 C462.989022,170.006896 460.116344,170.94711 458.473833,170.712057 C456.831321,170.477003 452,168.589453 452,168.589453 L452,168.589453 Z" id="Path" fill="#000000" fill-rule="nonzero"></path>
            <path d="M458.29527,52.0839503 C468.623894,52.0839503 476.996898,60.4569545 476.996898,70.7855787 C476.996898,81.1142029 468.623894,89.4872071 458.29527,89.4872071 C447.966646,89.4872071 439.593641,81.1142029 439.593641,70.7855787 C439.593641,60.4569545 447.966646,52.0839503 458.29527,52.0839503 Z" id="Rectangle" fill="#60D8D2" fill-rule="nonzero" transform="translate(458.295270, 70.785579) rotate(45.000000) translate(-458.295270, -70.785579) "></path>
            <rect id="Rectangle" fill="#CCCCCC" fill-rule="nonzero" x="430" y="335" width="57" height="15" rx="2.35"></rect>
            <polygon id="Path" fill="#E9E9E9" fill-rule="nonzero" points="176 36 358 36 358 399 176 399"></polygon>
            <circle id="Oval" fill="#000000" fill-rule="nonzero" cx="267.5" cy="149.5" r="66.5"></circle>
            <circle id="Oval" fill="#FFFFFF" fill-rule="nonzero" cx="267.5" cy="143.5" r="66.5"></circle>
            <g transform="translate(176.000000, 37.000000)" stroke="#000000">
                <polygon id="Path" points="0 0 182 0 182 362 0 362"></polygon>
                <ellipse id="Oval" cx="90.9932191" cy="107.834691" rx="66.6497019" ry="66.6273056"></ellipse>
                <line x1="54.3152012" y1="210.463382" x2="127.671237" y2="210.463382" id="Path"></line>
                <line x1="54.3152012" y1="225.274722" x2="127.671237" y2="225.274722" id="Path"></line>
                <line x1="54.3152012" y1="240.092841" x2="127.671237" y2="240.092841" id="Path"></line>
                <line x1="63.3609538" y1="254.904181" x2="118.625484" y2="254.904181" id="Path"></line>
            </g>
            <polygon id="Path" fill="#000000" fill-rule="nonzero" points="227.496723 315 228.88638 317.963247 232 318.438744 229.745084 320.74732 230.276038 324 227.496723 322.463247 224.717407 324 225.248361 320.74732 223 318.438744 226.107065 317.963247"></polygon>
            <polygon id="Path" fill="#000000" fill-rule="nonzero" points="247.503277 315 248.892935 317.963247 252 318.438744 249.751639 320.74732 250.282593 324 247.503277 322.463247 244.723962 324 245.254916 320.74732 243 318.438744 246.11362 317.963247"></polygon>
            <polygon id="Path" fill="#000000" fill-rule="nonzero" points="267.496723 315 268.892935 317.963247 272 318.438744 269.751639 320.74732 270.282593 324 267.496723 322.463247 264.717407 324 265.248361 320.74732 263 318.438744 266.107065 317.963247"></polygon>
            <polygon id="Path" fill="#000000" fill-rule="nonzero" points="285.503277 315 286.892935 317.963247 290 318.438744 287.751639 320.74732 288.282593 324 285.503277 322.463247 282.723962 324 283.254916 320.74732 281 318.438744 284.11362 317.963247"></polygon>
            <polygon id="Path" fill="#000000" fill-rule="nonzero" points="305.496723 315 306.892935 317.963247 310 318.438744 307.751639 320.74732 308.282593 324 305.496723 322.463247 302.717407 324 303.248361 320.74732 301 318.438744 304.107065 317.963247"></polygon>
            <path d="M252.089505,130.146398 C252.562474,129.895559 252.840086,130.756649 252.870932,130.955074 C252.870932,131.014975 253.009738,131.014975 252.999456,130.955074 C252.963469,130.704235 252.629306,129.745805 252.027814,130.064033 C251.960981,130.101472 252.027814,130.183837 252.089505,130.146398 L252.089505,130.146398 Z" id="Path" fill="#000000" fill-rule="nonzero"></path>
            <path d="M252.252129,130.547584 L252.752129,130.727584 C252.842129,130.857584 253.062129,130.727584 252.972129,130.597584 C252.742129,130.267584 252.322129,130.027584 252.032129,130.427584 C251.932129,130.557584 252.152129,130.677584 252.252129,130.547584 L252.252129,130.547584 Z" id="Path" fill="#000000" fill-rule="nonzero"></path>
            <path d="M280.972298,130.064033 C280.370399,129.745805 280.036011,130.704235 280,130.955074 C280,131.014975 280.118322,131.014975 280.128611,130.955074 C280.128611,130.752905 280.437277,129.899303 280.905421,130.146398 C280.972298,130.183837 281.039176,130.101472 280.972298,130.064033 L280.972298,130.064033 Z" id="Path" fill="#000000" fill-rule="nonzero"></path>
            <path d="M280.969652,130.426652 C280.669652,130.026652 280.259652,130.266652 280.029652,130.596652 C279.939652,130.736652 280.159652,130.856652 280.249652,130.726652 L280.749652,130.546652 C280.849652,130.676652 281.059652,130.546652 280.969652,130.426652 Z" id="Path" fill="#000000" fill-rule="nonzero"></path>
            <path d="M259.434326,130.028109 C259.18589,130.123152 259.025397,130.286917 259.002754,130.46848 C258.980111,130.650042 259.098064,130.827385 259.319934,130.94536 C259.411824,130.989371 259.528498,131.007974 259.642872,130.996849 C259.757245,130.985724 259.859369,130.945839 259.925537,130.886454 C260.10049,130.722359 259.925537,130.524603 259.824604,130.360508 C259.683296,130.103846 259.03059,130.213243 259.151711,130.469905 C259.221097,130.561878 259.268699,130.659678 259.293018,130.760227 L259.393952,130.608754 L259.353579,130.638208 L259.59582,130.579301 C259.72367,130.646623 259.743856,130.629792 259.649651,130.533018 C259.616855,130.478432 259.658293,130.417356 259.743856,130.394168 C259.905515,130.336074 259.961249,130.207034 259.868342,130.10595 C259.775434,130.004865 259.569068,129.970015 259.40741,130.028109 L259.434326,130.028109 Z" id="Path" fill="#000000" fill-rule="nonzero"></path>
            <path d="M273.432027,130.029142 C273.18357,130.124842 273.023837,130.288866 273.00245,130.470257 C272.981064,130.651648 273.100616,130.828432 273.323964,130.945689 C273.415094,130.98947 273.531159,131.007968 273.644875,130.996832 C273.75859,130.985697 273.859927,130.945911 273.925064,130.886828 C274.100666,130.722858 273.925064,130.525254 273.830509,130.361285 C273.681922,130.10482 273.033545,130.214133 273.155116,130.470598 C273.22982,130.561583 273.280016,130.659587 273.303702,130.760698 L273.405011,130.609341 L273.364488,130.638772 L273.600875,130.579911 C273.735954,130.64718 273.756216,130.630363 273.661661,130.533663 C273.641877,130.50764 273.640892,130.477595 273.658955,130.451091 C273.677017,130.424587 273.712407,130.404148 273.756216,130.39492 C273.918475,130.335709 273.972904,130.205827 273.877786,130.10482 C273.782669,130.003813 273.574024,129.969931 273.411765,130.029142 L273.432027,130.029142 Z" id="Path" fill="#000000" fill-rule="nonzero"></path>
            <path d="M266,127.391153 C266.101333,129.461001 266.168,131.528133 266.2,133.592549 C266.2,133.817578 266.379086,134 266.6,134 C266.820914,134 267,133.817578 267,133.592549 C266.968,131.533566 266.901333,129.466434 266.8,127.391153 C266.8,126.869616 266,126.869616 266,127.391153 Z" id="Path" fill="#000000" fill-rule="nonzero"></path>
            <path d="M258.368571,125.991774 C258.784679,125.71843 259.250387,125.645199 259.697373,125.782824 C260.000686,125.873369 260.130678,125.204731 259.827364,125.086327 C259.253419,124.908839 258.65513,125.006639 258.123032,125.364926 C257.843791,125.55298 258.08933,126.151968 258.368571,125.963914 L258.368571,125.991774 Z" id="Path" fill="#000000" fill-rule="nonzero"></path>
            <path d="M274.876987,125.355035 C274.34497,125.006459 273.746771,124.91131 273.172913,125.083987 C272.869645,125.172077 272.999617,125.822592 273.298071,125.761606 C273.746576,125.627665 274.21375,125.698888 274.631485,125.964892 C274.910683,126.147849 275.156185,125.565097 274.876987,125.382139 L274.876987,125.355035 Z" id="Path" fill="#000000" fill-rule="nonzero"></path>
            <path d="M263.188054,136.490218 C264.266995,136.84513 265.452021,137.019215 266.64677,136.998318 C267.117743,136.998318 267.117743,136.490218 266.64677,136.490218 C265.580516,136.506305 264.523894,136.34786 263.563362,136.027847 C263.136542,135.885579 262.761234,136.327626 263.188054,136.469894 L263.188054,136.490218 Z" id="Path" fill="#000000" fill-rule="nonzero"></path>
            <path d="M255.7244,118.334317 C255.31754,121.970501 254.869994,125.606685 254.598754,129.256909 L255.229387,129.081417 C254.246141,127.403719 252.177935,126.273553 251.282842,128.667257 C250.869299,129.86413 250.910505,131.178952 251.39812,132.34556 C251.630984,132.904941 251.959479,133.416214 252.367803,133.854787 C252.883159,134.402321 253.635851,134.556753 254.144426,135.048129 C254.883556,135.750095 254.605535,137.93321 254.70725,138.986159 C254.781351,140.19239 254.986064,141.386192 255.31754,142.545127 C255.970654,144.519216 257.168244,146.251922 258.76229,147.529087 C261.047577,149.347379 263.752069,150.516129 266.607912,150.919583 C269.706831,151.312684 272.900684,150.217617 275.579181,148.659252 C277.510428,147.572172 279.088581,145.91894 280.115673,143.906941 C281.166728,141.709788 281.288786,139.231847 281.424406,136.831123 C281.478655,135.904528 281.302348,135.427191 282.102507,134.942834 C282.817012,134.582661 283.45366,134.076431 283.974064,133.454666 C284.737413,132.442921 285.096633,131.166527 284.977653,129.888679 C284.8895,128.849769 284.428391,127.312463 283.214592,127.214188 C282.136412,127.122932 281.268443,128.246078 280.77343,129.081417 L281.404063,129.256909 C281.139604,125.606685 280.685277,121.970501 280.278417,118.334317 C280.23095,117.892078 279.552849,117.885058 279.600316,118.334317 C280.007177,121.970501 280.461504,125.606685 280.725963,129.256909 C280.732881,129.412944 280.836725,129.546324 280.982544,129.58647 C281.128364,129.626617 281.282494,129.564262 281.363377,129.432401 C281.858391,128.590041 282.909446,127.193129 283.980845,128.646199 C284.435172,129.256909 284.360581,130.408133 284.238523,131.089041 C283.937519,132.775389 282.721873,134.12957 281.119261,134.563773 C280.971912,134.604842 280.869221,134.742751 280.868364,134.900716 C280.746306,138.235055 280.786992,141.920377 278.834063,144.777379 C276.562426,148.139797 271.876752,150.301853 267.984456,150.308872 C264.09216,150.315892 259.406486,148.132777 257.134849,144.777379 C255.209044,141.927397 255.24973,138.235055 255.100548,134.900716 C255.099691,134.742751 254.997,134.604842 254.849651,134.563773 C253.237952,134.14539 252.015487,132.783613 251.730389,131.089041 C251.642236,130.492369 251.513397,129.116516 251.981286,128.646199 L253.42564,128.112704 C253.927819,128.433006 254.335832,128.889362 254.605535,129.432401 C254.683121,129.567791 254.838298,129.633143 254.985153,129.592277 C255.132009,129.55141 255.234616,129.414322 255.236168,129.256909 C255.507408,125.606685 255.954954,121.970501 256.361815,118.334317 C256.416063,117.885058 255.737962,117.892078 255.683714,118.334317 L255.7244,118.334317 Z" id="Path" fill="#000000" fill-rule="nonzero"></path>
            <path d="M257.330374,146.314936 C257.276804,147.910158 257.216537,149.498533 257.156271,151.107447 C257.096005,152.716362 257.256715,154.653905 256.895117,156.290205 C256.258972,159.220483 251.698818,160.86363 249.254682,161.870057 C244.252574,163.92399 238.949135,165.094732 233.913546,167.045969 C229.795345,168.634344 224.53878,170.790974 223.239705,175.521867 C222.489724,178.260444 222.429457,181.245494 222.255354,184.052536 C222.027681,187.578455 221.960719,191.118066 222.020985,194.657678 C222.020985,194.846737 222.170886,195 222.355798,195 C222.54071,195 222.690611,194.846737 222.690611,194.657678 C222.630345,191.118066 222.690611,187.585301 222.924981,184.052536 C223.119172,180.930557 223.025424,177.206092 224.384766,174.3032 C225.657055,171.633086 228.723943,170.113176 231.235041,168.921895 C233.817646,167.749675 236.475553,166.7592 239.190201,165.957384 C244.138738,164.403242 249.234593,163.054492 253.781355,160.411765 C255.68979,159.302641 257.343766,158.200363 257.631706,155.83834 C258.020089,152.730054 257.89286,149.457454 258,146.328629 C258,145.890457 257.330374,145.890457 257.330374,146.328629 L257.330374,146.314936 Z" id="Path" fill="#000000" fill-rule="nonzero"></path>
            <path d="M275,146.342227 C275.107129,149.470177 275,152.741863 275.368256,155.849281 C275.662861,158.217488 277.316667,159.312613 279.218209,160.421428 C283.751109,163.063417 288.866525,164.411789 293.81455,165.965498 C296.528563,166.768198 299.186122,167.75837 301.768887,168.92918 C304.279726,170.120129 307.346296,171.666993 308.611759,174.308982 C309.950873,177.183685 309.877222,180.927644 310.078089,184.055594 C310.305738,187.580528 310.372694,191.119151 310.305738,194.657773 C310.305738,194.84678 310.455624,195 310.640517,195 C310.82541,195 310.975295,194.84678 310.975295,194.657773 C311.042251,191.119151 310.975295,187.587373 310.747646,184.055594 C310.566865,181.249336 310.513301,178.244587 309.763397,175.527308 C308.424283,170.797737 303.201739,168.64171 299.090659,167.053778 C294.048895,165.103087 288.7527,163.939517 283.751109,161.879313 C281.293835,160.866322 276.754239,159.257857 276.104769,156.30102 C275.749904,154.665177 275.910597,152.789775 275.843642,151.119709 C275.776686,149.449644 275.723122,147.937002 275.669557,146.328538 C275.669557,145.890487 275,145.890487 275,146.328538 L275,146.342227 Z" id="Path" fill="#000000" fill-rule="nonzero"></path>
            <path d="M259,146.600193 C259,146.600193 266.343237,153.468522 275,154 L274.781079,146.974953 C274.781079,146.974953 275.306489,145.046642 273.217357,146.613821 C271.128225,148.180999 267.950743,149.278024 266.143081,148.998657 C264.335418,148.719291 259,146.600193 259,146.600193 L259,146.600193 Z" id="Path" fill="#000000" fill-rule="nonzero"></path>
            <rect id="Rectangle" fill="#CCCCCC" fill-rule="nonzero" x="232" y="349" width="69" height="19" rx="2.85"></rect>
            <path d="M259.277121,122.831644 C263.681667,121.825175 270.337116,119.628623 272.865909,115.249122 C272.865909,115.249122 272.171186,121.723168 270.378799,123.586496 C273.255565,122.589905 275.244446,120.00569 275.429438,117.024044 C275.429438,117.024044 278.646007,125.905456 281.411006,128 L283.495176,126.347486 C283.495176,126.347486 286.718692,111.923692 276.874463,110.597601 C276.874463,110.597601 269.232506,103.504712 258.436505,109.237507 C246.452528,115.636748 252.552199,126.320284 252.552199,126.320284 C252.552199,126.320284 254.566897,127.204345 254.421005,127.782385 L255.039308,127.741582 C255.143686,125.350794 256.886458,123.331614 259.277121,122.831644 L259.277121,122.831644 Z" id="Path" fill="#000000" fill-rule="nonzero"></path>
            <path d="M251.681652,114 C251.681652,114 247.535305,119.123535 244.980076,133.534753 C242.478784,147.653391 238.912251,150.545161 237.563845,155.076734 C236.21544,159.608306 237.193034,163.684 241.50119,164.309983 C241.50119,164.309983 237.563845,170.481359 245.472244,173.35952 C245.472244,173.35952 254.809953,177.129027 256.677494,166.378449 C257.793835,160.3238 258.205642,154.158283 257.904544,148.007208 C257.904544,148.007208 258.430422,145.680184 256.893239,144.679972 C255.356057,143.67976 254.243622,141.345932 253.980683,139.753758 C253.717744,138.161584 253.421095,134.181148 253.421095,134.181148 C253.421095,134.181148 253.623356,133.541557 252.814312,133.126503 C252.005269,132.711449 249.443299,130.813087 249.975919,128.819468 C250.508539,126.825848 251.364776,126.056977 252.153594,125.614707 C252.942411,125.172436 252.827797,122.790979 252.827797,122.790979" id="Path" fill="#000000" fill-rule="nonzero"></path>
            <path d="M278.023742,112 C278.023742,112 283.851832,114.604455 284.755951,125.471087 C285.576612,135.256495 288.706255,148.339973 290.625769,153.35168 C292.545283,158.363386 296.245216,169.406821 287.002339,171.671269 C275.026239,174.595332 274.275125,157.193761 274.031709,151.876048 C273.788292,146.558335 275.026239,146.435933 275.026239,146.435933 C275.5532,146.100693 276.048907,145.72068 276.507604,145.300308 L278.016787,143.375868 C278.016787,143.375868 279.67202,139.146178 279.484242,137.38494 C279.387396,136.220547 279.457625,135.048632 279.692884,133.903266 C279.692884,133.903266 282.092277,133.665261 282.586065,131.863223 C283.079853,130.061184 283.448456,129.143165 282.996396,128.061942 C282.544337,126.980719 279.957165,126.450307 279.755477,127.456729 C279.553789,128.46315 279.901527,122.948233 279.901527,122.948233" id="Path" fill="#000000" fill-rule="nonzero"></path>
            <path d="M448.032747,153 C448.032747,153 447.759575,146.669925 450.71667,145.450958 C452.027899,144.902067 456.432811,144.495744 459.287466,144.695341 C460.376267,144.759485 461.338806,143.963076 461.527483,142.841941 L461.882608,140.753301 L462.483588,145.237104 C462.483588,145.237104 466.58118,145.586399 467.947044,147.254459 C469.312908,148.922519 469.640715,152.244383 469.640715,152.244383 L471.409509,151.574308 C471.409509,151.574308 473.601721,143.597558 469.538276,139.063856 C464.218235,133.132975 453.83084,131.935393 448.148846,138.037357 C446.141026,140.175896 445.280531,143.248263 445.082481,146.178061 C445.021017,147.069119 444.706869,151.267784 445.908829,151.688363 C446.654561,152.055244 447.365653,152.494382 448.032747,153 L448.032747,153 Z" id="Path" fill="#000000" fill-rule="nonzero"></path>
            <path d="M469.367096,138.422299 C469.367096,138.422299 466.939374,128.513034 474.57037,126.333263 C482.201366,124.153492 488.909544,133.019677 485.445427,142.628054 C484.725506,144.41281 484.555713,146.352871 484.955624,148.224582 C485.43123,150.070033 486.836753,151.447434 487.937036,152.971936 C489.696681,155.309291 490.37069,158.220529 489.803968,161.035752 C489.427742,162.948066 488.384248,164.847008 486.460527,165.529022 C485.799257,165.745548 485.345928,166.321078 485.317652,166.979974 L485.317652,167.073583 C484.998215,170.670874 480.348631,172.001471 477.431106,170.202825 C473.235833,167.615183 472.902199,162.018654 473.45589,157.806214 C473.697242,155.947391 474.16575,154.121999 474.407102,152.25649 C474.657889,149.937446 474.717222,147.603566 474.584567,145.275874 C474.485187,143.356873 473.995384,138.081292 470.651943,140.134021" id="Path" fill="#000000" fill-rule="nonzero"></path>
            <path d="M65.3258919,153 C65.3258919,153 65.6501802,142.747026 69.9740242,143.437198 C74.2978681,144.127371 80.8376821,143.615078 82.891508,141.758016 C82.891508,141.758016 83.8846409,144.426208 85.9587348,144.789082 L86.7829676,153 C86.7829676,153 87.23562,152.01099 87.8504165,151.797535 L88.4652131,151.576964 C88.4652131,151.576964 91.1068115,139.289048 84.6480696,138.207541 C84.6480696,138.207541 77.5339951,130.188733 70.5685527,134.052276 C63.6031103,137.915819 62.9072417,142.91779 63.0085818,145.699825 C63.1035178,147.670576 63.3133494,149.633321 63.6368903,151.576964 L65.3258919,153 Z" id="Path" fill="#000000" fill-rule="nonzero"></path>
            <path d="M61.1062542,181.903111 C65.6460601,185.431312 71.0184942,188.041607 76.7015118,187.99858 C81.75269,188.065879 86.5794055,185.737621 89.9178317,181.623437 C90.1887663,181.279222 89.7261951,180.7629 89.4486524,181.121457 C86.1159823,185.219613 81.2656714,187.4803 76.2323324,187.281466 C70.8334657,187.152386 65.7914396,184.642487 61.469703,181.279222 C61.1260787,181.01389 60.808887,181.630608 61.139295,181.903111 L61.1062542,181.903111 Z" id="Path" fill="#000000" fill-rule="nonzero"></path>
            <path d="M236.001277,167.466641 C236.725612,172.661512 240.272823,176.842244 244.090813,180.133019 C248.092149,183.56753 252.7686,186.089243 257.805793,187.528638 C269.066365,190.63976 281.092151,188.768721 290.92889,182.375161 C293.240394,180.867932 295.269235,178.952166 296.919886,176.718064 C298.83565,174.034393 299.925538,170.936787 300.981578,167.818485 C301.116967,167.397653 300.467097,167.218281 300.304629,167.632215 C298.510715,173.089244 296.175242,177.725303 291.504297,181.154056 C287.117139,184.214605 282.161725,186.327637 276.943131,187.363065 C266.497813,189.612105 255.328161,187.673515 246.622601,181.229944 C242.066737,177.863281 237.504103,173.144435 236.678225,167.252776 C236.6173,166.811246 235.967429,166.997516 236.001277,167.432147 L236.001277,167.466641 Z" id="Path" fill="#000000" fill-rule="nonzero"></path>
            <path d="M447.029057,180.166202 C449.997807,185.364614 454.111073,189.748264 459.027284,192.953127 C459.155598,193.032233 459.319059,193.009468 459.423047,192.89801 C463.321316,188.840091 467.905576,184.919962 469.976737,179.415246 C470.128447,179.001875 469.495225,178.822748 469.317132,179.229229 C468.186664,181.96332 466.575828,184.452017 464.567971,186.566554 C463.631331,187.634427 462.641923,188.633406 461.645918,189.673721 L460.583953,190.748484 C460.313515,191.024065 459.620929,192.016154 459.264742,192.091938 C458.440235,192.277955 456.698876,190.507352 456.065654,189.97686 C454.96505,189.063728 453.920792,188.078862 452.939124,187.028151 C450.915232,184.835585 449.132046,182.413849 447.622702,179.807947 C447.398436,179.435914 446.831176,179.807947 447.048845,180.159312 L447.029057,180.166202 Z" id="Path" fill="#000000" fill-rule="nonzero"></path>
            <path d="M62.3863758,218.183566 C60.9930452,209.461663 66.627241,200.049441 75.4201034,197.606777 C80.6822934,196.139851 85.565714,198.65553 88.2712101,203.129322 C91.1593273,207.835433 91.0172887,213.630122 90.6249918,218.920348 C90.6249918,219.026551 90.7805578,219.026551 90.7940853,218.920348 C91.2134372,213.2916 91.3081295,207.065462 87.8856769,202.226598 C85.1801808,198.376747 80.7364034,196.166402 75.9612027,197.294806 C66.7489883,199.471963 60.7833693,209.242619 62.2105185,218.249943 C62.2105185,218.356146 62.3931395,218.309682 62.379612,218.203479 L62.3863758,218.183566 Z" id="Path" fill="#000000" fill-rule="nonzero"></path>
            <path d="M67.2172016,220.695309 C66.9681609,216.52792 67.7614034,212.36466 69.5172439,208.623751 C70.3471343,206.762677 71.4840003,205.072594 72.8746191,203.632626 C74.7421161,201.818991 77.0284268,201.412736 79.4795167,201.209609 C88.405054,200.484155 88.9611836,214.347585 88.8101361,220.912945 C88.8101361,221.029018 88.9749152,221.029018 88.981781,220.912945 C89.1328286,214.275039 88.54237,200.288282 79.4795167,201.028246 C77.4197773,201.1951 75.3600379,201.456264 73.6023937,202.769336 C72.1442367,203.969334 70.9378442,205.476246 70.0596419,207.194606 C67.8106127,211.279661 66.761494,215.978878 67.0455567,220.695309 C67.0455567,220.811382 67.2240674,220.811382 67.2172016,220.695309 L67.2172016,220.695309 Z" id="Path" fill="#000000" fill-rule="nonzero"></path>
            <path d="M70.3618227,221.649842 C69.8933973,218.772787 70.2714898,215.818423 71.4481905,213.161111 C72.4818859,210.820319 74.2134903,208.096122 76.7615166,207.349491 C83.4509087,205.385378 84.2673305,217.842693 83.6089258,221.891993 C83.6089258,221.999616 83.7471908,222.046701 83.7669429,221.939078 C84.3112421,218.218041 83.8982758,214.416343 82.5686463,210.907762 C81.7324723,208.755311 79.9021072,206.744113 77.4462575,207.026623 C74.6612055,207.336038 72.6728233,210.235121 71.520615,212.575913 C70.1518224,215.398521 69.6909516,218.590789 70.2038055,221.696927 C70.2038055,221.80455 70.3815748,221.757465 70.3618227,221.649842 L70.3618227,221.649842 Z" id="Path" fill="#000000" fill-rule="nonzero"></path>
            <path d="M74.1811285,222.474258 C74.2608251,220.302116 74.9056426,214.235335 78.223917,214.173076 C81.9189388,214.110817 81.9841451,220.696422 81.7305651,222.916988 C81.7305651,223.027671 81.9044485,223.027671 81.9116937,222.916988 C82.1797639,220.592657 82.0638416,213.965547 78.223917,214.000135 C74.7245141,214.034723 74.0796965,220.226022 74,222.474258 C74,222.584941 74.1738834,222.584941 74.1811285,222.474258 Z" id="Path" fill="#000000" fill-rule="nonzero"></path>
            <path d="M76.0792807,219.317276 C76.2202883,219.04139 76.3685146,218.779279 76.5233924,218.531946 C76.602827,218.421724 76.6064377,218.311502 76.7039256,218.401057 C76.8014135,218.490612 76.7653069,219.041721 76.7761388,219.131276 C76.8531766,220.059187 76.8978064,220.99584 76.9097334,221.935043 C76.91549,221.973491 76.9339086,222 76.9548667,222 C76.9758248,222 76.9942434,221.973491 77,221.935043 C76.9828919,220.63295 76.9019,219.336776 76.7580855,218.063503 C76.7534495,218.034414 76.7413947,218.0118 76.7260722,218.003447 C76.7107497,217.995094 76.6942525,218.002145 76.6822616,218.02217 L76.0142888,219.193276 C75.9709608,219.269054 76.0359528,219.393053 76.0792807,219.317276 L76.0792807,219.317276 Z" id="Path" fill="#000000" fill-rule="nonzero"></path>
            <path d="M224.107675,192.306159 C226.375013,191.556789 227.898057,194.607794 228.421819,196.213587 C228.894964,197.734336 228.951968,199.348507 228.587218,200.897147 C228.575799,200.94149 228.603569,200.986424 228.649242,200.997509 C228.694916,201.008595 228.741198,200.981635 228.752616,200.937292 C229.257572,198.839587 228.984252,196.636183 227.980757,194.714847 C227.250247,193.329851 225.913275,191.516644 224.059434,192.118816 C223.95606,192.15227 223.997409,192.31285 224.107675,192.279396 L224.107675,192.306159 Z" id="Path" fill="#000000" fill-rule="nonzero"></path>
            <path d="M228.052312,170.071863 C227.313697,176.05256 234.585236,178.337675 237.959943,176.233793 C238.055453,176.178636 237.959943,176.005282 237.883534,176.06044 C236.0736,177.162106 233.966287,177.236862 232.108328,176.265312 C230.115341,175.288229 227.835821,173.11343 228.205129,170.119141 C228.205129,170.000946 228.065047,169.945788 228.052312,170.071863 L228.052312,170.071863 Z" id="Path" fill="#000000" fill-rule="nonzero"></path>
            <path d="M238.314777,199.996283 C236.559087,197.620926 236.733956,194.124456 239.18213,192.288634 C241.630303,190.452813 245.036762,191.12548 247.191155,193.269608 C249.044772,195.112437 249.247621,199.358651 247.890633,201.537813 C246.330464,203.820225 243.268203,204.495095 240.895851,203.079343 C240.797924,203.023287 240.706992,203.17744 240.804919,203.233496 C243.122022,204.61638 246.101278,204.085149 247.799701,201.986258 C249.485443,199.786075 249.450469,195.056381 247.34504,193.15049 C245.029767,191.048404 241.798178,190.088451 239.105187,192.127475 C236.587066,194.026359 236.384217,197.641947 238.195865,200.080367 C238.258818,200.171457 238.412704,200.080367 238.342756,199.996283 L238.314777,199.996283 Z" id="Path" fill="#000000" fill-rule="nonzero"></path>
            <path d="M255.624606,210.739854 C255.117428,208.609932 254.623957,206.117034 256.447057,204.432273 C257.952776,203.180509 260.016064,202.835141 261.847819,203.528255 C265.679071,204.761007 267.152629,208.12368 266.775672,211.917817 C266.775672,212.027394 266.940163,212.027394 266.947016,211.917817 C267.365096,207.671671 265.308968,203.781654 260.778633,203.089944 C259.010881,202.757192 257.196539,203.360656 255.981001,204.685672 C254.52115,206.432071 254.99406,208.760602 255.473823,210.787794 C255.473823,210.897372 255.658875,210.849432 255.638313,210.739854 L255.624606,210.739854 Z" id="Path" fill="#000000" fill-rule="nonzero"></path>
            <path d="M261.001505,187.121261 C261.586682,189.974189 263.23313,192.40419 265.519628,193.789581 C267.806126,195.174971 270.510856,195.38135 272.941847,194.355919 C273.042242,194.310608 273.002084,194.129364 272.901689,194.174675 C270.513403,195.186503 267.85428,194.986002 265.606551,193.624614 C263.358823,192.263225 261.741246,189.873443 261.168831,187.068398 C261.168831,186.947568 260.981426,187.000431 261.001505,187.121261 L261.001505,187.121261 Z" id="Path" fill="#000000" fill-rule="nonzero"></path>
            <path d="M275.453971,190.941385 C275.787076,190.337045 275.876403,189.690344 275.713971,189.059058 C275.713971,188.958667 275.443971,188.996314 275.473971,189.096704 C275.623397,189.703341 275.534138,190.323702 275.213971,190.903738 C275.163971,190.997855 275.403971,191.041776 275.453971,190.947659 L275.453971,190.941385 Z" id="Path" fill="#000000" fill-rule="nonzero"></path>
            <path d="M279.599389,208.866253 C278.381092,206.265822 279.750853,202.656481 281.79891,200.944175 C284.689896,198.514265 289.477474,202.564116 288.746496,206.152142 C288.735585,206.19923 288.76212,206.246945 288.805765,206.258717 C288.849409,206.270489 288.893634,206.24186 288.904545,206.194772 C289.243914,204.518912 288.662764,202.781531 287.409662,201.725726 C286.237462,200.65287 284.242089,199.594225 282.687937,200.15552 C279.823293,201.256795 278.130847,206.116617 279.461096,208.958618 C279.507194,209.058088 279.652073,208.958618 279.599389,208.866253 L279.599389,208.866253 Z" id="Path" fill="#000000" fill-rule="nonzero"></path>
            <path d="M295.784795,182.688205 C293.074464,183.618089 291.284486,186.751874 292.277308,189.578137 C293.409241,192.365353 296.545955,193.718458 299.321269,192.616736 C302.220018,191.357365 304.51003,186.722586 303.901293,183.618089 C303.408505,181.092025 299.009653,180.04499 297.429835,182.058519 C297.357366,182.146382 297.480563,182.278177 297.553032,182.190314 C298.538606,180.938265 300.372065,181.179888 301.727231,181.597238 C304.04623,182.329431 303.901293,184.811563 303.415752,186.722586 C302.734546,189.212041 301.104,192.09688 298.41541,192.719243 C295.994954,193.283032 293.081711,191.789359 292.378764,189.314548 C291.686199,186.585777 293.193647,183.779132 295.835523,182.878575 C295.944226,182.834643 295.900744,182.658917 295.784795,182.695527 L295.784795,182.688205 Z" id="Path" fill="#000000" fill-rule="nonzero"></path>
            <path d="M298.045318,170.399312 C300.400598,171.838687 303.022972,170.399312 304.957378,169.134815 C305.062596,169.067555 304.957378,168.953212 304.81169,169.020472 C302.950128,170.231161 300.424879,171.650357 298.142443,170.258065 C298.037224,170.190805 297.940099,170.338778 298.045318,170.399312 L298.045318,170.399312 Z" id="Path" fill="#000000" fill-rule="nonzero"></path>
            <path d="M309.823206,191.022741 C307.653082,192.719837 306.274615,195.201925 306,197.906866 C306,198.031045 306.182435,198.031045 306.198299,197.906866 C306.474732,195.255825 307.82975,192.825128 309.95805,191.162441 C310.061165,191.08483 309.95805,190.945129 309.823206,191.022741 Z" id="Path" fill="#000000" fill-rule="nonzero"></path>
            <path d="M423.062457,193.166938 C446.511136,196.391197 470.80216,197.831693 493.935816,192.149396 C493.981203,192.13924 494.008797,192.098074 493.997451,192.05745 C493.986104,192.016825 493.940113,191.992126 493.894726,192.002282 C470.781615,197.672319 446.524833,196.237953 423.103547,193.019824 C423.000822,193.019824 422.952883,193.154679 423.062457,193.166938 L423.062457,193.166938 Z" id="Path" fill="#000000" fill-rule="nonzero"></path>
            <path d="M424.056415,203.464929 C430.021191,205.516997 436.229428,206.447268 442.512055,207.028688 C448.598562,207.589586 454.685069,207.98632 460.818915,208 C472.525296,208 484.360171,206.474629 494.957455,201.159772 C495.058897,201.11189 494.957455,200.961405 494.876302,201.009287 C484.123473,206.378866 472.092478,207.883716 460.22379,207.808474 C454.414558,207.767432 448.605325,207.39122 442.823144,206.864522 C436.479651,206.289943 430.149684,205.380193 424.103754,203.280243 C424.002312,203.246042 423.954973,203.410207 424.056415,203.444408 L424.056415,203.464929 Z" id="Path" fill="#000000" fill-rule="nonzero"></path>
            <path d="M433.061104,216.898583 C449.821088,221.263163 467.280648,221.017748 483.93677,216.183464 C483.981482,216.170992 484.008667,216.120439 483.997489,216.07055 C483.986311,216.020662 483.941003,215.99033 483.896291,216.002802 C467.269003,220.829418 449.839485,221.074834 433.10833,216.717921 C433,216.717921 432.953159,216.868473 433.061104,216.898583 L433.061104,216.898583 Z" id="Path" fill="#000000" fill-rule="nonzero"></path>
            <polygon id="Path" fill="#8F8FEF" fill-rule="nonzero" points="291 41.25 291 13.75 267.496565 0 244 13.75 244 41.25 267.496565 55"></polygon>
        </g>
    </g>
</svg>