<?xml version="1.0" encoding="UTF-8"?>
<svg width="600px" height="500px" viewBox="0 0 600 500" version="1.1" xmlns="http://www.w3.org/2000/svg" xmlns:xlink="http://www.w3.org/1999/xlink">
    <title>kyc</title>
    <g id="kyc" stroke="none" stroke-width="1" fill="none" fill-rule="evenodd">
        <g id="Group" transform="translate(72.000000, 59.000000)">
            <polygon id="Path" fill="#F4F4F4" fill-rule="nonzero" points="0 66 129 66 129 322 8.27742023e-15 322"></polygon>
            <circle id="Oval" fill="#000000" fill-rule="nonzero" cx="63.5" cy="145.5" r="47.5"></circle>
            <circle id="Oval" fill="#FFFFFF" fill-rule="nonzero" cx="63.5" cy="141.5" r="47.5"></circle>
            <g transform="translate(0.000000, 66.000000)" stroke="#000000">
                <polygon id="Path" points="0 0 129 0 129 256 8.27742023e-15 256"></polygon>
                <ellipse id="Oval" cx="64.5029124" cy="76.2533415" rx="47.2442769" ry="47.1195225"></ellipse>
                <line x1="38.5072019" y1="148.829373" x2="90.4986228" y2="148.829373" id="Path"></line>
                <line x1="38.5072019" y1="159.303606" x2="90.4986228" y2="159.303606" id="Path"></line>
                <line x1="38.5072019" y1="169.783648" x2="90.4986228" y2="169.783648" id="Path"></line>
                <line x1="44.9143902" y1="180.25788" x2="84.0856098" y2="180.25788" id="Path"></line>
            </g>
            <polygon id="Path" fill="#000000" fill-rule="nonzero" points="37.0026478 263 37.929391 264.975881 40 265.293135 38.5013239 266.829314 38.8561342 269 37.0026478 267.975881 35.1438658 269 35.4986761 266.829314 34 265.293135 36.0759047 264.975881"></polygon>
            <polygon id="Path" fill="#000000" fill-rule="nonzero" points="48.9973522 263 49.9240953 264.975881 52 265.293135 50.4960282 266.829314 50.8508385 269 48.9973522 267.975881 47.1438658 269 47.4986761 266.829314 46 265.293135 48.070609 264.975881"></polygon>
            <g transform="translate(60.000000, 263.000000)" fill="#CCCCCC" fill-rule="nonzero" id="Path">
                <polygon points="3.32093023 0 4.3459087 1.97588126 6.63600345 2.29313544 4.97846684 3.82931354 5.37088717 6 3.32093023 4.97588126 1.2709733 6 1.66339363 3.82931354 0 2.29313544 2.29595177 1.97588126"></polygon>
                <polygon points="17.0029285 0 18.027907 1.97588126 20.3180017 2.29313544 18.6604651 3.82931354 19.0528854 6 17.0029285 4.97588126 14.9529716 6 15.3395349 3.82931354 13.6819983 2.29313544 15.97795 1.97588126"></polygon>
                <polygon points="30.6790698 0 31.7040482 1.97588126 34 2.29313544 32.3424634 3.82931354 32.7290267 6 30.6790698 4.97588126 28.6291128 6 29.0215332 3.82931354 27.3639966 2.29313544 29.6540913 1.97588126"></polygon>
            </g>
            <path d="M54.1111448,130.165608 C54.2804181,130.076667 54.4678279,130.205632 54.5524646,130.294573 C54.5990393,130.346069 54.6375708,130.401265 54.6673287,130.459114 C54.7607105,130.61458 54.8218461,130.779475 54.848693,130.94829 C54.848693,131.014995 55.0058755,131.019442 54.99983,130.94829 C54.9575116,130.677019 54.6371013,129.760927 54.0325535,130.058879 C53.9539623,130.098903 54.0325535,130.196738 54.1111448,130.156714 L54.1111448,130.165608 Z" id="Path" fill="#000000" fill-rule="nonzero"></path>
            <path d="M54.2868896,130.5654 L54.6868896,130.6854 C54.7768896,130.8154 54.9968896,130.6854 54.8968896,130.5554 C54.7968896,130.4254 54.3768896,130.0754 54.1068896,130.3854 C54.0068896,130.5054 54.1868896,130.6854 54.2868896,130.5654 L54.2868896,130.5654 Z" id="Path" fill="#000000" fill-rule="nonzero"></path>
            <path d="M74.9674409,130.061871 C74.3627903,129.756 74.0423255,130.66918 74,130.948454 C74,131.019381 74.1390696,131.014948 74.1511626,130.948454 C74.1813952,130.762271 74.4413949,129.937749 74.8888363,130.168261 C74.9674409,130.208157 75.0460455,130.110633 74.9674409,130.070737 L74.9674409,130.061871 Z" id="Path" fill="#000000" fill-rule="nonzero"></path>
            <path d="M74.9073999,130.382501 C74.6373999,130.072501 74.3073999,130.272501 74.1173999,130.552501 C73.9273999,130.832501 74.2473999,130.812501 74.3373999,130.682501 L74.7373999,130.562501 C74.8373999,130.682501 75.0173999,130.502501 74.9073999,130.382501 Z" id="Path" fill="#000000" fill-rule="nonzero"></path>
            <path d="M59.4115857,130.036042 C59.1816004,130.12765 59.0310817,130.282642 59.004284,130.455447 C58.9774863,130.628252 59.0774559,130.799228 59.2748003,130.918105 C59.4460781,131.027298 59.7226565,131.027298 59.8939342,130.918105 C60.1099112,130.751852 59.9443289,130.553273 59.8507389,130.377784 C59.699555,130.100696 59.0012295,130.220767 59.1308157,130.502473 C59.1896011,130.597119 59.2377197,130.69435 59.2748003,130.793415 L59.3107965,130.617926 L59.2676011,130.65949 L59.5843673,130.548654 C59.7211527,130.627163 59.7643481,130.636399 59.7139535,130.548654 C59.6951513,130.531021 59.6883635,130.509234 59.695156,130.488319 C59.7019484,130.467405 59.7217345,130.449169 59.7499496,130.437819 C60.1387081,130.276185 59.7499496,129.879025 59.3827888,130.036042 L59.4115857,130.036042 Z" id="Path" fill="#000000" fill-rule="nonzero"></path>
            <path d="M67.412497,130.053547 C67.1820024,130.143528 67.0311505,130.295768 67.0042935,130.465505 C66.9774365,130.635243 67.0776273,130.803183 67.2754087,130.919949 C67.3566379,130.971195 67.4669781,131 67.5820535,131 C67.6971289,131 67.807469,130.971195 67.8886982,130.919949 C68.1123685,130.756648 67.9464196,130.561594 67.8454072,130.389221 C67.6938886,130.117052 67.0012323,130.234992 67.1238902,130.511697 C67.1828057,130.604662 67.2310308,130.700167 67.2681936,130.797474 L67.3331301,130.606956 L67.2970543,130.647781 L67.6073066,130.538914 C67.7443948,130.616028 67.794901,130.6251 67.7371797,130.538914 C67.7019652,130.502288 67.7177071,130.454783 67.7732555,130.430046 C68.1628747,130.271281 67.7732555,129.881173 67.412497,130.035402 L67.412497,130.053547 Z" id="Path" fill="#000000" fill-rule="nonzero"></path>
            <path d="M64,131.264463 C64.0991736,132.415978 64.1487603,133.573003 64.1735537,134.724518 C64.1735537,134.876662 64.35856,135 64.5867769,135 C64.8149937,135 65,134.876662 65,134.724518 C65,133.573003 64.9256198,132.415978 64.8264463,131.264463 C64.8264463,130.911846 64,130.911846 64,131.264463 Z" id="Path" fill="#000000" fill-rule="nonzero"></path>
            <path d="M58.6437624,128.991298 C59.2186212,128.761058 59.8610962,128.699127 60.4782345,128.814465 C61.0011835,128.910249 61.2253045,128.202917 60.7023555,128.07766 C59.8637046,127.918001 58.9892484,128.00597 58.2121219,128.328174 C57.7306768,128.527111 58.1540165,129.160763 58.6354616,128.961826 L58.6437624,128.991298 Z" id="Path" fill="#000000" fill-rule="nonzero"></path>
            <path d="M69.7983275,128.319728 C69.0197807,128.005123 68.1421594,127.919714 67.3013677,128.076725 C66.7770062,128.169638 66.9934093,128.855763 67.5177709,128.791439 C68.1392918,128.679001 68.7863445,128.739068 69.3655211,128.96297 C69.8482667,129.155943 70.2727499,128.541289 69.7816811,128.348316 L69.7983275,128.319728 Z" id="Path" fill="#000000" fill-rule="nonzero"></path>
            <path d="M62.1641505,135.512173 C62.9457251,135.847708 63.8082546,136.014661 64.6792025,135.99899 C64.8563741,135.99899 65,135.873729 65,135.71921 C65,135.564692 64.8563741,135.43943 64.6792025,135.43943 C63.9207551,135.459216 63.1680329,135.31909 62.484948,135.030951 C62.1192389,134.874274 61.7920255,135.355496 62.1641505,135.512173 L62.1641505,135.512173 Z" id="Path" fill="#000000" fill-rule="nonzero"></path>
            <path d="M55.3454904,122.319693 C55.0622542,124.847634 54.7674574,127.375575 54.5535852,129.915357 L55.0911559,129.767351 C54.4090769,128.678027 53.0391386,127.760391 52.2992564,129.317413 C51.5015708,131.004681 52.397522,132.869555 53.8194832,133.793112 C54.3397129,134.130566 54.3454933,133.964799 54.4900015,134.627866 C54.566203,135.228589 54.6048173,135.833688 54.6056081,136.439458 C54.6521608,137.272928 54.7779974,138.099757 54.9813296,138.908197 C55.4129004,140.400822 56.2927054,141.716221 57.4957733,142.667548 C60.9091523,145.461976 65.6636412,145.774158 69.3974732,143.449019 C70.8267397,142.646438 71.9733263,141.403752 72.6749205,139.896877 C73.4437044,138.174088 73.2009305,136.409857 73.5361897,134.604185 C73.6980389,133.710229 74.6922557,133.579984 75.2702888,132.828114 C75.8794726,132.017694 76.1232796,130.980114 75.9408071,129.974559 C75.5477446,127.878795 73.8656685,128.23401 72.929255,129.73183 L73.4726061,129.879836 C73.2818552,127.340054 72.963937,124.812113 72.6807008,122.284171 C72.6344582,121.905276 72.0564251,121.905276 72.1026678,122.284171 C72.385904,124.812113 72.6807008,127.340054 72.894573,129.879836 C72.8932939,130.013693 72.9798852,130.131771 73.1057592,130.167813 C73.2316332,130.203856 73.3654586,130.148891 73.4321437,130.033762 C74.6633541,128.062323 75.7095939,129.867995 75.3338724,131.377656 C75.0515622,132.434496 74.2372851,133.254921 73.2009305,133.526702 C73.0764596,133.563065 72.9897076,133.678332 72.9870583,133.810873 C72.9061337,136.107925 72.9350353,138.647707 71.6113397,140.619146 C70.0390899,142.987241 66.7269607,144.485061 64.0044251,144.485061 C61.2818896,144.485061 58.0795866,143.005001 56.4899958,140.743471 C55.0853755,138.760191 55.1142772,136.155287 55.0275722,133.810873 C55.02394,133.680582 54.9405871,133.566755 54.8194804,133.526702 C53.7818913,133.257164 52.9666795,132.435797 52.6865385,131.377656 C52.310817,129.867995 53.3570568,128.062323 54.5882671,130.033762 C54.6549523,130.148891 54.7887777,130.203856 54.9146517,130.167813 C55.0405256,130.131771 55.127117,130.013693 55.1258379,129.879836 C55.3165888,127.340054 55.6345069,124.812113 55.9177431,122.284171 C55.9639857,121.905276 55.3859527,121.905276 55.3397101,122.284171 L55.3454904,122.319693 Z" id="Path" fill="#000000" fill-rule="nonzero"></path>
            <path d="M57.3951168,142.285595 L57.269575,146.056619 C57.3111608,147.238923 57.2519711,148.42268 57.0926752,149.594505 C56.6190403,151.803497 53.4291375,152.969192 51.5631299,153.738551 C48.0137211,155.207327 44.2531737,156.069942 40.7208842,157.538718 C37.8391294,158.745212 34.5693364,160.289759 33.8046727,163.664446 C32.8688158,167.825978 32.9715318,172.477102 33.0457156,176.720233 C33.0457156,177.093256 33.6163601,177.093256 33.6163601,176.720233 C33.5764149,174.388843 33.6163601,172.057452 33.7533147,169.726062 C33.8788565,167.540383 33.8503243,165.010824 34.6035751,162.935887 C35.3568258,160.860949 37.5652201,159.666112 39.4540534,158.733555 C41.3430181,157.848918 43.2920869,157.104822 45.2860403,156.507077 C48.7840912,155.382182 52.3905645,154.362198 55.5576415,152.374688 C56.653279,151.675271 57.4807135,150.993339 57.7203842,149.635304 C58.1255418,147.303913 57.9201098,144.669442 58,142.279767 C58,141.906744 57.4293555,141.906744 57.4293555,142.279767 L57.3951168,142.285595 Z" id="Path" fill="#000000" fill-rule="nonzero"></path>
            <path d="M71,142.29123 C71.0742453,144.621068 71,147.067399 71.2570031,149.397237 C71.4226273,150.894159 72.2507483,151.622233 73.4443849,152.379431 C76.5912448,154.365618 80.2007103,155.384923 83.7245081,156.50907 C85.7105688,157.115221 87.6531887,157.860603 89.5384889,158.73989 C91.4288894,159.666001 93.644827,160.819271 94.3987027,162.939424 C95.1126002,164.94891 95.1011778,167.336995 95.232535,169.445498 C95.3810256,171.860764 95.4305225,174.281855 95.3810256,176.70877 C95.3810256,176.869612 95.5088747,177 95.6665846,177 C95.8242945,177 95.9521436,176.869612 95.9521436,176.70877 C96.0263889,172.468464 96.1406125,167.814611 95.1925567,163.661674 C94.4272586,160.289233 91.1604639,158.745715 88.2706071,157.540023 C84.7296757,156.054751 80.9660084,155.210185 77.4193658,153.742386 C75.7345679,153.049259 72.6162638,151.948411 71.953767,150.037943 C71.5825403,148.972042 71.7538757,147.475121 71.7138974,146.356798 L71.5825403,142.279581 C71.5825403,141.906806 71.0114224,141.906806 71.0114224,142.279581 L71,142.29123 Z" id="Path" fill="#000000" fill-rule="nonzero"></path>
            <path d="M59,142.407485 C59,142.407485 64.5052133,147.571241 71,148 L70.8350711,142.730608 C70.8350711,142.730608 71.2331754,141.282769 69.6635071,142.463411 C68.0938389,143.644053 65.7165877,144.464288 64.357346,144.259229 C62.9981043,144.05417 59,142.407485 59,142.407485 L59,142.407485 Z" id="Path" fill="#000000" fill-rule="nonzero"></path>
            <path d="M57.7910755,43.8696605 L70.0801873,43.8696605 C75.525715,43.8696605 79.9401873,48.2841329 79.9401873,53.7296605 L79.9401873,66.0187723 C79.9401873,71.4643 75.525715,75.8787723 70.0801873,75.8787723 L57.7910755,75.8787723 C52.3455479,75.8787723 47.9310755,71.4643 47.9310755,66.0187723 L47.9310755,53.7296605 C47.9310755,48.2841329 52.3455479,43.8696605 57.7910755,43.8696605 Z" id="Rectangle" fill="#FFA766" fill-rule="nonzero" transform="translate(63.935631, 59.874216) rotate(45.000000) translate(-63.935631, -59.874216) "></path>
            <rect id="Rectangle" fill="#CCCCCC" fill-rule="nonzero" x="39" y="286" width="49" height="13" rx="2.35"></rect>
            <polygon id="Path" fill="#F4F4F4" fill-rule="nonzero" points="327 66 456 66 456 322 327 322"></polygon>
            <circle id="Oval" fill="#000000" fill-rule="nonzero" cx="391.5" cy="145.5" r="47.5"></circle>
            <circle id="Oval" fill="#FFFFFF" fill-rule="nonzero" cx="391.5" cy="141.5" r="47.5"></circle>
            <g transform="translate(327.000000, 66.000000)" stroke="#000000">
                <polygon id="Path" points="0 0 129 0 129 256 0 256"></polygon>
                <ellipse id="Oval" cx="64.5029124" cy="76.2533415" rx="47.2442769" ry="47.1195225"></ellipse>
                <line x1="38.5072019" y1="148.829373" x2="90.4986228" y2="148.829373" id="Path"></line>
                <line x1="38.5072019" y1="159.303606" x2="90.4986228" y2="159.303606" id="Path"></line>
                <line x1="38.5072019" y1="169.783648" x2="90.4986228" y2="169.783648" id="Path"></line>
                <line x1="44.9202149" y1="180.25788" x2="84.0914345" y2="180.25788" id="Path"></line>
            </g>
            <polygon id="Path" fill="#000000" fill-rule="nonzero" points="364.002648 263 364.929391 264.975881 367 265.293135 365.501324 266.829314 365.856134 269 364.002648 267.975881 362.149162 269 362.498676 266.829314 361 265.293135 363.075905 264.975881"></polygon>
            <polygon id="Path" fill="#000000" fill-rule="nonzero" points="377.997352 263 378.929391 264.975881 381 265.293135 379.501324 266.829314 379.856134 269 377.997352 267.975881 376.143866 269 376.498676 266.829314 375 265.293135 377.070609 264.975881"></polygon>
            <polygon id="Path" fill="#000000" fill-rule="nonzero" points="390.997352 263 391.924095 264.975881 394 265.293135 392.496028 266.829314 392.850838 269 390.997352 267.975881 389.143866 269 389.498676 266.829314 388 265.293135 390.070609 264.975881"></polygon>
            <polygon id="Path" fill="#CCCCCC" fill-rule="nonzero" points="404.002648 263 404.929391 264.975881 407 265.293135 405.501324 266.829314 405.856134 269 404.002648 267.975881 402.149162 269 402.503972 266.829314 401 265.293135 403.075905 264.975881"></polygon>
            <polygon id="Path" fill="#CCCCCC" fill-rule="nonzero" points="417.997352 263 418.924095 264.975881 421 265.293135 419.501324 266.829314 419.856134 269 417.997352 267.975881 416.143866 269 416.498676 266.829314 415 265.293135 417.070609 264.975881"></polygon>
            <path d="M380.111093,130.165608 C380.280286,130.076667 380.467608,130.205632 380.552205,130.294573 C380.598371,130.346967 380.638784,130.401989 380.673058,130.459114 C380.761704,130.61548 380.82067,130.780084 380.848294,130.94829 C380.848294,131.014995 381.011446,131.019442 380.99936,130.94829 C380.957062,130.677019 380.636802,129.760927 380.032538,130.058879 C379.953984,130.098903 380.032538,130.196738 380.111093,130.156714 L380.111093,130.165608 Z" id="Path" fill="#000000" fill-rule="nonzero"></path>
            <path d="M380.281612,130.5654 L380.681612,130.6854 C380.771612,130.8154 380.991612,130.6854 380.901612,130.5554 C380.811612,130.4254 380.371612,130.0754 380.111612,130.3854 C380.001612,130.5054 380.181612,130.6854 380.281612,130.5654 Z" id="Path" fill="#000000" fill-rule="nonzero"></path>
            <path d="M400.966352,130.061871 C400.362382,129.756 400.042278,130.66918 400,130.948454 C400,131.019381 400.144953,131.014948 400.150992,130.948454 C400.181191,130.762271 400.440898,129.937749 400.887836,130.168261 C400.972391,130.208157 401.044868,130.110633 400.966352,130.070737 L400.966352,130.061871 Z" id="Path" fill="#000000" fill-rule="nonzero"></path>
            <path d="M400.908581,130.382501 C400.638581,130.072501 400.298581,130.272501 400.118581,130.552501 C399.938581,130.832501 400.238581,130.812501 400.328581,130.682501 L400.728581,130.562501 C400.828581,130.682501 401.008581,130.502501 400.908581,130.382501 Z" id="Path" fill="#000000" fill-rule="nonzero"></path>
            <path d="M386.417126,130.036042 C386.185467,130.126853 386.033052,130.28144 386.004756,130.454289 C385.976461,130.627138 386.075506,130.798567 386.27273,130.918105 C386.444497,131.027298 386.721865,131.027298 386.893631,130.918105 C387.110225,130.751852 386.94417,130.553273 386.850313,130.377784 C386.698697,130.100696 385.998379,130.220767 386.128335,130.502473 C386.187288,130.597119 386.235544,130.69435 386.27273,130.793415 L386.27273,130.617926 L386.27273,130.65949 L386.583181,130.548654 C386.720357,130.627163 386.763675,130.636399 386.713137,130.548654 C386.665406,130.518017 386.665406,130.468457 386.713137,130.437819 C387.103005,130.276185 386.713137,129.879025 386.352148,130.036042 L386.417126,130.036042 Z" id="Path" fill="#000000" fill-rule="nonzero"></path>
            <path d="M396.411584,130.036056 C396.1816,130.127701 396.031082,130.282754 396.004284,130.455628 C395.977486,130.628502 396.077456,130.799546 396.274799,130.91847 C396.355849,130.970663 396.465944,131 396.580765,131 C396.695586,131 396.805682,130.970663 396.886731,130.91847 C397.109906,130.752151 396.944325,130.553493 396.886731,130.377934 C396.735548,130.100736 396.037226,130.220855 396.166811,130.502673 C396.228807,130.596607 396.27701,130.694049 396.310795,130.793731 L396.346791,130.618172 L396.310795,130.659752 L396.620361,130.548873 C396.764345,130.627412 396.80754,130.636652 396.757146,130.548873 C396.706751,130.461093 396.757146,130.474953 396.757146,130.437993 C397.153102,130.276294 396.757146,129.878977 396.397186,130.036056 L396.411584,130.036056 Z" id="Path" fill="#000000" fill-rule="nonzero"></path>
            <path d="M391,131.264463 C391.090909,132.415978 391.14876,133.573003 391.173554,134.724518 C391.173554,134.876662 391.35856,135 391.586777,135 C391.814994,135 392,134.876662 392,134.724518 C392,133.573003 391.917355,132.415978 391.826446,131.264463 C391.826446,130.911846 391,130.911846 391,131.264463 Z" id="Path" fill="#000000" fill-rule="nonzero"></path>
            <path d="M385.648047,128.991307 C386.224485,128.760733 386.868478,128.698875 387.487061,128.814664 C388.000659,128.910346 388.224323,128.203772 387.702441,128.07865 C386.865593,127.917514 385.992323,128.005449 385.217287,128.328895 C384.72854,128.527618 385.151016,129.16059 385.631479,128.961867 L385.648047,128.991307 Z" id="Path" fill="#000000" fill-rule="nonzero"></path>
            <path d="M396.795613,128.318779 C396.016331,128.005799 395.139448,127.920349 394.29847,128.075437 C393.77407,128.168479 393.998813,128.855562 394.523213,128.791148 C395.142064,128.679112 395.786321,128.739271 396.362775,128.962918 C396.845556,129.15616 397.270071,128.540649 396.78729,128.347407 L396.795613,128.318779 Z" id="Path" fill="#000000" fill-rule="nonzero"></path>
            <path d="M388.163967,135.512173 C388.945592,135.847708 389.808177,136.014661 390.679182,135.99899 C390.856365,135.99899 391,135.873729 391,135.71921 C391,135.564692 390.856365,135.43943 390.679182,135.43943 C389.922748,135.459197 389.172061,135.319049 388.491201,135.030951 C388.119052,134.874274 387.791818,135.355496 388.163967,135.512173 L388.163967,135.512173 Z" id="Path" fill="#000000" fill-rule="nonzero"></path>
            <path d="M382.34388,122.325526 C382.06078,124.852793 381.766125,127.380059 381.552356,129.919163 L382.095445,129.771197 C381.413695,128.682164 380.038638,127.764772 379.299112,129.321379 C378.501811,131.008196 379.397331,132.872573 380.818607,133.795883 C381.338586,134.133247 381.350142,133.967524 381.488803,134.630414 C381.56279,135.229144 381.599456,135.832096 381.598576,136.435604 C381.647962,137.268538 381.773696,138.094869 381.974117,138.903684 C382.405585,140.397399 383.287335,141.712964 384.493127,142.662032 C387.908386,145.463891 392.670305,145.776173 396.40643,143.443294 C397.832367,142.637429 398.977483,141.396069 399.682299,139.8921 C400.450713,138.169771 400.202278,136.406011 400.537376,134.600821 C400.704925,133.707104 401.692885,133.576893 402.27064,132.825224 C402.879531,132.01502 403.12322,130.977717 402.940836,129.972431 C402.547962,127.877226 400.872474,128.232346 399.936511,129.729766 L400.473823,129.877732 C400.283164,127.338629 399.965399,124.811362 399.682299,122.284096 C399.636079,121.905301 399.058324,121.905301 399.104544,122.284096 C399.387644,124.811362 399.682299,127.338629 399.896068,129.877732 C399.903038,130.00678 399.989434,130.116962 400.110938,130.151761 C400.232443,130.18656 400.362091,130.138252 400.43338,130.031618 C401.663998,128.060705 402.709734,129.865895 402.334193,131.375153 C402.054187,132.433012 401.239368,133.25416 400.202278,133.523625 C400.079024,133.560452 399.994286,133.676195 399.994286,133.807721 C399.907623,136.10416 399.936511,138.643264 398.613453,140.614176 C397.04196,142.981639 393.737203,144.479059 391.010201,144.479059 C388.283198,144.479059 385.093992,142.999395 383.499389,140.738468 C382.095445,138.755718 382.13011,136.151509 382.043447,133.807721 C382.040799,133.675216 381.954089,133.559979 381.829678,133.523625 C380.793822,133.251918 379.979937,132.431711 379.697763,131.375153 C379.322222,129.865895 380.367959,128.060705 381.598576,130.031618 C381.665229,130.146716 381.79899,130.201666 381.924803,130.165633 C382.050617,130.1296 382.137166,130.011554 382.135888,129.877732 C382.326547,127.338629 382.644312,124.811362 382.927412,122.284096 C382.973632,121.905301 382.395878,121.905301 382.349657,122.284096 L382.34388,122.325526 Z" id="Path" fill="#000000" fill-rule="nonzero"></path>
            <path d="M384.418507,143.296309 C384.375864,144.536855 384.331283,145.775426 384.284764,147.012022 C384.238244,148.108364 384.395247,149.542499 384.040537,150.567728 C383.377635,152.511514 380.179424,153.619709 378.47565,154.307145 C374.812245,155.776837 370.916243,156.606502 367.270282,158.052489 C364.397708,159.184389 360.838971,160.70149 359.902768,163.978666 C359.321275,165.98764 359.321275,168.239587 359.170087,170.313749 C359.018899,172.771137 358.968502,175.234451 359.018899,177.703691 C359.018899,177.867338 359.14907,178 359.309645,178 C359.47022,178 359.600391,177.867338 359.600391,177.703691 C359.553872,175.238402 359.600391,172.773112 359.75158,170.313749 C359.891138,168.067728 359.827174,165.389096 360.769192,163.314934 C361.711211,161.240772 363.926698,160.191839 365.81655,159.308838 C367.761888,158.445215 369.76304,157.718542 371.805927,157.133932 C375.323959,156.049441 378.958289,155.077548 382.1565,153.169319 C383.389265,152.434473 384.482471,151.693701 384.715068,150.170674 C385.075594,147.96021 384.924406,145.524551 385,143.284456 C385,142.905181 384.418507,142.905181 384.418507,143.284456 L384.418507,143.296309 Z" id="Path" fill="#000000" fill-rule="nonzero"></path>
            <path d="M397.023258,143.272789 C397.098847,145.508472 396.924411,147.963572 397.308171,150.163673 C397.564012,151.616571 398.471082,152.322264 399.680509,153.051677 C402.919216,155.032362 406.628902,156.016774 410.216481,157.13165 C412.183732,157.701817 414.114062,158.397009 415.996148,159.213148 C417.804475,160.037445 420.066336,161.11081 421.083883,162.931379 C422.246794,165.024737 422.130503,167.989834 422.246794,170.3204 C422.403787,172.78143 422.444489,175.24839 422.403787,177.715351 C422.403787,178.094883 422.985242,178.094883 422.985242,177.715351 C423.025944,175.24839 422.985242,172.78143 422.828249,170.3204 C422.790218,168.26544 422.564411,166.218572 422.153761,164.206371 C421.293207,160.778719 417.693998,159.219078 414.73439,158.05083 C411.129366,156.633514 407.338277,155.809217 403.739068,154.385971 C401.994702,153.698068 398.639704,152.553541 397.959401,150.560996 C397.593085,149.493562 397.761707,148.111826 397.721005,147.00288 C397.674488,145.76347 397.622157,144.52406 397.581455,143.284649 C397.581455,142.905117 397,142.905117 397,143.284649 L397.023258,143.272789 Z" id="Path" fill="#000000" fill-rule="nonzero"></path>
            <path d="M386,142.505246 C386,142.505246 391.702156,147.578735 397.893237,148 L397.728299,142.401456 C397.728299,142.401456 398.670804,141.400189 397.044983,142.560193 C395.419161,143.720197 392.956866,144.526094 391.548999,144.32462 C390.141132,144.123146 386,142.505246 386,142.505246 L386,142.505246 Z" id="Path" fill="#000000" fill-rule="nonzero"></path>
            <path d="M391.120789,43.868657 C399.959862,43.868657 407.125345,51.0341408 407.125345,59.8732129 C407.125345,68.7122851 399.959862,75.8777688 391.120789,75.8777688 C382.281717,75.8777688 375.116234,68.7122851 375.116234,59.8732129 C375.116234,51.0341408 382.281717,43.868657 391.120789,43.868657 Z" id="Rectangle" fill="#60D8D2" fill-rule="nonzero" transform="translate(391.120789, 59.873213) rotate(45.000000) translate(-391.120789, -59.873213) "></path>
            <rect id="Rectangle" fill="#CCCCCC" fill-rule="nonzero" x="367" y="286" width="49" height="13" rx="2.35"></rect>
            <polygon id="Path" fill="#E9E9E9" fill-rule="nonzero" points="150 31 305 31 305 341 150 341"></polygon>
            <circle id="Oval" fill="#000000" fill-rule="nonzero" cx="227.5" cy="126.5" r="57.5"></circle>
            <circle id="Oval" fill="#FFFFFF" fill-rule="nonzero" cx="227.5" cy="123.5" r="57.5"></circle>
            <g transform="translate(150.000000, 29.000000)" stroke="#000000">
                <polygon id="Path" points="0 0 156 0 156 311 0 311"></polygon>
                <ellipse id="Oval" cx="77.9941878" cy="92.6425107" rx="57.1283159" ry="57.2405857"></ellipse>
                <line x1="46.5558867" y1="180.812464" x2="109.432489" y2="180.812464" id="Path"></line>
                <line x1="46.5558867" y1="193.537123" x2="109.432489" y2="193.537123" id="Path"></line>
                <line x1="46.5558867" y1="206.267607" x2="109.432489" y2="206.267607" id="Path"></line>
                <line x1="54.309389" y1="218.992266" x2="101.678987" y2="218.992266" id="Path"></line>
            </g>
            <polygon id="Path" fill="#000000" fill-rule="nonzero" points="194.497451 269 195.578296 271.304747 198 271.674579 196.246176 273.470138 196.659141 276 194.497451 274.804747 192.335761 276 192.748725 273.470138 191 271.674579 193.416606 271.304747"></polygon>
            <polygon id="Path" fill="#000000" fill-rule="nonzero" points="210.502549 269 211.583394 271.304747 214 271.674579 212.251275 273.470138 212.664239 276 210.502549 274.804747 208.340859 276 208.753824 273.470138 207 271.674579 209.421704 271.304747"></polygon>
            <polygon id="Path" fill="#000000" fill-rule="nonzero" points="226.497451 269 227.583394 271.304747 230 271.674579 228.251275 273.470138 228.664239 276 226.497451 274.804747 224.335761 276 224.748725 273.470138 223 271.674579 225.416606 271.304747"></polygon>
            <polygon id="Path" fill="#000000" fill-rule="nonzero" points="243.502549 269 244.583394 271.304747 247 271.674579 245.251275 273.470138 245.664239 276 243.502549 274.804747 241.340859 276 241.753824 273.470138 240 271.674579 242.421704 271.304747"></polygon>
            <polygon id="Path" fill="#000000" fill-rule="nonzero" points="259.497451 269 260.583394 271.304747 263 271.674579 261.251275 273.470138 261.664239 276 259.497451 274.804747 257.335761 276 257.748725 273.470138 256 271.674579 258.416606 271.304747"></polygon>
            <path d="M215.089505,110.146398 C215.562474,109.895559 215.840086,110.756649 215.870932,110.955074 C215.870932,111.014975 216.009738,111.014975 215.999456,110.955074 C215.963469,110.704235 215.629306,109.745805 215.027814,110.064033 C214.960981,110.101472 215.027814,110.183837 215.089505,110.146398 L215.089505,110.146398 Z" id="Path" fill="#000000" fill-rule="nonzero"></path>
            <path d="M215.252129,110.547584 L215.752129,110.727584 C215.842129,110.857584 216.062129,110.727584 215.972129,110.597584 C215.742129,110.267584 215.322129,110.027584 215.032129,110.427584 C214.932129,110.557584 215.152129,110.677584 215.252129,110.547584 L215.252129,110.547584 Z" id="Path" fill="#000000" fill-rule="nonzero"></path>
            <path d="M239.972298,110.064033 C239.370399,109.745805 239.036011,110.704235 239,110.955074 C239,111.014975 239.118322,111.014975 239.128611,110.955074 C239.128611,110.752905 239.437277,109.899303 239.905421,110.146398 C239.972298,110.183837 240.039176,110.101472 239.972298,110.064033 L239.972298,110.064033 Z" id="Path" fill="#000000" fill-rule="nonzero"></path>
            <path d="M239.969652,110.426652 C239.669652,110.026652 239.259652,110.266652 239.029652,110.596652 C238.939652,110.736652 239.159652,110.856652 239.249652,110.726652 L239.749652,110.546652 C239.849652,110.676652 240.059652,110.546652 239.969652,110.426652 Z" id="Path" fill="#000000" fill-rule="nonzero"></path>
            <path d="M222.434326,110.028109 C222.18589,110.123152 222.025397,110.286917 222.002754,110.46848 C221.980111,110.650042 222.098064,110.827385 222.319934,110.94536 C222.411824,110.989371 222.528498,111.007974 222.642872,110.996849 C222.757245,110.985724 222.859369,110.945839 222.925537,110.886454 C223.10049,110.722359 222.925537,110.524603 222.824604,110.360508 C222.683296,110.103846 222.03059,110.213243 222.151711,110.469905 C222.221097,110.561878 222.268699,110.659678 222.293018,110.760227 L222.393952,110.608754 L222.353579,110.638208 L222.59582,110.579301 C222.72367,110.646623 222.743856,110.629792 222.649651,110.533018 C222.616855,110.478432 222.658293,110.417356 222.743856,110.394168 C222.905515,110.336074 222.961249,110.207034 222.868342,110.10595 C222.775434,110.004865 222.569068,109.970015 222.40741,110.028109 L222.434326,110.028109 Z" id="Path" fill="#000000" fill-rule="nonzero"></path>
            <path d="M232.432027,110.029142 C232.18357,110.124842 232.023837,110.288866 232.00245,110.470257 C231.981064,110.651648 232.100616,110.828432 232.323964,110.945689 C232.415094,110.98947 232.531159,111.007968 232.644875,110.996832 C232.75859,110.985697 232.859927,110.945911 232.925064,110.886828 C233.100666,110.722858 232.925064,110.525254 232.830509,110.361285 C232.681922,110.10482 232.033545,110.214133 232.155116,110.470598 C232.22982,110.561583 232.280016,110.659587 232.303702,110.760698 L232.405011,110.609341 L232.364488,110.638772 L232.600875,110.579911 C232.735954,110.64718 232.756216,110.630363 232.661661,110.533663 C232.641877,110.50764 232.640892,110.477595 232.658955,110.451091 C232.677017,110.424587 232.712407,110.404148 232.756216,110.39492 C232.918475,110.335709 232.972904,110.205827 232.877786,110.10482 C232.782669,110.003813 232.574024,109.969931 232.411765,110.029142 L232.432027,110.029142 Z" id="Path" fill="#000000" fill-rule="nonzero"></path>
            <path d="M227,109.335274 C227.101333,111.10943 227.168,112.881257 227.2,114.650757 C227.2,114.843638 227.379086,115 227.6,115 C227.820914,115 228,114.843638 228,114.650757 C227.968,112.885914 227.901333,111.114086 227.8,109.335274 C227.8,108.888242 227,108.888242 227,109.335274 Z" id="Path" fill="#000000" fill-rule="nonzero"></path>
            <path d="M220.552857,107.991774 C221.177018,107.71843 221.875581,107.645199 222.54606,107.782824 C223.00103,107.873369 223.196017,107.204731 222.741047,107.086327 C221.880129,106.908839 220.982694,107.006639 220.184548,107.364926 C219.765686,107.55298 220.133996,108.151968 220.552857,107.963914 L220.552857,107.991774 Z" id="Path" fill="#000000" fill-rule="nonzero"></path>
            <path d="M234.81548,107.355035 C234.017455,107.006459 233.120156,106.91131 232.259369,107.083987 C231.804468,107.172077 231.999426,107.822592 232.447106,107.761606 C233.119865,107.627665 233.820625,107.698888 234.447227,107.964892 C234.866025,108.147849 235.234278,107.565097 234.81548,107.382139 L234.81548,107.355035 Z" id="Path" fill="#000000" fill-rule="nonzero"></path>
            <path d="M224.188054,116.490218 C225.266995,116.84513 226.452021,117.019215 227.64677,116.998318 C228.117743,116.998318 228.117743,116.490218 227.64677,116.490218 C226.580516,116.506305 225.523894,116.34786 224.563362,116.027847 C224.136542,115.885579 223.761234,116.327626 224.188054,116.469894 L224.188054,116.490218 Z" id="Path" fill="#000000" fill-rule="nonzero"></path>
            <path d="M217.168588,99.2735317 C216.809594,102.248592 216.4147,105.223652 216.175371,108.210198 L216.731812,108.066614 C215.864242,106.693952 214.039354,105.769271 213.249567,107.727756 C212.884676,108.707015 212.921034,109.782779 213.351282,110.737276 C213.556751,111.194952 213.846599,111.613266 214.206885,111.972098 C214.661611,112.42008 215.325751,112.546434 215.774494,112.948469 C216.426667,113.522805 216.181354,115.30899 216.271103,116.170494 C216.336487,117.15741 216.517115,118.134157 216.809594,119.082377 C217.385871,120.69754 218.442569,122.115209 219.84908,123.160162 C221.865509,124.647856 224.251825,125.604106 226.771687,125.934204 C229.506027,126.255832 232.324133,125.359868 234.687512,124.084843 C236.391554,123.195413 237.784042,121.842769 238.690299,120.196588 C239.617701,118.398917 239.7254,116.371511 239.845065,114.407283 C239.89293,113.649159 239.737366,113.258611 240.443388,112.862319 C241.073834,112.567632 241.635582,112.153444 242.094762,111.644727 C242.768306,110.816936 243.085265,109.772613 242.980282,108.727101 C242.9025,107.877083 242.495639,106.619288 241.42464,106.538881 C240.473305,106.464217 239.70745,107.383155 239.270674,108.066614 L239.827115,108.210198 C239.593768,105.223652 239.192891,102.248592 238.833897,99.2735317 C238.792014,98.9117001 238.193691,98.9059567 238.235573,99.2735317 C238.594568,102.248592 238.995445,105.223652 239.228791,108.210198 C239.234895,108.337863 239.326522,108.446992 239.455186,108.479839 C239.58385,108.512687 239.719848,108.461669 239.791215,108.353782 C240.227992,107.664579 241.155394,106.521651 242.100746,107.710526 C242.501623,108.210198 242.435807,109.152109 242.328109,109.709215 C242.062517,111.088955 240.989888,112.196921 239.575819,112.552178 C239.445804,112.58578 239.355195,112.698615 239.354439,112.827859 C239.246741,115.555954 239.28264,118.571218 237.559467,120.908765 C235.555082,123.659834 231.420664,125.428789 227.986285,125.434532 C224.551905,125.440275 220.417487,123.654091 218.413102,120.908765 C216.713862,118.576961 216.749762,115.555954 216.61813,112.827859 C216.617375,112.698615 216.526765,112.58578 216.396751,112.552178 C214.974664,112.209864 213.896018,111.095683 213.644461,109.709215 C213.566679,109.221029 213.452997,108.095331 213.865841,107.710526 L215.14027,107.274031 C215.58337,107.536096 215.943381,107.909478 216.181354,108.353782 C216.249813,108.464556 216.386733,108.518026 216.516312,108.48459 C216.64589,108.451154 216.736426,108.338991 216.737795,108.210198 C216.977125,105.223652 217.372019,102.248592 217.731013,99.2735317 C217.778879,98.9059567 217.180555,98.9117001 217.132689,99.2735317 L217.168588,99.2735317 Z" id="Path" fill="#000000" fill-rule="nonzero"></path>
            <path d="M219.423377,124.269946 C219.377248,125.637278 219.325352,126.998742 219.273456,128.377812 C219.22156,129.756881 219.359949,131.417633 219.048573,132.820176 C218.500781,135.331843 214.573982,136.740254 212.46931,137.602906 C208.161939,139.36342 203.595089,140.366914 199.258887,142.039402 C195.712658,143.400866 191.186171,145.249406 190.067524,149.304457 C189.421706,151.651809 189.36981,154.210423 189.219888,156.616459 C189.023837,159.638675 188.966175,162.672628 189.018071,165.706581 C189.018071,165.868632 189.147152,166 189.306382,166 C189.465612,166 189.594693,165.868632 189.594693,165.706581 C189.542797,162.672628 189.594693,159.644544 189.796511,156.616459 C189.963732,153.940478 189.883004,150.748079 191.053548,148.259885 C192.149131,145.971217 194.790062,144.668436 196.952397,143.647338 C199.176307,142.642579 201.465059,141.7936 203.802673,141.106329 C208.063913,139.774207 212.452011,138.618136 216.367278,136.352941 C218.010652,135.402264 219.43491,134.457454 219.682858,132.432863 C220.017299,129.768618 219.90774,126.963532 220,124.281682 C220,123.906106 219.423377,123.906106 219.423377,124.281682 L219.423377,124.269946 Z" id="Path" fill="#000000" fill-rule="nonzero"></path>
            <path d="M234,124.293337 C234.09225,126.974438 234,129.77874 234.31711,132.442241 C234.570797,134.472133 235.994908,135.410812 237.632346,136.361224 C241.535678,138.625786 245.940618,139.781534 250.201418,141.113284 C252.538485,141.801312 254.826939,142.650031 257.050986,143.653583 C259.213097,144.674396 261.853755,146.000279 262.943459,148.264841 C264.096585,150.728873 264.033163,153.93798 264.206132,156.619081 C264.402163,159.640453 264.45982,162.673558 264.402163,165.706663 C264.402163,165.868669 264.531231,166 264.690445,166 C264.849658,166 264.978726,165.868669 264.978726,165.706663 C265.036383,162.673558 264.978726,159.646319 264.782695,156.619081 C264.627023,154.213717 264.580898,151.638218 263.935147,149.309121 C262.782022,145.255203 258.284831,143.40718 254.744734,142.046096 C250.403215,140.374075 245.842603,139.376729 241.535678,137.61084 C239.419692,136.742562 235.510595,135.363878 234.951329,132.829445 C234.64575,131.427294 234.784126,129.819807 234.726469,128.388322 C234.668813,126.956838 234.622688,125.660288 234.576563,124.281604 C234.576563,123.906132 234,123.906132 234,124.281604 L234,124.293337 Z" id="Path" fill="#000000" fill-rule="nonzero"></path>
            <path d="M220,124.450145 C220,124.450145 227.343237,129.601392 236,130 L235.781079,124.731215 C235.781079,124.731215 236.306489,123.284982 234.217357,124.460366 C232.128225,125.635749 228.950743,126.458518 227.143081,126.248993 C225.335418,126.039468 220,124.450145 220,124.450145 L220,124.450145 Z" id="Path" fill="#000000" fill-rule="nonzero"></path>
            <rect id="Rectangle" fill="#CCCCCC" fill-rule="nonzero" x="198" y="297" width="59" height="17" rx="2.85"></rect>
            <path d="M220.77219,104.569981 C224.375909,103.707293 229.821277,101.824534 231.890289,98.0706756 C231.890289,98.0706756 231.321879,103.619858 229.855381,105.216997 C232.209099,104.362776 233.836365,102.147734 233.987722,99.5920376 C233.987722,99.5920376 236.61946,107.204676 238.881732,109 L240.586962,107.58356 C240.586962,107.58356 243.224384,95.2203078 235.170015,94.0836581 C235.170015,94.0836581 228.917505,88.0040392 220.084414,92.9178635 C210.279341,98.4029271 215.269981,107.560244 215.269981,107.560244 C215.269981,107.560244 216.91837,108.31801 216.799004,108.813473 L217.304889,108.778499 C217.390288,106.729252 218.816193,104.998526 220.77219,104.569981 L220.77219,104.569981 Z" id="Path" fill="#000000" fill-rule="nonzero"></path>
            <path d="M214.584273,96 C214.584273,96 211.030261,100.440397 208.840065,112.930119 C206.6961,125.166273 203.639072,127.672473 202.483296,131.599836 C201.32752,135.527199 202.165457,139.059467 205.858163,139.601985 C205.858163,139.601985 202.483296,144.950511 209.261923,147.444917 C209.261923,147.444917 217.265674,150.711823 218.866424,141.394655 C219.823287,136.147294 220.176264,130.803845 219.91818,125.472914 C219.91818,125.472914 220.368933,123.45616 219.051348,122.589309 C217.733763,121.722459 216.780248,119.699808 216.554871,118.319923 C216.329495,116.940039 216.075224,113.490328 216.075224,113.490328 C216.075224,113.490328 216.248591,112.936016 215.555125,112.576302 C214.861659,112.216589 212.665684,110.571342 213.122216,108.843539 C213.578748,107.115735 214.312666,106.44938 214.988795,106.066079 C215.664924,105.682778 215.566683,103.618848 215.566683,103.618848" id="Path" fill="#000000" fill-rule="nonzero"></path>
            <path d="M236.60019,94 C236.60019,94 241.814797,96.2571947 242.623745,105.674942 C243.358022,114.155629 246.158228,125.494643 247.875688,129.838122 C249.593148,134.181602 252.903615,143.752578 244.633671,145.7151 C233.918214,148.249287 233.246165,133.167927 233.028371,128.559242 C232.810577,123.950557 233.918214,123.844475 233.918214,123.844475 C234.389705,123.553934 234.833233,123.224589 235.243645,122.860267 L236.593967,121.192419 C236.593967,121.192419 238.074965,117.526687 237.906953,116.000281 C237.820302,114.991141 237.883138,113.975481 238.093633,112.982831 C238.093633,112.982831 240.240458,112.776559 240.682269,111.214793 C241.124079,109.653026 241.453881,108.857409 241.049407,107.920349 C240.644933,106.98329 238.330095,106.5236 238.149638,107.395832 C237.96918,108.268064 238.280314,103.488469 238.280314,103.488469" id="Path" fill="#000000" fill-rule="nonzero"></path>
            <path d="M380.583451,131 C380.583451,131 380.350749,125.669411 382.869756,124.642912 C383.986729,124.180688 387.739061,123.838521 390.170805,124.006603 C391.098302,124.060619 391.918242,123.389959 392.078967,122.445845 L392.381481,120.686991 L392.893427,124.462825 C392.893427,124.462825 396.383968,124.756968 397.547482,126.16165 C398.710996,127.566332 398.990239,130.363691 398.990239,130.363691 L400.496989,129.799417 C400.496989,129.799417 402.364429,123.082154 398.902975,119.2643 C394.371089,114.269874 385.522567,113.261384 380.68235,118.39988 C378.971985,120.200755 378.238971,122.788011 378.070262,125.25521 C378.017904,126.005574 377.750295,129.541291 378.774188,129.895463 C379.409441,130.204416 380.015186,130.574217 380.583451,131 L380.583451,131 Z" id="Path" fill="#000000" fill-rule="nonzero"></path>
            <path d="M399.314654,118.765993 C399.314654,118.765993 397.233749,110.177963 403.774603,108.288828 C410.315457,106.399693 416.065324,114.08372 413.09608,122.41098 C412.479005,123.957768 412.333468,125.639155 412.676249,127.261305 C413.083911,128.860695 414.288645,130.054443 415.231745,131.375678 C416.740012,133.401386 417.317734,135.924459 416.831973,138.364318 C416.509493,140.021657 415.61507,141.667407 413.966166,142.258486 C413.399363,142.446141 413.010795,142.944934 412.986559,143.515977 L412.986559,143.597106 C412.712756,146.714758 408.727398,147.867941 406.226663,146.309115 C402.630714,144.066492 402.344742,139.216167 402.819334,135.565385 C403.026208,133.954405 403.427786,132.3724 403.634659,130.755625 C403.849619,128.745787 403.900476,126.723091 403.786772,124.705757 C403.701589,123.042623 403.281757,118.470453 400.415951,120.249485" id="Path" fill="#000000" fill-rule="nonzero"></path>
            <path d="M54.0575197,130 C54.0575197,130 54.3443902,121.284972 58.1693291,121.871618 C61.9942679,122.458265 67.779488,122.022816 69.596334,120.444313 C69.596334,120.444313 70.4748746,122.712277 72.30965,123.02072 L73.038779,130 C73.038779,130 73.4392023,129.159341 73.9830608,128.977904 L74.5269193,128.790419 C74.5269193,128.790419 76.8637179,118.345691 71.1502154,117.42641 C71.1502154,117.42641 64.8569956,110.610423 58.6952582,113.894434 C52.5335207,117.178446 51.9179446,121.430122 52.0075916,123.794852 C52.0915735,125.46999 52.2771937,127.138323 52.563403,128.790419 L54.0575197,130 Z" id="Path" fill="#000000" fill-rule="nonzero"></path>
            <path d="M52.0915984,153.774095 C56.0052242,156.798268 60.6366329,159.035663 65.535786,158.998783 C69.89025,159.056468 74.0512116,157.060818 76.9291653,153.534374 C77.1627295,153.239333 76.7639613,152.796771 76.5247003,153.104106 C73.6517089,156.616811 69.4704064,158.554543 65.131321,158.384114 C60.4771256,158.273474 56.1305514,156.122131 52.4049164,153.239333 C52.1086885,153.011906 51.8352474,153.540521 52.1200819,153.774095 L52.0915984,153.774095 Z" id="Path" fill="#000000" fill-rule="nonzero"></path>
            <path d="M200.00108,142.381798 C200.613979,146.632146 203.615465,150.052745 206.846073,152.745197 C210.231819,155.555251 214.188816,157.618472 218.451055,158.796158 C227.979232,161.341622 238.154897,159.810772 246.478292,154.579677 C248.43418,153.34649 250.150891,151.779045 251.547596,149.951143 C253.168627,147.755412 254.09084,145.221008 254.984412,142.66967 C255.098972,142.325352 254.549082,142.178594 254.411609,142.517267 C252.893682,146.982108 250.917513,150.775248 246.965174,153.580591 C243.252964,156.084677 239.059921,157.813521 234.644188,158.660689 C225.805842,160.500814 216.354597,158.914694 208.988355,153.642681 C205.133393,150.888139 201.272702,147.027265 200.573883,142.206816 C200.522331,141.845565 199.97244,141.997968 200.00108,142.353575 L200.00108,142.381798 Z" id="Path" fill="#000000" fill-rule="nonzero"></path>
            <path d="M380.025267,153.999602 C382.606789,158.455384 386.183542,162.212798 390.458508,164.959823 C390.570085,165.027628 390.712226,165.008116 390.80265,164.91258 C394.192449,161.434364 398.178761,158.074253 399.979772,153.355925 C400.111693,153.001607 399.561065,152.84807 399.406201,153.196482 C398.423186,155.539988 397.022459,157.673157 395.276497,159.485617 C394.462027,160.400938 393.601672,161.257205 392.735581,162.148904 L391.812133,163.070129 C391.576969,163.306341 390.974721,164.156703 390.664993,164.221661 C389.94803,164.381104 388.433805,162.863444 387.883178,162.408737 C386.92613,161.626053 386.01808,160.781882 385.164455,159.881272 C383.40455,158.00193 381.853953,155.926156 380.54148,153.692526 C380.346466,153.373641 379.853196,153.692526 380.042474,153.993696 L380.025267,153.999602 Z" id="Path" fill="#000000" fill-rule="nonzero"></path>
            <path d="M53.3330826,186.294898 C52.1319356,178.762345 56.9890008,170.633608 64.5690547,168.524035 C69.1054254,167.257144 73.3152707,169.429776 75.6475949,173.293505 C78.1373511,177.357874 78.0149041,182.362378 77.676717,186.93121 C77.676717,187.02293 77.8108257,187.02293 77.8224873,186.93121 C78.1839976,182.070019 78.2656289,176.692899 75.3152387,172.51388 C72.9829145,169.189009 69.1520719,167.280074 65.0355195,168.254606 C57.0939554,170.134878 51.9511804,178.573171 53.1814815,186.352223 C53.1814815,186.443944 53.3389134,186.403816 53.3272517,186.312096 L53.3330826,186.294898 Z" id="Path" fill="#000000" fill-rule="nonzero"></path>
            <path d="M56.1777104,188.741013 C55.9739498,185.198732 56.6229664,181.659961 58.0595632,178.480189 C58.7385644,176.898275 59.6687275,175.461705 60.8065065,174.237732 C62.3344587,172.696142 64.2050765,172.350826 66.2105137,172.178168 C73.513226,171.561532 73.9682412,183.345447 73.8446568,188.926004 C73.8446568,189.024665 73.9794761,189.024665 73.9850936,188.926004 C74.1086779,183.283784 73.6255754,171.39504 66.2105137,172.024009 C64.5252724,172.165835 62.840031,172.387824 61.4019585,173.503935 C60.2089209,174.523934 59.2218725,175.804809 58.5033434,177.265415 C56.6632286,180.737712 55.8048587,184.732046 56.0372736,188.741013 C56.0372736,188.839675 56.1833279,188.839675 56.1777104,188.741013 L56.1777104,188.741013 Z" id="Path" fill="#000000" fill-rule="nonzero"></path>
            <path d="M59.3101337,189.69653 C58.9086263,187.203082 59.2327055,184.642633 60.2413061,182.339629 C61.1273308,180.310943 62.6115631,177.949973 64.7955857,177.302892 C70.5293503,175.600661 71.2291404,186.397001 70.6647935,189.906394 C70.6647935,189.999667 70.7833064,190.040474 70.8002368,189.947201 C71.2667789,186.722302 70.9128079,183.427497 69.7731254,180.386727 C69.0564048,178.521269 67.4875204,176.778232 65.3825065,177.023073 C62.995319,177.291233 61.2909914,179.803772 60.3033843,181.832458 C59.1301335,184.278718 58.7351013,187.045351 59.1746905,189.737337 C59.1746905,189.83061 59.3270641,189.789803 59.3101337,189.69653 L59.3101337,189.69653 Z" id="Path" fill="#000000" fill-rule="nonzero"></path>
            <path d="M61.1358464,188.59109 C61.1956188,186.901646 61.6792319,182.183038 64.1679378,182.134615 C66.9392041,182.086191 66.9881088,187.208328 66.7979239,188.935435 C66.7979239,189.021522 66.9283364,189.021522 66.9337702,188.935435 C67.1348229,187.127622 67.0478812,181.973203 64.1679378,182.000105 C61.5433856,182.027007 61.0597724,186.842461 61,188.59109 C61,188.677176 61.1304125,188.677176 61.1358464,188.59109 Z" id="Path" fill="#000000" fill-rule="nonzero"></path>
            <path d="M65.0792807,187.317276 C65.2202883,187.04139 65.3685146,186.779279 65.5233924,186.531946 C65.602827,186.421724 65.6064377,186.311502 65.7039256,186.401057 C65.8014135,186.490612 65.7653069,187.041721 65.7761388,187.131276 C65.8531766,188.059187 65.8978064,188.99584 65.9097334,189.935043 C65.91549,189.973491 65.9339086,190 65.9548667,190 C65.9758248,190 65.9942434,189.973491 66,189.935043 C65.9828919,188.63295 65.9019,187.336776 65.7580855,186.063503 C65.7534495,186.034414 65.7413947,186.0118 65.7260722,186.003447 C65.7107497,185.995094 65.6942525,186.002145 65.6822616,186.02217 L65.0142888,187.193276 C64.9709608,187.269054 65.0359528,187.393053 65.0792807,187.317276 L65.0792807,187.317276 Z" id="Path" fill="#000000" fill-rule="nonzero"></path>
            <path d="M189.08614,164.238124 C190.90001,163.65528 192.118446,166.028285 192.537455,167.277234 C192.915971,168.460039 192.961574,169.715506 192.669774,170.920004 C192.660639,170.954492 192.682855,170.989441 192.719394,170.998063 C192.755933,171.006685 192.792958,170.985716 192.802093,170.951227 C193.206057,169.319678 192.987401,167.60592 192.184605,166.111548 C191.600197,165.034329 190.53062,163.624057 189.047547,164.092413 C188.964848,164.118433 188.997927,164.243327 189.08614,164.217308 L189.08614,164.238124 Z" id="Path" fill="#000000" fill-rule="nonzero"></path>
            <path d="M193.047081,145.061597 C192.382327,150.187909 198.926712,152.146579 201.963948,150.343252 C202.049908,150.295973 201.963948,150.147385 201.895181,150.194663 C200.26624,151.138948 198.369658,151.203024 196.697495,150.370268 C194.903806,149.532767 192.852239,147.668654 193.184616,145.102121 C193.184616,145.00081 193.058542,144.953532 193.047081,145.061597 L193.047081,145.061597 Z" id="Path" fill="#000000" fill-rule="nonzero"></path>
            <path d="M202.095647,169.920218 C200.632572,168.09302 200.778297,165.403428 202.818441,163.991257 C204.858586,162.579087 207.697302,163.096523 209.492629,164.745852 C211.03731,166.163413 211.20635,169.429731 210.075527,171.10601 C208.775387,172.861712 206.223503,173.380842 204.246543,172.291802 C204.164937,172.248683 204.08916,172.367262 204.170766,172.410381 C206.101685,173.474138 208.584398,173.0655 209.999751,171.450968 C211.404536,169.758519 211.375391,166.120293 209.620867,164.654223 C207.691473,163.037234 204.998482,162.298808 202.754323,163.867288 C200.655888,165.327968 200.486847,168.10919 201.996555,169.984898 C202.049015,170.054967 202.177253,169.984898 202.118963,169.920218 L202.095647,169.920218 Z" id="Path" fill="#000000" fill-rule="nonzero"></path>
            <path d="M217.520505,179.019886 C217.097856,177.363281 216.686631,175.42436 218.205881,174.11399 C219.460646,173.140396 221.180053,172.871777 222.706516,173.410865 C225.899226,174.369672 227.127191,176.985085 226.81306,179.93608 C226.81306,180.021307 226.950135,180.021307 226.955847,179.93608 C227.304246,176.633522 225.590806,173.607953 221.815527,173.069956 C220.342401,172.811149 218.830449,173.28051 217.817501,174.311079 C216.600959,175.669388 216.99505,177.480468 217.394853,179.057173 C217.394853,179.1424 217.549062,179.105113 217.531928,179.019886 L217.520505,179.019886 Z" id="Path" fill="#000000" fill-rule="nonzero"></path>
            <path d="M223.001255,160.090945 C223.488901,162.230642 224.860942,164.053143 226.766357,165.092185 C228.671772,166.131228 230.925713,166.286013 232.951539,165.516939 C233.035202,165.482956 233.001736,165.347023 232.918074,165.381006 C230.927836,166.139877 228.7119,165.989502 226.838793,164.96846 C224.965686,163.947419 223.617705,162.155082 223.140692,160.051298 C223.140692,159.960676 222.984522,160.000323 223.001255,160.090945 L223.001255,160.090945 Z" id="Path" fill="#000000" fill-rule="nonzero"></path>
            <path d="M235.453971,163.912077 C235.787076,163.005568 235.876403,162.035516 235.713971,161.088587 C235.713971,160.938001 235.443971,160.99447 235.473971,161.145057 C235.623397,162.055011 235.534138,162.985552 235.213971,163.855608 C235.163971,163.996782 235.403971,164.062664 235.453971,163.921489 L235.453971,163.912077 Z" id="Path" fill="#000000" fill-rule="nonzero"></path>
            <path d="M237.53945,177.895974 C236.442983,175.873417 237.675768,173.066152 239.519019,171.734359 C242.120906,169.844428 246.429727,172.994312 245.771846,175.784999 C245.762027,175.821623 245.785908,175.858735 245.825188,175.867891 C245.864468,175.877047 245.904271,175.85478 245.914091,175.818156 C246.219522,174.51471 245.696488,173.163413 244.568696,172.342231 C243.513716,171.507788 241.71788,170.684397 240.319144,171.12096 C237.740963,171.977508 236.217763,175.757369 237.414987,177.967814 C237.456475,178.045179 237.586865,177.967814 237.53945,177.895974 L237.53945,177.895974 Z" id="Path" fill="#000000" fill-rule="nonzero"></path>
            <path d="M252.153995,156.406837 C249.895387,157.181741 248.403738,159.793228 249.23109,162.148448 C250.174367,164.471128 252.788296,165.598715 255.101057,164.680614 C257.516682,163.631138 259.425025,159.768822 258.917744,157.181741 C258.507088,155.076688 254.841378,154.204158 253.524862,155.882099 C253.464472,155.955319 253.567136,156.065148 253.627526,155.991928 C254.448839,154.948554 255.976721,155.149907 257.106026,155.497698 C259.038525,156.107859 258.917744,158.176303 258.513127,159.768822 C257.945455,161.843367 256.586666,164.2474 254.346175,164.766036 C252.329128,165.23586 249.901426,163.991132 249.315637,161.92879 C248.7385,159.654814 249.994706,157.315943 252.196269,156.565479 C252.286855,156.528869 252.25062,156.382431 252.153995,156.412939 L252.153995,156.406837 Z" id="Path" fill="#000000" fill-rule="nonzero"></path>
            <path d="M255.038844,146.098969 C257.057655,148.25803 259.305405,146.098969 260.963467,144.202223 C261.053654,144.101332 260.963467,143.929818 260.838592,144.030708 C259.242967,145.846742 257.078468,147.975536 255.122094,145.887098 C255.031906,145.786207 254.948656,146.008167 255.038844,146.098969 L255.038844,146.098969 Z" id="Path" fill="#000000" fill-rule="nonzero"></path>
            <path d="M263.823206,163.019492 C261.653082,164.474146 260.274615,166.60165 260,168.920171 C260,169.02661 260.182435,169.02661 260.198299,168.920171 C260.474732,166.64785 261.82975,164.564395 263.95805,163.139235 C264.061165,163.072711 263.95805,162.952968 263.823206,163.019492 Z" id="Path" fill="#000000" fill-rule="nonzero"></path>
            <path d="M361.05278,165.166938 C380.868566,168.391197 401.396191,169.831693 420.94576,164.149396 C420.984115,164.13924 421.007434,164.098074 420.997846,164.05745 C420.988257,164.016825 420.949391,163.992126 420.911036,164.002282 C401.378829,169.672319 380.88014,168.237953 361.087504,165.019824 C361.000694,165.019824 360.960183,165.154679 361.05278,165.166938 L361.05278,165.166938 Z" id="Path" fill="#000000" fill-rule="nonzero"></path>
            <path d="M362.048469,174.112796 C367.173136,175.871712 372.506973,176.669087 377.904724,177.167447 C383.133976,177.648217 388.363228,177.988274 393.633152,178 C403.690748,178 413.858738,176.692539 422.963447,172.136947 C423.050602,172.095906 422.963447,171.966919 422.893724,172.00796 C413.655378,176.610457 403.31889,177.900328 393.121848,177.835835 C388.130817,177.800656 383.139786,177.478188 378.171997,177.026733 C372.721954,176.534237 367.283531,175.754451 362.089141,173.954494 C362.001987,173.925178 361.961315,174.065892 362.048469,174.095207 L362.048469,174.112796 Z" id="Path" fill="#000000" fill-rule="nonzero"></path>
            <path d="M370.051519,184.898583 C384.182486,189.263163 398.903292,189.017748 412.946688,184.183464 C412.984387,184.170992 413.007307,184.120439 412.997883,184.07055 C412.988458,184.020662 412.950257,183.99033 412.912559,184.002802 C398.893473,188.829418 384.197997,189.074834 370.091337,184.717921 C370,184.717921 369.960507,184.868473 370.051519,184.898583 L370.051519,184.898583 Z" id="Path" fill="#000000" fill-rule="nonzero"></path>
            <g transform="translate(114.000000, 11.000000)" stroke="#000000" stroke-width="8">
                <ellipse id="Oval" cx="114" cy="114.359133" rx="114" ry="114.359133"></ellipse>
                <line x1="114" y1="228.718266" x2="114" y2="316.244432" id="Path"></line>
                <polygon id="Path" fill="#000000" fill-rule="nonzero" points="110.276674 316.244432 117.723326 316.244432 117.723326 371 110.276674 371"></polygon>
            </g>
            <polygon id="Path" fill="#8F8FEF" fill-rule="nonzero" points="247 34.5 247 11.5 226.997076 0 207 11.5 207 34.5 226.997076 46"></polygon>
        </g>
    </g>
</svg>