<?xml version="1.0" encoding="UTF-8"?>
<svg width="700px" height="489px" viewBox="0 0 700 489" version="1.1" xmlns="http://www.w3.org/2000/svg" xmlns:xlink="http://www.w3.org/1999/xlink">
    <title>process</title>
    <g id="process" stroke="none" stroke-width="1" fill="none" fill-rule="evenodd">
        <g id="Group-4" transform="translate(520.000000, 37.000000)">
            <path d="M59.1626,18.090684 C58.3857183,22.1452888 58.0570763,26.2730317 58.1826,30.399484 C58.097258,33.1373617 58.2382038,35.8776108 58.604,38.592284 C58.9571237,41.3022762 60.2384947,43.8061444 62.23,45.677684 C64.30511,47.4473756 67.0325379,48.2556342 69.7368,47.902284 C72.9754518,47.6038715 75.9671208,46.044684 78.0668,43.560884 C78.449,43.070884 77.763,42.365284 77.371,42.865084 C74.1664,46.873284 67.4828,48.558884 63.2296,45.246484 C58.9764,41.934084 59.1822,35.867884 59.1626,30.997284 C59.0146339,26.762839 59.320173,22.5247161 60.074,18.355284 C60.2112,17.737884 59.2606,17.473284 59.094,18.090684 L59.1626,18.090684 Z" id="Path" fill="#000000" fill-rule="nonzero"></path>
            <path d="M72.3926,30.193684 L72.2946,30.125084 L72.3828,30.213284 L72.3044,30.105484 L72.3632,30.213284 L72.3632,30.095684 C72.3675359,30.1413146 72.3675359,30.1872535 72.3632,30.232884 L72.3632,30.105484 C72.3718343,30.1606817 72.3718343,30.2168863 72.3632,30.272084 L72.422,30.154484 C72.3919091,30.2166609 72.3558035,30.2757426 72.3142,30.330884 L72.3926,30.232884 C72.3926,30.232884 72.3926,30.232884 72.3436,30.281884 L72.4416,30.213284 L72.5592,30.213284 L72.6866,30.213284 L72.8238,30.213284 L72.9414,30.272084 L73.0394,30.350484 L73.1178,30.448484 L73.1668,30.566084 L73.1668,30.703284 L73.1668,30.830684 L73.1668,30.762084 L73.1668,30.879684 C73.2256,30.732684 73.2942,30.595484 73.353,30.458284 C73.3913168,30.4037583 73.4118532,30.3387266 73.4118,30.272084 C73.4261748,30.2075414 73.4261748,30.1406267 73.4118,30.076084 C73.3317828,29.8239054 73.0720926,29.6749027 72.814,29.733084 C72.6902797,29.7668489 72.5847276,29.8477722 72.52,29.958484 C72.4318,30.144684 72.3436,30.330884 72.2652,30.517084 C72.2549286,30.5820136 72.2549286,30.6481544 72.2652,30.713084 C72.2652,30.713084 72.2652,30.781684 72.2652,30.811084 C72.2730312,30.8838124 72.2964279,30.9540026 72.3338,31.016884 C72.4598184,31.2413032 72.7228647,31.3505686 72.9708,31.281484 C73.1236953,31.2429953 73.2586661,31.1530148 73.353,31.026684 C73.418518,30.9363485 73.4712805,30.8374187 73.5098,30.732684 C73.6108677,30.5187082 73.6350949,30.2764361 73.5784,30.046684 C73.5565786,29.9765181 73.5303942,29.9077842 73.5,29.840884 C73.5032366,29.8115731 73.5032366,29.7819949 73.5,29.752684 C73.4196426,29.629123 73.3124491,29.5252793 73.1864,29.448884 C72.9505164,29.3141487 72.6502065,29.3924904 72.5102,29.625284 C72.3763898,29.8582169 72.4550714,30.1554585 72.6866,30.291684 L72.3926,30.193684 Z" id="Path" fill="#000000" fill-rule="nonzero"></path>
            <path d="M62.4162,30.713084 L62.3182,30.634684 L62.4064,30.722884 L62.328,30.624884 L62.3868,30.732684 L62.3378,30.615084 C62.3433442,30.6573697 62.3433442,30.7001983 62.3378,30.742484 L62.3378,30.615084 C62.3425289,30.6705167 62.3425289,30.7262514 62.3378,30.781684 L62.3868,30.664084 C62.3567312,30.7293659 62.3206417,30.7917023 62.279,30.850284 L62.3574,30.742484 L62.3574,30.801284 L62.4554,30.722884 L62.4064,30.722884 L62.524,30.673884 L62.6514,30.673884 L62.72,30.673884 L62.8376,30.722884 L62.9356,30.801284 L63.014,30.909084 L63.014,31.026684 L63.014,31.163884 L63.014,31.114884 L63.014,31.242284 L63.014,31.173684 L63.014,31.291284 C63.0728,31.144284 63.1414,31.007084 63.2002,30.869884 C63.2371822,30.8183804 63.2576836,30.7568762 63.259,30.693484 C63.2786503,30.6296282 63.2786503,30.5613398 63.259,30.497484 C63.2283258,30.3722567 63.1465696,30.2656182 63.0336,30.203484 C62.9209033,30.1383331 62.7869141,30.1207029 62.6612,30.154484 C62.5342739,30.1815462 62.4262871,30.2643361 62.3672,30.379884 C62.2756057,30.5582218 62.1938173,30.7414279 62.1222,30.928684 C62.1084379,30.9932926 62.1084379,31.0600754 62.1222,31.124684 C62.1222,31.124684 62.1222,31.193284 62.1222,31.222684 C62.1300312,31.2954124 62.1534279,31.3656026 62.1908,31.428484 C62.3186121,31.6512883 62.5780878,31.7630624 62.8278,31.702884 C62.9817666,31.6611077 63.1167011,31.5676915 63.21,31.438284 C63.275368,31.3513936 63.3281546,31.255718 63.3668,31.154084 C63.4670725,30.936413 63.4912341,30.6913459 63.4354,30.458284 C63.4135786,30.3881181 63.3873942,30.3193842 63.357,30.252484 C63.3444376,30.2211419 63.3279745,30.1915083 63.308,30.164284 C63.2276426,30.040723 63.1204491,29.9368793 62.9944,29.860484 C62.87635,29.800931 62.7414551,29.7836368 62.6122,29.811484 C62.4884797,29.8452489 62.3829276,29.9261722 62.3182,30.036884 C62.2696227,30.1596534 62.2696227,30.2963146 62.3182,30.419084 C62.3550928,30.538701 62.4355281,30.6401195 62.5436,30.703284 L62.4162,30.713084 Z" id="Path" fill="#000000" fill-rule="nonzero"></path>
            <path d="M82.8198,32.575084 C84.9520555,31.7462171 86.5538432,29.9401011 87.122,27.724084 C87.4718473,26.5214444 87.1501803,25.2235555 86.2792,24.323484 C85.3651988,23.5646055 84.0984418,23.3934221 83.0158,23.882484 C81.8104527,24.4276092 80.944544,25.5236962 80.6932,26.822484 C80.5658,27.439884 81.5066,27.694684 81.6732,27.077284 C81.8608049,25.9474703 82.6678516,25.019177 83.7606,24.676284 C84.3105727,24.5103814 84.9056403,24.5941016 85.3884879,24.905312 C85.8713354,25.2165223 86.1933492,25.7238897 86.2694,26.293284 C86.3481418,27.4822954 85.9773901,28.6575083 85.2306,29.586084 C84.550165,30.4939655 83.6402628,31.2042981 82.5944,31.644084 C82.3342236,31.7201013 82.1820595,31.9896491 82.2514,32.251684 C82.2856052,32.3757107 82.3681492,32.4808244 82.4805286,32.5434621 C82.5929081,32.6060998 82.7257227,32.6210221 82.8492,32.584884 L82.8198,32.575084 Z" id="Path" fill="#000000" fill-rule="nonzero"></path>
            <path d="M84.819,26.381484 C84.5543752,26.1853536 84.2018323,26.1550273 83.9076,26.303084 C83.5833681,26.478462 83.3278382,26.7581636 83.1824,27.096884 C82.7905547,27.8665394 82.5730678,28.7130652 82.5454,29.576284 C82.5454,29.733084 82.7806,29.733084 82.7904,29.576284 C82.8096694,28.8480543 82.9763593,28.1312879 83.2804,27.469284 C83.3944748,27.1698619 83.5678011,26.8965397 83.79,26.665684 C84.0153988,26.4375641 84.3675166,26.3930434 84.6426,26.557884 C84.7602,26.655884 84.9366,26.489284 84.819,26.381484 L84.819,26.381484 Z" id="Path" fill="#000000" fill-rule="nonzero"></path>
            <path d="M83.9566,27.792684 C83.8376306,27.5833753 83.5863461,27.4886286 83.3588,27.567284 C83.1136611,27.650828 82.9169481,27.8368112 82.8198,28.076884 C82.7976574,28.0989499 82.7852113,28.1289238 82.7852113,28.160184 C82.7852113,28.1914442 82.7976574,28.2214181 82.8198,28.243484 C82.8795882,28.2733906 82.9523236,28.2519978 82.9864,28.194484 C83.0306059,28.1109996 83.0831397,28.0321988 83.1432,27.959284 C83.1990032,27.8901007 83.274013,27.8389577 83.3588,27.812284 L83.4176,27.812284 L83.6136,27.812284 C83.6614395,27.8536249 83.7323606,27.8536249 83.7802,27.812284 C83.8215409,27.7644446 83.8215409,27.6935235 83.7802,27.645684 L83.9566,27.792684 Z" id="Path" fill="#000000" fill-rule="nonzero"></path>
            <path d="M82.7414,32.183084 C82.3965306,39.5333667 82.5176398,46.8981148 83.104,54.233084 C83.1628,54.860284 84.1428,54.860284 84.084,54.233084 C83.4976398,46.8981148 83.3765307,39.5333667 83.7214,32.183084 C83.7214,31.9124645 83.5020195,31.693084 83.2314,31.693084 C82.9607805,31.693084 82.7414,31.9124645 82.7414,32.183084 L82.7414,32.183084 Z" id="Path" fill="#000000" fill-rule="nonzero"></path>
            <path d="M66.2088,47.275084 C66.3362,50.646284 66.6988,54.046884 66.5616,57.427884 C66.5616,58.055084 67.5416,58.055084 67.5416,57.427884 C67.6788,54.046884 67.3162,50.646284 67.1888,47.275084 C67.1888,46.647884 66.2088,46.638084 66.2088,47.275084 Z" id="Path" fill="#000000" fill-rule="nonzero"></path>
            <path d="M66.787,29.399884 C66.4820366,31.1794693 66.3572724,32.9852678 66.4146,34.789884 C66.4146,35.417084 67.3946,35.417084 67.3946,34.789884 C67.332361,33.0741677 67.4473028,31.356608 67.7376,29.664484 C67.8106673,29.3938645 67.6505195,29.1152513 67.3799,29.042184 C67.1092805,28.9691167 66.8306673,29.1292645 66.7576,29.399884 L66.787,29.399884 Z" id="Path" fill="#000000" fill-rule="nonzero"></path>
            <path d="M74.823,24.872284 C74.061873,24.4423598 73.1773859,24.2834285 72.3142,24.421484 C72.1876348,24.4557743 72.080094,24.5393626 72.0156322,24.6535522 C71.9511703,24.7677417 71.9351664,24.903004 71.9712,25.029084 C72.0067903,25.1518905 72.0872446,25.2568309 72.1966,25.323084 C72.3157023,25.3791171 72.4494145,25.3962597 72.5788,25.372084 L73.2942,25.372084 C73.3427384,25.3625722 73.3926616,25.3625722 73.4412,25.372084 C73.6048683,25.4041148 73.7655144,25.4500137 73.9214,25.509284 C73.9701879,25.5152968 74.0170411,25.5320301 74.0586,25.558284 C73.9508,25.489684 74.0586,25.558284 74.0586,25.558284 L74.3134,25.685684 C74.5492836,25.8204193 74.8495935,25.7420776 74.9896,25.509284 C75.1179038,25.2756507 75.0402899,24.9824425 74.8132,24.842884 L74.823,24.872284 Z" id="Path" fill="#000000" fill-rule="nonzero"></path>
            <path d="M64.3076,25.881684 C63.5476929,25.4583018 62.6685446,25.2997104 61.8086,25.430884 C61.6820348,25.4651743 61.574494,25.5487626 61.5100322,25.6629522 C61.4455703,25.7771417 61.4295664,25.912404 61.4656,26.038484 C61.4993649,26.1622043 61.5802881,26.2677564 61.691,26.332484 C61.8068425,26.3877392 61.937207,26.4048924 62.0634,26.381484 L62.5142,26.381484 L62.769,26.381484 C62.8142382,26.3719664 62.8609619,26.3719664 62.9062,26.381484 C63.0733678,26.4122126 63.2373816,26.4581364 63.3962,26.518684 L63.5334,26.567684 C63.4256,26.508884 63.5334,26.567684 63.5334,26.567684 L63.7882,26.695084 C64.0211329,26.8288943 64.3183745,26.7502126 64.4546,26.518684 C64.5215845,26.4073997 64.5406306,26.2737266 64.507393,26.1481623 C64.4741554,26.0225981 64.3914695,25.9158541 64.2782,25.852284 L64.3076,25.881684 Z" id="Path" fill="#000000" fill-rule="nonzero"></path>
            <path d="M77.42,44.139084 C77.42,44.139084 73.2452,52.243684 67.2574,55.271884 L67.1986,51.949684 L67.0124,47.559284 C67.0124,47.559284 66.4734,47.324084 67.9434,47.627884 C71.344,48.353084 76.1852,45.442484 77.42,44.139084 L77.42,44.139084 Z" id="Path" fill="#000000" fill-rule="nonzero"></path>
            <path d="M70.3346,36.681284 C70.167357,36.7982681 69.9939759,36.9062224 69.8152,37.004684 L69.58,37.132084 L69.433,37.200684 L69.3742,37.200684 C69.0090651,37.361743 68.6230796,37.4706107 68.2276,37.524084 C67.9674236,37.6001013 67.8152595,37.8696491 67.8846,38.131684 C67.964837,38.3884814 68.230878,38.5386659 68.4922,38.474684 C69.3349852,38.3224852 70.1343511,37.9880225 70.8344,37.494684 C71.0614899,37.3551255 71.1391038,37.0619173 71.0108,36.828284 C70.9453144,36.7143647 70.8368185,36.6315201 70.7096736,36.5983519 C70.5825287,36.5651836 70.4473896,36.5844713 70.3346,36.651884 L70.3346,36.681284 Z" id="Path" fill="#000000" fill-rule="nonzero"></path>
            <path d="M56.7126,23.157284 L64.3468,22.628084 C65.8177342,22.5214775 67.1380166,21.6866471 67.865,20.403484 L69.4722,17.561484 L69.4722,21.481484 C69.4739747,22.0408214 69.8960793,22.5093575 70.4522,22.569284 C72.5102,22.775084 77.2142,23.314084 78.939,24.117684 C80.1645223,24.5618228 81.0310318,25.6639621 81.1734,26.959684 C81.1734,26.959684 83.1334,23.725684 84.9758,24.196084 C86.8182,24.666484 87.024,26.763684 86.583,27.890684 C86.0638621,28.929253 85.4434529,29.9140295 84.7308,30.830684 C83.7650097,31.4793859 83.2459635,32.6159833 83.3882,33.770684 C83.545,35.848284 83.3882,40.258284 83.3882,40.258284 C83.3882,40.258284 93.394,32.418284 90.8362,19.991884 C90.8362,19.991884 92.9138,24.460684 99.2936,22.863284 C105.6734,21.265884 102.9686,14.239284 105.84,12.161684 C108.7114,10.084084 115.101,5.45848402 109.8286,1.14648402 C104.5562,-3.16551598 101.1654,6.16408402 95.942,4.92928402 C88.102,3.06728402 83.8488,9.92728402 86.7496,13.925684 C83.5243528,9.20028966 78.2199681,6.31826497 72.5004,6.18368402 C65.0034,5.99748402 56.1834,9.80968402 55.7326,22.255684 C55.7345973,22.5080648 55.8411615,22.7483176 56.0269021,22.9191991 C56.2126428,23.0900805 56.4609278,23.1762889 56.7126,23.157284 L56.7126,23.157284 Z" id="Path" fill="#000000" fill-rule="nonzero"></path>
            <path d="M65.121,57.212284 C66.7407082,58.1601583 68.6099488,58.5941502 70.4816,58.456884 C72.3747987,58.3912405 74.2627223,58.2178264 76.1362,57.937484 C79.7132,57.418084 83.3294,56.359684 85.9362,53.782284 C86.387,53.351084 85.701,52.655284 85.2404,53.096284 C82.7512,55.497284 79.3604,56.467484 76.0186,56.957484 C74.3007138,57.216666 72.5701607,57.3835058 70.8344,57.457284 C69.0065153,57.6530019 67.163157,57.2726807 65.562,56.369484 C65.0328,56.016684 64.582,56.869284 65.072,57.212284 L65.121,57.212284 Z" id="Path" fill="#000000" fill-rule="nonzero"></path>
            <path d="M66.5714,52.439684 C65.5532088,52.4637867 64.5435709,52.6320597 63.5726,52.939484 C62.7241257,53.0798307 61.9948454,53.6194981 61.6126,54.389884 C61.4776943,54.7756292 61.3952887,55.1777681 61.3676,55.585484 C61.3088,56.104884 61.2598,56.565484 61.2304,57.133884 C61.152,58.172684 61.1226,59.201684 61.1324,60.240484 C61.1324,60.5111035 61.3517805,60.730484 61.6224,60.730484 C61.8930195,60.730484 62.1124,60.5111035 62.1124,60.240484 C62.1124,59.3715507 62.132,58.4993507 62.1712,57.623884 C62.1919655,56.7693534 62.2771403,55.9176052 62.426,55.075884 C62.4642412,54.7566513 62.6304726,54.4666307 62.8866,54.272284 C63.1894274,54.079531 63.5198987,53.9341236 63.8666,53.841084 C64.713608,53.588278 65.58988,53.446625 66.4734,53.419684 C66.7440195,53.419684 66.9634,53.2003035 66.9634,52.929684 C66.9634,52.6590645 66.7440195,52.439684 66.4734,52.439684 L66.5714,52.439684 Z" id="Path" fill="#000000" fill-rule="nonzero"></path>
            <path d="M83.9272,51.538084 C84.3332791,51.3443553 84.7659665,51.212237 85.211,51.146084 C85.657676,51.0450719 86.1155399,51.0022501 86.5732,51.018684 C87.3572,51.106884 87.612,51.900684 87.759,52.567084 C88.2,54.527084 88.4744,56.565484 88.837,58.554884 C88.9448,59.172284 89.8856,58.907684 89.817,58.290284 L89.1702,54.683884 C89.0586339,53.6325959 88.8419503,52.5951413 88.5234,51.587084 C88.2560044,50.7133269 87.4753206,50.0965867 86.5634,50.0386645 C86.0626866,50.0375028 85.5632929,50.0900705 85.0738,50.195484 C84.5238668,50.2737743 83.9907103,50.4426624 83.496,50.695284 C82.9276,50.979484 83.4274,51.822284 83.986,51.538084 L83.9272,51.538084 Z" id="Path" fill="#000000" fill-rule="nonzero"></path>
            <path d="M91.7966,58.417684 C91.7966,58.417684 110.201,52.253484 116.8062,67.796284 C123.4114,83.339084 109.1426,127.576284 97.0102,130.369284 C85.2502,133.044684 59.4076,115.992684 51.8518,102.929284 C51.3558938,102.092733 50.6877894,101.37118 49.8918,100.812484 C48.7256,99.969684 47.334,98.440884 48.8236,96.578884" id="Path" stroke="#000000"></path>
            <path d="M55.713,87.592284 C56.4361798,87.0542352 57.355912,86.8533822 58.237557,87.0409663 C59.1192019,87.2285503 59.8775014,87.7864312 60.319,88.572284 C60.7886423,89.2903758 61.4753305,89.8397263 62.279,90.140284 C68.2766,92.570684 91.4536,102.409884 95.9812,110.916284" id="Path" stroke="#000000"></path>
            <path d="M47.4712,81.604484 C49.4312,82.584484 51.6754,83.672284 53.1846,85.367684 C54.501516,86.853195 55.4395869,88.6351935 55.9188,90.561684 C56.0658,91.179084 57.0066,90.924284 56.8988,90.306884 C56.3697891,88.2578704 55.3621976,86.3635984 53.9588,84.779684 C52.3908,82.956884 50.0388,81.839684 47.971,80.761684 C47.4124,80.467684 46.9126,81.320284 47.4712,81.604484 L47.4712,81.604484 Z" id="Path" fill="#000000" fill-rule="nonzero"></path>
            <path d="M36.652,85.259884 C38.4875066,85.6261532 40.3428801,85.8846621 42.2086,86.034084 C44.02581,86.2320513 45.8612045,86.1892144 47.6672,85.906684 C48.2944,85.798884 48.0298,84.848284 47.4124,84.926684 C45.6889346,85.1812621 43.9397027,85.2109101 42.2086,85.014884 C40.4289098,84.8649423 38.6589185,84.6162929 36.9068,84.270084 C36.2894,84.152484 36.0346,85.093284 36.652,85.250084 L36.652,85.259884 Z" id="Path" fill="#000000" fill-rule="nonzero"></path>
            <path d="M39.4058,88.915284 C40.3135987,89.1833932 41.2525579,89.3316499 42.1988,89.356284 C42.4694195,89.356284 42.6888,89.1369036 42.6888,88.866284 C42.6835863,88.5978537 42.4672303,88.3814977 42.1988,88.376284 C41.3416069,88.3584298 40.4908994,88.2232399 39.6704,87.974484 C39.409078,87.9105022 39.143037,88.0606866 39.0628,88.317484 C38.9939963,88.5770759 39.1469664,88.8436808 39.4058,88.915284 L39.4058,88.915284 Z" id="Path" fill="#000000" fill-rule="nonzero"></path>
            <path d="M41.0914,92.306084 C42.1610092,92.5149471 43.2458729,92.6362158 44.3352,92.668684 C44.6058195,92.668684 44.8252,92.4493036 44.8252,92.178684 C44.8151388,91.9123433 44.6015408,91.6987452 44.3352,91.688684 C43.3475981,91.6601479 42.3641394,91.5486892 41.3952,91.355484 C41.2201399,91.3082178 41.0331614,91.3579355 40.9046976,91.4859089 C40.7762337,91.6138823 40.7258012,91.8006692 40.7723976,91.9759089 C40.8189939,92.1511485 40.9555399,92.2882178 41.1306,92.335484 L41.0914,92.306084 Z" id="Path" fill="#000000" fill-rule="nonzero"></path>
            <path d="M42.7966,95.500884 C45.3936,96.284884 47.971,97.255084 50.7248,97.245284 C50.9954195,97.245284 51.2148,97.0259036 51.2148,96.755284 C51.2148,96.4846645 50.9954195,96.265284 50.7248,96.265284 C48.069,96.265284 45.5602,95.285284 43.0514,94.550284 C42.7807805,94.4799229 42.5043611,94.6422645 42.434,94.912884 C42.3636389,95.1835036 42.5259805,95.4599229 42.7966,95.530284 L42.7966,95.500884 Z" id="Path" fill="#000000" fill-rule="nonzero"></path>
            <path d="M50.96,97.705884 C53.6087615,95.3980927 55.8254846,92.6371441 57.5064,89.552284 C57.8102,88.993684 56.9576,88.503684 56.6538,89.052484 C55.0167077,92.0656217 52.8525974,94.7608021 50.2642,97.010084 C49.784,97.421684 50.4798,98.117484 50.96,97.705884 L50.96,97.705884 Z" id="Path" fill="#000000" fill-rule="nonzero"></path>
            <path d="M45.7072,85.671484 L42.581,68.227484 C42.3306037,66.8708556 41.1479429,65.8859917 39.7684,65.885284 L5.4684,65.885284 C4.62084749,65.8862492 3.81732655,66.2628762 3.27436423,66.9136742 C2.7314019,67.5644723 2.50486534,68.4224787 2.6558,69.256484 L10.1234,109.730484 C10.3695104,111.085593 11.5489245,112.071187 12.9262,112.072684 L47.04,112.072684 C47.8982887,112.07215 48.7110157,111.686396 49.254103,111.021778 C49.7971902,110.357161 50.0132822,109.483871 49.8428,108.642684 L47.3242,96.343684" id="Path" stroke="#000000"></path>
            <path d="M8.2418,67.864884 C7.80290565,67.6739774 7.45270662,67.3237784 7.2618,66.884884 C7.01587844,66.4154577 6.93641804,65.8765089 7.0364,65.356084 C7.15043366,64.9589079 7.5531645,64.7184253 7.95690865,64.8064208 C8.36065281,64.8944163 8.62678576,65.2806769 8.5652,65.689284 C8.5652,65.9599035 8.78458047,66.179284 9.0552,66.179284 C9.32581953,66.179284 9.5452,65.9599035 9.5452,65.689284 C9.58507877,65.0555729 9.28689081,64.448015 8.7612,64.091884 C8.22656249,63.7414901 7.54419894,63.7077468 6.9776,64.003684 C5.684,64.640684 5.88,66.385084 6.4582,67.453284 C6.78018499,68.0725217 7.31668926,68.5532852 7.9674,68.805684 C8.22699183,68.8744877 8.49359677,68.7215176 8.5652,68.462684 C8.63454049,68.2006491 8.48237638,67.9311013 8.2222,67.855084 L8.2418,67.864884 Z" id="Path" fill="#000000" fill-rule="nonzero"></path>
            <path d="M12.8772,67.864884 C12.4383057,67.6739774 12.0881066,67.3237784 11.8972,66.884884 C11.6512784,66.4154577 11.571818,65.8765089 11.6718,65.356084 C11.7858337,64.9589079 12.1885645,64.7184253 12.5923087,64.8064208 C12.9960528,64.8944163 13.2621858,65.2806769 13.2006,65.689284 C13.2006,65.9599035 13.4199805,66.179284 13.6906,66.179284 C13.9612195,66.179284 14.1806,65.9599035 14.1806,65.689284 C14.2204788,65.0555729 13.9222908,64.448015 13.3966,64.091884 C12.8619625,63.7414901 12.1795989,63.7077468 11.613,64.003684 C10.3292,64.640684 10.5154,66.385084 11.0936,67.453284 C11.415585,68.0725217 11.9520893,68.5532852 12.6028,68.805684 C12.8623918,68.8744877 13.1289968,68.7215176 13.2006,68.462684 C13.2699405,68.2006491 13.1177764,67.9311013 12.8576,67.855084 L12.8772,67.864884 Z" id="Path" fill="#000000" fill-rule="nonzero"></path>
            <path d="M17.5126,67.864884 C17.0737057,67.6739774 16.7235066,67.3237784 16.5326,66.884884 C16.2866784,66.4154577 16.207218,65.8765089 16.3072,65.356084 C16.4212337,64.9589079 16.8239645,64.7184253 17.2277087,64.8064208 C17.6314528,64.8944163 17.8975858,65.2806769 17.836,65.689284 C17.836,65.9599035 18.0553805,66.179284 18.326,66.179284 C18.5966195,66.179284 18.816,65.9599035 18.816,65.689284 C18.8558788,65.0555729 18.5576908,64.448015 18.032,64.091884 C17.5010729,63.7411698 16.8212999,63.707369 16.2582,64.003684 C14.9646,64.640684 15.1508,66.385084 15.729,67.453284 C16.050985,68.0725217 16.5874893,68.5532852 17.2382,68.805684 C17.4977918,68.8744877 17.7643968,68.7215176 17.836,68.462684 C17.9053405,68.2006491 17.7531764,67.9311013 17.493,67.855084 L17.5126,67.864884 Z" id="Path" fill="#000000" fill-rule="nonzero"></path>
            <path d="M22.1578,67.864884 C21.7177752,67.6756411 21.3670429,67.3249088 21.1778,66.884884 C20.9318784,66.4154577 20.852418,65.8765089 20.9524,65.356084 C21.0664337,64.9589079 21.4691645,64.7184253 21.8729087,64.8064208 C22.2766528,64.8944163 22.5427858,65.2806769 22.4812,65.689284 C22.4812,65.9599035 22.7005805,66.179284 22.9712,66.179284 C23.2418195,66.179284 23.4612,65.9599035 23.4612,65.689284 C23.5010788,65.0555729 23.2028908,64.448015 22.6772,64.091884 C22.1462729,63.7411698 21.4664999,63.707369 20.9034,64.003684 C19.6098,64.640684 19.796,66.385084 20.3742,67.453284 C20.696185,68.0725217 21.2326893,68.5532852 21.8834,68.805684 C22.1429918,68.8744877 22.4095968,68.7215176 22.4812,68.462684 C22.5513553,68.2035311 22.4042332,67.9352497 22.148,67.855084 L22.1578,67.864884 Z" id="Path" fill="#000000" fill-rule="nonzero"></path>
            <path d="M26.7932,67.864884 C26.3580862,67.6684666 26.0096175,67.3199979 25.8132,66.884884 C25.5672784,66.4154577 25.487818,65.8765089 25.5878,65.356084 C25.6473204,65.0812396 25.8489474,64.8590267 26.1167298,64.7731507 C26.3845123,64.6872747 26.6777678,64.7507823 26.8860298,64.9397507 C27.0942919,65.1287191 27.1859205,65.4144396 27.1264,65.689284 C27.1264,65.9599035 27.3457805,66.179284 27.6164,66.179284 C27.8827408,66.1692228 28.0963388,65.9556248 28.1064,65.689284 C28.1382019,65.0548787 27.8374536,64.4496692 27.3126,64.091884 C26.7816729,63.7411698 26.1018999,63.707369 25.5388,64.003684 C24.2452,64.640684 24.4314,66.385084 25.0096,67.453284 C25.331585,68.0725217 25.8680893,68.5532852 26.5188,68.805684 C26.780122,68.8696659 27.046163,68.7194814 27.1264,68.462684 C27.1853727,68.2020745 27.0369993,67.9392416 26.7834,67.855084 L26.7932,67.864884 Z" id="Path" fill="#000000" fill-rule="nonzero"></path>
            <path d="M31.4286,67.864884 C30.9934862,67.6684666 30.6450175,67.3199979 30.4486,66.884884 C30.2026784,66.4154577 30.123218,65.8765089 30.2232,65.356084 C30.3152107,64.9312114 30.7342274,64.6613735 31.1591,64.7533842 C31.5839726,64.8453948 31.8538106,65.2644114 31.7618,65.689284 C31.7618,65.9599035 31.9811805,66.179284 32.2518,66.179284 C32.5202303,66.1740703 32.7365863,65.9577143 32.7418,65.689284 C32.773855,65.0571568 32.4774516,64.453235 31.9578,64.091884 C31.4231625,63.7414901 30.7407989,63.7077468 30.1742,64.003684 C28.8806,64.640684 29.0766,66.385084 29.645,67.453284 C29.966985,68.0725217 30.5034893,68.5532852 31.1542,68.805684 C31.415522,68.8696659 31.681563,68.7194814 31.7618,68.462684 C31.8207727,68.2020745 31.6723993,67.9392416 31.4188,67.855084 L31.4286,67.864884 Z" id="Path" fill="#000000" fill-rule="nonzero"></path>
            <path d="M36.064,67.864884 C35.6288862,67.6684666 35.2804175,67.3199979 35.084,66.884884 C34.8380784,66.4154577 34.758618,65.8765089 34.8586,65.356084 C34.9506107,64.9312114 35.3696274,64.6613735 35.7945,64.7533842 C36.2193726,64.8453948 36.4892106,65.2644114 36.3972,65.689284 C36.3972,65.9599035 36.6165805,66.179284 36.8872,66.179284 C37.1556303,66.1740703 37.3719863,65.9577143 37.3772,65.689284 C37.409255,65.0571568 37.1128516,64.453235 36.5932,64.091884 C36.0585625,63.7414901 35.3761989,63.7077468 34.8096,64.003684 C33.516,64.640684 33.712,66.385084 34.2804,67.453284 C34.602385,68.0725217 35.1388893,68.5532852 35.7896,68.805684 C36.050922,68.8696659 36.316963,68.7194814 36.3972,68.462684 C36.4561727,68.2020745 36.3077993,67.9392416 36.0542,67.855084 L36.064,67.864884 Z" id="Path" fill="#000000" fill-rule="nonzero"></path>
            <path d="M61.6714,59.231084 C61.6714,59.231084 45.0114,50.744284 41.2286,65.885284" id="Path" stroke="#000000"></path>
            <path d="M52.7828,76.567284 C53.2337909,78.8446317 52.9596047,81.2060604 51.9988,83.319484 C51.744,83.887884 52.5868,84.387684 52.8416,83.819284 C53.9214814,81.4730916 54.2302551,78.8450841 53.7236,76.312484 C53.606,75.695084 52.6652,75.949884 52.7436,76.567284 L52.7828,76.567284 Z" id="Path" fill="#000000" fill-rule="nonzero"></path>
            <path d="M93.492,93.050884 L91.3556,98.930884 L90.307,101.870884 L89.768,103.380084 C89.6707885,103.588371 89.5920853,103.804805 89.5328,104.026884 C89.5328,104.173884 89.5916,104.418884 89.5328,104.536484 L89.7484,104.242484 L89.6798,104.301284 L90.1698,104.301284 L90.111,104.301284 L90.3364,104.595284 L90.3364,104.732484 L89.866,105.095084 C90.1366195,105.095084 90.356,104.875704 90.356,104.605084 C90.356,104.334464 90.1366195,104.115084 89.866,104.115084 C89.6482222,104.115084 89.4565778,104.258817 89.3956,104.467884 C89.3450705,104.673923 89.4134869,104.890953 89.5730416,105.030765 C89.7325963,105.170577 89.9567321,105.209899 90.1543504,105.132749 C90.3519686,105.055599 90.4901764,104.874818 90.5128,104.663884 C90.5179422,104.403628 90.5474714,104.144427 90.601,103.889684 C90.7088,103.556484 90.8362,103.242884 90.9538,102.909684 L91.6496,100.949684 L94.4034,93.315484 C94.619,92.727484 93.6684,92.462884 93.4234,93.060684 L93.492,93.050884 Z" id="Path" fill="#000000" fill-rule="nonzero"></path>
            <path d="M18.0516,58.074684 C15.4270548,59.1204306 13.5998668,61.5365469 13.3084,64.346684 C13.3084,64.6173035 13.5277805,64.836684 13.7984,64.836684 C14.0690195,64.836684 14.2884,64.6173035 14.2884,64.346684 C14.5568039,61.9674605 16.1008493,59.9237605 18.3162,59.015484 C18.5716123,58.9395148 18.7225078,58.6765254 18.6592,58.417684 C18.5831827,58.1575076 18.3136349,58.0053435 18.0516,58.074684 L18.0516,58.074684 Z" id="Path" fill="#000000" fill-rule="nonzero"></path>
            <path d="M18.1496,64.807284 L20.1586,54.144884 L19.9332,54.438884 C20.015834,54.3804745 20.1045514,54.3311871 20.1978,54.291884 C20.139,54.076284 20.1096,54.056684 20.0998,54.291884 C20.0105871,54.5541892 19.9610408,54.8283453 19.9528,55.105284 L19.7078,56.487084 L19.1492,59.603484 L18.0516,65.718684 C17.9438,66.336084 18.8846,66.600684 19.0316,65.973484 L20.2762,59.054684 L20.8544,55.830484 C20.972,55.193484 21.5208,53.870484 20.727,53.439284 C20.4467242,53.3122419 20.1252758,53.3122419 19.845,53.439284 C19.3452,53.635284 19.2668,53.880284 19.1688,54.419284 L18.5612,57.663084 L17.248,64.621084 C17.1304,65.238484 18.0712,65.493284 18.228,64.875884 L18.1496,64.807284 Z" id="Path" fill="#000000" fill-rule="nonzero"></path>
            <path d="M22.0402,59.280084 C23.3170818,59.4912514 24.4377442,60.2502943 25.1076,61.357684 C25.8526756,62.6573849 26.3136176,64.1003339 26.46,65.591284 C26.5303611,65.8619035 26.8067805,66.024245 27.0774,65.9538839 C27.3480195,65.8835229 27.510361,65.6071035 27.44,65.336484 C27.2731797,63.6915211 26.7335773,62.1062294 25.8622,60.701084 C25.0651669,59.4536594 23.7820918,58.5970912 22.3244,58.339284 C22.0648082,58.2704804 21.7982032,58.4234504 21.7266,58.682284 C21.6570529,58.9389522 21.8049204,59.2042439 22.0598,59.280084 L22.0402,59.280084 Z" id="Path" fill="#000000" fill-rule="nonzero"></path>
            <path d="M54.0078,128.507284 C62.1712,128.281884 70.2954,129.252084 78.449,129.242284 C79.5466,129.242284 80.6442,129.242284 81.7418,129.144284 C82.9598768,128.990093 84.1959881,129.063196 85.3874,129.359884 C85.9852,129.546084 86.2498,128.595484 85.6422,128.379884 C83.6822,127.772284 81.5458,128.193684 79.527,128.223084 C77.5082,128.252484 75.607,128.223084 73.647,128.134884 C69.3546,127.978084 65.0818,127.693884 60.7992,127.546884 C58.5256,127.478284 56.2618,127.429284 53.9882,127.497884 C53.7175805,127.497884 53.4982,127.717265 53.4982,127.987884 C53.4982,128.258504 53.7175805,128.477884 53.9882,128.477884 L54.0078,128.507284 Z" id="Path" fill="#000000" fill-rule="nonzero"></path>
            <path d="M49.4312,108.907284 C50.5386,112.562684 50.1564,116.414084 50.3426,120.177284 C50.4002515,121.993402 50.7035398,123.793352 51.2442,125.528084 C51.695,126.860884 52.4496,128.340684 54.0274,128.468084 C54.6546,128.468084 54.6546,127.488084 54.0274,127.488084 C52.5084,127.370484 52.0674,124.900884 51.7636,123.744484 C51.4384473,122.078503 51.2743578,120.385099 51.2736,118.687684 C51.205,115.326284 51.3618,111.906084 50.372,108.652484 C50.2989327,108.381864 50.0203195,108.221717 49.7497,108.294784 C49.4790805,108.367851 49.3189327,108.646464 49.392,108.917084 L49.4312,108.907284 Z" id="Path" fill="#000000" fill-rule="nonzero"></path>
            <path d="M25.039,112.464684 C26.7033427,116.60832 29.4026856,120.255807 32.879,123.058484 C36.5461951,125.982329 41.1053963,127.559715 45.7954,127.527284 C48.02,127.468484 50.3328,126.870684 51.7342,125.028284 C52.1262,124.528484 51.2736,124.048284 50.8914,124.538284 C49.7154,126.076884 47.6182,126.498284 45.7954,126.498284 C43.6638471,126.535976 41.5418555,126.204415 39.5234,125.518284 C35.5571499,124.124304 32.0833953,121.604129 29.5274,118.266284 C28.0800851,116.395188 26.8902152,114.33846 25.9896,112.151084 C25.7446,111.582684 24.8038,111.837484 25.0096,112.415684 L25.039,112.464684 Z" id="Path" fill="#000000" fill-rule="nonzero"></path>
            <path d="M113.68,104.712884 C113.68,104.712884 114.3758,126.449284 110.544,127.497884 C107.128014,128.271887 103.658949,128.789463 100.1658,129.046284 C103.033523,126.875549 105.394429,124.106667 107.0846,120.931884 C109.711756,115.709942 111.917248,110.286333 113.68,104.712884 L113.68,104.712884 Z" id="Path" stroke="#000000" fill="#000000" fill-rule="nonzero"></path>
            <path d="M55.713,128.007484 C55.7112134,131.650957 55.09838,135.268331 53.9,138.709084 C47.7064,156.564684 27.0676,217.530484 15.778,268.608084 C13.0242,281.054084 9.8,293.382484 7.0854,305.848084 C4.9686,315.589284 -4.7334,339.903084 5.0372,347.576484 C15.5428,355.828084 32.6634,355.671284 45.3446,356.563084 C77.616,358.826884 110.2892,356.122084 140.8554,345.008884 C146.849921,342.848442 150.210398,336.475857 148.6072,330.308884 L125.5772,241.040684 C123.430911,232.685227 122.636852,224.039914 123.2252,215.433284 C124.509,196.274284 125.097,158.926484 112.9744,135.661284 C111.245787,132.416865 110.32787,128.802358 110.299,125.126284 L110.299,124.822484" id="Path" stroke="#000000"></path>
            <path d="M28.469,117.727284 C28.469,117.727284 49.098,118.560284 50.568,116.404284 C50.568,116.404284 61.348,127.105884 67.522,128.419084 C73.696,129.732284 84.3192,129.173684 83.2706,128.017284 C82.222,126.860884 71.2852,122.137284 66.2186,117.972284 C61.152,113.807284 53.7824,105.085284 51.8518,102.968484 C49.9212,100.851684 47.5202,98.744684 48.2062,101.322084 C48.8922,103.899484 50.7934,109.759884 48.9314,110.926084 C47.0694,112.092284 40.3074,112.102084 40.3074,112.102084 L28.9002,112.102084 C28.9002,112.102084 25.4506,111.425884 26.2934,113.532884" id="Path" fill="#000000" fill-rule="nonzero"></path>
            <path d="M55.4386,132.280284 C55.4386,132.280284 64.0136,139.738084 86.1518,142.932884 C108.29,146.127684 114.758,139.395084 114.758,139.395084 C114.758,139.395084 112.6216,134.965484 112.5432,134.789084 C111.765019,132.719512 111.110532,130.605518 110.5832,128.458284 C110.5342,127.478284 107.3982,123.293684 106.33,124.097284 C105.2618,124.900884 102.165,129.232484 97.8334,130.124284 C94.8815719,130.681194 91.8450865,130.604363 88.9252,129.898884 C88.3078,129.732284 76.1852,127.566484 75.2052,127.987884 C74.2252,128.409284 62.1712,128.144684 62.0046,128.134884 L57.5358,128.007484 C57.099147,127.809208 56.5898914,127.858889 56.1997928,128.13782 C55.8096942,128.41675 55.5979911,128.882573 55.6444,129.359884" id="Path" fill="#000000" fill-rule="nonzero"></path>
            <path d="M62.72,132.662484 C59.8518667,147.035817 56.9118667,161.389551 53.9,175.723684 C50.8881333,190.057817 47.8370667,204.388684 44.7468,218.716284 C41.6630667,233.056951 38.5728,247.381284 35.476,261.689284 C32.3792,275.997284 29.3183333,290.324884 26.2934,304.672084 C23.275,319.006217 20.3154,333.356684 17.4146,347.723484 C17.052,349.507084 16.6992,351.300484 16.3366,353.084084 C16.3366,353.240884 16.5424,353.299684 16.5816,353.152684 C19.4432,338.779351 22.3832,324.425617 25.4016,310.091484 C28.42,295.757351 31.4710667,281.426484 34.5548,267.098884 C37.632,252.771284 40.719,238.446951 43.8158,224.125884 C46.9126,209.804817 49.9734667,195.473951 52.9984,181.133284 C56.0168,166.799151 58.9764,152.451951 61.8772,138.091684 C62.2398,136.298284 62.5926,134.514684 62.9552,132.731084 C62.9552,132.573724 62.7494,132.505684 62.72,132.662484 L62.72,132.662484 Z" id="Path" fill="#000000" fill-rule="nonzero"></path>
            <path d="M71.9418,138.228884 C70.609,152.184084 68.943,166.109884 67.0418,179.996484 C65.1406,193.883084 63.0336,207.808884 60.809,221.675884 C58.5844,235.542884 56.2128,249.674484 53.8804,263.668884 C51.4892,277.957284 49.1176,292.265284 46.8734,306.583084 C44.5606,321.283084 42.385,335.983084 40.4348,350.683084 C40.1898,352.535284 39.9448,354.377684 39.7096,356.229884 C39.7096,356.386684 39.935,356.376884 39.9546,356.229884 C41.9146,341.245684 44.051,326.310484 46.3638,311.385084 C48.608,296.959484 50.9796,282.543684 53.3806,268.147484 C55.7228,254.123684 58.0846,240.109684 60.3484,226.076084 C62.5828,212.258084 64.729,198.430284 66.6596,184.563284 C68.6196,170.843284 70.2856,157.123284 71.6772,143.324884 L72.177,138.238684 C72.177,138.081884 71.9418,138.081884 71.932,138.238684 L71.9418,138.228884 Z" id="Path" fill="#000000" fill-rule="nonzero"></path>
            <path d="M106.2418,142.227284 C109.858,153.673684 110.4166,165.962884 110.4558,177.879684 C110.4558,190.453084 109.7208,203.006884 109.3974,215.570484 C109.2308,222.165884 109.27,228.751484 109.7306,235.337084 C110.2598,242.990884 111.23,250.605484 112.308,258.200484 C114.3856,272.782884 116.6592,287.335884 118.9132,301.898684 C121.079,315.922484 123.2644,329.956084 125.3616,344.038684 C125.6458,345.910484 125.93,347.792084 126.2044,349.663884 C126.2044,349.820684 126.469,349.761884 126.4396,349.605084 C124.3326,335.395084 122.1374,321.185084 119.9422,307.014284 C117.747,292.843484 115.5224,278.388484 113.4056,264.060884 C111.2104,249.223684 109.3484,234.386484 109.564,219.353284 C109.7502,206.946484 110.544,194.549484 110.691,182.113284 C110.8086,170.059284 110.5146,157.711284 107.555,145.970884 C107.2316,144.696884 106.8788,143.422884 106.477,142.168484 C106.477,142.021484 106.1928,142.080284 106.2418,142.237084 L106.2418,142.227284 Z" id="Path" fill="#000000" fill-rule="nonzero"></path>
            <path d="M96.04,142.756484 C95.3148,170.784484 94.5014,198.812484 93.884,226.840484 C93.5802,240.795684 93.4332,254.760684 93.9428,268.715884 C94.4328,282.328084 95.5206,295.910884 96.4712,309.493684 C97.5394,324.722884 98.4312,339.971684 98.2058,355.240084 C98.2214244,355.29478 98.2714159,355.332491 98.3283,355.332491 C98.3851841,355.332491 98.4351756,355.29478 98.4508,355.240084 C98.9016,327.800084 95.6088,300.556084 94.374,273.214084 C93.1098,245.382084 94.374,217.471684 95.0698,189.639684 L96.285,142.756484 C96.2693756,142.701788 96.2193841,142.664077 96.1625,142.664077 C96.1056159,142.664077 96.0556244,142.701788 96.04,142.756484 L96.04,142.756484 Z" id="Path" fill="#000000" fill-rule="nonzero"></path>
            <g id="Group" transform="translate(0.000000, 135.367284)" stroke="#000000">
                <path d="M85.5148,0 C85.5148,0 80.5266,71.4028 75.8324,111.8474 C71.1382,152.292 67.9924,221.9014 67.9924,221.9014" id="Path" stroke-width="0.25"></path>
                <path d="M42.3066,220.8528 L16.4542,217.7462 C16.4542,217.7462 12.1128,264.4138 10.6232,267.1774 C9.7216,268.863 4.7432,273.175 0.9506,276.311 C0.292912114,276.852774 0.0462050638,277.749154 0.334049293,278.551163 C0.621893522,279.353172 1.38230124,279.888 2.2344,279.888 L27.44,279.888 C27.2244,279.888 31.605,259.5138 33.2318,253.5162 C36.162,242.6676 39.9644,228.095 42.3066,220.8528 L42.3066,220.8528 Z" id="Path"></path>
                <path d="M109.8188,218.05 L123.6858,267.4126 C123.813842,267.880375 123.72381,268.380956 123.4408,268.7748 L118.139,276.213 C117.787294,276.698726 117.739294,277.341179 118.014918,277.873775 C118.290541,278.406371 118.842747,278.738211 119.4424,278.731697 L137.6998,278.731697 C139.040182,278.734234 140.316649,278.158954 141.202483,277.153007 C142.088316,276.14706 142.497536,274.808086 142.3254,273.4788 C141.4042,266.315 139.8068,252.6832 138.9444,237.8656 C138.3368,227.6638 136.0828,211.2978 136.0828,211.2978" id="Path"></path>
            </g>
            <path d="M19.8842,353.985684 C19.8842,353.985684 16.1112,352.466684 16.2778,355.024484 C16.4444,357.582284 15.1704,366.382684 15.1704,366.382684 C15.1704,366.382684 34.2314,371.390484 38.1024,370.753484 L40.9542,360.649684 C40.9542,360.649684 44.2176,355.749684 40.5524,356.220084 C36.8872,356.690484 26.3522,355.102884 26.3522,355.102884" id="Path" fill="#000000" fill-rule="nonzero"></path>
            <path d="M111.4554,359.238484 L113.8956,367.931084 C113.8956,367.931084 132.1236,366.225884 137.8174,360.786884 L136.3278,348.497684 C136.3278,348.497684 137.0236,346.469084 132.5156,347.811684 C128.0076,349.154284 115.64,352.231484 115.64,352.231484 L111.8768,353.534884 C111.8768,353.534884 109.6228,352.819484 110.3088,355.240084" id="Path" fill="#000000" fill-rule="nonzero"></path>
            <path d="M6.5072,407.170284 C9.92603417,408.649515 13.7789629,408.775611 17.2872,407.523084 C19.2472,406.837084 20.8642,405.621884 22.883,405.220084 C24.9786929,404.911384 27.1083071,404.911384 29.204,405.220084 C29.3608,405.220084 29.3608,404.994684 29.204,404.975084 C27.3005814,404.714107 25.373072,404.677925 23.4612,404.867284 C21.5012,405.141684 19.9332,406.102084 18.1496,406.905684 C14.4784053,408.5076 10.3057947,408.5076 6.6346,406.905684 C6.4876,406.846884 6.37,407.052684 6.5072,407.121284 L6.5072,407.170284 Z" id="Path" fill="#000000" fill-rule="nonzero"></path>
            <path d="M120.638,408.944084 L127.2432,408.836284 C129.10683,408.964758 130.975537,408.6734 132.7116,407.983684 C135.926,406.386284 137.6116,402.162484 141.5316,401.848884 C141.6884,401.848884 141.6884,401.594084 141.5316,401.603884 C137.8762,401.897884 136.1122,405.582684 133.2996,407.385884 C131.4768,408.552084 129.3796,408.552084 127.2726,408.591284 L120.6674,408.699084 C120.612704,408.714708 120.574993,408.7647 120.574993,408.821584 C120.574993,408.878468 120.612704,408.92846 120.6674,408.944084 L120.638,408.944084 Z" id="Path" fill="#000000" fill-rule="nonzero"></path>
            <path d="M22.54,400.476884 C23.2005562,400.133417 23.6873663,399.529346 23.8826,398.810884 C23.8988371,398.745935 23.8593487,398.680121 23.7944,398.663884 C23.7294513,398.647647 23.6636372,398.687135 23.6474,398.752084 C23.4678105,399.407168 23.0191501,399.955531 22.4126,400.261284 C22.2754,400.329884 22.4126,400.545484 22.54,400.476884 L22.54,400.476884 Z" id="Path" fill="#000000" fill-rule="nonzero"></path>
            <path d="M134.3874,399.046084 L133.8876,401.006084 C133.887284,401.062967 133.924717,401.113167 133.979326,401.129095 C134.033935,401.145022 134.092486,401.122818 134.1228,401.074684 L134.6226,399.114684 C134.622916,399.057801 134.585483,399.007601 134.530874,398.991673 C134.476265,398.975746 134.417714,398.99795 134.3874,399.046084 Z" id="Path" fill="#000000" fill-rule="nonzero"></path>
        </g>
        <g id="Group-3" transform="translate(30.000000, 28.000000)">
            <rect id="Rectangle" fill="#CCCCCC" fill-rule="nonzero" x="4.53112272" y="0" width="236" height="434" rx="40"></rect>
            <rect id="Rectangle" stroke="#000000" x="4.53112272" y="0" width="236" height="434" rx="40"></rect>
            <path d="M198.443737,8 L173.684467,8 C171.002014,8 168.562673,9.55590515 167.433745,11.9917151 L166.574671,13.8335488 C165.443248,16.2671721 163.005473,17.8239343 160.323949,17.8252582 L84.7382961,17.8252582 C82.0567722,17.8239343 79.6189976,16.2671721 78.4875741,13.8335488 L77.6285006,11.9917151 C76.500826,9.55480828 74.060697,8 71.3777786,8 L46.6185086,8 C27.2427839,8 11.534663,23.721283 11.5311227,43.1167799 L11.5311227,390.883226 C11.534663,410.278723 27.2427839,426 46.6185086,426 L198.443737,426 C217.819462,426 233.527582,410.278723 233.531123,390.883226 L233.531123,43.1167799 C233.527582,23.721283 217.819462,8 198.443737,8 L198.443737,8 Z" id="Path" fill="#F4F4F4" fill-rule="nonzero"></path>
            <g id="Group" transform="translate(0.000000, 62.579255)" fill="#000000" fill-rule="nonzero" stroke="#000000">
                <polygon id="Path" points="241.08 0 245.319164 0 245.319164 54.0960106 241.08 54.0960106"></polygon>
                <polygon id="Path" points="241.08 66.324734 245.319164 66.324734 245.319164 120.420745 241.08 120.420745"></polygon>
                <polygon id="Path" points="0 27.0512234 4.23916449 27.0512234 4.23916449 81.147234 0 81.147234"></polygon>
            </g>
            <g id="Group-2" transform="translate(36.531123, 62.000000)">
                <polygon id="Path" fill="#E9E9E9" fill-rule="nonzero" points="0 21.2817503 172 21.2817503 172 282.345704 0 282.345704"></polygon>
                <ellipse id="Oval" fill="#000000" fill-rule="nonzero" cx="86" cy="128.075228" rx="62.9876304" ry="63.0245026"></ellipse>
                <ellipse id="Oval" fill="#FFFFFF" fill-rule="nonzero" cx="86" cy="123.285391" rx="62.9876304" ry="63.0245026"></ellipse>
                <g id="Group" transform="translate(0.000000, 21.281750)" stroke="#000000">
                    <polygon id="Path" points="0 0 172 0 172 261.71825 0 261.71825"></polygon>
                    <ellipse id="Oval" cx="86" cy="102.003641" rx="62.9876304" ry="63.0245026"></ellipse>
                    <line x1="51.3372578" y1="189.538581" x2="120.662742" y2="189.538581" id="Path"></line>
                    <line x1="51.3372578" y1="234.300908" x2="120.662742" y2="234.300908" id="Path"></line>
                    <line x1="51.3372578" y1="214.017743" x2="120.662742" y2="214.017743" id="Path"></line>
                </g>
                <path d="M97.528614,89.2820403 C98.2508404,92.5267318 98.6267671,95.8389729 98.6500745,99.1630819 C98.8391245,102.116032 98.8391245,105.078062 98.6500745,108.031012 C98.361699,110.877983 97.2338301,113.5903 94.5487332,114.943253 C91.4535022,116.501393 87.7751118,115.796062 85.0259314,113.859609 C84.6926975,113.622361 84.3850969,114.180213 84.7055142,114.417461 C89.5822653,117.841521 96.9390462,116.815585 98.8038748,110.570203 C99.7266766,107.492396 99.3614009,104.061924 99.3101341,100.894348 C99.3477023,96.9399656 98.9457801,92.9936606 98.1117735,89.1281499 C98.0156483,88.7305999 97.4004471,88.8973144 97.4709389,89.3012766 L97.528614,89.2820403 Z" id="Path" fill="#000000" fill-rule="nonzero"></path>
                <path d="M86.6792846,99.3041481 C86.4825402,99.4761578 86.380289,99.7322201 86.4044008,99.9925257 C86.4285126,100.252831 86.5760554,100.485729 86.8010432,100.618628 C86.8989508,100.667695 87.0129378,100.673423 87.1152658,100.634418 C87.2175938,100.595413 87.2988802,100.515252 87.3393443,100.413441 C87.4418778,100.156957 87.2368107,99.8812368 87.1278689,99.6632255 C86.9420268,99.297736 86.3909091,99.6183408 86.5703428,99.9902425 L86.6600596,100.163369 C86.6600596,100.272375 86.7113264,100.278787 86.7433681,100.163369 L86.9356185,100.015891 L86.8779434,100.015891 L87.1214605,100.047951 C86.9740686,99.9774183 87.038152,99.8107037 87.1214605,99.7401707 C87.4418778,99.4836868 86.9868852,99.03484 86.666468,99.2849118 L86.6792846,99.3041481 Z" id="Path" fill="#000000" fill-rule="nonzero"></path>
                <path d="M95.2985097,99.4772747 C95.1044013,99.6506906 95.0040443,99.9059771 95.0280596,100.165241 C95.0520749,100.424505 95.1976134,100.656988 95.4202683,100.791755 C95.5191122,100.840984 95.633972,100.846839 95.7373041,100.807915 C95.8406362,100.76899 95.9231206,100.688798 95.9649776,100.586567 C96.0611028,100.330084 95.8560358,100.054363 95.7470939,99.8363521 C95.5676602,99.4708626 95.0101341,99.7914674 95.1959762,100.163369 L95.2792846,100.336496 C95.3113264,100.445501 95.3369598,100.445501 95.3625931,100.336496 L95.5548435,100.189017 L95.4971684,100.189017 L95.7470939,100.221078 C95.5997019,100.144133 95.6637854,99.9838304 95.7470939,99.9132973 C96.0739195,99.6568134 95.618927,99.2079666 95.2921013,99.4580384 L95.2985097,99.4772747 Z" id="Path" fill="#000000" fill-rule="nonzero"></path>
                <path d="M78.9444113,102.696147 C77.2119407,102.32901 75.7727238,101.128961 75.0994039,99.4900989 C74.657228,98.2076795 75.1314456,96.790606 76.6630402,96.7200729 C77.787005,96.7599148 78.7715253,97.4853735 79.14307,98.5475206 C79.309687,98.9258343 79.8672131,98.5988174 79.6941878,98.2269157 C78.790611,96.2263414 75.4198212,94.9118615 74.4201192,97.585706 C73.4204173,100.259551 76.54769,102.715384 78.7970194,103.298885 C78.9739809,103.344921 79.1547351,103.238702 79.2007451,103.061637 C79.2467551,102.884572 79.1405979,102.703712 78.9636364,102.657675 L78.9444113,102.696147 Z" id="Path" fill="#000000" fill-rule="nonzero"></path>
                <path d="M76.3362146,98.5667569 C76.9321908,97.9960802 77.5730253,98.9194222 77.8357675,99.368269 C78.1055207,99.8357141 78.302184,100.341716 78.418927,100.8687 C78.418927,100.971293 78.5919523,100.926409 78.5727273,100.823815 C78.4125186,100.118484 77.3679583,97.3612826 76.2272727,98.4513391 C76.1503726,98.5218722 76.2657228,98.63729 76.3362146,98.5667569 L76.3362146,98.5667569 Z" id="Path" fill="#000000" fill-rule="nonzero"></path>
                <path d="M77.2974665,99.5926924 C77.4576751,99.2400271 77.8549925,99.5221594 78.0087928,99.7145223 C78.0728763,99.7978795 78.1818182,99.6824618 78.1241431,99.6055166 C77.899851,99.3233844 77.3615499,99.0540763 77.1628912,99.5157473 C77.1180328,99.6055166 77.2590164,99.6888739 77.2974665,99.5926924 L77.2974665,99.5926924 Z" id="Path" fill="#000000" fill-rule="nonzero"></path>
                <path d="M77.2205663,103.395066 C77.3935917,109.198014 77.6178838,115.000962 77.066766,120.797498 C77.0283159,121.207872 77.6691505,121.20146 77.7076006,120.797498 C78.2587183,115.02661 78.0344262,109.198014 77.8614009,103.395066 C77.8614009,103.218001 77.7179452,103.074461 77.5409836,103.074461 C77.364022,103.074461 77.2205663,103.218001 77.2205663,103.395066 Z" id="Path" fill="#000000" fill-rule="nonzero"></path>
                <path d="M93.581073,115.725529 C93.4785395,118.514791 93.414456,121.316877 93.5169896,124.112552 C93.5169896,124.522926 94.1578241,124.522926 94.1578241,124.112552 C94.0552906,121.316877 94.1193741,118.514791 94.2219076,115.725529 C94.2219076,115.548464 94.0784519,115.404924 93.9014903,115.404924 C93.7245287,115.404924 93.581073,115.548464 93.581073,115.725529 Z" id="Path" fill="#000000" fill-rule="nonzero"></path>
                <path d="M87.2752608,115.417748 C88.8888531,116.307752 90.5660031,117.077164 92.2929955,117.719691 C92.7967225,117.855118 93.2750588,118.071687 93.7092399,118.360901 C93.7861401,117.505954 93.8438152,116.633909 93.8822653,115.744765 C92.205537,116.311389 90.3976657,116.362754 88.6915052,115.892243 C88.2301043,115.738353 89.4797317,116.437272 87.4803279,115.526754" id="Path" fill="#000000" fill-rule="nonzero"></path>
                <path d="M87.0830104,115.712705 C88.1724292,116.276969 89.2682563,116.847646 90.3897168,117.334965 C91.4659281,117.690445 92.511741,118.132173 93.5169896,118.655857 C93.6167503,118.712056 93.738627,118.711927 93.8382689,118.655518 C93.9379108,118.599108 94.0007896,118.494643 94.0040238,118.380137 C94.080924,117.525191 94.1385991,116.653145 94.1770492,115.764001 C94.1744809,115.664057 94.1263618,115.570779 94.0464269,115.510793 C93.966492,115.450807 93.8635244,115.430703 93.7669151,115.456221 C92.7170449,115.769921 91.6263565,115.925516 90.5307004,115.917892 C89.8898659,115.917892 89.1849478,115.533166 88.55693,115.571638 C88.4568295,115.574704 88.3634145,115.622652 88.3025339,115.702216 C88.2416532,115.781781 88.2197632,115.884523 88.242921,115.982013 C88.242921,116.116667 88.3518629,116.360326 88.3134128,116.020485 L88.6338301,115.69988 C88.3518629,115.69988 87.871237,115.385688 87.6213115,115.27027 C87.2432191,115.103555 86.9163934,115.654996 87.2944858,115.82171 C87.7021006,116.081981 88.1573809,116.258533 88.6338301,116.34109 C88.8107917,116.34109 88.9542474,116.19755 88.9542474,116.020485 C88.9542474,115.949952 88.8260805,115.565226 88.8645306,115.808886 L88.55693,116.212848 C88.9058081,116.274173 89.2504221,116.3577 89.5886736,116.46292 C90.0587741,116.540013 90.5351342,116.572218 91.0113264,116.559101 C92.0026751,116.511163 92.9852787,116.34981 93.9399404,116.078194 L93.5362146,115.764001 C93.4977645,116.618948 93.4400894,117.490993 93.3631893,118.380137 L93.8438152,118.098005 C92.8373678,117.578651 91.7917325,117.139142 90.7165425,116.783525 C89.5886736,116.296205 88.4992548,115.725529 87.4098361,115.161264 C87.0445604,114.968901 86.7177347,115.526754 87.0830104,115.712705 L87.0830104,115.712705 Z" id="Path" fill="#000000" fill-rule="nonzero"></path>
                <path d="M91.2292101,99.2592634 C91.5164111,100.723293 91.6665889,102.210923 91.6777943,103.702847 C91.6777943,103.879912 91.82125,104.023452 91.9982116,104.023452 C92.1751732,104.023452 92.3186289,103.879912 92.3186289,103.702847 C92.308413,102.154435 92.1496116,100.610583 91.8444113,99.0925489 C91.7675112,98.6885867 91.15231,98.8553013 91.2035768,99.2592634 L91.2292101,99.2592634 Z" id="Path" fill="#000000" fill-rule="nonzero"></path>
                <path d="M85.4873323,96.8867874 C86.0447972,96.7291582 86.6382616,96.7561496 87.1791356,96.9637326 C87.5700447,97.1047987 87.7366617,96.4892374 87.352161,96.3225229 C86.6985539,96.0796046 85.9843519,96.0526378 85.314307,96.2455777 C85.1373454,96.2933853 85.0326228,96.4756807 85.0804024,96.6527459 C85.128182,96.8298111 85.3103708,96.934595 85.4873323,96.8867874 L85.4873323,96.8867874 Z" id="Path" fill="#000000" fill-rule="nonzero"></path>
                <path d="M94.7538003,97.3035738 C95.2569873,97.0098744 95.8405627,96.8841077 96.4199702,96.9444963 C96.8301043,96.989381 96.823696,96.3481713 96.4199702,96.3032866 C95.7268984,96.2373706 95.0308986,96.3946239 94.433383,96.7521334 C94.3004989,96.8488308 94.2622521,97.0304328 94.3448375,97.1725628 C94.4274228,97.3146927 94.604072,97.3712822 94.7538003,97.3035738 L94.7538003,97.3035738 Z" id="Path" fill="#000000" fill-rule="nonzero"></path>
                <path d="M98.4129657,93.3408977 C98.4129657,93.3408977 99.3934426,106.947368 97.2146051,105.523882 C95.0357675,104.100397 91.0561848,102.279361 86.3845007,105.421289 C81.7128167,108.563216 80.514456,93.2383042 80.514456,93.2383042 L76.0734724,96.2968745 L77.7140089,96.6046552 C77.7140089,96.6046552 79.3801788,96.8931995 80.2773472,104.754431 C81.1745156,112.615662 80.9822653,118.861044 90.7870343,119.592023 C100.034277,120.297354 101.751714,114.462346 100.553353,106.864011 C99.3549925,99.2656755 99.4062593,95.604368 99.066617,92.4432041" id="Path" fill="#000000" fill-rule="nonzero"></path>
                <path d="M76.1375559,119.726677 C77.5922504,122.246632 80.2901639,123.541875 82.8919523,124.587047 C84.4363636,125.228257 87.223994,125.433444 88.0186289,126.940287 C88.6868211,128.361958 89.2397194,129.835072 89.6719821,131.345397 C89.800149,131.736535 90.4153502,131.569821 90.3128167,131.172271 C89.8257824,129.678252 89.1657228,128.248354 88.6530551,126.76716 C88.2621461,125.638631 87.9673621,125.484741 86.8010432,125.183372 C83.257228,124.234382 78.6752608,122.785248 76.7207154,119.412485 C76.6289642,119.263616 76.4348988,119.215795 76.28455,119.305008 C76.1342011,119.39422 76.0830547,119.587542 76.1695976,119.739502 L76.1375559,119.726677 Z" id="Path" fill="#000000" fill-rule="nonzero"></path>
                <path d="M95.2344262,122.349225 C94.5130322,123.182979 93.6679636,123.900951 92.728763,124.478041 C92.2289121,124.77941 91.504769,124.971773 91.1459016,125.45268 C90.6909091,126.09389 90.6268256,127.126237 90.4602086,127.831568 L89.6591654,131.172271 C89.5630402,131.576233 90.1846498,131.742947 90.3,131.345397 L90.9408346,128.556135 C91.1907601,127.504551 91.2612519,126.183659 92.190462,125.484741 C93.4336811,124.561399 94.619225,123.997134 95.6766021,122.804484 C95.952161,122.496703 95.4971684,122.041444 95.2280179,122.349225 L95.2344262,122.349225 Z" id="Path" fill="#000000" fill-rule="nonzero"></path>
                <path d="M89.9859911,131.332573 C90.819076,132.345685 91.4727273,133.628104 92.2160954,134.724573 C92.85693,135.660739 93.4977645,136.596905 94.100149,137.571544 C94.3230572,137.937039 94.2814586,138.405297 93.9976155,138.725721 C93.2222057,139.572118 92.3506706,139.873487 92.1327869,140.905834 C91.9472479,142.156005 91.9928636,143.429648 92.2673621,144.663323 C93.9121709,155.029547 95.5569796,165.400045 97.2017884,175.774818 C97.3234055,176.302232 97.3234055,176.850429 97.2017884,177.377843 C97.0296798,177.836708 96.765831,178.255623 96.4263785,178.608965 L92.2865872,183.57834 L87.9994039,178.076761 C87.4989501,177.50313 87.0923354,176.853897 86.7946349,176.153132 C86.3652757,174.998955 86.5511177,173.716535 86.7241431,172.491825 C88.1980626,162.200409 88.7043219,151.787163 89.2169896,141.399566 C89.258433,141.120717 89.2113625,140.835886 89.0824143,140.585229 C88.3129022,139.660659 87.4845006,138.786794 86.6023845,137.969094 C86,137.404829 87.1791356,136.167294 87.4546945,135.679975 C88.3005961,134.218017 89.1336811,132.768883 89.9859911,131.332573 L89.9859911,131.332573 Z" id="Path" fill="#000000" fill-rule="nonzero"></path>
                <path d="M89.761699,131.556997 C90.8062593,132.903537 91.6329359,134.416792 92.5813711,135.821041 C93.2222057,136.79568 94.1257824,137.74467 93.2670641,138.975793 C92.9081967,139.501585 92.2865872,139.738832 91.9853949,140.34157 C91.5111773,141.303384 91.671386,142.611452 91.7931446,143.630975 C92.0110283,145.458423 92.357079,147.279459 92.6454545,149.100494 C93.8630402,156.795011 95.082762,164.470291 96.30462,172.126335 L96.7467958,174.922009 C96.8877794,175.794055 97.1441133,176.845639 96.7467958,177.659975 C96.4886571,178.084464 96.18573,178.480004 95.8432191,178.839801 C95.285693,179.519483 94.7089419,180.192753 94.1450075,180.866023 C93.74769,181.346931 92.7800298,182.943543 92.1391952,182.853773 C91.7739195,182.802477 90.8575261,181.186628 90.5819672,180.853199 L88.8260805,178.602553 C88.2315324,177.925969 87.7095973,177.188814 87.2688525,176.403204 C86.6921013,175.19773 86.8843517,173.838365 87.0509687,172.555946 C88.057079,165.098677 88.6850969,157.615759 89.1080477,150.113606 C89.2298063,147.933493 89.3387481,145.75338 89.44769,143.566854 C89.5117735,142.335732 89.8514158,141.059724 89.076006,140.033789 C88.3005961,139.007853 86.3204173,137.969094 87.2752608,136.513548 C88.3454545,134.884875 89.2682563,133.166433 90.2679583,131.486463 C90.4794337,131.133798 89.9219076,130.813193 89.7104322,131.165859 C88.9670641,132.448278 88.242921,133.692225 87.5059613,134.96182 C87.0077864,135.61476 86.5782881,136.317401 86.2242921,137.058576 C85.8718331,138.225578 87.1791356,138.93732 87.890462,139.693948 C88.8324888,140.700647 88.8901639,141.56628 88.8260805,142.944881 C88.761997,144.323482 88.6915052,145.644374 88.6210134,146.997326 C88.4736215,149.805825 88.3198212,152.607911 88.1275708,155.409998 C87.74307,161.097528 87.185544,166.752998 86.4229508,172.395643 C86.1730253,174.261563 86.0833085,175.890236 87.1727273,177.525321 C88.6594635,179.711846 90.4409836,181.744481 92.0622951,183.822 C92.1224587,183.882695 92.2043561,183.916835 92.2897914,183.916835 C92.3752266,183.916835 92.457124,183.882695 92.5172876,183.822 C93.9912072,182.058673 95.7214605,180.327407 97.0031297,178.41019 C98.1438152,176.69816 97.2915052,174.473163 97.0031297,172.594418 C96.1486836,167.203982 95.2942375,161.811408 94.4397914,156.416697 L93.1581222,148.331043 C92.7736215,145.90727 91.318927,141.822764 93.228614,139.860662 C94.5551416,138.488474 94.8947839,138.212753 93.7605067,136.462251 C92.6262295,134.711748 91.5111773,132.800943 90.2102832,131.127386 C89.9603577,130.806781 89.5117735,131.236392 89.761699,131.556997 L89.761699,131.556997 Z" id="Path" fill="#000000" fill-rule="nonzero"></path>
                <path d="M99.0153502,134.654039 C98.0605067,135.788981 95.657377,138.38588 94.0424739,137.250939 C93.7092399,137.013691 93.4016393,137.571544 93.7220566,137.808791 C95.7086438,139.200216 98.2847988,136.526372 99.4895678,135.109298 C99.75231,134.795106 99.3037258,134.339847 99.0345753,134.654039 L99.0153502,134.654039 Z" id="Path" fill="#000000" fill-rule="nonzero"></path>
                <path d="M88.1916542,133.762758 C87.5508197,135.128535 86.666468,136.846977 85.2566319,137.507423 C84.4235469,137.898561 83.8660209,137.443302 83.0970194,137.032927 C82.6356185,136.789268 82.1806259,136.539196 81.7256334,136.289124 C79.2776453,134.96182 76.54769,133.724285 74.4777943,131.800656 C74.1701937,131.524936 73.7152012,131.980195 74.0228018,132.255915 C76.4707899,134.500149 79.7454545,135.962107 82.6548435,137.513835 C83.7634873,138.103748 84.795231,138.892436 85.9423249,138.02039 C87.0894188,137.148345 88.0891207,135.455552 88.7491803,134.076951 C88.928614,133.705049 88.3774963,133.378032 88.1916542,133.749934 L88.1916542,133.762758 Z" id="Path" fill="#000000" fill-rule="nonzero"></path>
                <path d="M101.174963,133.0959 C100.707154,130.127099 100.848137,127.087765 100.322653,124.118964 C100.130402,123.022495 99.8740686,121.829845 98.9704918,121.098866 C97.6183308,120.00881 95.5228018,119.540727 93.8438152,119.239358 C93.4400894,119.168825 93.2670641,119.784386 93.6707899,119.880568 C95.4074516,120.19476 97.5606557,120.637195 98.7269747,122.02862 C99.7074516,123.195622 99.7907601,124.792234 99.9317437,126.279841 C100.149627,128.607432 100.168852,130.967084 100.534128,133.275439 C100.598212,133.685813 101.213413,133.512686 101.174963,133.108724 L101.174963,133.0959 Z" id="Path" fill="#000000" fill-rule="nonzero"></path>
                <path d="M70.3700447,127.305776 C64.8396423,126.773572 58.9631893,126.414495 53.4327869,127.190358 C51.4884719,127.356142 49.6687101,128.216483 48.3061103,129.614131 C46.6912072,131.38387 45.6594635,133.788406 44.7302534,135.955695 C42.7308495,140.630114 41.3594635,145.573841 39.8470939,150.408562 L35.9187779,162.96986 C35.7970194,163.360998 36.4122206,163.527713 36.5596125,163.136575 C39.1229508,154.877794 41.4107303,146.420238 44.4803279,138.334583 C45.3309681,135.982843 46.4038857,133.717662 47.6845007,131.569821 C49.2801788,129.004982 51.5295082,127.985458 54.4645306,127.722562 C59.7618478,127.303542 65.0866422,127.378674 70.3700447,127.946986 C70.7801788,127.991871 70.7737705,127.350661 70.3700447,127.305776 Z" id="Path" fill="#000000" fill-rule="nonzero"></path>
                <path d="M89.6847988,105.998377 C90.3942981,106.705375 91.2315367,107.271114 92.1520119,107.665523 C92.523696,107.825825 92.8505216,107.274385 92.4724292,107.10767 C91.6007703,106.742576 90.808486,106.211173 90.1397914,105.543119 C90.0141486,105.417402 89.8104415,105.417402 89.6847988,105.543119 C89.5591561,105.668835 89.5591561,105.872661 89.6847988,105.998377 L89.6847988,105.998377 Z" id="Path" fill="#000000" fill-rule="nonzero"></path>
                <path d="M77.6627422,117.341377 C77.6627422,117.341377 72.7283159,117.514504 71.8247392,119.951101 C70.9211624,122.387698 70.3828614,130.018093 70.3828614,130.018093" id="Path" stroke="#000000"></path>
                <path d="M100.546945,129.986033 C100.546945,129.986033 117.791803,128.363772 120.598659,131.268452 C129.365276,140.309509 135.632638,165.156385 135.632638,165.156385" id="Path" stroke="#000000"></path>
                <path d="M89.9411326,106.395927 C90.6290265,106.249628 91.3433435,106.473287 91.8251863,106.98584 C92.1135618,107.287209 92.5621461,106.83195 92.2801788,106.536994 C91.634746,105.859204 90.6802235,105.571706 89.7681073,105.780366 C89.3643815,105.863723 89.5374069,106.479285 89.9411326,106.421576 L89.9411326,106.395927 Z" id="Path" fill="#FFFFFF" fill-rule="nonzero"></path>
                <path d="M79.3801788,95.5915438 C80.9514629,94.0110417 81.8925101,91.9112552 82.0268256,89.6860024 C82.0268256,89.6860024 102.591207,92.3341985 100.502086,85.2808917 C98.5026826,78.4776566 82.0588674,82.267206 78.8354694,85.8130957 C78.5759843,86.1145084 78.2812211,86.3836104 77.9575261,86.6146079 C76.3874814,87.6854281 71.9529061,91.3018509 72.9461997,97.3420463 C73.667001,101.732293 75.4245829,105.887011 78.0728763,109.46091 C78.0728763,109.46091 78.0280179,102.779505 77.7588674,102.516609 C77.4897168,102.253713 73.9138599,100.689161 74.6700447,97.8678383 C75.4262295,95.0465156 78.5150522,97.1368592 78.5150522,97.1368592 L79.3801788,95.5915438 Z" id="Path" fill="#000000" fill-rule="nonzero"></path>
                <path d="M99.0409836,87.8970273 C99.1307004,87.9996208 100.591803,91.5839831 99.8932936,94.6169051 C99.4707611,96.261652 99.3577601,97.9707048 99.5600596,99.6568134 L98.8871833,96.1109237 C98.8871833,96.1109237 98.2912072,89.2884524 97.6055142,88.4869402" id="Path" fill="#000000" fill-rule="nonzero"></path>
                <path d="M54.6311475,155.480531 C55.4087045,159.948747 55.9095102,164.460778 56.1307004,168.99082 C56.252459,173.165095 55.880775,177.326546 55.6628912,181.513645 C55.6628912,181.930432 56.3037258,181.930432 56.3037258,181.513645 C56.5280179,177.147007 56.9445604,172.748308 56.75231,168.375258 C56.4964174,163.995938 55.9893228,159.634941 55.233532,155.313816 C55.1758569,154.903442 54.5542474,155.076569 54.5926975,155.480531 L54.6311475,155.480531 Z" id="Path" fill="#000000" fill-rule="nonzero"></path>
                <path d="M117.708495,154.916266 L116.753651,167.605807 L116.298659,173.63959 L116.06155,176.813578 C116.06155,177.179068 115.914158,180.79549 116.003875,180.744194 C116.362742,180.551831 116.042325,180.00039 115.677049,180.192753 L115.587332,180.24405 C115.463137,180.316999 115.402841,180.463893 115.43994,180.603127 C115.447173,180.785699 115.567404,180.944394 115.741133,181.000677 C115.86626,181.071965 116.023544,181.050981 116.125633,180.949381 C116.503726,180.590303 116.452459,180.186341 116.490909,179.666961 C116.574218,178.608965 116.651118,177.550969 116.728018,176.492973 L117.272727,169.196007 L118.342921,154.916266 C118.342921,154.505892 117.702086,154.505892 117.702086,154.916266 L117.708495,154.916266 Z" id="Path" fill="#000000" fill-rule="nonzero"></path>
                <path d="M109.217437,79.3432897 C107.474367,80.5231156 105.778291,81.7756119 104.12921,83.1007786 C104.045902,83.1648996 104.161252,83.2803174 104.24456,83.2161964 C105.876552,81.8995791 107.561947,80.6534949 109.300745,79.4779438 C109.384054,79.4202349 109.300745,79.2855809 109.217437,79.3432897 Z" id="Path" fill="#000000" fill-rule="nonzero"></path>
                <path d="M107.480775,91.0517791 C108.74436,90.232296 110.158061,89.6721513 111.639791,89.4038701 C111.742325,89.4038701 111.697466,89.2307435 111.601341,89.2499798 C110.104311,89.5207653 108.675599,90.0851753 107.397466,90.9107129 C107.30775,90.9684218 107.397466,91.1094879 107.480775,91.0517791 L107.480775,91.0517791 Z" id="Path" fill="#000000" fill-rule="nonzero"></path>
                <path d="M102.418182,73.8609467 L99.8548435,77.7851501 C99.7971684,77.8685074 99.938152,77.9518647 99.9958271,77.8620953 L102.559165,73.9378919 C102.616841,73.8545346 102.475857,73.7711773 102.418182,73.8609467 Z" id="Path" fill="#000000" fill-rule="nonzero"></path>
                <path d="M93.1517139,73.2389733 C93.2547301,74.1409944 93.2027125,75.054003 92.9979136,75.9384662 C92.9979136,76.0410597 93.1324888,76.0859444 93.1517139,75.9833508 C93.3617876,75.0844877 93.4159786,74.1561958 93.3119225,73.2389733 C93.3119225,73.1363797 93.1388972,73.1363797 93.1517139,73.2389733 Z" id="Path" fill="#000000" fill-rule="nonzero"></path>
                <ellipse id="Oval" fill="#8F8FEF" fill-rule="nonzero" cx="86" cy="21.2817503" rx="21.2692996" ry="21.2817503"></ellipse>
                <polyline id="Path" stroke="#FFFFFF" stroke-width="5" points="77.8549925 22.115323 82.7253353 26.9885168 94.1385991 15.5685718"></polyline>
            </g>
        </g>
        <path id="Line" d="M421.5,235 L440.5,244.5 L421.5,254 L421.5,246 L323.5,246 L323.5,243 L421.5,243 L421.5,235 Z" fill="#979797" fill-rule="nonzero"></path>
    </g>
</svg>