<?xml version="1.0" encoding="UTF-8"?>
<svg width="700px" height="489px" viewBox="0 0 700 489" version="1.1" xmlns="http://www.w3.org/2000/svg" xmlns:xlink="http://www.w3.org/1999/xlink">
    <title>stay-fair-play-fair</title>
    <g id="stay-fair-play-fair" stroke="none" stroke-width="1" fill="none" fill-rule="evenodd">
        <g id="Group-3" transform="translate(268.000000, 87.000000)">
            <rect id="Rectangle" fill="#CCCCCC" fill-rule="nonzero" x="3" y="0" width="158" height="290" rx="40"></rect>
            <rect id="Rectangle" stroke="#000000" x="3" y="0" width="158" height="290" rx="40"></rect>
            <path d="M132.450358,5 L115.83265,5 C114.032265,5 112.395049,6.03851086 111.637346,7.66432659 L111.06076,8.89368451 C110.301381,10.5180407 108.665217,11.5571236 106.865456,11.5580073 L56.1345443,11.5580073 C54.3347827,11.5571236 52.6986187,10.5180407 51.9392399,8.89368451 L51.3626545,7.66432659 C50.6057918,6.03777873 48.9680476,5 47.1673501,5 L30.5496419,5 C17.545214,5 7.00237611,15.4933923 7,28.4391904 L7,260.560813 C7.00237611,273.506612 17.545214,284 30.5496419,284 L132.450358,284 C145.454786,284 155.997624,273.506612 156,260.560813 L156,28.4391904 C155.997624,15.4933923 145.454786,5 132.450358,5 L132.450358,5 Z" id="Path" fill="#F4F4F4" fill-rule="nonzero"></path>
            <g id="Group" transform="translate(0.000000, 42.000000)" fill="#000000" fill-rule="nonzero" stroke="#000000">
                <polygon id="Path" points="161.166047 0 164 0 164 35.9380011 161.166047 35.9380011"></polygon>
                <polygon id="Path" points="161.166047 44.0619989 164 44.0619989 164 80 161.166047 80"></polygon>
                <polygon id="Path" points="0 17.9711384 2.83395298 17.9711384 2.83395298 53.9091395 0 53.9091395"></polygon>
            </g>
            <g id="Group-2" transform="translate(25.000000, 42.000000)">
                <polygon id="Path" fill="#E9E9E9" fill-rule="nonzero" points="0 14.2129004 115 14.2129004 115 188.563032 0 188.563032"></polygon>
                <ellipse id="Oval" fill="#000000" fill-rule="nonzero" cx="57.5" cy="85.5343394" rx="42.1138227" ry="42.0905689"></ellipse>
                <ellipse id="Oval" fill="#FFFFFF" fill-rule="nonzero" cx="57.5" cy="82.3354733" rx="42.1138227" ry="42.0905689"></ellipse>
                <g id="Group" transform="translate(0.000000, 14.212900)" stroke="#000000">
                    <polygon id="Path" points="0 0 115 0 115 174.7871 0 174.7871"></polygon>
                    <ellipse id="Oval" cx="57.5" cy="68.1225729" rx="42.1138227" ry="42.0905689"></ellipse>
                    <line x1="34.3243294" y1="126.582303" x2="80.6756706" y2="126.582303" id="Path"></line>
                    <line x1="34.3243294" y1="156.476578" x2="80.6756706" y2="156.476578" id="Path"></line>
                    <line x1="34.3243294" y1="142.930578" x2="80.6756706" y2="142.930578" id="Path"></line>
                </g>
                <path d="M65.2080849,59.6265216 C65.6909689,61.7934711 65.9423152,64.0055331 65.9578987,66.2255211 C66.0842983,68.197633 66.0842983,70.175808 65.9578987,72.1479198 C65.7650894,74.0492539 65.0109911,75.86066 63.2157228,76.7642219 C61.146237,77.8048169 58.686848,77.3337657 56.8487332,76.0405159 C56.6259314,75.8820714 56.4202683,76.2546301 56.6345007,76.4130746 C59.8951192,78.6998143 64.8138972,78.0146488 66.0607303,73.8437043 C66.6777198,71.788208 66.4334948,69.4971861 66.3992176,67.3817378 C66.4243359,64.7408251 66.1556088,62.1053069 65.5979881,59.5237468 C65.5337183,59.2582452 65.122392,59.3695846 65.1695231,59.6393684 L65.2080849,59.6265216 Z" id="Path" fill="#000000" fill-rule="nonzero"></path>
                <path d="M57.9541729,66.3197314 C57.8226286,66.4346071 57.754263,66.605617 57.7703843,66.7794607 C57.7865055,66.9533043 57.8851533,67.1088434 58.0355812,67.1975996 C58.1010427,67.2303686 58.1772549,67.234194 58.2456719,67.2081447 C58.3140889,67.1820955 58.3684374,67.1285602 58.3954918,67.0605665 C58.4640462,66.8892752 58.3269374,66.7051369 58.2540984,66.5595393 C58.1298435,66.3154491 57.7613636,66.5295633 57.8813338,66.7779358 L57.9413189,66.8935574 C57.9413189,66.9663563 57.9755961,66.9706385 57.9970194,66.8935574 L58.1255589,66.7950649 L58.086997,66.7950649 L58.2498137,66.8164763 C58.1512668,66.7693712 58.1941133,66.6580318 58.2498137,66.6109267 C58.4640462,66.4396353 58.1598361,66.1398755 57.9456036,66.3068845 L57.9541729,66.3197314 Z" id="Path" fill="#000000" fill-rule="nonzero"></path>
                <path d="M63.7170268,66.4353531 C63.5872451,66.5511679 63.5201459,66.7216596 63.5362027,66.8948077 C63.5522594,67.0679558 63.6495671,67.2232182 63.7984352,67.3132213 C63.8645227,67.346099 63.9413185,67.3500091 64.0104068,67.3240137 C64.0794951,67.2980183 64.1346446,67.2444622 64.1626304,67.1761882 C64.2269001,67.0048968 64.0897914,66.8207586 64.0169523,66.675161 C63.8969821,66.4310708 63.5242176,66.645185 63.6484724,66.8935574 L63.7041729,67.0091791 C63.7255961,67.0819779 63.7427347,67.0819779 63.7598733,67.0091791 L63.8884128,66.9106866 L63.849851,66.9106866 L64.0169523,66.932098 C63.9184054,66.8807106 63.9612519,66.7736535 64.0169523,66.7265484 C64.2354694,66.555257 63.9312593,66.2554971 63.7127422,66.4225062 L63.7170268,66.4353531 Z" id="Path" fill="#000000" fill-rule="nonzero"></path>
                <path d="M52.7826006,68.5850596 C51.6242627,68.3398691 50.6619956,67.5384226 50.2118107,66.4439176 C49.9161699,65.5874608 50.233234,64.6410761 51.2572653,64.593971 C52.0087533,64.6205791 52.6670082,65.1050728 52.9154247,65.8144219 C53.0268256,66.0670766 53.3995902,65.8486802 53.2839046,65.6003077 C52.679769,64.2642351 50.4260432,63.3863669 49.7576379,65.1720793 C49.0892325,66.9577917 51.1801416,68.5979064 52.6840537,68.9875943 C52.802371,69.0183398 52.923224,68.9474018 52.9539865,68.8291498 C52.984749,68.7108978 52.9137719,68.5901114 52.7954545,68.5593659 L52.7826006,68.5850596 Z" id="Path" fill="#000000" fill-rule="nonzero"></path>
                <path d="M51.0387481,65.8272687 C51.4372206,65.4461455 51.8656855,66.0627944 52.0413562,66.3625542 C52.2217144,66.6747349 52.3532044,67.0126654 52.4312593,67.3646087 C52.4312593,67.4331252 52.5469449,67.4031492 52.5340909,67.3346327 C52.4269747,66.8635814 51.7285768,65.0221994 50.9659091,65.7501876 C50.9144933,65.7972927 50.991617,65.8743739 51.0387481,65.8272687 L51.0387481,65.8272687 Z" id="Path" fill="#000000" fill-rule="nonzero"></path>
                <path d="M51.6814456,66.5124342 C51.7885618,66.2769085 52.0542101,66.465329 52.1570417,66.5937976 C52.1998882,66.6494673 52.2727273,66.5723861 52.2341654,66.5209987 C52.0842027,66.3325782 51.7242921,66.1527223 51.591468,66.4610468 C51.5614754,66.5209987 51.6557377,66.5766684 51.6814456,66.5124342 L51.6814456,66.5124342 Z" id="Path" fill="#000000" fill-rule="nonzero"></path>
                <path d="M51.6300298,69.0518285 C51.7457154,72.9272955 51.8956781,76.8027625 51.5271982,80.6739472 C51.5014903,80.9480133 51.9299553,80.943731 51.9556632,80.6739472 C52.3241431,76.8198916 52.1741803,72.9272955 52.0584948,69.0518285 C52.0584948,68.9335765 51.9625796,68.8377143 51.8442623,68.8377143 C51.725945,68.8377143 51.6300298,68.9335765 51.6300298,69.0518285 Z" id="Path" fill="#000000" fill-rule="nonzero"></path>
                <path d="M62.5687407,77.2866606 C62.5001863,79.1494541 62.4573398,81.0208122 62.5258942,82.887888 C62.5258942,83.1619541 62.9543592,83.1619541 62.9543592,82.887888 C62.8858048,81.0208122 62.9286513,79.1494541 62.9972057,77.2866606 C62.9972057,77.1684086 62.9012905,77.0725464 62.7829732,77.0725464 C62.6646558,77.0725464 62.5687407,77.1684086 62.5687407,77.2866606 Z" id="Path" fill="#000000" fill-rule="nonzero"></path>
                <path d="M58.3526453,77.0811109 C59.4315006,77.6754953 60.5528509,78.1893427 61.7075261,78.6184509 C62.0443203,78.7088954 62.3641382,78.8535295 62.6544337,79.0466793 C62.7058495,78.4757081 62.7444113,77.8933175 62.7701192,77.2995074 C61.6490509,77.6779242 60.4402998,77.7122278 59.2995529,77.3979999 C58.9910581,77.2952251 59.8265648,77.7619941 58.4897541,77.1539098" id="Path" fill="#000000" fill-rule="nonzero"></path>
                <path d="M58.2241058,77.278096 C58.9524963,77.654937 59.6851714,78.0360603 60.4349851,78.3615138 C61.1545449,78.598919 61.8537803,78.893925 62.5258942,79.2436643 C62.5925947,79.2811963 62.674082,79.2811103 62.740703,79.2434376 C62.8073241,79.2057649 62.8493651,79.1359985 62.8515276,79.0595261 C62.9029434,78.4885549 62.9415052,77.9061643 62.9672131,77.3123543 C62.965496,77.2456071 62.9333233,77.1833121 62.8798785,77.1432506 C62.8264336,77.1031891 62.757589,77.089763 62.6929955,77.1068046 C61.9910475,77.3163079 61.2618081,77.4202212 60.5292474,77.4151291 C60.1007824,77.4151291 59.6294709,77.158192 59.2095753,77.1838857 C59.1426476,77.1859329 59.0801899,77.2179551 59.0394848,77.2710915 C58.9987798,77.324228 58.984144,77.3928437 58.9996274,77.4579519 C58.9996274,77.5478799 59.0724665,77.7106067 59.0467586,77.4836456 L59.2609911,77.2695314 C59.0724665,77.2695314 58.7511177,77.0596995 58.5840164,76.9826184 C58.3312221,76.871279 58.1127049,77.2395554 58.3654993,77.3508948 C58.6380324,77.5247154 58.9424349,77.6426244 59.2609911,77.6977598 C59.3793084,77.6977598 59.4752235,77.6018976 59.4752235,77.4836456 C59.4752235,77.4365405 59.3895306,77.1796035 59.4152385,77.3423303 L59.2095753,77.6121141 C59.4428368,77.6530698 59.6732473,77.7088528 59.8994039,77.7791232 C60.2137152,77.8306095 60.5322118,77.8521176 60.8505961,77.8433575 C61.5134165,77.811342 62.1703898,77.7035831 62.8086811,77.5221862 L62.5387481,77.3123543 C62.5130402,77.8833255 62.4744784,78.4657161 62.4230626,79.0595261 L62.7444113,78.8711056 C62.0714959,78.5242583 61.3723793,78.2307341 60.6535022,77.9932374 C59.8994039,77.6677838 59.1710134,77.2866606 58.442623,76.9098196 C58.1983979,76.7813511 57.9798808,77.1539098 58.2241058,77.278096 L58.2241058,77.278096 Z" id="Path" fill="#000000" fill-rule="nonzero"></path>
                <path d="M60.9962742,66.2897554 C61.1882981,67.2674992 61.2887077,68.261005 61.2961997,69.2573782 C61.2961997,69.3756302 61.3921149,69.4714924 61.5104322,69.4714924 C61.6287495,69.4714924 61.7246647,69.3756302 61.7246647,69.2573782 C61.7178343,68.2232799 61.6116589,67.1922267 61.4076006,66.178416 C61.3561848,65.9086321 60.9448584,66.0199715 60.9791356,66.2897554 L60.9962742,66.2897554 Z" id="Path" fill="#000000" fill-rule="nonzero"></path>
                <path d="M57.157228,64.7053103 C57.5299516,64.6000385 57.9267447,64.6180646 58.2883756,64.7566978 C58.5497392,64.850908 58.6611401,64.4398087 58.4040611,64.3284694 C57.9670564,64.1662377 57.4895376,64.1482281 57.0415425,64.2770819 C56.9232251,64.30901 56.8532071,64.430755 56.8851528,64.549007 C56.9170984,64.667259 57.0389107,64.7372384 57.157228,64.7053103 L57.157228,64.7053103 Z" id="Path" fill="#000000" fill-rule="nonzero"></path>
                <path d="M63.3528316,64.9836588 C63.6892647,64.7875133 64.079446,64.7035207 64.4668405,64.7438509 C64.7410581,64.7738269 64.7367735,64.3455985 64.4668405,64.3156225 C64.0034495,64.2716009 63.5381008,64.3766216 63.1385991,64.6153824 C63.0497521,64.6799612 63.0241802,64.8012431 63.0793972,64.8961638 C63.1346141,64.9910845 63.2527225,65.0288775 63.3528316,64.9836588 L63.3528316,64.9836588 Z" id="Path" fill="#000000" fill-rule="nonzero"></path>
                <path d="M65.7993666,62.3372073 C65.7993666,62.3372073 66.454918,71.4242138 64.9981371,70.4735468 C63.5413562,69.5228798 60.8805887,68.3067111 57.757079,70.4050303 C54.6335693,72.5033494 53.8323398,62.2686908 53.8323398,62.2686908 L50.8630775,64.3113402 L51.9599478,64.5168898 C51.9599478,64.5168898 53.0739568,64.7095926 53.6738077,69.9596727 C54.2736587,75.2097528 54.1451192,79.3806974 60.7006334,79.8688778 C66.883383,80.339929 68.0316692,76.4430506 67.2304396,71.3685442 C66.4292101,66.2940377 66.4634873,63.8488536 66.2364009,61.7376876" id="Path" fill="#000000" fill-rule="nonzero"></path>
                <path d="M50.905924,79.9588057 C51.8785395,81.6417433 53.682377,82.5067647 55.4219449,83.204777 C56.4545455,83.6330054 58.3183681,83.7700384 58.8496647,84.7763752 C59.2964211,85.7258304 59.6660915,86.7096417 59.9551043,87.7183042 C60.0407973,87.9795236 60.4521237,87.8681842 60.3835693,87.6026826 C60.0579359,86.6049104 59.616617,85.6499611 59.273845,84.6607535 C59.0124814,83.9070715 58.8153875,83.8042967 58.0355812,83.6030294 C55.6661699,82.9692514 52.6026453,82.0014552 51.2958271,79.7489738 C51.2344819,79.6495524 51.1047289,79.617616 51.0042049,79.6771961 C50.903681,79.7367762 50.8694843,79.865885 50.9273472,79.9673703 L50.905924,79.9588057 Z" id="Path" fill="#000000" fill-rule="nonzero"></path>
                <path d="M63.6741803,81.7102599 C63.1918529,82.2670778 62.6268361,82.7465714 61.9988823,83.1319781 C61.6646796,83.3332455 61.1805142,83.461714 60.9405738,83.7828853 C60.6363636,84.2111137 60.5935171,84.9005614 60.4821162,85.3716126 L59.946535,87.6026826 C59.8822653,87.8724665 60.2978763,87.9838058 60.375,87.7183042 L60.803465,85.8555107 C60.9705663,85.1532162 61.0176975,84.2710657 61.6389717,83.8042967 C62.4701937,83.1876478 63.2628539,82.8108068 63.9698212,82.014302 C64.1540611,81.8087524 63.849851,81.5047102 63.6698957,81.7102599 L63.6741803,81.7102599 Z" id="Path" fill="#000000" fill-rule="nonzero"></path>
                <path d="M60.1650522,87.7097397 C60.7220566,88.3863405 61.1590909,89.2427973 61.6561103,89.9750679 C62.0845753,90.6002813 62.5130402,91.2254948 62.9157973,91.8764019 C63.0648348,92.1204957 63.0370217,92.4332196 62.8472429,92.6472131 C62.3288003,93.2124745 61.7460879,93.4137419 61.6004098,94.1031896 C61.4763576,94.9381095 61.5068565,95.7887046 61.6903875,96.612608 C62.7901143,103.535634 63.889841,110.461514 64.9895678,117.39025 C65.0708816,117.74248 65.0708816,118.108591 64.9895678,118.460821 C64.8744952,118.767272 64.6980847,119.047041 64.4711252,119.283019 L61.7032414,122.601789 L58.8368107,118.92759 C58.502205,118.544493 58.2303405,118.110906 58.0312966,117.642904 C57.744225,116.872093 57.8684799,116.015637 57.9841654,115.19772 C58.9696349,108.324655 59.3081222,101.370225 59.6508942,94.4329255 C59.6786035,94.246698 59.6471319,94.0564753 59.5609165,93.8890754 C59.0464172,93.2716059 58.492544,92.688 57.9027571,92.1419036 C57.5,91.7650626 58.2883756,90.9385818 58.4726155,90.6131282 C59.0381893,89.6367674 59.5951937,88.6689713 60.1650522,87.7097397 L60.1650522,87.7097397 Z" id="Path" fill="#000000" fill-rule="nonzero"></path>
                <path d="M60.0150894,87.8596196 C60.7134873,88.7588992 61.2662072,89.7695182 61.9003353,90.7073384 C62.3288003,91.3582456 62.9329359,91.9920236 62.3587928,92.8142221 C62.1188525,93.1653694 61.7032414,93.3238139 61.5018629,93.7263486 C61.1847988,94.3686912 61.2919151,95.2422771 61.3733234,95.9231603 C61.5190015,97.1436112 61.7503726,98.3597798 61.9431818,99.5759485 C62.7572653,104.714689 63.5727769,109.840583 64.3897168,114.95363 L64.6853577,116.820706 C64.77962,117.403097 64.951006,118.105391 64.6853577,118.649241 C64.512765,118.932734 64.3102265,119.196893 64.0812221,119.437181 C63.7084575,119.891103 63.322839,120.340743 62.9457899,120.790383 C62.6801416,121.111554 62.0331595,122.177843 61.6046945,122.117891 C61.3604694,122.083633 60.7477645,121.004497 60.5635246,120.781819 L59.3895306,119.278737 C58.992013,118.826884 58.6430447,118.334579 58.3483607,117.809913 C57.9627422,117.004844 58.0912817,116.097 58.2026826,115.240543 C58.8753726,110.260247 59.2952683,105.262822 59.5780551,100.252549 C59.6594635,98.7965728 59.7323025,97.3405963 59.8051416,95.8803374 C59.8479881,95.0581389 60.0750745,94.2059644 59.5566319,93.520799 C59.0381893,92.8356335 57.7142325,92.1419036 58.3526453,91.1698251 C59.0681818,90.082125 59.6851714,88.9344729 60.3535768,87.8125145 C60.4949702,87.5769889 60.1222057,87.3628747 59.9808122,87.5984003 C59.4837928,88.4548571 58.9996274,89.2856202 58.5068927,90.1335124 C58.1738107,90.569575 57.8866461,91.0388298 57.6499627,91.5338192 C57.414307,92.3131949 58.2883756,92.7885284 58.7639717,93.2938379 C59.3938152,93.9661565 59.432377,94.5442648 59.3895306,95.4649559 C59.3466841,96.3856469 59.2995529,97.2677974 59.2524218,98.1713593 C59.1538748,100.047 59.0510432,101.918358 58.9225037,103.789716 C58.6654247,107.588102 58.2926602,111.365076 57.7827869,115.133486 C57.6156855,116.379631 57.5557004,117.467331 58.2840909,118.559313 C59.2781297,120.019572 60.4692623,121.377056 61.5532787,122.764516 C61.5935044,122.805051 61.6482613,122.827851 61.7053838,122.827851 C61.7625062,122.827851 61.8172631,122.805051 61.8574888,122.764516 C62.8429583,121.586888 63.9998137,120.430671 64.8567437,119.150268 C65.6194113,118.006899 65.0495529,116.520946 64.8567437,115.266237 C64.285457,111.666263 63.7141704,108.064863 63.1428838,104.462034 L62.2859538,99.0620744 C62.0288748,97.4433711 61.0562593,94.7155562 62.3330849,93.4051773 C63.2200075,92.4887686 63.4470939,92.3046303 62.6887109,91.1355668 C61.9303279,89.9665033 61.1847988,88.6903827 60.3150149,87.5727066 C60.1479136,87.3585924 59.8479881,87.6455054 60.0150894,87.8596196 L60.0150894,87.8596196 Z" id="Path" fill="#000000" fill-rule="nonzero"></path>
                <path d="M66.2021237,89.9279628 C65.5637109,90.685927 63.9569672,92.420252 62.8772355,91.6622877 C62.6544337,91.5038432 62.4487705,91.8764019 62.663003,92.0348465 C63.9912444,92.9641021 65.7136736,91.1783897 66.5191878,90.2320049 C66.6948584,90.022173 66.3949329,89.7181308 66.2149776,89.9279628 L66.2021237,89.9279628 Z" id="Path" fill="#000000" fill-rule="nonzero"></path>
                <path d="M58.9653502,89.3327253 C58.5368852,90.2448518 57.9456036,91.3925039 57.0029806,91.8335791 C56.4459762,92.0947984 56.0732116,91.7907563 55.5590537,91.5166901 C55.2505589,91.3539633 54.9463487,91.1869542 54.6421386,91.0199452 C53.0054024,90.1335124 51.1801416,89.3070316 49.7961997,88.0223464 C49.5905365,87.8382082 49.2863264,88.1422504 49.4919896,88.3263886 C51.1287258,89.8251879 53.3181818,90.8015487 55.2634128,91.8378614 C56.0046572,92.2318315 56.6944858,92.7585524 57.4614382,92.1761618 C58.2283905,91.5937712 58.8967958,90.4632482 59.3381148,89.5425572 C59.4580849,89.2941847 59.0896051,89.0757882 58.9653502,89.3241607 L58.9653502,89.3327253 Z" id="Path" fill="#000000" fill-rule="nonzero"></path>
                <path d="M67.6460507,88.8873678 C67.3332712,86.9046703 67.4275335,84.8748677 67.0761923,82.8921702 C66.9476528,82.1598997 66.7762668,81.3633949 66.1721311,80.8752145 C65.26807,80.1472262 63.8669896,79.8346195 62.7444113,79.6333522 C62.4744784,79.586247 62.3587928,79.9973463 62.6287258,80.0615806 C63.7898659,80.2714125 65.2295082,80.5668901 66.0093145,81.4961457 C66.6648659,82.2755214 66.7205663,83.3418101 66.8148286,84.3352999 C66.9605067,85.889769 66.9733607,87.4656495 67.2175857,89.0072717 C67.2604322,89.2813379 67.6717586,89.1657162 67.6460507,88.8959323 L67.6460507,88.8873678 Z" id="Path" fill="#000000" fill-rule="nonzero"></path>
                <path d="M47.0497392,85.0204654 C43.3520864,84.6650358 39.4230626,84.4252279 35.7254098,84.9433842 C34.4254318,85.0541022 33.2087306,85.6286761 32.29769,86.5620876 C31.2179583,87.7439979 30.5281297,89.3498544 29.9068554,90.7972664 C28.5700447,93.9190514 27.6531297,97.2206923 26.6419523,100.449534 L24.015462,108.838529 C23.9340537,109.099748 24.34538,109.211087 24.443927,108.949868 C26.1577869,103.434286 27.6874069,97.7859538 29.7397541,92.3859937 C30.3084961,90.8153971 31.0258538,89.3026081 31.882079,87.8681842 C32.9489568,86.1552706 34.4528689,85.4743875 36.4152385,85.2988138 C39.9570494,85.0189734 43.5172317,85.0691497 47.0497392,85.4486938 C47.3239568,85.4786697 47.3196721,85.0504413 47.0497392,85.0204654 Z" id="Path" fill="#000000" fill-rule="nonzero"></path>
                <path d="M59.9636736,70.7904358 C60.4380481,71.2626006 60.9978298,71.6404262 61.6132638,71.9038296 C61.8617735,72.0108867 62.0802906,71.6426103 61.8274963,71.5312709 C61.244701,71.2874445 60.7149761,70.9325503 60.2678838,70.4863937 C60.1838784,70.4024347 60.0476789,70.4024347 59.9636736,70.4863937 C59.8796683,70.5703526 59.8796683,70.7064769 59.9636736,70.7904358 L59.9636736,70.7904358 Z" id="Path" fill="#000000" fill-rule="nonzero"></path>
                <path d="M51.9256706,78.3657961 C51.9256706,78.3657961 48.6264903,78.4814178 48.0223547,80.1086857 C47.4182191,81.7359536 47.0583085,86.8318715 47.0583085,86.8318715" id="Path" stroke="#000000"></path>
                <path d="M67.226155,86.81046 C67.226155,86.81046 78.7561475,85.7270422 80.6328241,87.6669168 C86.494225,93.7049372 90.6846125,110.298787 90.6846125,110.298787" id="Path" stroke="#000000"></path>
                <path d="M60.1350596,71.0559374 C60.5949886,70.9582322 61.0725843,71.1076014 61.3947466,71.4499075 C61.5875559,71.6511749 61.8874814,71.3471327 61.6989568,71.1501477 C61.2674174,70.6974899 60.6292192,70.5054853 60.0193741,70.6448382 C59.7494411,70.7005079 59.8651267,71.1116071 60.1350596,71.0730666 L60.1350596,71.0559374 Z" id="Path" fill="#FFFFFF" fill-rule="nonzero"></path>
                <path d="M53.0739568,63.840289 C54.1245246,62.7847593 54.7537131,61.3824284 54.8435171,59.8963055 C54.8435171,59.8963055 68.5929583,61.6648887 67.1961624,56.9543764 C65.8593517,52.4108731 54.8649404,54.941703 52.7097615,57.309806 C52.5362686,57.5111028 52.3391885,57.6908211 52.1227645,57.8450915 C51.0730253,58.5602329 48.1080477,60.975441 48.7721684,65.0093525 C49.2540995,67.9413546 50.4292269,70.7160602 52.1998882,73.1028692 C52.1998882,73.1028692 52.1698957,68.6407293 51.9899404,68.4651556 C51.8099851,68.289582 49.4191505,67.2447047 49.9247392,65.3604998 C50.4303279,63.4762949 52.4955291,64.8723194 52.4955291,64.8723194 L53.0739568,63.840289 Z" id="Path" fill="#000000" fill-rule="nonzero"></path>
                <path d="M66.2192623,58.7015483 C66.2792474,58.7700648 67.2561475,61.1638615 66.7891207,63.1893818 C66.5066135,64.2878171 66.4310605,65.4291986 66.5663189,66.555257 L66.1164307,64.187154 C66.1164307,64.187154 65.7179583,59.6308039 65.2595007,59.0955184" id="Path" fill="#000000" fill-rule="nonzero"></path>
                <path d="M36.5266393,103.836821 C37.0465175,106.820895 37.3813586,109.83423 37.5292474,112.859593 C37.6106557,115.64736 37.3621461,118.426562 37.216468,121.222894 C37.216468,121.501242 37.6449329,121.501242 37.6449329,121.222894 C37.7948957,118.306658 38.0733979,115.369012 37.9448584,112.448494 C37.7737674,109.523789 37.4347217,106.611321 36.9293964,103.725482 C36.8908346,103.451415 36.4752235,103.567037 36.5009314,103.836821 L36.5266393,103.836821 Z" id="Path" fill="#000000" fill-rule="nonzero"></path>
                <path d="M78.7004471,103.45998 L78.0620343,111.93462 L77.7578241,115.964249 L77.5992921,118.08398 C77.5992921,118.32807 77.5007452,120.743278 77.5607303,120.70902 C77.8006706,120.580551 77.5864382,120.212275 77.3422131,120.340743 L77.282228,120.375002 C77.1991904,120.42372 77.1588761,120.521823 77.1836811,120.614809 C77.188517,120.736739 77.2689041,120.842723 77.3850596,120.880311 C77.4687203,120.92792 77.5738814,120.913906 77.6421386,120.846053 C77.8949329,120.606245 77.8606557,120.336461 77.8863636,119.989596 C77.9420641,119.283019 77.9934799,118.576442 78.0448957,117.869865 L78.4090909,112.996626 L79.1246274,103.45998 C79.1246274,103.185914 78.6961624,103.185914 78.6961624,103.45998 L78.7004471,103.45998 Z" id="Path" fill="#000000" fill-rule="nonzero"></path>
                <path d="M73.0232861,52.9889815 C71.8578614,53.7769217 70.7238574,54.6133945 69.6212742,55.4983999 C69.5655738,55.5412227 69.6426975,55.6183038 69.6983979,55.575481 C70.7895554,54.6961853 71.9164183,53.8639948 73.0789866,53.0789094 C73.134687,53.0403689 73.0789866,52.9504409 73.0232861,52.9889815 Z" id="Path" fill="#000000" fill-rule="nonzero"></path>
                <path d="M71.8621461,60.808432 C72.706985,60.2611447 73.6521922,59.8870551 74.6428838,59.707885 C74.7114382,59.707885 74.6814456,59.5922633 74.6171759,59.6051102 C73.6162545,59.7859528 72.6610111,60.1628909 71.8064456,60.7142217 C71.7464605,60.7527623 71.8064456,60.8469725 71.8621461,60.808432 L71.8621461,60.808432 Z" id="Path" fill="#000000" fill-rule="nonzero"></path>
                <path d="M68.4772727,49.3276287 L66.7634128,51.9483865 C66.724851,52.0040562 66.8191133,52.0597259 66.8576751,51.9997739 L68.571535,49.3790161 C68.6100969,49.3233464 68.5158346,49.2676767 68.4772727,49.3276287 Z" id="Path" fill="#000000" fill-rule="nonzero"></path>
                <path d="M62.2816692,48.9122472 C62.3505463,49.514657 62.3157671,50.1244048 62.1788376,50.7150887 C62.1788376,50.7836053 62.2688152,50.8135812 62.2816692,50.7450647 C62.4221255,50.1447639 62.4583578,49.5248092 62.3887854,48.9122472 C62.3887854,48.8437306 62.2730999,48.8437306 62.2816692,48.9122472 Z" id="Path" fill="#000000" fill-rule="nonzero"></path>
                <ellipse id="Oval" fill="#8F8FEF" fill-rule="nonzero" cx="57.5" cy="14.2129004" rx="14.2207526" ry="14.2129004"></ellipse>
                <polyline id="Path" stroke="#FFFFFF" stroke-width="5" points="52.0542101 14.7695973 55.310544 18.0241331 62.9415052 10.3973854"></polyline>
            </g>
        </g>
        <g id="Group-2" transform="translate(68.000000, 175.000000)">
            <polygon id="Path" fill="#ECECEC" fill-rule="nonzero" points="63.5 5 0 41.6721409 0 115 127 115 127 41.6721409"></polygon>
            <polygon id="Path" fill="#CCCCCC" fill-rule="nonzero" points="63.5 16 0 52.1028552 0 63 63.5 26.8971448 127 63 127 52.1028552"></polygon>
            <polygon id="Path" stroke="#000000" fill="#000000" fill-rule="nonzero" points="63.5 5 0 41.1028552 0 52 63.5 15.8971448 127 52 127 41.1028552"></polygon>
            <polygon id="Path" stroke="#000000" points="38 19.7450199 38 0 9 0 9 36"></polygon>
            <polygon id="Path" fill="#CCCCCC" fill-rule="nonzero" points="50 65 79 65 79 115 50 115"></polygon>
            <g id="Group" transform="translate(16.000000, 70.000000)" stroke="#000000" stroke-width="0.25">
                <polygon id="Path" points="0.0652098508 0 17.508845 0 17.508845 17.849861 0.0652098508 17.849861"></polygon>
                <line x1="8.7870274" y1="0" x2="8.7870274" y2="18" id="Path"></line>
                <line x1="17.5740548" y1="9.00834106" x2="0" y2="9.00834106" id="Path"></line>
                <polygon id="Path" points="76.491155 0 93.9347901 0 93.9347901 17.849861 76.491155 17.849861"></polygon>
                <line x1="85.2129726" y1="0" x2="85.2129726" y2="18" id="Path"></line>
                <line x1="94" y1="9.00834106" x2="76.4259452" y2="9.00834106" id="Path"></line>
            </g>
            <path d="M8.15360193,10.25 L35.8463981,10.25 C35.9373159,10.2181135 36,10.11609 36,10 C36,9.88391001 35.9373159,9.78188647 35.8463981,9.75 L8.15360193,9.75 C8.06268405,9.78188647 8,9.88391001 8,10 C8,10.11609 8.06268405,10.2181135 8.15360193,10.25 L8.15360193,10.25 Z" id="Path" fill="#000000" fill-rule="nonzero"></path>
            <path d="M8.15360193,19.25 L35.8463981,19.25 C35.9373159,19.2181135 36,19.11609 36,19 C36,18.88391 35.9373159,18.7818865 35.8463981,18.75 L8.15360193,18.75 C8.06268405,18.7818865 8,18.88391 8,19 C8,19.11609 8.06268405,19.2181135 8.15360193,19.25 L8.15360193,19.25 Z" id="Path" fill="#000000" fill-rule="nonzero"></path>
            <path d="M8.15360193,29.25 L35.8463981,29.25 C35.9373159,29.2181135 36,29.11609 36,29 C36,28.88391 35.9373159,28.7818865 35.8463981,28.75 L8.15360193,28.75 C8.06268405,28.7818865 8,28.88391 8,29 C8,29.11609 8.06268405,29.2181135 8.15360193,29.25 L8.15360193,29.25 Z" id="Path" fill="#000000" fill-rule="nonzero"></path>
            <polygon id="Path" stroke="#000000" points="63.5 5 0 41.6721409 0 115 127 115 127 41.6721409"></polygon>
        </g>
        <g id="Group-3" transform="translate(560.485128, 244.535036) rotate(23.000000) translate(-560.485128, -244.535036) translate(496.985128, 180.996974)" fill-rule="nonzero">
            <path d="M121.057258,89.7900523 C123.081721,89.4959536 124.819023,88.2144846 125.67683,86.3825631 C126.534637,84.5506416 126.397131,82.4156084 125.311193,80.7054047 C117.67455,56.004984 108.728242,31.7168627 98.5091962,7.94128988 C97.8840084,5.96256336 96.6518945,4.22370358 94.9826176,2.96429397 C92.2936015,1.33427348 88.8111051,2.48615463 85.8796367,3.63803578 L8.03041451,34.6518924 C5.62002533,35.3777481 3.45589247,36.7377589 1.77073753,38.5856752 C-0.786031943,41.9543842 0.338064979,46.714044 1.63849083,50.7130276 C9.68767069,75.4316566 20.2783731,99.2741959 33.2454514,121.868856 C33.9079131,123.803718 35.4800286,125.302173 37.4636112,125.889377 C39.4471938,126.476582 41.5963657,126.079747 43.230077,124.824626 C69.8998275,114.479429 94.5417953,100.135249 121.057258,89.7900523 Z" id="Path" fill="#FFFFFF"></path>
            <path d="M43.6208081,125.726275 C70.2905586,115.381287 94.9325264,101.037396 121.447989,90.6924087 C123.472452,90.398316 125.209754,89.1168729 126.067561,87.2849883 C126.925368,85.4531038 126.787862,83.3181137 125.701925,81.6079446 C118.065243,56.9151476 109.118929,32.6347534 98.8999273,8.86703243 C98.2747395,6.88834588 97.0426256,5.14952121 95.3733487,3.89013704 C92.6843326,2.26014947 89.2018362,3.39027418 86.2703678,4.56386524 L8.42114564,35.5770955 C6.01229227,36.2948196 3.84790283,37.6474496 2.16146866,39.4890657 C-0.395300815,42.8794398 0.728796108,47.6172704 2.02922196,51.6379064 C10.0784018,76.3560362 20.6691042,100.198094 33.6361825,122.792297 C34.2953224,124.730223 35.8696051,126.23068 37.856233,126.81445 C39.8428609,127.398219 41.9933259,126.992278 43.6208081,125.726275 L43.6208081,125.726275 Z" id="Path" fill="#CCCCCC"></path>
            <path d="M44.0150646,126.037076 C57.2856988,120.74592 70.140257,114.510699 82.9729165,108.231568 C89.0388664,105.267643 95.0829176,102.281762 101.192665,99.4495667 C108.222159,96.1563162 115.711527,93.6095358 122.609629,90.1186903 C125.369437,89.1457363 127.155031,86.4604632 126.989376,83.5321893 C126.650764,80.9749494 125.98085,78.4729226 124.996591,76.0894432 C123.726465,72.0716776 122.434439,68.031957 121.120515,64.0141914 C116.390388,49.6409826 111.236885,35.3995038 105.660007,21.289755 C103.470134,15.6912292 101.564944,8.57780815 98.126842,3.5501124 C96.0829575,0.495386501 92.2272267,-0.772035724 88.7760816,0.476411945 C82.2064607,2.05717218 76.0310171,5.46019769 69.8555734,7.96306806 L47.9568372,16.7450694 C34.2920257,22.2777302 20.1235434,27.1956509 6.76531424,33.4528269 C-4.07456022,38.5244326 0.63366808,49.0628342 3.69949116,58.0424305 C8.78288431,72.7567354 14.7502591,87.1489594 21.56886,101.140102 C24.9412653,108.077883 28.4669619,114.971754 32.2992407,121.66803 C35.2555701,126.849411 38.168102,128.122801 43.9493684,126.059031 C45.2632926,125.576021 44.6939255,123.446385 43.3581025,123.86353 C40.2207549,124.356159 37.0246228,123.458943 34.598608,121.40457 C33.8172276,120.308311 33.1564217,119.130526 32.6277218,117.891769 C31.3356963,115.520629 30.0655696,113.171444 28.8173417,110.778348 C26.0143034,105.421328 23.335358,100.00576 20.7805054,94.531646 C15.8605894,83.9639711 11.4297451,73.1840645 7.48797253,62.1919261 C5.6081954,57.361468 3.9782233,52.4370032 2.60455434,47.4381639 C0.129997146,37.2510424 8.2544283,35.1653171 15.7437961,32.0696617 L48.4824068,18.8966597 L82.1845619,5.24064766 C84.4663976,4.00073903 86.9152542,3.09854581 89.4549424,2.56213726 L92.893044,3.59402241 C94.7126715,3.15622561 96.5542831,4.22923145 97.0757026,6.03102777 C97.966102,7.64728998 98.699434,9.3456396 99.2655762,11.1026335 C101.586842,16.606021 103.820513,22.1606368 105.96659,27.766481 C110.171147,38.6122526 114.112919,49.5458443 117.791907,60.5672559 C119.565705,65.9242767 121.317604,71.2812975 122.981908,76.6602733 C124.230136,80.6121739 126.244819,84.9592645 121.930768,87.989055 C119.688966,89.1973213 117.334575,90.1826765 114.901274,90.9310254 C90.812664,101.140102 67.8627884,114.203329 43.4675962,123.86353 C42.1317733,124.43436 42.7011405,126.563996 44.0150646,126.037076 L44.0150646,126.037076 Z" id="Path" fill="#000000"></path>
            <path d="M44.1826852,52.0065839 C49.9463624,48.9430802 55.6886927,45.8795765 61.5591047,43.0130124 C64.4622903,41.6125536 67.3868228,40.2558591 70.3327023,38.9866933 C75.0717258,36.9516516 75.3065423,37.9801135 77.5693193,42.312783 C80.7983734,48.1191183 83.2878027,54.3259111 84.9767119,60.7813336 C85.3396101,62.3349676 87.3889176,69.5342013 86.0867535,71.3723034 L80.3230762,72.225708 L81.5611995,69.6217299 C82.9386599,67.4478617 84.7061653,65.561786 86.7698559,64.063659 C87.8585505,63.2102544 86.7698559,61.3283879 85.7025083,62.1599103 C82.2656489,64.8076527 76.8435229,69.9280803 78.167034,75.0047435 C78.5663927,76.7969179 79.9432442,78.1891498 81.6968735,78.5740139 C83.4505028,78.9588779 85.2627414,78.2665466 86.3429169,76.7990814 C90.0999806,72.4226476 88.0506731,64.1293055 86.7912029,59.2933462 C84.2501132,50.8358201 80.6631262,42.7465943 76.1177265,35.2229602 C75.8800924,34.7927546 75.3863125,34.5848674 74.9222972,34.7196704 C64.0112182,39.1883638 53.3625097,44.3028129 43.0299497,50.0371887 C41.8131734,50.6936537 42.8805211,52.5755203 44.0972974,51.9190552 L44.1826852,52.0065839 Z" id="Path" fill="#000000"></path>
            <path d="M41.3950588,51.4380419 C46.392186,58.1164857 50.3900849,65.4279698 53.273271,73.1612926 C54.4518485,76.3623814 56.6472379,81.0646704 56.4854724,84.486524 C57.548503,87.3564656 55.6535353,88.76936 50.8698973,88.725207 C50.5162362,87.2642074 50.580088,85.7392589 51.0547722,84.3099122 C51.84544,81.5574013 53.7834166,79.2352245 56.4161443,77.8856581 C56.8953425,77.5527349 57.0332654,76.9274896 56.7354514,76.4381445 C56.4376375,75.9487994 55.8006167,75.7539653 55.2606762,75.9870814 C50.26993,78.5548087 47.5886915,83.9096494 48.6282892,89.2329659 C49.6682105,93.2067313 53.8047863,95.6792964 57.1787532,92.1912135 C61.6619695,87.5772304 57.5716124,78.2609582 55.8384102,73.3599809 C52.8693329,65.1557329 48.682317,57.4013294 43.4055733,50.3342182 C42.5505269,49.1862415 40.5631218,50.3342182 41.4181682,51.4380419 L41.3950588,51.4380419 Z" id="Path" fill="#000000"></path>
            <path d="M53.2203382,64.9160563 C62.7266075,59.7978724 72.3207622,54.8890687 82.0028023,50.1896453 C83.2771404,49.5615045 82.178573,47.5607599 80.9042349,48.1656362 C71.2221949,52.8185307 61.6280402,57.7350892 52.1217709,62.9153117 C50.8694042,63.5899814 51.9679715,65.590726 53.2203382,64.9160563 Z" id="Path" fill="#000000"></path>
        </g>
    </g>
</svg>